<svg xmlns="http://www.w3.org/2000/svg" xmlns:xlink="http://www.w3.org/1999/xlink" width="500" zoomAndPan="magnify" viewBox="0 0 375 374.999991" height="500" preserveAspectRatio="xMidYMid meet" version="1.0"><defs><clipPath id="0b40f9b0fd"><path d="M 31.03125 261 L 320 261 L 320 362 L 31.03125 362 Z M 31.03125 261 " clip-rule="nonzero"/></clipPath></defs><path fill="#93cadf" d="M 162.070312 142.910156 C 146.25 113.550781 125.941406 90.25 97.296875 76.714844 C 131.785156 75.644531 150.167969 92.03125 162.070312 142.910156 M 146.390625 181.886719 C 148.386719 183.597656 148.175781 184.808594 145.679688 185.519531 C 103.851562 194.144531 77.84375 163.429688 74.351562 124.027344 C 97.15625 142.765625 143.328125 131.792969 150.738281 168.492188 C 159.148438 175.902344 167.554688 184.738281 173.898438 193.5 C 176.675781 164.429688 181.808594 137.421875 189.714844 118.042969 C 192.707031 109.417969 197.769531 101.4375 204.464844 94.8125 C 218.003906 81.558594 239.167969 74.574219 257.695312 78.421875 C 230.546875 95.097656 250.425781 142.269531 193.5625 144.546875 C 198.265625 125.738281 209.382812 106.355469 227.625 95.882812 C 209.167969 101.367188 195.203125 119.539062 189.429688 138.136719 C 183.945312 167.566406 181.449219 201.339844 181.734375 234.6875 C 190.144531 221.21875 200.691406 209.390625 213.015625 199.699219 C 221.640625 158.941406 273.226562 171.199219 298.808594 150.179688 C 294.890625 194.429688 265.675781 228.988281 218.644531 219.296875 C 215.867188 218.441406 215.582031 217.085938 217.863281 215.234375 C 229.90625 202.621094 251.707031 189.296875 266.816406 184.238281 C 252.136719 185.878906 237.527344 191.933594 226.414062 199.273438 C 207.886719 213.382812 190.855469 233.976562 182.164062 251.859375 C 183.089844 278.867188 185.726562 305.015625 189.859375 327.675781 L 177.246094 329.386719 C 171.6875 299.101562 169.691406 251.71875 172.898438 207.039062 C 165.917969 193.859375 151.59375 178.253906 138.910156 167.921875 C 129.007812 161.4375 116.039062 156.019531 102.996094 154.523438 C 116.25 158.800781 135.703125 170.699219 146.390625 181.886719 Z M 146.390625 181.886719 " fill-opacity="1" fill-rule="evenodd"/><path fill="#a58cb9" d="M 287.195312 287.703125 C 351.253906 223.644531 351.253906 119.679688 287.195312 55.621094 C 260.6875 29.042969 227.269531 13.507812 192.707031 8.949219 C 235.460938 8.664062 276.71875 27.402344 309.355469 60.039062 C 427 177.683594 299.949219 374.992188 148.03125 334.160156 C 197.339844 341.144531 249.285156 325.679688 287.195312 287.703125 " fill-opacity="1" fill-rule="evenodd"/><path fill="#8ae9f2" d="M 76.492188 39.089844 C 121.382812 10.089844 179.527344 3.605469 231.972656 26.976562 C 288.191406 52.058594 323.320312 104.929688 328.378906 162.148438 C 300.734375 51.632812 185.65625 -8.222656 76.492188 39.089844 " fill-opacity="1" fill-rule="evenodd"/><g clip-path="url(#0b40f9b0fd)"><path fill="#b74e93" d="M 319.972656 284.566406 C 287.691406 336.296875 229.261719 365.65625 168.480469 360.8125 C 107.699219 355.964844 54.757812 317.558594 31.101562 261.410156 C 60.886719 310.503906 112.402344 342.285156 169.621094 346.914062 C 226.839844 351.476562 282.777344 328.246094 319.972656 284.566406 " fill-opacity="1" fill-rule="evenodd"/></g></svg>