<svg xmlns="http://www.w3.org/2000/svg" xmlns:xlink="http://www.w3.org/1999/xlink" width="500" zoomAndPan="magnify" viewBox="0 0 375 374.999991" height="500" preserveAspectRatio="xMidYMid meet" version="1.0"><defs><clipPath id="f8bb6ccdb2"><path d="M 48.949219 42 L 325.699219 42 L 325.699219 332.851562 L 48.949219 332.851562 Z M 48.949219 42 " clip-rule="nonzero"/></clipPath><clipPath id="eb21803ec7"><path d="M 48.949219 258 L 198 258 L 198 272 L 48.949219 272 Z M 48.949219 258 " clip-rule="nonzero"/></clipPath><clipPath id="301cb71c04"><path d="M 48.949219 289 L 146 289 L 146 302 L 48.949219 302 Z M 48.949219 289 " clip-rule="nonzero"/></clipPath><clipPath id="d72b47540d"><path d="M 169 258 L 325.699219 258 L 325.699219 332.851562 L 169 332.851562 Z M 169 258 " clip-rule="nonzero"/></clipPath><clipPath id="6425c56060"><path d="M 224 289 L 325.699219 289 L 325.699219 332.851562 L 224 332.851562 Z M 224 289 " clip-rule="nonzero"/></clipPath><clipPath id="098e143c07"><path d="M 295 319 L 325.699219 319 L 325.699219 332.851562 L 295 332.851562 Z M 295 319 " clip-rule="nonzero"/></clipPath></defs><g clip-path="url(#f8bb6ccdb2)"><path fill="#000000" d="M 325.128906 231.757812 C 325.042969 231.5625 324.929688 231.386719 324.824219 231.203125 C 324.71875 231.011719 324.625 230.808594 324.5 230.628906 C 324.488281 230.613281 324.46875 230.597656 324.457031 230.578125 C 323.292969 228.925781 321.375 227.835938 319.199219 227.835938 L 193.738281 227.835938 L 193.738281 205.578125 L 216.988281 185.554688 C 218.628906 185.679688 220.839844 185.796875 223.46875 185.796875 C 235.773438 185.796875 252.851562 183.386719 264.324219 171.910156 C 281.964844 154.265625 277.855469 122.894531 277.671875 121.566406 C 277.273438 118.707031 275.027344 116.460938 272.171875 116.066406 C 272.015625 116.042969 268.226562 115.527344 262.695312 115.527344 C 250.386719 115.527344 233.308594 117.9375 221.839844 129.414062 C 207.484375 143.773438 207.53125 167.210938 208.148438 176.167969 L 193.738281 188.574219 L 193.738281 141.109375 C 200.796875 135.066406 220.0625 116.496094 220.0625 93.5625 C 220.0625 66.09375 192.363281 44.816406 191.183594 43.921875 C 188.882812 42.179688 185.707031 42.179688 183.40625 43.921875 C 182.230469 44.8125 154.53125 66.09375 154.53125 93.5625 C 154.53125 116.496094 173.796875 135.066406 180.855469 141.109375 L 180.855469 188.707031 L 166.289062 176.167969 C 166.90625 167.210938 166.953125 143.773438 152.597656 129.414062 C 141.125 117.9375 124.046875 115.527344 111.742188 115.527344 C 106.207031 115.527344 102.421875 116.042969 102.261719 116.066406 C 99.40625 116.460938 97.160156 118.707031 96.765625 121.566406 C 96.582031 122.894531 92.46875 154.265625 110.113281 171.910156 C 121.582031 183.386719 138.660156 185.796875 150.96875 185.796875 C 153.59375 185.796875 155.808594 185.679688 157.445312 185.554688 L 180.855469 205.710938 L 180.855469 227.835938 L 55.394531 227.835938 C 51.835938 227.835938 48.949219 230.722656 48.949219 234.28125 C 48.949219 237.839844 51.835938 240.722656 55.394531 240.722656 L 261.640625 240.722656 C 247.515625 246.304688 234.332031 252.980469 222.769531 259.234375 C 209.824219 266.222656 196.714844 273.945312 184.035156 281.410156 C 179.171875 284.277344 174.304688 287.144531 169.433594 289.976562 C 151.203125 300.617188 131.636719 311.546875 111.945312 319.679688 L 55.394531 319.679688 C 51.835938 319.679688 48.949219 322.566406 48.949219 326.125 C 48.949219 329.683594 51.835938 332.570312 55.394531 332.570312 L 113.238281 332.570312 C 113.246094 332.570312 113.25 332.570312 113.257812 332.570312 C 113.675781 332.570312 114.101562 332.527344 114.523438 332.441406 C 114.71875 332.402344 114.902344 332.328125 115.09375 332.269531 C 115.292969 332.210938 115.492188 332.171875 115.6875 332.09375 C 115.707031 332.085938 115.730469 332.074219 115.75 332.066406 C 115.761719 332.0625 115.769531 332.058594 115.777344 332.054688 C 136.5625 323.574219 156.96875 312.175781 175.921875 301.113281 C 180.804688 298.273438 185.6875 295.394531 190.574219 292.519531 C 203.148438 285.109375 216.152344 277.449219 228.894531 270.570312 C 253.972656 257.007812 286.917969 241.359375 319.339844 240.761719 C 322.894531 240.699219 325.726562 237.757812 325.660156 234.199219 C 325.644531 233.386719 325.464844 232.621094 325.175781 231.910156 C 325.15625 231.859375 325.148438 231.808594 325.128906 231.757812 Z M 230.945312 138.527344 C 239.742188 129.730469 254.609375 128.414062 262.695312 128.414062 C 263.617188 128.414062 264.480469 128.433594 265.273438 128.460938 C 265.550781 136.785156 264.75 153.257812 255.214844 162.800781 C 246.417969 171.597656 231.546875 172.910156 223.46875 172.910156 C 222.542969 172.910156 221.679688 172.890625 220.886719 172.867188 C 220.605469 164.539062 221.40625 148.070312 230.945312 138.527344 Z M 167.414062 93.5625 C 167.414062 77.855469 180.554688 63.742188 187.292969 57.535156 C 194.039062 63.746094 207.175781 77.859375 207.175781 93.5625 C 207.175781 109.269531 194.027344 123.390625 187.285156 129.59375 C 180.539062 123.410156 167.414062 109.34375 167.414062 93.5625 Z M 119.21875 162.800781 C 109.679688 153.257812 108.878906 136.78125 109.160156 128.460938 C 109.953125 128.433594 110.816406 128.414062 111.742188 128.414062 C 119.820312 128.414062 134.691406 129.730469 143.488281 138.527344 C 153.027344 148.070312 153.828125 164.546875 153.546875 172.867188 C 152.753906 172.890625 151.890625 172.910156 150.964844 172.910156 C 142.886719 172.910156 128.015625 171.597656 119.21875 162.800781 Z M 119.21875 162.800781 " fill-opacity="1" fill-rule="nonzero"/></g><g clip-path="url(#eb21803ec7)"><path fill="#000000" d="M 55.394531 271.34375 L 190.929688 271.34375 C 194.488281 271.34375 197.371094 268.460938 197.371094 264.902344 C 197.371094 261.34375 194.488281 258.457031 190.929688 258.457031 L 55.394531 258.457031 C 51.835938 258.457031 48.949219 261.34375 48.949219 264.902344 C 48.949219 268.460938 51.835938 271.34375 55.394531 271.34375 Z M 55.394531 271.34375 " fill-opacity="1" fill-rule="nonzero"/></g><g clip-path="url(#301cb71c04)"><path fill="#000000" d="M 55.394531 301.984375 L 139.261719 301.984375 C 142.816406 301.984375 145.703125 299.101562 145.703125 295.542969 C 145.703125 291.984375 142.816406 289.097656 139.261719 289.097656 L 55.394531 289.097656 C 51.835938 289.097656 48.949219 291.984375 48.949219 295.542969 C 48.949219 299.101562 51.835938 301.984375 55.394531 301.984375 Z M 55.394531 301.984375 " fill-opacity="1" fill-rule="nonzero"/></g><g clip-path="url(#d72b47540d)"><path fill="#000000" d="M 319.089844 258.457031 C 283.875 259.171875 249.113281 275.621094 222.765625 289.875 C 212.507812 295.421875 203.058594 301.4375 193.921875 307.253906 C 187.035156 311.640625 179.914062 316.175781 172.390625 320.554688 C 169.316406 322.34375 168.273438 326.289062 170.0625 329.363281 C 171.257812 331.421875 173.417969 332.566406 175.636719 332.566406 C 176.734375 332.566406 177.851562 332.285156 178.871094 331.691406 C 186.617188 327.183594 193.847656 322.582031 200.839844 318.128906 C 210.199219 312.171875 219.042969 306.542969 228.894531 301.207031 C 253.964844 287.648438 286.898438 272 319.347656 271.34375 C 322.90625 271.273438 325.730469 268.328125 325.660156 264.773438 C 325.585938 261.214844 322.535156 258.488281 319.089844 258.457031 Z M 319.089844 258.457031 " fill-opacity="1" fill-rule="nonzero"/></g><g clip-path="url(#6425c56060)"><path fill="#000000" d="M 319.089844 289.097656 C 287.050781 289.75 259.898438 303.085938 227.730469 320.453125 C 224.597656 322.144531 223.429688 326.050781 225.121094 329.183594 C 226.285156 331.34375 228.503906 332.566406 230.792969 332.566406 C 231.828125 332.566406 232.875 332.316406 233.847656 331.792969 C 265.484375 314.710938 290.140625 302.578125 319.351562 301.984375 C 322.90625 301.914062 325.730469 298.96875 325.660156 295.414062 C 325.585938 291.855469 322.535156 289.09375 319.089844 289.097656 Z M 319.089844 289.097656 " fill-opacity="1" fill-rule="nonzero"/></g><g clip-path="url(#098e143c07)"><path fill="#000000" d="M 319.199219 319.679688 L 302.25 319.679688 C 298.691406 319.679688 295.804688 322.566406 295.804688 326.125 C 295.804688 329.683594 298.691406 332.566406 302.25 332.566406 L 319.199219 332.566406 C 322.757812 332.566406 325.640625 329.683594 325.640625 326.125 C 325.640625 322.566406 322.757812 319.679688 319.199219 319.679688 Z M 319.199219 319.679688 " fill-opacity="1" fill-rule="nonzero"/></g></svg>