<svg xmlns="http://www.w3.org/2000/svg" xmlns:xlink="http://www.w3.org/1999/xlink" width="500" zoomAndPan="magnify" viewBox="0 0 375 374.999991" height="500" preserveAspectRatio="xMidYMid meet" version="1.0"><defs><filter x="0%" y="0%" width="100%" height="100%" id="9fefd015b4"><feColorMatrix values="0 0 0 0 1 0 0 0 0 1 0 0 0 0 1 0 0 0 1 0" color-interpolation-filters="sRGB"/></filter><mask id="437485bcdf"><g filter="url(#9fefd015b4)"><rect x="-37.5" width="450" fill="#000000" y="-37.499999" height="449.999989" fill-opacity="0.6078"/></g></mask><clipPath id="d93dc27ff0"><path d="M 75 0.851562 L 109 0.851562 L 109 47 L 75 47 Z M 75 0.851562 " clip-rule="nonzero"/></clipPath><clipPath id="5d5b987981"><path d="M 0.425781 0.851562 L 63 0.851562 L 63 63 L 0.425781 63 Z M 0.425781 0.851562 " clip-rule="nonzero"/></clipPath><clipPath id="e89f4bca54"><path d="M 121 0.851562 L 183.425781 0.851562 L 183.425781 63 L 121 63 Z M 121 0.851562 " clip-rule="nonzero"/></clipPath><clipPath id="4bc8202699"><path d="M 0.425781 121 L 63 121 L 63 183.851562 L 0.425781 183.851562 Z M 0.425781 121 " clip-rule="nonzero"/></clipPath><clipPath id="ba1d39cf3d"><path d="M 121 121 L 183.425781 121 L 183.425781 183.851562 L 121 183.851562 Z M 121 121 " clip-rule="nonzero"/></clipPath><clipPath id="c74ae33bac"><path d="M 133 76 L 183.425781 76 L 183.425781 109 L 133 109 Z M 133 76 " clip-rule="nonzero"/></clipPath><clipPath id="fc4823c36c"><path d="M 0.425781 76 L 51 76 L 51 109 L 0.425781 109 Z M 0.425781 76 " clip-rule="nonzero"/></clipPath><clipPath id="afcfb53e01"><path d="M 75 138 L 109 138 L 109 183.851562 L 75 183.851562 Z M 75 138 " clip-rule="nonzero"/></clipPath><clipPath id="fc3ce4be6f"><rect x="0" width="187" y="0" height="188"/></clipPath><mask id="9ae902ed97"><g filter="url(#9fefd015b4)"><rect x="-37.5" width="450" fill="#000000" y="-37.499999" height="449.999989" fill-opacity="0.9373"/></g></mask><clipPath id="2880691835"><path d="M 63.828125 53 L 72.878906 53 L 72.878906 68.691406 L 63.828125 68.691406 Z M 63.828125 53 " clip-rule="nonzero"/></clipPath><clipPath id="2b6cf31075"><path d="M 36 68 L 46 68 L 46 84.175781 L 36 84.175781 Z M 36 68 " clip-rule="nonzero"/></clipPath><clipPath id="502b37ee2c"><path d="M 63.828125 37.222656 L 72.878906 37.222656 L 72.878906 53 L 63.828125 53 Z M 63.828125 37.222656 " clip-rule="nonzero"/></clipPath><clipPath id="51fa9b10d9"><path d="M 63.828125 21.738281 L 72.878906 21.738281 L 72.878906 37.558594 L 63.828125 37.558594 Z M 63.828125 21.738281 " clip-rule="nonzero"/></clipPath><clipPath id="b3c04df203"><path d="M 0.921875 50 L 15 50 L 15 59 L 0.921875 59 Z M 0.921875 50 " clip-rule="nonzero"/></clipPath><clipPath id="faeede1d97"><path d="M 0.921875 34 L 15 34 L 15 43 L 0.921875 43 Z M 0.921875 34 " clip-rule="nonzero"/></clipPath><clipPath id="a9a55428f1"><path d="M 28 0.925781 L 47 0.925781 L 47 12 L 28 12 Z M 28 0.925781 " clip-rule="nonzero"/></clipPath><clipPath id="09a1237c76"><path d="M 0.921875 16 L 19 16 L 19 27 L 0.921875 27 Z M 0.921875 16 " clip-rule="nonzero"/></clipPath><clipPath id="2d4420610a"><path d="M 59.195312 50.378906 L 72.878906 50.378906 L 72.878906 58.371094 L 59.195312 58.371094 Z M 59.195312 50.378906 " clip-rule="nonzero"/></clipPath><clipPath id="d998861d27"><path d="M 59.195312 34.726562 L 72.878906 34.726562 L 72.878906 42.71875 L 59.195312 42.71875 Z M 59.195312 34.726562 " clip-rule="nonzero"/></clipPath><clipPath id="9b57dece50"><path d="M 54.726562 16.578125 L 72.878906 16.578125 L 72.878906 27.066406 L 54.726562 27.066406 Z M 54.726562 16.578125 " clip-rule="nonzero"/></clipPath><clipPath id="14a92b61b3"><path d="M 0.921875 52 L 10 52 L 10 69 L 0.921875 69 Z M 0.921875 52 " clip-rule="nonzero"/></clipPath><clipPath id="85a4ebe510"><path d="M 0.921875 37 L 10 37 L 10 53 L 0.921875 53 Z M 0.921875 37 " clip-rule="nonzero"/></clipPath><clipPath id="94d563cb22"><path d="M 0.921875 21 L 10 21 L 10 38 L 0.921875 38 Z M 0.921875 21 " clip-rule="nonzero"/></clipPath><clipPath id="6d862a3f12"><path d="M 27 68 L 37 68 L 37 84.175781 L 27 84.175781 Z M 27 68 " clip-rule="nonzero"/></clipPath><clipPath id="9c5bbff8c6"><rect x="0" width="74" y="0" height="85"/></clipPath></defs><g mask="url(#437485bcdf)"><g transform="matrix(1, 0, 0, 1, 72, 95)"><g clip-path="url(#fc3ce4be6f)"><g clip-path="url(#d93dc27ff0)"><path fill="#d9d9d9" d="M 78.855469 33.53125 L 88.660156 33.53125 L 88.660156 43.335938 C 88.660156 45.140625 90.121094 46.601562 91.925781 46.601562 C 93.730469 46.601562 95.195312 45.140625 95.195312 43.335938 L 95.195312 33.53125 L 104.996094 33.53125 C 106.800781 33.53125 108.265625 32.066406 108.265625 30.261719 L 108.265625 4.121094 C 108.265625 2.316406 106.800781 0.851562 104.996094 0.851562 L 78.855469 0.851562 C 77.050781 0.851562 75.585938 2.316406 75.585938 4.121094 L 75.585938 30.261719 C 75.585938 32.066406 77.050781 33.53125 78.855469 33.53125 Z M 82.121094 7.386719 L 101.730469 7.386719 L 101.730469 26.996094 L 82.121094 26.996094 Z M 82.121094 7.386719 " fill-opacity="1" fill-rule="nonzero"/></g><g clip-path="url(#5d5b987981)"><path fill="#d9d9d9" d="M 3.695312 46.601562 L 26.570312 46.601562 C 30.867188 46.523438 30.859375 40.140625 26.570312 40.066406 C 26.570312 40.066406 6.960938 40.066406 6.960938 40.066406 L 6.960938 7.386719 L 39.640625 7.386719 L 39.640625 43.335938 C 39.640625 44.183594 39.996094 45.046875 40.597656 45.644531 C 40.597656 45.644531 56.9375 61.984375 56.9375 61.984375 C 57.574219 62.621094 58.410156 62.941406 59.246094 62.941406 C 62.03125 63.03125 63.648438 59.3125 61.558594 57.363281 C 61.558594 57.363281 46.175781 41.980469 46.175781 41.980469 L 46.175781 4.121094 C 46.175781 2.316406 44.714844 0.851562 42.910156 0.851562 L 3.695312 0.851562 C 1.890625 0.851562 0.425781 2.316406 0.425781 4.121094 L 0.425781 43.335938 C 0.425781 45.140625 1.890625 46.601562 3.695312 46.601562 Z M 3.695312 46.601562 " fill-opacity="1" fill-rule="nonzero"/></g><g clip-path="url(#e89f4bca54)"><path fill="#d9d9d9" d="M 180.160156 0.851562 L 140.945312 0.851562 C 139.140625 0.851562 137.675781 2.316406 137.675781 4.121094 L 137.675781 41.980469 L 122.292969 57.363281 C 121.019531 58.640625 121.019531 60.707031 122.292969 61.984375 C 123.570312 63.261719 125.640625 63.261719 126.914062 61.984375 L 142.296875 46.601562 L 180.160156 46.601562 C 181.964844 46.601562 183.425781 45.140625 183.425781 43.335938 C 183.425781 43.335938 183.425781 4.121094 183.425781 4.121094 C 183.425781 2.316406 181.964844 0.851562 180.160156 0.851562 Z M 176.890625 40.066406 L 144.210938 40.066406 L 144.210938 7.386719 L 176.890625 7.386719 Z M 176.890625 40.066406 " fill-opacity="1" fill-rule="nonzero"/></g><g clip-path="url(#4bc8202699)"><path fill="#d9d9d9" d="M 3.695312 183.851562 L 42.910156 183.851562 C 44.714844 183.851562 46.175781 182.390625 46.175781 180.585938 L 46.175781 142.722656 L 61.558594 127.339844 C 62.835938 126.066406 62.835938 123.996094 61.558594 122.71875 C 60.28125 121.445312 58.214844 121.445312 56.9375 122.71875 L 41.554688 138.101562 L 3.695312 138.101562 C 1.890625 138.101562 0.425781 139.566406 0.425781 141.371094 L 0.425781 180.585938 C 0.425781 182.390625 1.890625 183.851562 3.695312 183.851562 Z M 6.960938 144.636719 L 39.640625 144.636719 L 39.640625 177.316406 L 6.960938 177.316406 Z M 6.960938 144.636719 " fill-opacity="1" fill-rule="nonzero"/></g><g clip-path="url(#ba1d39cf3d)"><path fill="#d9d9d9" d="M 180.160156 138.101562 L 157.285156 138.101562 C 152.984375 138.179688 152.992188 144.5625 157.285156 144.636719 C 157.285156 144.636719 176.890625 144.636719 176.890625 144.636719 L 176.890625 177.316406 L 144.210938 177.316406 L 144.210938 141.371094 C 144.210938 140.945312 144.125 140.519531 143.960938 140.121094 C 143.792969 139.722656 143.554688 139.359375 143.253906 139.058594 L 126.914062 122.71875 C 123.902344 119.726562 119.269531 124.292969 122.292969 127.339844 C 122.292969 127.339844 137.675781 142.722656 137.675781 142.722656 L 137.675781 180.585938 C 137.675781 182.390625 139.140625 183.851562 140.945312 183.851562 L 180.160156 183.851562 C 181.964844 183.851562 183.425781 182.390625 183.425781 180.585938 L 183.425781 141.371094 C 183.425781 139.566406 181.964844 138.101562 180.160156 138.101562 Z M 180.160156 138.101562 " fill-opacity="1" fill-rule="nonzero"/></g><g clip-path="url(#c74ae33bac)"><path fill="#d9d9d9" d="M 180.160156 76.011719 L 154.015625 76.011719 C 152.210938 76.011719 150.746094 77.476562 150.746094 79.28125 L 150.746094 89.085938 L 136.566406 89.085938 C 132.28125 89.152344 132.261719 95.546875 136.566406 95.621094 C 136.566406 95.621094 150.746094 95.621094 150.746094 95.621094 L 150.746094 105.421875 C 150.746094 107.226562 152.210938 108.691406 154.015625 108.691406 L 180.160156 108.691406 C 181.964844 108.691406 183.425781 107.226562 183.425781 105.421875 L 183.425781 79.28125 C 183.425781 77.476562 181.964844 76.011719 180.160156 76.011719 Z M 176.890625 102.15625 L 157.285156 102.15625 L 157.285156 82.546875 L 176.890625 82.546875 Z M 176.890625 102.15625 " fill-opacity="1" fill-rule="nonzero"/></g><g clip-path="url(#fc4823c36c)"><path fill="#d9d9d9" d="M 3.695312 108.691406 L 29.835938 108.691406 C 31.640625 108.691406 33.105469 107.226562 33.105469 105.421875 L 33.105469 95.621094 L 47.285156 95.621094 C 51.570312 95.550781 51.59375 89.15625 47.285156 89.085938 C 47.285156 89.085938 33.105469 89.085938 33.105469 89.085938 L 33.105469 79.28125 C 33.105469 77.476562 31.640625 76.011719 29.835938 76.011719 L 3.695312 76.011719 C 1.890625 76.011719 0.425781 77.476562 0.425781 79.28125 L 0.425781 105.421875 C 0.425781 107.226562 1.890625 108.691406 3.695312 108.691406 Z M 6.960938 82.546875 L 26.570312 82.546875 L 26.570312 102.15625 L 6.960938 102.15625 Z M 6.960938 82.546875 " fill-opacity="1" fill-rule="nonzero"/></g><path fill="#d9d9d9" d="M 123.421875 75.464844 C 123.300781 74.480469 122.664062 73.714844 121.859375 73.183594 C 121.859375 73.183594 93.558594 56.84375 93.558594 56.84375 C 92.546875 56.257812 91.304688 56.257812 90.292969 56.84375 L 61.992188 73.183594 C 60.996094 73.804688 60.390625 74.835938 60.359375 76.011719 C 60.359375 76.011719 60.359375 108.691406 60.359375 108.691406 C 60.359375 109.859375 60.980469 110.9375 61.992188 111.523438 L 90.292969 127.863281 C 91.328125 128.410156 92.523438 128.421875 93.558594 127.863281 C 93.558594 127.863281 121.859375 111.523438 121.859375 111.523438 C 122.871094 110.9375 123.496094 109.859375 123.496094 108.691406 L 123.496094 76.011719 C 123.472656 75.828125 123.449219 75.648438 123.421875 75.464844 Z M 91.925781 63.449219 L 113.691406 76.011719 L 91.925781 88.578125 L 70.160156 76.011719 Z M 66.894531 81.671875 L 88.660156 94.238281 L 88.660156 119.371094 L 66.894531 106.804688 Z M 95.195312 119.371094 L 95.195312 94.238281 L 116.957031 81.671875 L 116.957031 106.804688 Z M 95.195312 119.371094 " fill-opacity="1" fill-rule="nonzero"/><g clip-path="url(#afcfb53e01)"><path fill="#d9d9d9" d="M 91.925781 138.101562 C 90.121094 138.101562 88.660156 139.566406 88.660156 141.371094 L 88.660156 151.171875 L 78.855469 151.171875 C 77.050781 151.171875 75.585938 152.636719 75.585938 154.441406 L 75.585938 180.585938 C 75.585938 182.390625 77.050781 183.851562 78.855469 183.851562 L 104.996094 183.851562 C 106.800781 183.851562 108.265625 182.390625 108.265625 180.585938 L 108.265625 154.441406 C 108.265625 152.636719 106.800781 151.171875 104.996094 151.171875 L 95.195312 151.171875 L 95.195312 141.371094 C 95.195312 139.566406 93.730469 138.101562 91.925781 138.101562 Z M 101.730469 177.316406 L 82.121094 177.316406 L 82.121094 157.710938 L 101.730469 157.710938 Z M 101.730469 177.316406 " fill-opacity="1" fill-rule="nonzero"/></g></g></g></g><g mask="url(#9ae902ed97)"><g transform="matrix(1, 0, 0, 1, 127, 145)"><g clip-path="url(#9c5bbff8c6)"><path fill="#ffffff" d="M 18.773438 57.964844 L 14.476562 55.46875 L 9.933594 58.105469 L 9.933594 68.5 L 14.191406 66.027344 L 14.191406 60.59375 L 18.773438 57.964844 " fill-opacity="1" fill-rule="nonzero"/><path fill="#ffffff" d="M 14.226562 44.929688 L 18.671875 42.378906 L 14.375 39.882812 L 9.964844 42.445312 L 9.964844 52.839844 L 14.226562 50.363281 L 14.226562 44.929688 " fill-opacity="1" fill-rule="nonzero"/><path fill="#ffffff" d="M 37.015625 16.578125 L 41.273438 19.050781 L 41.273438 13.839844 L 46.019531 11.117188 L 46.019531 6.125 L 37.015625 11.351562 L 37.015625 16.578125 " fill-opacity="1" fill-rule="nonzero"/><path fill="#ffffff" d="M 27.765625 26.808594 L 27.765625 21.667969 L 32.511719 18.945312 L 32.511719 13.953125 L 23.507812 19.179688 L 23.507812 24.335938 L 27.765625 26.808594 " fill-opacity="1" fill-rule="nonzero"/><path fill="#ffffff" d="M 14.191406 29.386719 L 18.9375 26.664062 L 18.9375 21.667969 L 9.933594 26.898438 L 9.933594 37.292969 L 14.191406 34.820312 L 14.191406 29.386719 " fill-opacity="1" fill-rule="nonzero"/><path fill="#ffffff" d="M 32.203125 66 L 32.203125 65.851562 L 27.785156 63.285156 L 27.785156 63.160156 L 23.199219 65.824219 L 23.199219 76.214844 L 27.75 73.574219 L 27.75 68.554688 L 32.203125 66 " fill-opacity="1" fill-rule="nonzero"/><path fill="#ffffff" d="M 32.230469 50.339844 L 27.75 47.738281 L 27.75 47.535156 L 23.230469 50.160156 L 23.230469 60.554688 L 27.683594 57.96875 L 27.765625 57.921875 L 27.785156 57.910156 L 27.785156 52.890625 L 32.230469 50.339844 " fill-opacity="1" fill-rule="nonzero"/><path fill="#ffffff" d="M 50.28125 24.492188 L 50.386719 24.429688 L 54.664062 26.914062 L 54.832031 26.820312 L 54.832031 21.800781 L 59.285156 19.246094 L 59.285156 13.839844 L 50.28125 19.066406 L 50.28125 24.492188 " fill-opacity="1" fill-rule="nonzero"/><path fill="#ffffff" d="M 36.773438 32.171875 L 36.8125 32.148438 L 41.21875 34.707031 L 41.324219 34.644531 L 41.324219 29.628906 L 45.777344 27.074219 L 45.777344 21.667969 L 36.773438 26.894531 L 36.773438 32.171875 " fill-opacity="1" fill-rule="nonzero"/><path fill="#ffffff" d="M 27.75 42.363281 L 27.75 37.34375 L 32.203125 34.792969 L 32.203125 29.386719 L 23.199219 34.613281 L 23.199219 45.007812 L 27.75 42.363281 " fill-opacity="1" fill-rule="nonzero"/><g clip-path="url(#2880691835)"><path fill="#ffffff" d="M 63.839844 68.632812 L 72.84375 63.402344 L 72.84375 53.007812 L 63.839844 58.238281 L 63.839844 68.632812 " fill-opacity="1" fill-rule="nonzero"/></g><path fill="#ffffff" d="M 50.332031 66.066406 L 50.332031 76.457031 L 59.335938 71.230469 L 59.335938 60.835938 L 50.332031 66.066406 " fill-opacity="1" fill-rule="nonzero"/><g clip-path="url(#2b6cf31075)"><path fill="#ffffff" d="M 36.753906 73.78125 L 36.753906 84.175781 L 45.761719 78.945312 L 45.761719 68.554688 L 36.753906 73.78125 " fill-opacity="1" fill-rule="nonzero"/></g><g clip-path="url(#502b37ee2c)"><path fill="#ffffff" d="M 72.878906 37.34375 L 63.871094 42.574219 L 63.871094 52.96875 L 68.324219 50.382812 L 72.878906 47.738281 L 72.878906 37.34375 " fill-opacity="1" fill-rule="nonzero"/></g><path fill="#ffffff" d="M 59.371094 45.171875 L 50.363281 50.402344 L 50.363281 60.796875 L 54.816406 58.210938 L 54.832031 58.199219 L 59.304688 55.605469 L 59.371094 55.566406 L 59.371094 45.171875 " fill-opacity="1" fill-rule="nonzero"/><path fill="#ffffff" d="M 45.792969 58.273438 L 45.792969 52.890625 L 36.789062 58.121094 L 36.789062 68.515625 L 41.242188 65.929688 L 41.324219 65.878906 L 45.667969 63.359375 L 45.792969 63.285156 L 45.792969 58.273438 " fill-opacity="1" fill-rule="nonzero"/><g clip-path="url(#51fa9b10d9)"><path fill="#ffffff" d="M 63.839844 37.421875 L 68.425781 34.757812 L 72.84375 32.191406 L 72.84375 21.800781 L 63.839844 27.027344 L 63.839844 37.421875 " fill-opacity="1" fill-rule="nonzero"/></g><path fill="#ffffff" d="M 59.335938 29.628906 L 50.332031 34.855469 L 50.332031 45.25 L 54.917969 42.585938 L 59.335938 40.019531 L 59.335938 29.628906 " fill-opacity="1" fill-rule="nonzero"/><path fill="#ffffff" d="M 45.761719 37.34375 L 36.753906 42.574219 L 36.753906 52.96875 L 41.339844 50.304688 L 41.347656 50.300781 L 41.359375 50.296875 L 45.761719 47.738281 L 45.761719 37.34375 " fill-opacity="1" fill-rule="nonzero"/><g clip-path="url(#b3c04df203)"><path fill="#ffbd59" d="M 14.476562 55.46875 L 14.226562 55.324219 L 14.226562 50.363281 L 9.964844 52.839844 L 5.507812 50.25 L 0.925781 52.878906 L 9.933594 58.105469 L 14.476562 55.46875 " fill-opacity="1" fill-rule="nonzero"/></g><g clip-path="url(#faeede1d97)"><path fill="#ffbd59" d="M 14.375 39.882812 L 14.191406 39.777344 L 14.191406 34.820312 L 9.933594 37.292969 L 5.40625 34.664062 L 0.960938 37.214844 L 9.964844 42.445312 L 14.375 39.882812 " fill-opacity="1" fill-rule="nonzero"/></g><g clip-path="url(#a9a55428f1)"><path fill="#ffbd59" d="M 46.019531 6.125 L 37.070312 0.925781 L 28.007812 6.125 L 37.015625 11.351562 L 46.019531 6.125 " fill-opacity="1" fill-rule="nonzero"/></g><path fill="#ffbd59" d="M 32.511719 13.953125 L 28.007812 11.335938 L 23.5625 8.753906 L 14.5 13.953125 L 23.507812 19.179688 L 32.511719 13.953125 " fill-opacity="1" fill-rule="nonzero"/><g clip-path="url(#09a1237c76)"><path fill="#ffbd59" d="M 18.9375 21.667969 L 14.5 19.09375 L 9.988281 16.472656 L 0.925781 21.667969 L 9.933594 26.898438 L 18.9375 21.667969 " fill-opacity="1" fill-rule="nonzero"/></g><path fill="#ffbd59" d="M 27.785156 58.027344 L 27.765625 58.015625 L 27.683594 57.96875 L 23.230469 60.554688 L 18.773438 57.964844 L 14.191406 60.59375 L 23.199219 65.824219 L 27.785156 63.160156 L 27.785156 58.027344 " fill-opacity="1" fill-rule="nonzero"/><path fill="#ffbd59" d="M 27.75 42.363281 L 23.199219 45.007812 L 18.671875 42.378906 L 14.226562 44.929688 L 23.230469 50.160156 L 27.75 47.535156 L 27.75 42.363281 " fill-opacity="1" fill-rule="nonzero"/><path fill="#ffbd59" d="M 50.28125 19.066406 L 59.285156 13.839844 L 50.335938 8.640625 L 46.019531 11.117188 L 41.273438 13.839844 L 50.28125 19.066406 " fill-opacity="1" fill-rule="nonzero"/><path fill="#ffbd59" d="M 27.765625 21.667969 L 36.773438 26.894531 L 45.777344 21.667969 L 41.273438 19.050781 L 37.015625 16.578125 L 36.828125 16.46875 L 32.511719 18.945312 L 27.765625 21.667969 " fill-opacity="1" fill-rule="nonzero"/><path fill="#ffbd59" d="M 14.191406 29.386719 L 23.199219 34.613281 L 32.203125 29.386719 L 27.765625 26.808594 L 23.507812 24.335938 L 23.253906 24.1875 L 18.9375 26.664062 L 14.191406 29.386719 " fill-opacity="1" fill-rule="nonzero"/><g clip-path="url(#2d4420610a)"><path fill="#ffbd59" d="M 59.414062 50.378906 L 59.371094 50.40625 L 59.371094 55.566406 L 59.304688 55.605469 L 63.839844 58.238281 L 72.84375 53.007812 L 68.324219 50.382812 L 63.871094 52.96875 L 59.414062 50.378906 " fill-opacity="1" fill-rule="nonzero"/></g><path fill="#ffbd59" d="M 50.363281 60.796875 L 45.90625 58.207031 L 45.792969 58.273438 L 45.792969 63.285156 L 45.667969 63.359375 L 50.332031 66.066406 L 59.335938 60.835938 L 54.832031 58.21875 L 54.816406 58.210938 L 50.363281 60.796875 " fill-opacity="1" fill-rule="nonzero"/><path fill="#ffbd59" d="M 36.789062 68.515625 L 32.332031 65.925781 L 32.203125 66 L 27.75 68.554688 L 36.753906 73.78125 L 45.761719 68.554688 L 41.324219 65.976562 L 41.242188 65.929688 L 36.789062 68.515625 " fill-opacity="1" fill-rule="nonzero"/><g clip-path="url(#d998861d27)"><path fill="#ffbd59" d="M 59.335938 34.808594 L 59.335938 39.941406 L 63.871094 42.574219 L 72.878906 37.34375 L 68.425781 34.757812 L 63.839844 37.421875 L 59.335938 34.808594 " fill-opacity="1" fill-rule="nonzero"/></g><path fill="#ffbd59" d="M 50.332031 45.25 L 45.804688 42.621094 L 45.761719 42.648438 L 45.761719 47.730469 L 50.363281 50.402344 L 59.371094 45.171875 L 54.917969 42.585938 L 50.332031 45.25 " fill-opacity="1" fill-rule="nonzero"/><path fill="#ffbd59" d="M 41.359375 50.316406 L 41.339844 50.304688 L 36.753906 52.96875 L 32.230469 50.339844 L 27.785156 52.890625 L 36.789062 58.121094 L 45.792969 52.890625 L 41.359375 50.316406 " fill-opacity="1" fill-rule="nonzero"/><g clip-path="url(#9b57dece50)"><path fill="#ffbd59" d="M 63.839844 27.027344 L 72.84375 21.800781 L 63.894531 16.601562 L 59.285156 19.246094 L 54.832031 21.800781 L 63.839844 27.027344 " fill-opacity="1" fill-rule="nonzero"/></g><path fill="#ffbd59" d="M 45.972656 26.960938 L 45.777344 27.074219 L 41.324219 29.628906 L 50.332031 34.855469 L 59.335938 29.628906 L 54.832031 27.011719 L 54.664062 26.914062 L 50.386719 24.429688 L 50.28125 24.492188 L 45.972656 26.960938 " fill-opacity="1" fill-rule="nonzero"/><path fill="#ffbd59" d="M 36.753906 42.574219 L 45.761719 37.34375 L 41.324219 34.769531 L 41.21875 34.707031 L 36.8125 32.148438 L 36.773438 32.171875 L 32.335938 34.714844 L 32.203125 34.792969 L 27.75 37.34375 L 36.753906 42.574219 " fill-opacity="1" fill-rule="nonzero"/><path fill="#d9d9d9" d="M 27.683594 57.96875 L 27.765625 58.015625 L 27.765625 57.921875 Z M 27.683594 57.96875 " fill-opacity="1" fill-rule="nonzero"/><g clip-path="url(#14a92b61b3)"><path fill="#d9d9d9" d="M 0.925781 52.878906 L 0.925781 63.273438 L 9.933594 68.5 L 9.933594 58.105469 L 0.925781 52.878906 " fill-opacity="1" fill-rule="nonzero"/></g><path fill="#d9d9d9" d="M 32.203125 34.636719 L 32.203125 34.6875 L 32.246094 34.664062 Z M 32.203125 34.636719 " fill-opacity="1" fill-rule="nonzero"/><g clip-path="url(#85a4ebe510)"><path fill="#d9d9d9" d="M 9.964844 42.445312 L 0.960938 37.214844 L 0.960938 47.609375 L 5.507812 50.25 L 9.964844 52.839844 L 9.964844 42.445312 " fill-opacity="1" fill-rule="nonzero"/></g><path fill="#d9d9d9" d="M 32.511719 18.945312 L 36.828125 16.46875 L 37.015625 16.578125 L 37.015625 11.351562 L 28.007812 6.125 L 28.007812 11.335938 L 32.511719 13.953125 L 32.511719 18.945312 " fill-opacity="1" fill-rule="nonzero"/><path fill="#d9d9d9" d="M 18.9375 26.664062 L 23.253906 24.1875 L 23.507812 24.335938 L 23.507812 19.179688 L 14.5 13.953125 L 14.5 19.09375 L 18.9375 21.667969 L 18.9375 26.664062 " fill-opacity="1" fill-rule="nonzero"/><g clip-path="url(#94d563cb22)"><path fill="#d9d9d9" d="M 9.933594 26.898438 L 0.925781 21.667969 L 0.925781 32.0625 L 5.40625 34.664062 L 9.933594 37.292969 L 9.933594 26.898438 " fill-opacity="1" fill-rule="nonzero"/></g><path fill="#d9d9d9" d="M 41.359375 50.308594 L 41.359375 50.296875 L 41.347656 50.300781 Z M 41.359375 50.308594 " fill-opacity="1" fill-rule="nonzero"/><path fill="#d9d9d9" d="M 27.765625 58.015625 L 27.785156 58.027344 L 27.785156 57.910156 L 27.765625 57.921875 L 27.765625 58.015625 " fill-opacity="1" fill-rule="nonzero"/><path fill="#d9d9d9" d="M 41.339844 50.304688 L 41.359375 50.316406 L 41.359375 50.308594 L 41.347656 50.300781 L 41.339844 50.304688 " fill-opacity="1" fill-rule="nonzero"/><path fill="#d9d9d9" d="M 14.191406 60.59375 L 14.191406 70.988281 L 23.199219 76.214844 L 23.199219 65.824219 L 14.191406 60.59375 " fill-opacity="1" fill-rule="nonzero"/><path fill="#d9d9d9" d="M 54.832031 26.820312 L 54.664062 26.914062 L 54.832031 27.011719 Z M 54.832031 26.820312 " fill-opacity="1" fill-rule="nonzero"/><path fill="#d9d9d9" d="M 45.972656 26.960938 L 45.777344 26.847656 L 45.777344 27.074219 Z M 45.972656 26.960938 " fill-opacity="1" fill-rule="nonzero"/><path fill="#d9d9d9" d="M 32.246094 34.664062 L 32.203125 34.6875 L 32.203125 34.792969 L 32.335938 34.714844 L 32.246094 34.664062 " fill-opacity="1" fill-rule="nonzero"/><path fill="#d9d9d9" d="M 41.324219 34.769531 L 41.324219 34.644531 L 41.21875 34.707031 Z M 41.324219 34.769531 " fill-opacity="1" fill-rule="nonzero"/><path fill="#d9d9d9" d="M 45.761719 42.648438 L 45.804688 42.621094 L 45.761719 42.597656 Z M 45.761719 42.648438 " fill-opacity="1" fill-rule="nonzero"/><path fill="#d9d9d9" d="M 23.230469 60.554688 L 23.230469 50.160156 L 14.226562 44.929688 L 14.226562 55.324219 L 14.476562 55.46875 L 18.773438 57.964844 L 23.230469 60.554688 " fill-opacity="1" fill-rule="nonzero"/><path fill="#d9d9d9" d="M 45.777344 21.667969 L 45.777344 26.847656 L 45.972656 26.960938 L 50.28125 24.492188 L 50.28125 19.066406 L 41.273438 13.839844 L 41.273438 19.050781 L 45.777344 21.667969 " fill-opacity="1" fill-rule="nonzero"/><path fill="#d9d9d9" d="M 32.203125 34.636719 L 32.246094 34.664062 L 32.335938 34.714844 L 36.773438 32.171875 L 36.773438 26.894531 L 27.765625 21.667969 L 27.765625 26.808594 L 32.203125 29.386719 L 32.203125 34.636719 " fill-opacity="1" fill-rule="nonzero"/><path fill="#d9d9d9" d="M 23.199219 45.007812 L 23.199219 34.613281 L 14.191406 29.386719 L 14.191406 39.777344 L 14.375 39.882812 L 18.671875 42.378906 L 23.199219 45.007812 " fill-opacity="1" fill-rule="nonzero"/><path fill="#d9d9d9" d="M 59.304688 55.605469 L 54.832031 58.199219 L 54.832031 58.21875 L 59.335938 60.835938 L 59.335938 66.015625 L 63.839844 68.632812 L 63.839844 58.238281 L 59.304688 55.605469 " fill-opacity="1" fill-rule="nonzero"/><path fill="#d9d9d9" d="M 45.667969 63.359375 L 41.324219 65.878906 L 41.324219 65.976562 L 45.761719 68.554688 L 45.761719 73.804688 L 50.332031 76.457031 L 50.332031 66.066406 L 45.667969 63.359375 " fill-opacity="1" fill-rule="nonzero"/><g clip-path="url(#6d862a3f12)"><path fill="#d9d9d9" d="M 27.75 68.554688 L 27.75 78.945312 L 36.753906 84.175781 L 36.753906 73.78125 L 27.75 68.554688 " fill-opacity="1" fill-rule="nonzero"/></g><path fill="#d9d9d9" d="M 59.335938 40.019531 L 54.917969 42.585938 L 59.371094 45.171875 L 59.371094 50.355469 L 59.414062 50.378906 L 63.871094 52.96875 L 63.871094 42.574219 L 59.335938 39.941406 L 59.335938 40.019531 " fill-opacity="1" fill-rule="nonzero"/><path fill="#d9d9d9" d="M 45.761719 47.730469 L 45.761719 47.738281 L 41.359375 50.296875 L 41.359375 50.316406 L 45.792969 52.890625 L 45.792969 58.144531 L 45.90625 58.207031 L 50.363281 60.796875 L 50.363281 50.402344 L 45.761719 47.730469 " fill-opacity="1" fill-rule="nonzero"/><path fill="#d9d9d9" d="M 36.789062 68.515625 L 36.789062 58.121094 L 27.785156 52.890625 L 27.785156 63.285156 L 32.203125 65.851562 L 32.332031 65.925781 L 36.789062 68.515625 " fill-opacity="1" fill-rule="nonzero"/><path fill="#d9d9d9" d="M 59.335938 29.628906 L 59.335938 34.808594 L 63.839844 37.421875 L 63.839844 27.027344 L 54.832031 21.800781 L 54.832031 27.011719 L 59.335938 29.628906 " fill-opacity="1" fill-rule="nonzero"/><path fill="#d9d9d9" d="M 41.324219 34.644531 L 41.324219 34.769531 L 45.761719 37.34375 L 45.761719 42.597656 L 45.804688 42.621094 L 50.332031 45.25 L 50.332031 34.855469 L 41.324219 29.628906 L 41.324219 34.644531 " fill-opacity="1" fill-rule="nonzero"/><path fill="#d9d9d9" d="M 36.753906 42.574219 L 27.75 37.34375 L 27.75 47.738281 L 32.230469 50.339844 L 36.753906 52.96875 L 36.753906 42.574219 " fill-opacity="1" fill-rule="nonzero"/></g></g></g></svg>