<svg xmlns="http://www.w3.org/2000/svg" xmlns:xlink="http://www.w3.org/1999/xlink" width="200" zoomAndPan="magnify" viewBox="0 0 150 30.000001" height="40" preserveAspectRatio="xMidYMid meet" version="1.0"><defs><g/><clipPath id="e255f20eaf"><path d="M 9.390625 9.289062 L 17.011719 9.289062 L 17.011719 18 L 9.390625 18 Z M 9.390625 9.289062 " clip-rule="nonzero"/></clipPath><clipPath id="177b9924ca"><path d="M 17.011719 13.644531 L 9.390625 18 L 9.390625 9.289062 L 17.011719 13.644531 " clip-rule="nonzero"/></clipPath></defs><g fill="#ffbd59" fill-opacity="1"><g transform="translate(24.726286, 18.363851)"><g><path d="M 4.734375 0.09375 C 3.929688 0.09375 3.160156 -0.03125 2.421875 -0.28125 C 1.691406 -0.539062 1.125 -0.882812 0.71875 -1.3125 L 1.171875 -2.1875 C 1.566406 -1.800781 2.085938 -1.484375 2.734375 -1.234375 C 3.378906 -0.992188 4.046875 -0.875 4.734375 -0.875 C 5.703125 -0.875 6.425781 -1.050781 6.90625 -1.40625 C 7.394531 -1.757812 7.640625 -2.222656 7.640625 -2.796875 C 7.640625 -3.222656 7.503906 -3.5625 7.234375 -3.8125 C 6.972656 -4.070312 6.648438 -4.269531 6.265625 -4.40625 C 5.890625 -4.550781 5.363281 -4.707031 4.6875 -4.875 C 3.875 -5.082031 3.222656 -5.28125 2.734375 -5.46875 C 2.253906 -5.65625 1.84375 -5.941406 1.5 -6.328125 C 1.15625 -6.722656 0.984375 -7.253906 0.984375 -7.921875 C 0.984375 -8.472656 1.125 -8.96875 1.40625 -9.40625 C 1.695312 -9.851562 2.140625 -10.210938 2.734375 -10.484375 C 3.335938 -10.753906 4.082031 -10.890625 4.96875 -10.890625 C 5.582031 -10.890625 6.1875 -10.800781 6.78125 -10.625 C 7.375 -10.457031 7.882812 -10.226562 8.3125 -9.9375 L 7.921875 -9.015625 C 7.472656 -9.316406 6.988281 -9.539062 6.46875 -9.6875 C 5.957031 -9.84375 5.457031 -9.921875 4.96875 -9.921875 C 4.019531 -9.921875 3.304688 -9.738281 2.828125 -9.375 C 2.347656 -9.007812 2.109375 -8.535156 2.109375 -7.953125 C 2.109375 -7.523438 2.238281 -7.179688 2.5 -6.921875 C 2.769531 -6.660156 3.101562 -6.457031 3.5 -6.3125 C 3.894531 -6.175781 4.425781 -6.023438 5.09375 -5.859375 C 5.882812 -5.660156 6.519531 -5.46875 7 -5.28125 C 7.488281 -5.09375 7.90625 -4.804688 8.25 -4.421875 C 8.59375 -4.035156 8.765625 -3.515625 8.765625 -2.859375 C 8.765625 -2.304688 8.613281 -1.804688 8.3125 -1.359375 C 8.019531 -0.910156 7.570312 -0.554688 6.96875 -0.296875 C 6.363281 -0.0351562 5.617188 0.09375 4.734375 0.09375 Z M 4.734375 0.09375 "/></g></g></g><g fill="#ffbd59" fill-opacity="1"><g transform="translate(34.211674, 18.363851)"><g><path d="M 4.890625 0.078125 C 4.085938 0.078125 3.367188 -0.09375 2.734375 -0.4375 C 2.097656 -0.789062 1.597656 -1.285156 1.234375 -1.921875 C 0.878906 -2.554688 0.703125 -3.269531 0.703125 -4.0625 C 0.703125 -4.851562 0.878906 -5.5625 1.234375 -6.1875 C 1.597656 -6.8125 2.097656 -7.296875 2.734375 -7.640625 C 3.367188 -7.992188 4.085938 -8.171875 4.890625 -8.171875 C 5.585938 -8.171875 6.210938 -8.035156 6.765625 -7.765625 C 7.316406 -7.492188 7.75 -7.09375 8.0625 -6.5625 L 7.25 -6.015625 C 6.976562 -6.410156 6.632812 -6.707031 6.21875 -6.90625 C 5.8125 -7.113281 5.367188 -7.21875 4.890625 -7.21875 C 4.304688 -7.21875 3.78125 -7.085938 3.3125 -6.828125 C 2.84375 -6.566406 2.472656 -6.191406 2.203125 -5.703125 C 1.941406 -5.222656 1.8125 -4.675781 1.8125 -4.0625 C 1.8125 -3.425781 1.941406 -2.867188 2.203125 -2.390625 C 2.472656 -1.921875 2.84375 -1.550781 3.3125 -1.28125 C 3.78125 -1.019531 4.304688 -0.890625 4.890625 -0.890625 C 5.367188 -0.890625 5.8125 -0.988281 6.21875 -1.1875 C 6.632812 -1.382812 6.976562 -1.679688 7.25 -2.078125 L 8.0625 -1.53125 C 7.75 -1 7.3125 -0.597656 6.75 -0.328125 C 6.195312 -0.0546875 5.578125 0.078125 4.890625 0.078125 Z M 4.890625 0.078125 "/></g></g></g><g fill="#ffbd59" fill-opacity="1"><g transform="translate(42.895048, 18.363851)"><g><path d="M 4.84375 0.078125 C 4.0625 0.078125 3.351562 -0.0976562 2.71875 -0.453125 C 2.09375 -0.804688 1.597656 -1.296875 1.234375 -1.921875 C 0.878906 -2.554688 0.703125 -3.269531 0.703125 -4.0625 C 0.703125 -4.851562 0.878906 -5.5625 1.234375 -6.1875 C 1.597656 -6.8125 2.09375 -7.296875 2.71875 -7.640625 C 3.351562 -7.992188 4.0625 -8.171875 4.84375 -8.171875 C 5.625 -8.171875 6.328125 -7.992188 6.953125 -7.640625 C 7.578125 -7.296875 8.066406 -6.8125 8.421875 -6.1875 C 8.773438 -5.5625 8.953125 -4.851562 8.953125 -4.0625 C 8.953125 -3.269531 8.773438 -2.554688 8.421875 -1.921875 C 8.066406 -1.296875 7.578125 -0.804688 6.953125 -0.453125 C 6.328125 -0.0976562 5.625 0.078125 4.84375 0.078125 Z M 4.84375 -0.890625 C 5.414062 -0.890625 5.929688 -1.019531 6.390625 -1.28125 C 6.847656 -1.550781 7.203125 -1.925781 7.453125 -2.40625 C 7.710938 -2.882812 7.84375 -3.4375 7.84375 -4.0625 C 7.84375 -4.675781 7.710938 -5.222656 7.453125 -5.703125 C 7.203125 -6.191406 6.847656 -6.566406 6.390625 -6.828125 C 5.929688 -7.085938 5.414062 -7.21875 4.84375 -7.21875 C 4.269531 -7.21875 3.753906 -7.085938 3.296875 -6.828125 C 2.835938 -6.566406 2.472656 -6.191406 2.203125 -5.703125 C 1.941406 -5.222656 1.8125 -4.675781 1.8125 -4.0625 C 1.8125 -3.4375 1.941406 -2.882812 2.203125 -2.40625 C 2.472656 -1.925781 2.835938 -1.550781 3.296875 -1.28125 C 3.753906 -1.019531 4.269531 -0.890625 4.84375 -0.890625 Z M 4.84375 -0.890625 "/></g></g></g><g fill="#ffbd59" fill-opacity="1"><g transform="translate(52.56552, 18.363851)"><g><path d="M 5.703125 -8.171875 C 6.460938 -8.171875 7.148438 -8 7.765625 -7.65625 C 8.390625 -7.3125 8.875 -6.828125 9.21875 -6.203125 C 9.570312 -5.578125 9.75 -4.863281 9.75 -4.0625 C 9.75 -3.25 9.570312 -2.523438 9.21875 -1.890625 C 8.875 -1.265625 8.394531 -0.78125 7.78125 -0.4375 C 7.164062 -0.09375 6.472656 0.078125 5.703125 0.078125 C 5.046875 0.078125 4.453125 -0.0546875 3.921875 -0.328125 C 3.390625 -0.597656 2.957031 -1 2.625 -1.53125 L 2.625 2.984375 L 1.53125 2.984375 L 1.53125 -8.109375 L 2.578125 -8.109375 L 2.578125 -6.515625 C 2.898438 -7.046875 3.332031 -7.453125 3.875 -7.734375 C 4.414062 -8.023438 5.023438 -8.171875 5.703125 -8.171875 Z M 5.625 -0.890625 C 6.195312 -0.890625 6.710938 -1.019531 7.171875 -1.28125 C 7.628906 -1.550781 7.988281 -1.925781 8.25 -2.40625 C 8.519531 -2.882812 8.65625 -3.4375 8.65625 -4.0625 C 8.65625 -4.675781 8.519531 -5.222656 8.25 -5.703125 C 7.988281 -6.179688 7.628906 -6.550781 7.171875 -6.8125 C 6.710938 -7.082031 6.195312 -7.21875 5.625 -7.21875 C 5.050781 -7.21875 4.535156 -7.082031 4.078125 -6.8125 C 3.617188 -6.550781 3.257812 -6.179688 3 -5.703125 C 2.738281 -5.222656 2.609375 -4.675781 2.609375 -4.0625 C 2.609375 -3.4375 2.738281 -2.882812 3 -2.40625 C 3.257812 -1.925781 3.617188 -1.550781 4.078125 -1.28125 C 4.535156 -1.019531 5.050781 -0.890625 5.625 -0.890625 Z M 5.625 -0.890625 "/></g></g></g><g fill="#ffbd59" fill-opacity="1"><g transform="translate(63.022577, 18.363851)"><g><path d="M 2.578125 -6.53125 C 2.835938 -7.070312 3.21875 -7.476562 3.71875 -7.75 C 4.226562 -8.03125 4.859375 -8.171875 5.609375 -8.171875 L 5.609375 -7.109375 L 5.34375 -7.125 C 4.5 -7.125 3.832031 -6.859375 3.34375 -6.328125 C 2.863281 -5.804688 2.625 -5.078125 2.625 -4.140625 L 2.625 0 L 1.53125 0 L 1.53125 -8.109375 L 2.578125 -8.109375 Z M 2.578125 -6.53125 "/></g></g></g><g fill="#ffbd59" fill-opacity="1"><g transform="translate(69.207359, 18.363851)"><g><path d="M 1.53125 -8.109375 L 2.625 -8.109375 L 2.625 0 L 1.53125 0 Z M 2.078125 -9.890625 C 1.847656 -9.890625 1.65625 -9.960938 1.5 -10.109375 C 1.351562 -10.265625 1.28125 -10.453125 1.28125 -10.671875 C 1.28125 -10.878906 1.351562 -11.054688 1.5 -11.203125 C 1.65625 -11.359375 1.847656 -11.4375 2.078125 -11.4375 C 2.304688 -11.4375 2.492188 -11.363281 2.640625 -11.21875 C 2.796875 -11.070312 2.875 -10.894531 2.875 -10.6875 C 2.875 -10.457031 2.796875 -10.265625 2.640625 -10.109375 C 2.492188 -9.960938 2.304688 -9.890625 2.078125 -9.890625 Z M 2.078125 -9.890625 "/></g></g></g><g fill="#ffbd59" fill-opacity="1"><g transform="translate(73.356248, 18.363851)"><g/></g></g><g fill="#ffbd59" fill-opacity="1"><g transform="translate(77.397179, 18.363851)"><g><path d="M 8.921875 -11.4375 L 8.921875 0 L 7.875 0 L 7.875 -1.609375 C 7.550781 -1.054688 7.117188 -0.632812 6.578125 -0.34375 C 6.035156 -0.0625 5.425781 0.078125 4.75 0.078125 C 3.988281 0.078125 3.300781 -0.09375 2.6875 -0.4375 C 2.070312 -0.789062 1.585938 -1.28125 1.234375 -1.90625 C 0.878906 -2.539062 0.703125 -3.257812 0.703125 -4.0625 C 0.703125 -4.863281 0.878906 -5.578125 1.234375 -6.203125 C 1.585938 -6.828125 2.070312 -7.3125 2.6875 -7.65625 C 3.300781 -8 3.988281 -8.171875 4.75 -8.171875 C 5.40625 -8.171875 6 -8.035156 6.53125 -7.765625 C 7.0625 -7.492188 7.492188 -7.09375 7.828125 -6.5625 L 7.828125 -11.4375 Z M 4.84375 -0.890625 C 5.40625 -0.890625 5.914062 -1.019531 6.375 -1.28125 C 6.832031 -1.550781 7.191406 -1.925781 7.453125 -2.40625 C 7.710938 -2.882812 7.84375 -3.4375 7.84375 -4.0625 C 7.84375 -4.675781 7.710938 -5.222656 7.453125 -5.703125 C 7.191406 -6.191406 6.832031 -6.566406 6.375 -6.828125 C 5.914062 -7.085938 5.40625 -7.21875 4.84375 -7.21875 C 4.269531 -7.21875 3.753906 -7.085938 3.296875 -6.828125 C 2.835938 -6.566406 2.472656 -6.191406 2.203125 -5.703125 C 1.941406 -5.222656 1.8125 -4.675781 1.8125 -4.0625 C 1.8125 -3.4375 1.941406 -2.882812 2.203125 -2.40625 C 2.472656 -1.925781 2.835938 -1.550781 3.296875 -1.28125 C 3.753906 -1.019531 4.269531 -0.890625 4.84375 -0.890625 Z M 4.84375 -0.890625 "/></g></g></g><g fill="#ffbd59" fill-opacity="1"><g transform="translate(87.854237, 18.363851)"><g><path d="M 1.53125 -8.109375 L 2.625 -8.109375 L 2.625 0 L 1.53125 0 Z M 2.078125 -9.890625 C 1.847656 -9.890625 1.65625 -9.960938 1.5 -10.109375 C 1.351562 -10.265625 1.28125 -10.453125 1.28125 -10.671875 C 1.28125 -10.878906 1.351562 -11.054688 1.5 -11.203125 C 1.65625 -11.359375 1.847656 -11.4375 2.078125 -11.4375 C 2.304688 -11.4375 2.492188 -11.363281 2.640625 -11.21875 C 2.796875 -11.070312 2.875 -10.894531 2.875 -10.6875 C 2.875 -10.457031 2.796875 -10.265625 2.640625 -10.109375 C 2.492188 -9.960938 2.304688 -9.890625 2.078125 -9.890625 Z M 2.078125 -9.890625 "/></g></g></g><g fill="#ffbd59" fill-opacity="1"><g transform="translate(92.003126, 18.363851)"><g/></g></g><g fill="#ffbd59" fill-opacity="1"><g transform="translate(96.044057, 18.363851)"><g><path d="M 5.703125 -8.171875 C 6.460938 -8.171875 7.148438 -8 7.765625 -7.65625 C 8.390625 -7.3125 8.875 -6.828125 9.21875 -6.203125 C 9.570312 -5.578125 9.75 -4.863281 9.75 -4.0625 C 9.75 -3.25 9.570312 -2.523438 9.21875 -1.890625 C 8.875 -1.265625 8.394531 -0.78125 7.78125 -0.4375 C 7.164062 -0.09375 6.472656 0.078125 5.703125 0.078125 C 5.046875 0.078125 4.453125 -0.0546875 3.921875 -0.328125 C 3.390625 -0.597656 2.957031 -1 2.625 -1.53125 L 2.625 2.984375 L 1.53125 2.984375 L 1.53125 -8.109375 L 2.578125 -8.109375 L 2.578125 -6.515625 C 2.898438 -7.046875 3.332031 -7.453125 3.875 -7.734375 C 4.414062 -8.023438 5.023438 -8.171875 5.703125 -8.171875 Z M 5.625 -0.890625 C 6.195312 -0.890625 6.710938 -1.019531 7.171875 -1.28125 C 7.628906 -1.550781 7.988281 -1.925781 8.25 -2.40625 C 8.519531 -2.882812 8.65625 -3.4375 8.65625 -4.0625 C 8.65625 -4.675781 8.519531 -5.222656 8.25 -5.703125 C 7.988281 -6.179688 7.628906 -6.550781 7.171875 -6.8125 C 6.710938 -7.082031 6.195312 -7.21875 5.625 -7.21875 C 5.050781 -7.21875 4.535156 -7.082031 4.078125 -6.8125 C 3.617188 -6.550781 3.257812 -6.179688 3 -5.703125 C 2.738281 -5.222656 2.609375 -4.675781 2.609375 -4.0625 C 2.609375 -3.4375 2.738281 -2.882812 3 -2.40625 C 3.257812 -1.925781 3.617188 -1.550781 4.078125 -1.28125 C 4.535156 -1.019531 5.050781 -0.890625 5.625 -0.890625 Z M 5.625 -0.890625 "/></g></g></g><g fill="#ffbd59" fill-opacity="1"><g transform="translate(106.501114, 18.363851)"><g><path d="M 1.53125 -8.109375 L 2.625 -8.109375 L 2.625 0 L 1.53125 0 Z M 2.078125 -9.890625 C 1.847656 -9.890625 1.65625 -9.960938 1.5 -10.109375 C 1.351562 -10.265625 1.28125 -10.453125 1.28125 -10.671875 C 1.28125 -10.878906 1.351562 -11.054688 1.5 -11.203125 C 1.65625 -11.359375 1.847656 -11.4375 2.078125 -11.4375 C 2.304688 -11.4375 2.492188 -11.363281 2.640625 -11.21875 C 2.796875 -11.070312 2.875 -10.894531 2.875 -10.6875 C 2.875 -10.457031 2.796875 -10.265625 2.640625 -10.109375 C 2.492188 -9.960938 2.304688 -9.890625 2.078125 -9.890625 Z M 2.078125 -9.890625 "/></g></g></g><g fill="#ffbd59" fill-opacity="1"><g transform="translate(110.650003, 18.363851)"><g><path d="M 8.84375 -8.109375 L 8.84375 0 L 7.78125 0 L 7.78125 -1.484375 C 7.5 -0.984375 7.101562 -0.597656 6.59375 -0.328125 C 6.09375 -0.0546875 5.519531 0.078125 4.875 0.078125 C 3.8125 0.078125 2.972656 -0.21875 2.359375 -0.8125 C 1.753906 -1.40625 1.453125 -2.269531 1.453125 -3.40625 L 1.453125 -8.109375 L 2.546875 -8.109375 L 2.546875 -3.515625 C 2.546875 -2.660156 2.753906 -2.007812 3.171875 -1.5625 C 3.597656 -1.125 4.203125 -0.90625 4.984375 -0.90625 C 5.835938 -0.90625 6.507812 -1.164062 7 -1.6875 C 7.488281 -2.207031 7.734375 -2.929688 7.734375 -3.859375 L 7.734375 -8.109375 Z M 2.578125 -11.28125 L 4.046875 -11.28125 L 6.15625 -9.375 L 5.078125 -9.375 Z M 2.578125 -11.28125 "/></g></g></g><g clip-path="url(#e255f20eaf)"><g clip-path="url(#177b9924ca)"><path fill="#ffbd59" d="M 17.011719 9.289062 L 17.011719 18 L 9.390625 18 L 9.390625 9.289062 Z M 17.011719 9.289062 " fill-opacity="1" fill-rule="nonzero"/></g></g></svg>