<svg xmlns="http://www.w3.org/2000/svg" xmlns:xlink="http://www.w3.org/1999/xlink" width="200" zoomAndPan="magnify" viewBox="0 0 150 30.000001" height="40" preserveAspectRatio="xMidYMid meet" version="1.0"><defs><g/><clipPath id="90cb1272fe"><path d="M 9.390625 9.289062 L 17.011719 9.289062 L 17.011719 18 L 9.390625 18 Z M 9.390625 9.289062 " clip-rule="nonzero"/></clipPath><clipPath id="d2eecb9d69"><path d="M 17.011719 13.644531 L 9.390625 18 L 9.390625 9.289062 L 17.011719 13.644531 " clip-rule="nonzero"/></clipPath></defs><g fill="#ffbd59" fill-opacity="1"><g transform="translate(25.736155, 18.638935)"><g><path d="M 6.390625 -2.640625 C 6.390625 -2.890625 6.335938 -3.109375 6.234375 -3.296875 C 6.128906 -3.484375 5.984375 -3.644531 5.796875 -3.78125 C 5.617188 -3.925781 5.398438 -4.050781 5.140625 -4.15625 C 4.878906 -4.257812 4.601562 -4.359375 4.3125 -4.453125 C 3.90625 -4.566406 3.503906 -4.707031 3.109375 -4.875 C 2.710938 -5.050781 2.359375 -5.265625 2.046875 -5.515625 C 1.742188 -5.773438 1.492188 -6.070312 1.296875 -6.40625 C 1.109375 -6.738281 1.015625 -7.128906 1.015625 -7.578125 C 1.015625 -8.015625 1.109375 -8.40625 1.296875 -8.75 C 1.492188 -9.101562 1.753906 -9.398438 2.078125 -9.640625 C 2.398438 -9.890625 2.769531 -10.082031 3.1875 -10.21875 C 3.613281 -10.351562 4.054688 -10.421875 4.515625 -10.421875 C 5.003906 -10.421875 5.460938 -10.34375 5.890625 -10.1875 C 6.328125 -10.03125 6.707031 -9.8125 7.03125 -9.53125 C 7.351562 -9.257812 7.609375 -8.929688 7.796875 -8.546875 C 7.984375 -8.171875 8.082031 -7.75 8.09375 -7.28125 L 6.390625 -7.28125 C 6.367188 -7.539062 6.3125 -7.773438 6.21875 -7.984375 C 6.132812 -8.203125 6.015625 -8.390625 5.859375 -8.546875 C 5.703125 -8.703125 5.507812 -8.820312 5.28125 -8.90625 C 5.0625 -8.988281 4.800781 -9.03125 4.5 -9.03125 C 4.25 -9.03125 4.015625 -8.992188 3.796875 -8.921875 C 3.578125 -8.859375 3.390625 -8.765625 3.234375 -8.640625 C 3.078125 -8.515625 2.953125 -8.363281 2.859375 -8.1875 C 2.773438 -8.007812 2.734375 -7.804688 2.734375 -7.578125 C 2.734375 -7.335938 2.789062 -7.128906 2.90625 -6.953125 C 3.03125 -6.773438 3.191406 -6.617188 3.390625 -6.484375 C 3.585938 -6.359375 3.8125 -6.242188 4.0625 -6.140625 C 4.320312 -6.046875 4.59375 -5.960938 4.875 -5.890625 C 5.300781 -5.753906 5.707031 -5.59375 6.09375 -5.40625 C 6.488281 -5.226562 6.832031 -5.007812 7.125 -4.75 C 7.425781 -4.488281 7.664062 -4.1875 7.84375 -3.84375 C 8.019531 -3.5 8.109375 -3.101562 8.109375 -2.65625 C 8.109375 -2.195312 8.007812 -1.796875 7.8125 -1.453125 C 7.613281 -1.109375 7.351562 -0.816406 7.03125 -0.578125 C 6.707031 -0.335938 6.332031 -0.15625 5.90625 -0.03125 C 5.476562 0.0820312 5.03125 0.140625 4.5625 0.140625 C 4.25 0.140625 3.9375 0.109375 3.625 0.046875 C 3.3125 -0.015625 3.015625 -0.109375 2.734375 -0.234375 C 2.453125 -0.359375 2.1875 -0.507812 1.9375 -0.6875 C 1.695312 -0.863281 1.484375 -1.070312 1.296875 -1.3125 C 1.117188 -1.550781 0.976562 -1.816406 0.875 -2.109375 C 0.769531 -2.410156 0.71875 -2.734375 0.71875 -3.078125 L 2.40625 -3.078125 C 2.4375 -2.773438 2.503906 -2.503906 2.609375 -2.265625 C 2.722656 -2.035156 2.875 -1.84375 3.0625 -1.6875 C 3.257812 -1.539062 3.484375 -1.425781 3.734375 -1.34375 C 3.984375 -1.269531 4.257812 -1.234375 4.5625 -1.234375 C 4.820312 -1.234375 5.0625 -1.265625 5.28125 -1.328125 C 5.5 -1.390625 5.691406 -1.476562 5.859375 -1.59375 C 6.023438 -1.71875 6.15625 -1.867188 6.25 -2.046875 C 6.34375 -2.222656 6.390625 -2.421875 6.390625 -2.640625 Z M 6.390625 -2.640625 "/></g></g></g><g fill="#ffbd59" fill-opacity="1"><g transform="translate(34.408003, 18.638935)"><g><path d="M 4.4375 -1.203125 C 4.644531 -1.203125 4.84375 -1.234375 5.03125 -1.296875 C 5.226562 -1.359375 5.398438 -1.445312 5.546875 -1.5625 C 5.703125 -1.6875 5.820312 -1.828125 5.90625 -1.984375 C 6 -2.148438 6.039062 -2.328125 6.03125 -2.515625 L 7.625 -2.515625 C 7.632812 -2.148438 7.550781 -1.804688 7.375 -1.484375 C 7.207031 -1.160156 6.972656 -0.878906 6.671875 -0.640625 C 6.378906 -0.398438 6.039062 -0.207031 5.65625 -0.0625 C 5.269531 0.0703125 4.867188 0.140625 4.453125 0.140625 C 3.859375 0.140625 3.335938 0.0390625 2.890625 -0.15625 C 2.453125 -0.351562 2.082031 -0.628906 1.78125 -0.984375 C 1.488281 -1.335938 1.269531 -1.742188 1.125 -2.203125 C 0.976562 -2.671875 0.90625 -3.164062 0.90625 -3.6875 L 0.90625 -3.9375 C 0.90625 -4.457031 0.976562 -4.953125 1.125 -5.421875 C 1.269531 -5.890625 1.488281 -6.296875 1.78125 -6.640625 C 2.082031 -6.984375 2.453125 -7.257812 2.890625 -7.46875 C 3.335938 -7.675781 3.851562 -7.78125 4.4375 -7.78125 C 4.894531 -7.78125 5.320312 -7.707031 5.71875 -7.5625 C 6.113281 -7.425781 6.453125 -7.226562 6.734375 -6.96875 C 7.015625 -6.71875 7.234375 -6.414062 7.390625 -6.0625 C 7.554688 -5.707031 7.632812 -5.320312 7.625 -4.90625 L 6.03125 -4.90625 C 6.039062 -5.113281 6.003906 -5.304688 5.921875 -5.484375 C 5.847656 -5.671875 5.738281 -5.832031 5.59375 -5.96875 C 5.445312 -6.101562 5.273438 -6.210938 5.078125 -6.296875 C 4.878906 -6.378906 4.660156 -6.421875 4.421875 -6.421875 C 4.066406 -6.421875 3.769531 -6.347656 3.53125 -6.203125 C 3.300781 -6.054688 3.113281 -5.863281 2.96875 -5.625 C 2.832031 -5.394531 2.734375 -5.128906 2.671875 -4.828125 C 2.617188 -4.535156 2.59375 -4.238281 2.59375 -3.9375 L 2.59375 -3.6875 C 2.59375 -3.375 2.617188 -3.066406 2.671875 -2.765625 C 2.734375 -2.472656 2.832031 -2.207031 2.96875 -1.96875 C 3.113281 -1.738281 3.300781 -1.550781 3.53125 -1.40625 C 3.769531 -1.269531 4.070312 -1.203125 4.4375 -1.203125 Z M 4.4375 -1.203125 "/></g></g></g><g fill="#ffbd59" fill-opacity="1"><g transform="translate(43.079852, 18.638935)"><g><path d="M 0.78125 -3.890625 C 0.78125 -4.441406 0.859375 -4.953125 1.015625 -5.421875 C 1.179688 -5.898438 1.414062 -6.3125 1.71875 -6.65625 C 2.03125 -7.007812 2.40625 -7.285156 2.84375 -7.484375 C 3.28125 -7.679688 3.773438 -7.78125 4.328125 -7.78125 C 4.890625 -7.78125 5.390625 -7.679688 5.828125 -7.484375 C 6.265625 -7.285156 6.632812 -7.007812 6.9375 -6.65625 C 7.238281 -6.3125 7.46875 -5.898438 7.625 -5.421875 C 7.789062 -4.953125 7.875 -4.441406 7.875 -3.890625 L 7.875 -3.734375 C 7.875 -3.179688 7.789062 -2.664062 7.625 -2.1875 C 7.46875 -1.71875 7.238281 -1.304688 6.9375 -0.953125 C 6.632812 -0.609375 6.265625 -0.335938 5.828125 -0.140625 C 5.390625 0.046875 4.894531 0.140625 4.34375 0.140625 C 3.78125 0.140625 3.28125 0.046875 2.84375 -0.140625 C 2.40625 -0.335938 2.03125 -0.609375 1.71875 -0.953125 C 1.414062 -1.304688 1.179688 -1.71875 1.015625 -2.1875 C 0.859375 -2.664062 0.78125 -3.179688 0.78125 -3.734375 Z M 2.46875 -3.734375 C 2.46875 -3.390625 2.503906 -3.0625 2.578125 -2.75 C 2.648438 -2.445312 2.757812 -2.179688 2.90625 -1.953125 C 3.0625 -1.722656 3.257812 -1.539062 3.5 -1.40625 C 3.738281 -1.269531 4.019531 -1.203125 4.34375 -1.203125 C 4.65625 -1.203125 4.925781 -1.269531 5.15625 -1.40625 C 5.394531 -1.539062 5.585938 -1.722656 5.734375 -1.953125 C 5.890625 -2.179688 6.003906 -2.445312 6.078125 -2.75 C 6.148438 -3.0625 6.1875 -3.390625 6.1875 -3.734375 L 6.1875 -3.890625 C 6.1875 -4.222656 6.148438 -4.539062 6.078125 -4.84375 C 6.003906 -5.15625 5.890625 -5.425781 5.734375 -5.65625 C 5.585938 -5.882812 5.394531 -6.066406 5.15625 -6.203125 C 4.925781 -6.347656 4.648438 -6.421875 4.328125 -6.421875 C 4.003906 -6.421875 3.722656 -6.347656 3.484375 -6.203125 C 3.253906 -6.066406 3.0625 -5.882812 2.90625 -5.65625 C 2.757812 -5.425781 2.648438 -5.15625 2.578125 -4.84375 C 2.503906 -4.539062 2.46875 -4.222656 2.46875 -3.890625 Z M 2.46875 -3.734375 "/></g></g></g><g fill="#ffbd59" fill-opacity="1"><g transform="translate(51.7517, 18.638935)"><g><path d="M 7.78125 -3.734375 C 7.78125 -3.179688 7.710938 -2.664062 7.578125 -2.1875 C 7.441406 -1.71875 7.25 -1.304688 7 -0.953125 C 6.75 -0.609375 6.4375 -0.335938 6.0625 -0.140625 C 5.695312 0.046875 5.273438 0.140625 4.796875 0.140625 C 4.359375 0.140625 3.972656 0.0703125 3.640625 -0.0625 C 3.304688 -0.207031 3.019531 -0.410156 2.78125 -0.671875 L 2.78125 2.9375 L 1.09375 2.9375 L 1.09375 -7.640625 L 2.65625 -7.640625 L 2.71875 -6.859375 C 2.96875 -7.148438 3.257812 -7.375 3.59375 -7.53125 C 3.925781 -7.695312 4.316406 -7.78125 4.765625 -7.78125 C 5.253906 -7.78125 5.6875 -7.6875 6.0625 -7.5 C 6.4375 -7.3125 6.75 -7.046875 7 -6.703125 C 7.25 -6.359375 7.441406 -5.945312 7.578125 -5.46875 C 7.710938 -4.988281 7.78125 -4.460938 7.78125 -3.890625 Z M 6.09375 -3.890625 C 6.09375 -4.234375 6.054688 -4.554688 5.984375 -4.859375 C 5.910156 -5.160156 5.800781 -5.425781 5.65625 -5.65625 C 5.507812 -5.882812 5.320312 -6.0625 5.09375 -6.1875 C 4.875 -6.320312 4.609375 -6.390625 4.296875 -6.390625 C 3.921875 -6.390625 3.609375 -6.304688 3.359375 -6.140625 C 3.117188 -5.984375 2.925781 -5.773438 2.78125 -5.515625 L 2.78125 -2.09375 C 2.925781 -1.832031 3.117188 -1.617188 3.359375 -1.453125 C 3.597656 -1.285156 3.914062 -1.203125 4.3125 -1.203125 C 4.625 -1.203125 4.890625 -1.269531 5.109375 -1.40625 C 5.335938 -1.539062 5.523438 -1.722656 5.671875 -1.953125 C 5.816406 -2.191406 5.921875 -2.460938 5.984375 -2.765625 C 6.054688 -3.066406 6.09375 -3.390625 6.09375 -3.734375 Z M 6.09375 -3.890625 "/></g></g></g><g fill="#ffbd59" fill-opacity="1"><g transform="translate(60.423548, 18.638935)"><g><path d="M 6.34375 -7.78125 C 6.476562 -7.78125 6.613281 -7.773438 6.75 -7.765625 C 6.882812 -7.753906 7.015625 -7.738281 7.140625 -7.71875 C 7.265625 -7.695312 7.378906 -7.675781 7.484375 -7.65625 C 7.585938 -7.632812 7.671875 -7.613281 7.734375 -7.59375 L 7.5 -5.921875 C 6.976562 -6.046875 6.46875 -6.109375 5.96875 -6.109375 C 5.40625 -6.109375 4.953125 -5.988281 4.609375 -5.75 C 4.265625 -5.519531 4.007812 -5.191406 3.84375 -4.765625 L 3.84375 0 L 2.15625 0 L 2.15625 -7.640625 L 3.734375 -7.640625 L 3.8125 -6.4375 C 4.125 -6.851562 4.488281 -7.179688 4.90625 -7.421875 C 5.332031 -7.660156 5.8125 -7.78125 6.34375 -7.78125 Z M 6.34375 -7.78125 "/></g></g></g><g fill="#ffbd59" fill-opacity="1"><g transform="translate(69.095396, 18.638935)"><g><path d="M 1.453125 -7.640625 L 5.53125 -7.640625 L 5.53125 -1.390625 L 7.796875 -1.390625 L 7.796875 0 L 1.453125 0 L 1.453125 -1.390625 L 3.828125 -1.390625 L 3.828125 -6.234375 L 1.453125 -6.234375 Z M 3.6875 -9.609375 C 3.6875 -9.867188 3.769531 -10.082031 3.9375 -10.25 C 4.113281 -10.425781 4.351562 -10.515625 4.65625 -10.515625 C 4.96875 -10.515625 5.207031 -10.425781 5.375 -10.25 C 5.550781 -10.082031 5.640625 -9.867188 5.640625 -9.609375 C 5.640625 -9.347656 5.550781 -9.128906 5.375 -8.953125 C 5.207031 -8.785156 4.96875 -8.703125 4.65625 -8.703125 C 4.351562 -8.703125 4.113281 -8.785156 3.9375 -8.953125 C 3.769531 -9.128906 3.6875 -9.347656 3.6875 -9.609375 Z M 3.6875 -9.609375 "/></g></g></g><g fill="#ffbd59" fill-opacity="1"><g transform="translate(77.767245, 18.638935)"><g/></g></g><g fill="#ffbd59" fill-opacity="1"><g transform="translate(86.439093, 18.638935)"><g><path d="M 0.875 -3.875 C 0.875 -4.457031 0.941406 -4.988281 1.078125 -5.46875 C 1.222656 -5.945312 1.425781 -6.359375 1.6875 -6.703125 C 1.945312 -7.046875 2.265625 -7.3125 2.640625 -7.5 C 3.015625 -7.6875 3.4375 -7.78125 3.90625 -7.78125 C 4.320312 -7.78125 4.6875 -7.707031 5 -7.5625 C 5.320312 -7.414062 5.601562 -7.207031 5.84375 -6.9375 L 5.84375 -10.84375 L 7.546875 -10.84375 L 7.546875 0 L 6.015625 0 L 5.921875 -0.78125 C 5.679688 -0.476562 5.394531 -0.25 5.0625 -0.09375 C 4.726562 0.0625 4.335938 0.140625 3.890625 0.140625 C 3.429688 0.140625 3.015625 0.046875 2.640625 -0.140625 C 2.265625 -0.335938 1.945312 -0.609375 1.6875 -0.953125 C 1.425781 -1.296875 1.222656 -1.703125 1.078125 -2.171875 C 0.941406 -2.648438 0.875 -3.164062 0.875 -3.71875 Z M 2.5625 -3.71875 C 2.5625 -3.382812 2.59375 -3.066406 2.65625 -2.765625 C 2.71875 -2.460938 2.820312 -2.195312 2.96875 -1.96875 C 3.113281 -1.738281 3.296875 -1.554688 3.515625 -1.421875 C 3.742188 -1.296875 4.007812 -1.234375 4.3125 -1.234375 C 4.695312 -1.234375 5.007812 -1.316406 5.25 -1.484375 C 5.5 -1.660156 5.695312 -1.890625 5.84375 -2.171875 L 5.84375 -5.484375 C 5.695312 -5.765625 5.5 -5.984375 5.25 -6.140625 C 5.007812 -6.304688 4.703125 -6.390625 4.328125 -6.390625 C 4.015625 -6.390625 3.742188 -6.320312 3.515625 -6.1875 C 3.296875 -6.0625 3.113281 -5.882812 2.96875 -5.65625 C 2.832031 -5.425781 2.726562 -5.15625 2.65625 -4.84375 C 2.59375 -4.539062 2.5625 -4.21875 2.5625 -3.875 Z M 2.5625 -3.71875 "/></g></g></g><g fill="#ffbd59" fill-opacity="1"><g transform="translate(95.110941, 18.638935)"><g><path d="M 1.453125 -7.640625 L 5.53125 -7.640625 L 5.53125 -1.390625 L 7.796875 -1.390625 L 7.796875 0 L 1.453125 0 L 1.453125 -1.390625 L 3.828125 -1.390625 L 3.828125 -6.234375 L 1.453125 -6.234375 Z M 3.6875 -9.609375 C 3.6875 -9.867188 3.769531 -10.082031 3.9375 -10.25 C 4.113281 -10.425781 4.351562 -10.515625 4.65625 -10.515625 C 4.96875 -10.515625 5.207031 -10.425781 5.375 -10.25 C 5.550781 -10.082031 5.640625 -9.867188 5.640625 -9.609375 C 5.640625 -9.347656 5.550781 -9.128906 5.375 -8.953125 C 5.207031 -8.785156 4.96875 -8.703125 4.65625 -8.703125 C 4.351562 -8.703125 4.113281 -8.785156 3.9375 -8.953125 C 3.769531 -9.128906 3.6875 -9.347656 3.6875 -9.609375 Z M 3.6875 -9.609375 "/></g></g></g><g fill="#ffbd59" fill-opacity="1"><g transform="translate(103.78279, 18.638935)"><g/></g></g><g fill="#ffbd59" fill-opacity="1"><g transform="translate(112.454638, 18.638935)"><g><path d="M 7.78125 -3.734375 C 7.78125 -3.179688 7.710938 -2.664062 7.578125 -2.1875 C 7.441406 -1.71875 7.25 -1.304688 7 -0.953125 C 6.75 -0.609375 6.4375 -0.335938 6.0625 -0.140625 C 5.695312 0.046875 5.273438 0.140625 4.796875 0.140625 C 4.359375 0.140625 3.972656 0.0703125 3.640625 -0.0625 C 3.304688 -0.207031 3.019531 -0.410156 2.78125 -0.671875 L 2.78125 2.9375 L 1.09375 2.9375 L 1.09375 -7.640625 L 2.65625 -7.640625 L 2.71875 -6.859375 C 2.96875 -7.148438 3.257812 -7.375 3.59375 -7.53125 C 3.925781 -7.695312 4.316406 -7.78125 4.765625 -7.78125 C 5.253906 -7.78125 5.6875 -7.6875 6.0625 -7.5 C 6.4375 -7.3125 6.75 -7.046875 7 -6.703125 C 7.25 -6.359375 7.441406 -5.945312 7.578125 -5.46875 C 7.710938 -4.988281 7.78125 -4.460938 7.78125 -3.890625 Z M 6.09375 -3.890625 C 6.09375 -4.234375 6.054688 -4.554688 5.984375 -4.859375 C 5.910156 -5.160156 5.800781 -5.425781 5.65625 -5.65625 C 5.507812 -5.882812 5.320312 -6.0625 5.09375 -6.1875 C 4.875 -6.320312 4.609375 -6.390625 4.296875 -6.390625 C 3.921875 -6.390625 3.609375 -6.304688 3.359375 -6.140625 C 3.117188 -5.984375 2.925781 -5.773438 2.78125 -5.515625 L 2.78125 -2.09375 C 2.925781 -1.832031 3.117188 -1.617188 3.359375 -1.453125 C 3.597656 -1.285156 3.914062 -1.203125 4.3125 -1.203125 C 4.625 -1.203125 4.890625 -1.269531 5.109375 -1.40625 C 5.335938 -1.539062 5.523438 -1.722656 5.671875 -1.953125 C 5.816406 -2.191406 5.921875 -2.460938 5.984375 -2.765625 C 6.054688 -3.066406 6.09375 -3.390625 6.09375 -3.734375 Z M 6.09375 -3.890625 "/></g></g></g><g fill="#ffbd59" fill-opacity="1"><g transform="translate(121.126486, 18.638935)"><g><path d="M 1.453125 -7.640625 L 5.53125 -7.640625 L 5.53125 -1.390625 L 7.796875 -1.390625 L 7.796875 0 L 1.453125 0 L 1.453125 -1.390625 L 3.828125 -1.390625 L 3.828125 -6.234375 L 1.453125 -6.234375 Z M 3.6875 -9.609375 C 3.6875 -9.867188 3.769531 -10.082031 3.9375 -10.25 C 4.113281 -10.425781 4.351562 -10.515625 4.65625 -10.515625 C 4.96875 -10.515625 5.207031 -10.425781 5.375 -10.25 C 5.550781 -10.082031 5.640625 -9.867188 5.640625 -9.609375 C 5.640625 -9.347656 5.550781 -9.128906 5.375 -8.953125 C 5.207031 -8.785156 4.96875 -8.703125 4.65625 -8.703125 C 4.351562 -8.703125 4.113281 -8.785156 3.9375 -8.953125 C 3.769531 -9.128906 3.6875 -9.347656 3.6875 -9.609375 Z M 3.6875 -9.609375 "/></g></g></g><g fill="#ffbd59" fill-opacity="1"><g transform="translate(129.798335, 18.638935)"><g><path d="M 5.984375 -1.046875 C 5.734375 -0.671875 5.421875 -0.378906 5.046875 -0.171875 C 4.679688 0.0351562 4.269531 0.140625 3.8125 0.140625 C 3.414062 0.140625 3.050781 0.0820312 2.71875 -0.03125 C 2.394531 -0.15625 2.113281 -0.347656 1.875 -0.609375 C 1.644531 -0.878906 1.46875 -1.21875 1.34375 -1.625 C 1.21875 -2.039062 1.15625 -2.539062 1.15625 -3.125 L 1.15625 -7.640625 L 2.84375 -7.640625 L 2.84375 -3.109375 C 2.84375 -2.742188 2.867188 -2.4375 2.921875 -2.1875 C 2.972656 -1.945312 3.054688 -1.753906 3.171875 -1.609375 C 3.285156 -1.472656 3.425781 -1.375 3.59375 -1.3125 C 3.757812 -1.257812 3.960938 -1.234375 4.203125 -1.234375 C 4.648438 -1.234375 5.007812 -1.320312 5.28125 -1.5 C 5.5625 -1.675781 5.773438 -1.914062 5.921875 -2.21875 L 5.921875 -7.640625 L 7.609375 -7.640625 L 7.609375 0 L 6.09375 0 Z M 5.078125 -8.53125 L 3.734375 -8.53125 L 1.90625 -10.46875 L 3.828125 -10.46875 Z M 5.078125 -8.53125 "/></g></g></g><g clip-path="url(#90cb1272fe)"><g clip-path="url(#d2eecb9d69)"><path fill="#ffbd59" d="M 17.011719 9.289062 L 17.011719 18 L 9.390625 18 L 9.390625 9.289062 Z M 17.011719 9.289062 " fill-opacity="1" fill-rule="nonzero"/></g></g></svg>