<svg xmlns="http://www.w3.org/2000/svg" xmlns:xlink="http://www.w3.org/1999/xlink" width="500" zoomAndPan="magnify" viewBox="0 0 375 374.999991" height="500" preserveAspectRatio="xMidYMid meet" version="1.0"><defs><clipPath id="ce07c83a1e"><path d="M 42 154 L 334 154 L 334 326.140625 L 42 326.140625 Z M 42 154 " clip-rule="nonzero"/></clipPath></defs><g clip-path="url(#ce07c83a1e)"><path fill="#000000" d="M 326.402344 162.464844 C 321.503906 157.5625 314.984375 154.867188 308.054688 154.867188 C 301.121094 154.867188 294.601562 157.566406 289.703125 162.46875 L 253.464844 198.726562 C 251.554688 197.585938 249.492188 196.710938 247.347656 196.09375 C 247.171875 196.039062 246.992188 195.992188 246.820312 195.945312 C 245.949219 195.714844 245.070312 195.53125 244.175781 195.390625 C 243.933594 195.351562 243.691406 195.304688 243.445312 195.273438 C 242.359375 195.132812 241.261719 195.042969 240.140625 195.042969 L 240.136719 195.042969 L 128.160156 195.058594 C 117.707031 195.058594 107.777344 199.0625 100.109375 206.453125 L 44.695312 261.847656 C 43.171875 263.371094 42.316406 265.433594 42.316406 267.59375 C 42.316406 269.75 43.167969 271.816406 44.695312 273.339844 L 95.136719 323.804688 C 96.660156 325.328125 98.726562 326.1875 100.878906 326.1875 C 103.039062 326.1875 105.101562 325.328125 106.625 323.804688 L 129.925781 300.488281 L 214.410156 300.488281 C 221.339844 300.488281 227.851562 297.789062 232.753906 292.886719 L 326.414062 199.191406 C 336.523438 189.070312 336.523438 172.597656 326.402344 162.464844 Z M 314.925781 187.703125 L 221.269531 281.394531 C 219.429688 283.234375 216.996094 284.242188 214.386719 284.242188 L 126.558594 284.242188 C 124.40625 284.242188 122.339844 285.097656 120.816406 286.621094 L 100.875 306.570312 L 61.914062 267.59375 L 111.476562 218.050781 C 115.996094 213.699219 121.921875 211.304688 128.164062 211.304688 L 240.136719 211.285156 C 243.003906 211.285156 245.730469 212.609375 247.605469 214.914062 C 247.699219 215.035156 247.828125 215.125 247.933594 215.234375 C 249.175781 216.914062 249.855469 218.890625 249.855469 220.996094 C 249.855469 223.597656 248.847656 226.039062 247.007812 227.878906 C 245.175781 229.710938 242.742188 230.722656 240.144531 230.722656 C 240.140625 230.722656 240.140625 230.722656 240.136719 230.722656 L 178.371094 230.722656 C 173.890625 230.722656 170.253906 234.355469 170.253906 238.839844 C 170.253906 243.332031 173.890625 246.964844 178.371094 246.964844 L 240.132812 246.964844 C 240.136719 246.964844 240.144531 246.964844 240.152344 246.964844 C 247.082031 246.964844 253.59375 244.265625 258.492188 239.363281 C 263.394531 234.457031 266.089844 227.933594 266.089844 221 C 266.089844 217.578125 265.386719 214.203125 264.089844 211.070312 L 301.183594 173.957031 C 304.847656 170.292969 311.257812 170.289062 314.921875 173.957031 C 318.714844 177.746094 318.714844 183.910156 314.925781 187.703125 Z M 314.925781 187.703125 " fill-opacity="1" fill-rule="nonzero"/></g><path fill="#000000" d="M 181.464844 176.722656 C 181.730469 176.722656 181.988281 176.675781 182.25 176.652344 C 182.421875 176.664062 182.585938 176.707031 182.761719 176.710938 C 183.285156 176.71875 183.796875 176.722656 184.316406 176.722656 C 207.121094 176.722656 228.488281 167.886719 244.628906 151.734375 C 261.140625 135.21875 270.007812 113.246094 269.597656 89.84375 C 269.523438 85.472656 265.992188 81.945312 261.625 81.867188 C 243.5 81.546875 226.226562 86.828125 211.671875 96.90625 C 208.417969 79.746094 199.988281 64.042969 187.109375 51.59375 C 183.960938 48.554688 178.976562 48.550781 175.832031 51.59375 C 159.003906 67.84375 149.730469 89.660156 149.730469 113.015625 C 149.730469 136.382812 158.996094 158.195312 175.828125 174.441406 C 177.398438 175.964844 179.429688 176.722656 181.464844 176.722656 Z M 233.144531 140.246094 C 223.871094 149.523438 212.441406 155.769531 200 158.640625 C 207.960938 146.117188 212.488281 131.730469 213.105469 116.59375 C 224.21875 106.253906 238.070312 99.9375 253.019531 98.441406 C 251.433594 114.246094 244.535156 128.855469 233.144531 140.246094 Z M 181.46875 69.402344 C 191.507812 81.695312 196.957031 96.90625 196.957031 113.023438 C 196.957031 129.136719 191.503906 144.34375 181.464844 156.636719 C 171.417969 144.347656 165.964844 129.136719 165.964844 113.015625 C 165.964844 96.902344 171.417969 81.691406 181.46875 69.402344 Z M 181.46875 69.402344 " fill-opacity="1" fill-rule="nonzero"/></svg>