<svg xmlns="http://www.w3.org/2000/svg" xmlns:xlink="http://www.w3.org/1999/xlink" width="500" zoomAndPan="magnify" viewBox="0 0 375 374.999991" height="500" preserveAspectRatio="xMidYMid meet" version="1.0"><defs><clipPath id="540ffa728d"><path d="M 59 42 L 305 42 L 305 335.71875 L 59 335.71875 Z M 59 42 " clip-rule="nonzero"/></clipPath></defs><g clip-path="url(#540ffa728d)"><path fill="#000000" d="M 222.707031 111.984375 C 230.582031 114.84375 238.710938 116.335938 247.09375 116.460938 C 251.710938 116.503906 256.25 115.90625 260.699219 114.660156 C 265.148438 113.414062 269.339844 111.574219 273.265625 109.132812 C 298.871094 93.183594 303.992188 56.722656 303.992188 55.175781 C 304.054688 54.679688 304.070312 54.179688 304.042969 53.679688 C 304.011719 53.179688 303.9375 52.6875 303.820312 52.203125 C 303.699219 51.714844 303.535156 51.246094 303.328125 50.789062 C 303.121094 50.332031 302.875 49.902344 302.585938 49.492188 C 302.300781 49.082031 301.980469 48.699219 301.621094 48.347656 C 301.265625 48 300.878906 47.683594 300.464844 47.402344 C 300.050781 47.125 299.613281 46.886719 299.152344 46.6875 C 298.695312 46.488281 298.222656 46.332031 297.734375 46.222656 C 268.632812 39.546875 246.117188 42.722656 230.835938 54.847656 C 227.484375 57.625 224.550781 60.785156 222.027344 64.332031 C 219.503906 67.878906 217.484375 71.6875 215.957031 75.765625 C 214.457031 71.679688 212.441406 67.859375 209.917969 64.3125 C 207.394531 60.761719 204.449219 57.609375 201.082031 54.847656 C 185.964844 42.722656 163.527344 39.546875 134.429688 46.222656 C 133.941406 46.332031 133.46875 46.488281 133.007812 46.6875 C 132.550781 46.886719 132.113281 47.125 131.699219 47.402344 C 131.28125 47.683594 130.898438 48 130.539062 48.347656 C 130.183594 48.699219 129.859375 49.082031 129.574219 49.492188 C 129.289062 49.902344 129.039062 50.332031 128.832031 50.789062 C 128.625 51.246094 128.464844 51.714844 128.34375 52.203125 C 128.222656 52.6875 128.148438 53.179688 128.117188 53.679688 C 128.089844 54.179688 128.105469 54.679688 128.167969 55.175781 C 128.167969 56.722656 133.207031 93.183594 158.976562 109.132812 C 162.886719 111.578125 167.058594 113.425781 171.5 114.671875 C 175.9375 115.917969 180.460938 116.511719 185.070312 116.460938 C 192.382812 116.332031 199.507812 115.109375 206.449219 112.796875 L 206.449219 189.21875 L 173.933594 189.21875 C 172.78125 189.222656 171.636719 189.308594 170.496094 189.472656 C 169.359375 189.636719 168.238281 189.882812 167.132812 190.207031 C 166.027344 190.53125 164.953125 190.933594 163.902344 191.410156 C 162.855469 191.886719 161.847656 192.433594 160.875 193.054688 C 159.90625 193.675781 158.984375 194.363281 158.109375 195.113281 C 157.238281 195.863281 156.421875 196.671875 155.664062 197.539062 C 154.902344 198.40625 154.210938 199.320312 153.578125 200.285156 C 152.949219 201.25 152.390625 202.253906 151.90625 203.300781 C 147.710938 201.359375 143.363281 199.886719 138.851562 198.882812 C 134.34375 197.882812 129.78125 197.375 125.160156 197.359375 C 123.949219 197.355469 122.742188 197.382812 121.53125 197.449219 C 120.324219 197.511719 119.117188 197.609375 117.914062 197.738281 C 116.710938 197.871094 115.511719 198.035156 114.320312 198.234375 C 113.125 198.429688 111.9375 198.660156 110.757812 198.925781 C 109.574219 199.191406 108.402344 199.488281 107.238281 199.816406 C 106.074219 200.148438 104.917969 200.511719 103.773438 200.90625 C 102.628906 201.300781 101.496094 201.726562 100.375 202.183594 C 99.257812 202.640625 98.148438 203.128906 97.054688 203.648438 C 95.960938 204.167969 94.882812 204.71875 93.820312 205.296875 C 92.757812 205.878906 91.714844 206.488281 90.683594 207.125 C 89.65625 207.765625 88.644531 208.429688 87.65625 209.125 C 86.664062 209.820312 85.691406 210.542969 84.738281 211.292969 C 83.789062 212.039062 82.859375 212.816406 81.949219 213.617188 C 81.042969 214.417969 80.15625 215.242188 79.296875 216.09375 C 78.433594 216.945312 77.597656 217.820312 76.78125 218.714844 C 75.96875 219.613281 75.183594 220.535156 74.421875 221.476562 C 73.660156 222.417969 72.921875 223.378906 72.214844 224.359375 C 71.507812 225.34375 70.824219 226.34375 70.171875 227.367188 C 69.519531 228.386719 68.898438 229.425781 68.304688 230.480469 C 67.707031 231.535156 67.144531 232.605469 66.609375 233.695312 C 66.074219 234.78125 65.570312 235.882812 65.097656 236.996094 C 64.621094 238.113281 64.179688 239.238281 63.769531 240.378906 C 63.359375 241.519531 62.980469 242.671875 62.632812 243.832031 C 62.289062 244.992188 61.972656 246.160156 61.691406 247.339844 C 61.410156 248.519531 61.164062 249.703125 60.949219 250.898438 C 60.734375 252.089844 60.550781 253.289062 60.402344 254.488281 C 60.253906 255.691406 60.140625 256.898438 60.058594 258.109375 C 59.976562 259.316406 59.929688 260.527344 59.917969 261.738281 C 59.902344 262.949219 59.925781 264.160156 59.976562 265.371094 C 60.03125 266.582031 60.121094 267.789062 60.242188 268.996094 C 60.363281 270.203125 60.515625 271.402344 60.707031 272.601562 C 60.894531 273.796875 61.117188 274.988281 61.371094 276.171875 C 61.625 277.359375 61.914062 278.535156 62.234375 279.703125 C 62.554688 280.871094 62.90625 282.03125 63.292969 283.179688 C 63.675781 284.328125 64.09375 285.464844 64.542969 286.589844 C 64.988281 287.714844 65.46875 288.828125 65.980469 289.925781 C 66.488281 291.027344 67.03125 292.109375 67.601562 293.179688 C 68.171875 294.246094 68.773438 295.296875 69.402344 296.332031 C 70.03125 297.367188 70.6875 298.382812 71.375 299.382812 C 72.0625 300.382812 72.773438 301.359375 73.515625 302.316406 C 74.257812 303.277344 75.023438 304.210938 75.816406 305.128906 C 76.609375 306.042969 77.425781 306.9375 78.269531 307.804688 C 79.113281 308.675781 79.980469 309.519531 80.867188 310.34375 C 81.757812 311.164062 82.671875 311.960938 83.605469 312.730469 C 84.539062 313.5 85.496094 314.242188 86.46875 314.960938 C 87.445312 315.675781 88.441406 316.367188 89.457031 317.027344 C 90.46875 317.6875 91.5 318.320312 92.550781 318.925781 C 93.601562 319.527344 94.664062 320.101562 95.746094 320.648438 C 96.828125 321.191406 97.925781 321.703125 99.035156 322.1875 C 100.144531 322.667969 101.265625 323.121094 102.402344 323.542969 C 103.539062 323.960938 104.683594 324.347656 105.839844 324.707031 C 106.996094 325.0625 108.164062 325.382812 109.339844 325.675781 C 110.511719 325.964844 111.695312 326.222656 112.882812 326.449219 C 114.074219 326.671875 115.269531 326.863281 116.46875 327.023438 C 117.667969 327.179688 118.871094 327.304688 120.078125 327.394531 C 121.285156 327.484375 122.496094 327.542969 123.703125 327.566406 C 124.914062 327.589844 126.125 327.578125 127.332031 327.535156 C 128.542969 327.488281 129.75 327.410156 130.957031 327.300781 C 132.160156 327.1875 133.363281 327.042969 134.558594 326.863281 C 135.753906 326.683594 136.945312 326.46875 138.132812 326.226562 C 139.316406 325.980469 140.496094 325.699219 141.664062 325.390625 C 142.832031 325.078125 143.992188 324.734375 145.144531 324.355469 C 146.292969 323.980469 147.433594 323.570312 148.5625 323.132812 C 149.6875 322.691406 150.804688 322.222656 151.90625 321.71875 C 153.113281 324.222656 154.683594 326.476562 156.621094 328.472656 C 157.75 329.621094 158.984375 330.644531 160.320312 331.542969 C 161.65625 332.445312 163.066406 333.207031 164.550781 333.828125 C 166.039062 334.449219 167.570312 334.921875 169.148438 335.238281 C 170.726562 335.554688 172.324219 335.714844 173.933594 335.71875 L 255.21875 335.71875 C 256.019531 335.71875 256.816406 335.679688 257.609375 335.597656 C 258.40625 335.519531 259.195312 335.402344 259.976562 335.246094 C 260.761719 335.09375 261.535156 334.898438 262.300781 334.664062 C 263.0625 334.433594 263.816406 334.164062 264.554688 333.859375 C 265.289062 333.550781 266.011719 333.210938 266.714844 332.832031 C 267.421875 332.457031 268.105469 332.046875 268.769531 331.601562 C 269.433594 331.15625 270.074219 330.683594 270.691406 330.175781 C 271.308594 329.667969 271.898438 329.132812 272.464844 328.566406 C 273.027344 328 273.566406 327.410156 274.070312 326.789062 C 274.578125 326.171875 275.054688 325.53125 275.496094 324.867188 C 275.941406 324.199219 276.351562 323.515625 276.726562 322.808594 C 277.105469 322.105469 277.445312 321.382812 277.75 320.644531 C 278.054688 319.90625 278.324219 319.152344 278.558594 318.386719 C 278.789062 317.625 278.984375 316.847656 279.136719 316.0625 C 279.292969 315.28125 279.410156 314.488281 279.488281 313.695312 C 279.566406 312.898438 279.605469 312.101562 279.605469 311.300781 C 279.589844 308.289062 279.035156 305.378906 277.941406 302.574219 C 276.847656 299.769531 275.289062 297.25 273.265625 295.023438 C 273.761719 294.46875 274.230469 293.894531 274.671875 293.296875 C 275.113281 292.703125 275.527344 292.085938 275.914062 291.453125 C 276.300781 290.816406 276.65625 290.167969 276.984375 289.5 C 277.308594 288.832031 277.605469 288.152344 277.871094 287.457031 C 278.136719 286.765625 278.367188 286.058594 278.570312 285.34375 C 278.769531 284.628906 278.9375 283.90625 279.070312 283.175781 C 279.207031 282.445312 279.308594 281.710938 279.375 280.96875 C 279.441406 280.230469 279.476562 279.488281 279.476562 278.746094 C 279.476562 278.003906 279.441406 277.261719 279.375 276.523438 C 279.308594 275.78125 279.207031 275.046875 279.070312 274.316406 C 278.9375 273.585938 278.769531 272.863281 278.570312 272.148438 C 278.367188 271.433594 278.136719 270.726562 277.871094 270.035156 C 277.605469 269.339844 277.308594 268.660156 276.984375 267.992188 C 276.65625 267.324219 276.300781 266.675781 275.914062 266.039062 C 275.527344 265.40625 275.113281 264.789062 274.671875 264.195312 C 274.230469 263.597656 273.761719 263.023438 273.265625 262.46875 C 273.761719 261.914062 274.230469 261.339844 274.671875 260.742188 C 275.113281 260.144531 275.527344 259.53125 275.914062 258.898438 C 276.300781 258.261719 276.65625 257.613281 276.984375 256.945312 C 277.308594 256.277344 277.605469 255.597656 277.871094 254.902344 C 278.136719 254.210938 278.367188 253.503906 278.570312 252.789062 C 278.769531 252.074219 278.9375 251.351562 279.070312 250.621094 C 279.207031 249.890625 279.308594 249.15625 279.375 248.414062 C 279.441406 247.675781 279.476562 246.933594 279.476562 246.191406 C 279.476562 245.449219 279.441406 244.707031 279.375 243.96875 C 279.308594 243.226562 279.207031 242.492188 279.070312 241.761719 C 278.9375 241.03125 278.769531 240.308594 278.570312 239.59375 C 278.367188 238.878906 278.136719 238.171875 277.871094 237.480469 C 277.605469 236.785156 277.308594 236.105469 276.984375 235.4375 C 276.65625 234.769531 276.300781 234.121094 275.914062 233.484375 C 275.527344 232.851562 275.113281 232.234375 274.671875 231.640625 C 274.230469 231.042969 273.761719 230.46875 273.265625 229.914062 C 274.046875 229.042969 274.757812 228.117188 275.402344 227.144531 C 276.050781 226.171875 276.625 225.15625 277.125 224.097656 C 277.625 223.042969 278.046875 221.953125 278.390625 220.835938 C 278.734375 219.71875 279 218.582031 279.179688 217.429688 C 279.363281 216.273438 279.460938 215.109375 279.472656 213.941406 C 279.488281 212.769531 279.421875 211.605469 279.269531 210.449219 C 279.113281 209.289062 278.878906 208.144531 278.5625 207.019531 C 278.246094 205.894531 277.851562 204.796875 277.378906 203.726562 C 276.90625 202.660156 276.355469 201.628906 275.734375 200.640625 C 275.113281 199.648438 274.421875 198.707031 273.667969 197.816406 C 272.910156 196.925781 272.09375 196.09375 271.21875 195.320312 C 270.339844 194.546875 269.414062 193.839844 268.4375 193.199219 C 267.460938 192.5625 266.441406 191.992188 265.382812 191.5 C 264.324219 191.007812 263.234375 190.589844 262.117188 190.253906 C 260.996094 189.917969 259.859375 189.664062 258.707031 189.488281 C 257.550781 189.316406 256.390625 189.226562 255.21875 189.21875 L 222.707031 189.21875 L 222.707031 111.820312 Z M 228.152344 95.707031 C 228.191406 92.996094 228.515625 90.320312 229.113281 87.679688 C 229.714844 85.039062 230.582031 82.488281 231.714844 80.027344 C 232.851562 77.566406 234.226562 75.25 235.84375 73.078125 C 237.464844 70.90625 239.289062 68.925781 241.320312 67.140625 C 251.15625 59 266.277344 56.882812 286.273438 60.222656 C 283.753906 69.988281 277.65625 86.996094 264.570312 95.054688 C 263.1875 95.796875 261.769531 96.457031 260.3125 97.035156 C 258.855469 97.617188 257.371094 98.113281 255.859375 98.519531 C 254.347656 98.929688 252.816406 99.253906 251.265625 99.488281 C 249.714844 99.722656 248.160156 99.867188 246.59375 99.921875 C 245.027344 99.980469 243.460938 99.945312 241.898438 99.824219 C 240.335938 99.703125 238.789062 99.488281 237.25 99.191406 C 235.710938 98.890625 234.195312 98.503906 232.699219 98.027344 C 231.207031 97.554688 229.746094 96.996094 228.316406 96.355469 C 228.316406 96.355469 228.394531 95.949219 228.394531 95.542969 Z M 167.347656 95.707031 C 164.558594 93.570312 161.984375 91.203125 159.621094 88.605469 C 157.257812 86.003906 155.144531 83.214844 153.285156 80.234375 C 151.421875 77.25 149.84375 74.128906 148.546875 70.859375 C 147.25 67.59375 146.257812 64.238281 145.5625 60.789062 C 165.5625 57.453125 180.679688 59.734375 190.597656 67.707031 C 192.578125 69.488281 194.355469 71.453125 195.933594 73.597656 C 197.511719 75.746094 198.855469 78.027344 199.96875 80.449219 C 201.078125 82.871094 201.933594 85.378906 202.53125 87.976562 C 203.132812 90.574219 203.460938 93.203125 203.523438 95.867188 L 203.523438 96.925781 C 200.664062 98.164062 197.703125 99.0625 194.640625 99.628906 C 191.578125 100.191406 188.492188 100.410156 185.378906 100.273438 C 182.269531 100.140625 179.210938 99.660156 176.210938 98.835938 C 173.207031 98.007812 170.335938 96.855469 167.59375 95.378906 Z M 260.992188 240.574219 C 261.761719 241.304688 262.347656 242.15625 262.761719 243.136719 C 263.171875 244.113281 263.367188 245.132812 263.347656 246.191406 C 263.347656 246.726562 263.296875 247.253906 263.191406 247.777344 C 263.089844 248.304688 262.933594 248.8125 262.730469 249.304688 C 262.527344 249.800781 262.277344 250.269531 261.980469 250.710938 C 261.683594 251.15625 261.347656 251.566406 260.96875 251.945312 C 260.589844 252.324219 260.179688 252.660156 259.738281 252.957031 C 259.292969 253.253906 258.824219 253.503906 258.332031 253.710938 C 257.839844 253.914062 257.328125 254.070312 256.804688 254.171875 C 256.28125 254.277344 255.753906 254.328125 255.21875 254.328125 L 189.621094 254.328125 C 188.855469 248.714844 187.394531 243.289062 185.230469 238.050781 L 255.21875 238.050781 C 256.3125 238.066406 257.359375 238.292969 258.359375 238.730469 C 259.359375 239.167969 260.238281 239.785156 260.992188 240.574219 Z M 260.992188 273.128906 C 261.761719 273.859375 262.351562 274.710938 262.761719 275.691406 C 263.171875 276.667969 263.367188 277.6875 263.347656 278.746094 C 263.347656 279.28125 263.296875 279.808594 263.191406 280.332031 C 263.089844 280.859375 262.933594 281.367188 262.730469 281.859375 C 262.527344 282.355469 262.277344 282.824219 261.980469 283.265625 C 261.683594 283.710938 261.347656 284.121094 260.96875 284.5 C 260.589844 284.878906 260.179688 285.214844 259.738281 285.511719 C 259.292969 285.808594 258.824219 286.058594 258.332031 286.265625 C 257.839844 286.46875 257.328125 286.625 256.804688 286.726562 C 256.28125 286.832031 255.753906 286.882812 255.21875 286.882812 L 185.230469 286.882812 C 187.394531 281.648438 188.855469 276.222656 189.621094 270.605469 L 255.21875 270.605469 C 256.3125 270.621094 257.359375 270.847656 258.359375 271.285156 C 259.359375 271.722656 260.238281 272.339844 260.992188 273.128906 Z M 76.386719 262.46875 C 76.386719 260.242188 76.539062 258.027344 76.839844 255.824219 C 77.144531 253.621094 77.59375 251.445312 78.191406 249.304688 C 78.789062 247.160156 79.53125 245.070312 80.417969 243.027344 C 81.300781 240.988281 82.320312 239.015625 83.472656 237.113281 C 84.625 235.210938 85.902344 233.398438 87.304688 231.671875 C 88.707031 229.945312 90.21875 228.320312 91.839844 226.800781 C 93.460938 225.28125 95.179688 223.878906 96.996094 222.59375 C 98.808594 221.308594 100.703125 220.152344 102.675781 219.128906 C 104.644531 218.101562 106.679688 217.214844 108.769531 216.46875 C 110.863281 215.71875 113 215.117188 115.171875 214.660156 C 117.347656 214.207031 119.542969 213.902344 121.761719 213.746094 C 123.976562 213.589844 126.195312 213.585938 128.414062 213.734375 C 130.628906 213.882812 132.828125 214.183594 135.003906 214.632812 C 137.179688 215.082031 139.316406 215.675781 141.410156 216.417969 C 143.503906 217.160156 145.539062 218.039062 147.515625 219.058594 C 149.492188 220.078125 151.386719 221.226562 153.207031 222.507812 C 157.722656 225.625 161.570312 229.421875 164.746094 233.902344 L 165.234375 234.714844 C 166.632812 236.742188 167.875 238.863281 168.953125 241.082031 C 170.03125 243.296875 170.933594 245.582031 171.667969 247.933594 C 172.398438 250.285156 172.953125 252.679688 173.324219 255.117188 C 173.691406 257.554688 173.878906 260.003906 173.878906 262.46875 C 173.878906 264.933594 173.691406 267.382812 173.324219 269.820312 C 172.953125 272.257812 172.398438 274.652344 171.667969 277.003906 C 170.933594 279.355469 170.03125 281.640625 168.953125 283.855469 C 167.875 286.070312 166.632812 288.195312 165.234375 290.222656 L 164.746094 291.035156 C 161.570312 295.515625 157.722656 299.3125 153.207031 302.429688 C 151.386719 303.707031 149.492188 304.859375 147.515625 305.878906 C 145.539062 306.898438 143.503906 307.777344 141.410156 308.519531 C 139.316406 309.261719 137.179688 309.855469 135.003906 310.304688 C 132.828125 310.753906 130.628906 311.050781 128.414062 311.199219 C 126.195312 311.347656 123.976562 311.347656 121.761719 311.191406 C 119.542969 311.035156 117.347656 310.730469 115.171875 310.273438 C 113 309.820312 110.863281 309.21875 108.769531 308.46875 C 106.679688 307.722656 104.644531 306.835938 102.675781 305.808594 C 100.703125 304.785156 98.808594 303.628906 96.996094 302.34375 C 95.179688 301.058594 93.460938 299.65625 91.839844 298.136719 C 90.21875 296.617188 88.707031 294.992188 87.304688 293.265625 C 85.902344 291.539062 84.625 289.722656 83.472656 287.824219 C 82.320312 285.921875 81.300781 283.949219 80.417969 281.910156 C 79.53125 279.867188 78.789062 277.773438 78.191406 275.632812 C 77.59375 273.488281 77.144531 271.316406 76.839844 269.113281 C 76.539062 266.90625 76.386719 264.691406 76.386719 262.46875 Z M 255.21875 319.441406 L 173.933594 319.441406 C 172.839844 319.425781 171.792969 319.199219 170.792969 318.761719 C 169.792969 318.324219 168.914062 317.707031 168.160156 316.917969 C 167.011719 315.765625 166.335938 314.378906 166.128906 312.765625 C 169.648438 309.910156 172.816406 306.707031 175.640625 303.160156 L 255.21875 303.160156 C 256.3125 303.175781 257.359375 303.402344 258.359375 303.839844 C 259.359375 304.277344 260.238281 304.894531 260.992188 305.683594 C 261.761719 306.414062 262.347656 307.269531 262.761719 308.246094 C 263.171875 309.222656 263.367188 310.242188 263.347656 311.300781 C 263.347656 311.835938 263.296875 312.363281 263.191406 312.886719 C 263.089844 313.414062 262.933594 313.921875 262.730469 314.414062 C 262.527344 314.910156 262.277344 315.378906 261.980469 315.824219 C 261.683594 316.265625 261.347656 316.679688 260.96875 317.054688 C 260.589844 317.433594 260.179688 317.769531 259.738281 318.066406 C 259.292969 318.363281 258.824219 318.617188 258.332031 318.820312 C 257.839844 319.023438 257.328125 319.179688 256.804688 319.28125 C 256.28125 319.386719 255.753906 319.441406 255.21875 319.441406 Z M 260.992188 208.019531 C 261.761719 208.75 262.347656 209.601562 262.761719 210.582031 C 263.171875 211.558594 263.367188 212.574219 263.347656 213.636719 C 263.347656 214.171875 263.296875 214.699219 263.191406 215.222656 C 263.089844 215.746094 262.933594 216.257812 262.730469 216.75 C 262.527344 217.246094 262.277344 217.714844 261.980469 218.15625 C 261.683594 218.601562 261.347656 219.011719 260.96875 219.390625 C 260.589844 219.769531 260.179688 220.105469 259.738281 220.402344 C 259.292969 220.699219 258.824219 220.949219 258.332031 221.15625 C 257.839844 221.359375 257.328125 221.515625 256.804688 221.617188 C 256.28125 221.722656 255.753906 221.773438 255.21875 221.773438 L 175.640625 221.773438 C 172.714844 218.210938 169.4375 215.007812 165.804688 212.171875 C 165.890625 211.699219 166.015625 211.242188 166.183594 210.792969 C 166.351562 210.34375 166.554688 209.914062 166.796875 209.503906 C 167.039062 209.089844 167.316406 208.703125 167.625 208.339844 C 167.9375 207.976562 168.277344 207.644531 168.648438 207.339844 C 169.015625 207.039062 169.410156 206.769531 169.824219 206.535156 C 170.242188 206.300781 170.675781 206.105469 171.125 205.949219 C 171.578125 205.792969 172.039062 205.675781 172.511719 205.597656 C 172.980469 205.523438 173.457031 205.488281 173.933594 205.496094 L 255.21875 205.496094 C 256.3125 205.511719 257.359375 205.738281 258.359375 206.175781 C 259.359375 206.613281 260.238281 207.230469 260.992188 208.019531 Z M 260.992188 208.019531 " fill-opacity="1" fill-rule="nonzero"/></g><path fill="#000000" d="M 121.097656 246.191406 L 141.417969 246.191406 C 141.953125 246.191406 142.480469 246.140625 143.003906 246.035156 C 143.527344 245.929688 144.035156 245.777344 144.527344 245.570312 C 145.023438 245.367188 145.492188 245.117188 145.933594 244.820312 C 146.378906 244.523438 146.789062 244.183594 147.167969 243.808594 C 147.542969 243.429688 147.878906 243.019531 148.175781 242.574219 C 148.472656 242.128906 148.722656 241.660156 148.929688 241.167969 C 149.132812 240.671875 149.285156 240.164062 149.390625 239.640625 C 149.496094 239.117188 149.546875 238.585938 149.546875 238.050781 C 149.546875 237.519531 149.496094 236.988281 149.390625 236.464844 C 149.285156 235.941406 149.132812 235.429688 148.929688 234.9375 C 148.722656 234.445312 148.472656 233.976562 148.175781 233.53125 C 147.878906 233.085938 147.542969 232.675781 147.167969 232.296875 C 146.789062 231.917969 146.378906 231.582031 145.933594 231.285156 C 145.492188 230.988281 145.023438 230.738281 144.527344 230.53125 C 144.035156 230.328125 143.527344 230.175781 143.003906 230.070312 C 142.480469 229.964844 141.953125 229.914062 141.417969 229.914062 L 133.289062 229.914062 C 133.289062 229.378906 133.238281 228.851562 133.132812 228.324219 C 133.03125 227.800781 132.875 227.292969 132.671875 226.800781 C 132.464844 226.304688 132.214844 225.835938 131.917969 225.390625 C 131.625 224.949219 131.285156 224.535156 130.910156 224.160156 C 130.53125 223.78125 130.121094 223.441406 129.675781 223.144531 C 129.234375 222.847656 128.765625 222.597656 128.273438 222.394531 C 127.777344 222.191406 127.269531 222.035156 126.746094 221.929688 C 126.222656 221.828125 125.695312 221.773438 125.160156 221.773438 C 124.628906 221.773438 124.097656 221.828125 123.574219 221.929688 C 123.050781 222.035156 122.542969 222.191406 122.050781 222.394531 C 121.558594 222.597656 121.089844 222.847656 120.644531 223.144531 C 120.199219 223.441406 119.789062 223.78125 119.414062 224.160156 C 119.035156 224.535156 118.699219 224.949219 118.402344 225.390625 C 118.105469 225.835938 117.855469 226.304688 117.652344 226.800781 C 117.445312 227.292969 117.292969 227.800781 117.1875 228.324219 C 117.085938 228.851562 117.03125 229.378906 117.03125 229.914062 L 117.03125 230.320312 C 115.808594 230.570312 114.617188 230.929688 113.457031 231.398438 C 112.300781 231.867188 111.195312 232.4375 110.140625 233.109375 C 109.089844 233.78125 108.105469 234.546875 107.195312 235.402344 C 106.28125 236.253906 105.457031 237.1875 104.714844 238.191406 C 103.972656 239.199219 103.332031 240.265625 102.785156 241.390625 C 102.242188 242.515625 101.804688 243.683594 101.476562 244.890625 C 101.144531 246.097656 100.929688 247.324219 100.824219 248.570312 C 100.722656 249.816406 100.730469 251.0625 100.855469 252.304688 C 100.984375 253.550781 101.222656 254.773438 101.570312 255.972656 C 101.921875 257.171875 102.378906 258.332031 102.945312 259.445312 C 103.507812 260.5625 104.167969 261.617188 104.925781 262.613281 C 105.683594 263.605469 106.527344 264.523438 107.457031 265.359375 C 108.382812 266.199219 109.378906 266.945312 110.441406 267.597656 C 111.507812 268.253906 112.621094 268.804688 113.789062 269.253906 C 114.953125 269.703125 116.152344 270.039062 117.378906 270.269531 C 118.609375 270.496094 119.847656 270.609375 121.097656 270.605469 L 129.226562 270.605469 C 129.492188 270.605469 129.757812 270.632812 130.019531 270.683594 C 130.28125 270.738281 130.535156 270.816406 130.78125 270.917969 C 131.027344 271.019531 131.261719 271.144531 131.484375 271.292969 C 131.707031 271.441406 131.910156 271.609375 132.097656 271.800781 C 132.289062 271.988281 132.457031 272.195312 132.605469 272.414062 C 132.753906 272.636719 132.878906 272.871094 132.980469 273.121094 C 133.082031 273.367188 133.160156 273.621094 133.210938 273.882812 C 133.265625 274.144531 133.289062 274.410156 133.289062 274.675781 C 133.289062 274.945312 133.265625 275.207031 133.210938 275.46875 C 133.160156 275.730469 133.082031 275.988281 132.980469 276.234375 C 132.878906 276.480469 132.753906 276.714844 132.605469 276.9375 C 132.457031 277.160156 132.289062 277.363281 132.097656 277.554688 C 131.910156 277.742188 131.707031 277.910156 131.484375 278.058594 C 131.261719 278.207031 131.027344 278.332031 130.78125 278.4375 C 130.535156 278.539062 130.28125 278.617188 130.019531 278.667969 C 129.757812 278.71875 129.492188 278.746094 129.226562 278.746094 L 108.902344 278.746094 C 108.371094 278.746094 107.839844 278.796875 107.316406 278.902344 C 106.792969 279.007812 106.285156 279.160156 105.792969 279.367188 C 105.300781 279.570312 104.832031 279.820312 104.386719 280.117188 C 103.945312 280.414062 103.53125 280.75 103.15625 281.128906 C 102.777344 281.507812 102.441406 281.917969 102.144531 282.363281 C 101.847656 282.808594 101.597656 283.277344 101.394531 283.769531 C 101.1875 284.265625 101.035156 284.773438 100.929688 285.296875 C 100.828125 285.820312 100.773438 286.351562 100.773438 286.882812 C 100.773438 287.417969 100.828125 287.949219 100.929688 288.472656 C 101.035156 288.996094 101.1875 289.503906 101.394531 290 C 101.597656 290.492188 101.847656 290.960938 102.144531 291.40625 C 102.441406 291.851562 102.777344 292.261719 103.15625 292.640625 C 103.53125 293.015625 103.945312 293.355469 104.386719 293.652344 C 104.832031 293.949219 105.300781 294.199219 105.792969 294.402344 C 106.285156 294.609375 106.792969 294.761719 107.316406 294.867188 C 107.839844 294.972656 108.371094 295.023438 108.902344 295.023438 L 117.03125 295.023438 C 117.03125 295.558594 117.085938 296.085938 117.1875 296.609375 C 117.292969 297.136719 117.445312 297.644531 117.652344 298.136719 C 117.855469 298.632812 118.105469 299.101562 118.402344 299.546875 C 118.699219 299.988281 119.035156 300.402344 119.414062 300.777344 C 119.789062 301.15625 120.199219 301.492188 120.644531 301.789062 C 121.089844 302.085938 121.558594 302.339844 122.050781 302.542969 C 122.542969 302.746094 123.050781 302.902344 123.574219 303.003906 C 124.097656 303.109375 124.628906 303.160156 125.160156 303.160156 C 125.695312 303.160156 126.222656 303.109375 126.746094 303.003906 C 127.269531 302.902344 127.777344 302.746094 128.273438 302.542969 C 128.765625 302.339844 129.234375 302.085938 129.675781 301.789062 C 130.121094 301.492188 130.53125 301.15625 130.910156 300.777344 C 131.285156 300.402344 131.625 299.988281 131.917969 299.546875 C 132.214844 299.101562 132.464844 298.632812 132.671875 298.136719 C 132.875 297.644531 133.03125 297.136719 133.132812 296.609375 C 133.238281 296.085938 133.289062 295.558594 133.289062 295.023438 C 133.953125 294.957031 134.617188 294.855469 135.269531 294.726562 C 135.925781 294.59375 136.574219 294.429688 137.214844 294.234375 C 137.851562 294.039062 138.480469 293.8125 139.097656 293.554688 C 139.714844 293.296875 140.320312 293.011719 140.910156 292.691406 C 141.496094 292.375 142.070312 292.03125 142.625 291.660156 C 143.179688 291.285156 143.714844 290.886719 144.230469 290.460938 C 144.75 290.035156 145.242188 289.585938 145.714844 289.109375 C 146.1875 288.636719 146.632812 288.140625 147.058594 287.621094 C 147.480469 287.105469 147.878906 286.566406 148.25 286.007812 C 148.617188 285.453125 148.960938 284.878906 149.273438 284.285156 C 149.589844 283.695312 149.875 283.089844 150.128906 282.472656 C 150.382812 281.851562 150.609375 281.222656 150.800781 280.582031 C 150.992188 279.941406 151.15625 279.292969 151.285156 278.636719 C 151.414062 277.976562 151.511719 277.316406 151.574219 276.648438 C 151.640625 275.984375 151.671875 275.316406 151.671875 274.644531 C 151.667969 273.976562 151.636719 273.308594 151.570312 272.644531 C 151.503906 271.976562 151.402344 271.316406 151.273438 270.660156 C 151.140625 270.003906 150.976562 269.355469 150.78125 268.714844 C 150.585938 268.074219 150.363281 267.445312 150.105469 266.824219 C 149.847656 266.207031 149.5625 265.601562 149.246094 265.011719 C 148.929688 264.421875 148.585938 263.851562 148.214844 263.292969 C 147.839844 262.738281 147.441406 262.203125 147.019531 261.683594 C 146.59375 261.167969 146.144531 260.671875 145.671875 260.199219 C 145.195312 259.726562 144.703125 259.277344 144.183594 258.855469 C 143.667969 258.429688 143.128906 258.03125 142.574219 257.660156 C 142.015625 257.289062 141.445312 256.945312 140.855469 256.632812 C 140.261719 256.316406 139.660156 256.03125 139.042969 255.777344 C 138.421875 255.519531 137.792969 255.296875 137.152344 255.101562 C 136.515625 254.910156 135.867188 254.746094 135.210938 254.617188 C 134.554688 254.488281 133.894531 254.390625 133.226562 254.324219 C 132.5625 254.261719 131.894531 254.226562 131.226562 254.230469 C 130.558594 254.230469 129.890625 254.261719 129.226562 254.328125 L 121.097656 254.328125 C 120.828125 254.328125 120.566406 254.304688 120.304688 254.25 C 120.042969 254.199219 119.789062 254.121094 119.542969 254.019531 C 119.292969 253.917969 119.058594 253.792969 118.839844 253.644531 C 118.617188 253.496094 118.410156 253.328125 118.222656 253.136719 C 118.035156 252.949219 117.867188 252.742188 117.71875 252.519531 C 117.570312 252.300781 117.445312 252.0625 117.339844 251.816406 C 117.238281 251.570312 117.164062 251.316406 117.109375 251.054688 C 117.058594 250.792969 117.03125 250.527344 117.03125 250.261719 C 117.03125 249.992188 117.058594 249.726562 117.109375 249.464844 C 117.164062 249.203125 117.238281 248.949219 117.339844 248.703125 C 117.445312 248.457031 117.570312 248.222656 117.71875 248 C 117.867188 247.777344 118.035156 247.570312 118.222656 247.382812 C 118.410156 247.195312 118.617188 247.023438 118.839844 246.875 C 119.058594 246.726562 119.292969 246.601562 119.542969 246.5 C 119.789062 246.398438 120.042969 246.320312 120.304688 246.269531 C 120.566406 246.21875 120.828125 246.191406 121.097656 246.191406 Z M 121.097656 246.191406 " fill-opacity="1" fill-rule="nonzero"/></svg>