<svg xmlns="http://www.w3.org/2000/svg" xmlns:xlink="http://www.w3.org/1999/xlink" width="1920" zoomAndPan="magnify" viewBox="0 0 1440 809.999993" height="1080" preserveAspectRatio="xMidYMid meet" version="1.0"><defs><g/><clipPath id="bee14da0e5"><path d="M 597 55 L 1342 55 L 1342 702 L 597 702 Z M 597 55 " clip-rule="nonzero"/></clipPath><clipPath id="7b0e3f312e"><path d="M 1060.980469 -109.878906 L 1439.800781 540.027344 L 878.015625 867.480469 L 499.199219 217.574219 Z M 1060.980469 -109.878906 " clip-rule="nonzero"/></clipPath><clipPath id="bd1e195081"><path d="M 1060.980469 -109.878906 L 1439.800781 540.027344 L 878.015625 867.480469 L 499.199219 217.574219 Z M 1060.980469 -109.878906 " clip-rule="nonzero"/></clipPath><clipPath id="9fae0a895b"><path d="M 593 52 L 1345 52 L 1345 705 L 593 705 Z M 593 52 " clip-rule="nonzero"/></clipPath><clipPath id="8f44dfff49"><path d="M 1060.980469 -109.878906 L 1439.800781 540.027344 L 878.015625 867.480469 L 499.199219 217.574219 Z M 1060.980469 -109.878906 " clip-rule="nonzero"/></clipPath><clipPath id="f384e3208b"><path d="M 1060.980469 -109.878906 L 1439.800781 540.027344 L 878.015625 867.480469 L 499.199219 217.574219 Z M 1060.980469 -109.878906 " clip-rule="nonzero"/></clipPath><clipPath id="51c77d31fc"><path d="M 710 155 L 1238 155 L 1238 613 L 710 613 Z M 710 155 " clip-rule="nonzero"/></clipPath><clipPath id="9107c56e30"><path d="M 1039.058594 38 L 1307.214844 498.054688 L 909.367188 729.953125 L 641.210938 269.898438 Z M 1039.058594 38 " clip-rule="nonzero"/></clipPath><clipPath id="ef5b06e81d"><path d="M 1039.058594 38 L 1307.214844 498.054688 L 909.367188 729.953125 L 641.210938 269.898438 Z M 1039.058594 38 " clip-rule="nonzero"/></clipPath><clipPath id="eec5368763"><path d="M 708 153 L 1241 153 L 1241 615 L 708 615 Z M 708 153 " clip-rule="nonzero"/></clipPath><clipPath id="53249e4057"><path d="M 1039.058594 38 L 1307.214844 498.054688 L 909.367188 729.953125 L 641.210938 269.898438 Z M 1039.058594 38 " clip-rule="nonzero"/></clipPath><clipPath id="a8cf960596"><path d="M 1039.058594 38 L 1307.214844 498.054688 L 909.367188 729.953125 L 641.210938 269.898438 Z M 1039.058594 38 " clip-rule="nonzero"/></clipPath><clipPath id="8aee707f1c"><path d="M 807 237 L 1140 237 L 1140 526 L 807 526 Z M 807 237 " clip-rule="nonzero"/></clipPath><clipPath id="8bc2beab34"><path d="M 1014.5625 163.613281 L 1183.765625 453.898438 L 933.003906 600.0625 L 763.800781 309.777344 Z M 1014.5625 163.613281 " clip-rule="nonzero"/></clipPath><clipPath id="505795322b"><path d="M 1014.5625 163.613281 L 1183.765625 453.898438 L 933.003906 600.0625 L 763.800781 309.777344 Z M 1014.5625 163.613281 " clip-rule="nonzero"/></clipPath><clipPath id="ad2cdd4cdd"><path d="M 805 236 L 1142 236 L 1142 528 L 805 528 Z M 805 236 " clip-rule="nonzero"/></clipPath><clipPath id="f08f0cb9f2"><path d="M 1014.5625 163.613281 L 1183.765625 453.898438 L 933.003906 600.0625 L 763.800781 309.777344 Z M 1014.5625 163.613281 " clip-rule="nonzero"/></clipPath><clipPath id="fd45a65304"><path d="M 1014.5625 163.613281 L 1183.765625 453.898438 L 933.003906 600.0625 L 763.800781 309.777344 Z M 1014.5625 163.613281 " clip-rule="nonzero"/></clipPath><clipPath id="3521be2937"><path d="M 891 312 L 1057 312 L 1057 456 L 891 456 Z M 891 312 " clip-rule="nonzero"/></clipPath><clipPath id="1eeada8795"><path d="M 993.984375 275.527344 L 1078.207031 420.023438 L 953.148438 492.917969 L 868.925781 348.421875 Z M 993.984375 275.527344 " clip-rule="nonzero"/></clipPath><clipPath id="8775d016d6"><path d="M 993.984375 275.527344 L 1078.207031 420.023438 L 953.148438 492.917969 L 868.925781 348.421875 Z M 993.984375 275.527344 " clip-rule="nonzero"/></clipPath><clipPath id="5a2d4014c6"><path d="M 890 311 L 1058 311 L 1058 457 L 890 457 Z M 890 311 " clip-rule="nonzero"/></clipPath><clipPath id="1349d973c2"><path d="M 993.984375 275.527344 L 1078.207031 420.023438 L 953.148438 492.917969 L 868.925781 348.421875 Z M 993.984375 275.527344 " clip-rule="nonzero"/></clipPath><clipPath id="9b58c2848f"><path d="M 993.984375 275.527344 L 1078.207031 420.023438 L 953.148438 492.917969 L 868.925781 348.421875 Z M 993.984375 275.527344 " clip-rule="nonzero"/></clipPath><clipPath id="ae2dd7864e"><path d="M 70 80 L 142 80 L 142 142 L 70 142 Z M 70 80 " clip-rule="nonzero"/></clipPath><clipPath id="dea57471b4"><path d="M 114.5 64.246094 L 150.757812 126.453125 L 96.976562 157.800781 L 60.71875 95.597656 Z M 114.5 64.246094 " clip-rule="nonzero"/></clipPath><clipPath id="40729a81a5"><path d="M 114.5 64.246094 L 150.757812 126.453125 L 96.976562 157.800781 L 60.71875 95.597656 Z M 114.5 64.246094 " clip-rule="nonzero"/></clipPath><clipPath id="09373752a1"><path d="M 69 79 L 142 79 L 142 142 L 69 142 Z M 69 79 " clip-rule="nonzero"/></clipPath><clipPath id="148022d576"><path d="M 114.5 64.246094 L 150.757812 126.453125 L 96.976562 157.800781 L 60.71875 95.597656 Z M 114.5 64.246094 " clip-rule="nonzero"/></clipPath><clipPath id="9f1a255249"><path d="M 114.5 64.246094 L 150.757812 126.453125 L 96.976562 157.800781 L 60.71875 95.597656 Z M 114.5 64.246094 " clip-rule="nonzero"/></clipPath><clipPath id="265a9ce6c6"><path d="M 70 169 L 142 169 L 142 232 L 70 232 Z M 70 169 " clip-rule="nonzero"/></clipPath><clipPath id="bce11344d1"><path d="M 115.03125 153.785156 L 151.289062 215.992188 L 97.507812 247.339844 L 61.25 185.132812 Z M 115.03125 153.785156 " clip-rule="nonzero"/></clipPath><clipPath id="1acc9d2d40"><path d="M 115.03125 153.785156 L 151.289062 215.992188 L 97.507812 247.339844 L 61.25 185.132812 Z M 115.03125 153.785156 " clip-rule="nonzero"/></clipPath><clipPath id="1b1b3ae2f9"><path d="M 70 169 L 143 169 L 143 232 L 70 232 Z M 70 169 " clip-rule="nonzero"/></clipPath><clipPath id="6c51e83390"><path d="M 115.03125 153.785156 L 151.289062 215.992188 L 97.507812 247.339844 L 61.25 185.132812 Z M 115.03125 153.785156 " clip-rule="nonzero"/></clipPath><clipPath id="d6239f2838"><path d="M 115.03125 153.785156 L 151.289062 215.992188 L 97.507812 247.339844 L 61.25 185.132812 Z M 115.03125 153.785156 " clip-rule="nonzero"/></clipPath><clipPath id="0a4e26c33d"><path d="M 70 259 L 141 259 L 141 321 L 70 321 Z M 70 259 " clip-rule="nonzero"/></clipPath><clipPath id="f3552e8709"><path d="M 114.28125 243.921875 L 150.160156 305.476562 L 97.027344 336.449219 L 61.148438 274.890625 Z M 114.28125 243.921875 " clip-rule="nonzero"/></clipPath><clipPath id="ef5f2f53b3"><path d="M 114.28125 243.921875 L 150.160156 305.476562 L 97.027344 336.449219 L 61.148438 274.890625 Z M 114.28125 243.921875 " clip-rule="nonzero"/></clipPath><clipPath id="60805766e0"><path d="M 69 259 L 142 259 L 142 322 L 69 322 Z M 69 259 " clip-rule="nonzero"/></clipPath><clipPath id="da71c1b643"><path d="M 114.28125 243.921875 L 150.160156 305.476562 L 97.027344 336.449219 L 61.148438 274.890625 Z M 114.28125 243.921875 " clip-rule="nonzero"/></clipPath><clipPath id="60417e1a79"><path d="M 114.28125 243.921875 L 150.160156 305.476562 L 97.027344 336.449219 L 61.148438 274.890625 Z M 114.28125 243.921875 " clip-rule="nonzero"/></clipPath><clipPath id="3369face8a"><path d="M 70 347 L 141 347 L 141 409 L 70 409 Z M 70 347 " clip-rule="nonzero"/></clipPath><clipPath id="d17bf09e82"><path d="M 113.964844 332.191406 L 149.847656 393.75 L 96.714844 424.71875 L 60.832031 363.164062 Z M 113.964844 332.191406 " clip-rule="nonzero"/></clipPath><clipPath id="ef167b39b8"><path d="M 113.964844 332.191406 L 149.847656 393.75 L 96.714844 424.71875 L 60.832031 363.164062 Z M 113.964844 332.191406 " clip-rule="nonzero"/></clipPath><clipPath id="ae56c8d9e4"><path d="M 69 347 L 141 347 L 141 410 L 69 410 Z M 69 347 " clip-rule="nonzero"/></clipPath><clipPath id="94419156ec"><path d="M 113.964844 332.191406 L 149.847656 393.75 L 96.714844 424.71875 L 60.832031 363.164062 Z M 113.964844 332.191406 " clip-rule="nonzero"/></clipPath><clipPath id="32728119d6"><path d="M 113.964844 332.191406 L 149.847656 393.75 L 96.714844 424.71875 L 60.832031 363.164062 Z M 113.964844 332.191406 " clip-rule="nonzero"/></clipPath></defs><g clip-path="url(#bee14da0e5)"><g clip-path="url(#7b0e3f312e)"><g clip-path="url(#bd1e195081)"><path fill="#2c92d5" d="M 597.550781 380.1875 L 782.101562 57.523438 L 1153.816406 55.953125 L 1341.125 377.304688 L 1156.570312 699.96875 L 784.859375 701.539062 Z M 597.550781 380.1875 " fill-opacity="1" fill-rule="nonzero"/></g></g></g><g clip-path="url(#9fae0a895b)"><g clip-path="url(#8f44dfff49)"><g clip-path="url(#f384e3208b)"><path fill="#191919" d="M 1318.839844 377.253906 L 1145.300781 680.628906 L 795.800781 682.125 L 619.835938 380.238281 L 793.300781 76.734375 L 1142.875 75.371094 L 1318.839844 377.253906 M 1344.886719 377.195312 L 1155.761719 52.730469 L 780.210938 54.28125 L 593.789062 380.296875 L 782.914062 704.761719 L 1158.464844 703.210938 Z M 1344.886719 377.195312 " fill-opacity="1" fill-rule="nonzero"/></g></g></g><g clip-path="url(#51c77d31fc)"><g clip-path="url(#9107c56e30)"><g clip-path="url(#ef5b06e81d)"><path fill="#37c9ef" d="M 710.90625 385.011719 L 841.585938 156.535156 L 1104.792969 155.421875 L 1237.425781 382.96875 L 1106.746094 611.445312 L 843.539062 612.558594 Z M 710.90625 385.011719 " fill-opacity="1" fill-rule="nonzero"/></g></g></g><g clip-path="url(#eec5368763)"><g clip-path="url(#53249e4057)"><g clip-path="url(#a8cf960596)"><path fill="#191919" d="M 1221.644531 382.933594 L 1098.765625 597.75 L 851.285156 598.808594 L 726.6875 385.046875 L 849.515625 170.136719 L 1097.046875 169.171875 L 1221.644531 382.933594 M 1240.089844 382.894531 L 1106.171875 153.140625 L 840.25 154.238281 L 708.242188 385.085938 L 842.160156 614.839844 L 1108.085938 613.742188 Z M 1240.089844 382.894531 " fill-opacity="1" fill-rule="nonzero"/></g></g></g><g clip-path="url(#8aee707f1c)"><g clip-path="url(#8bc2beab34)"><g clip-path="url(#505795322b)"><path fill="#3edad8" d="M 807.621094 382.445312 L 890.03125 238.363281 L 1056.015625 237.660156 L 1139.65625 381.15625 L 1057.246094 525.238281 L 891.261719 525.9375 Z M 807.621094 382.445312 " fill-opacity="1" fill-rule="nonzero"/></g></g></g><g clip-path="url(#ad2cdd4cdd)"><g clip-path="url(#f08f0cb9f2)"><g clip-path="url(#fd45a65304)"><path fill="#191919" d="M 1129.703125 381.132812 L 1052.210938 516.601562 L 896.148438 517.269531 L 817.574219 382.464844 L 895.03125 246.9375 L 1051.128906 246.328125 L 1129.703125 381.132812 M 1141.335938 381.105469 L 1056.882812 236.222656 L 889.1875 236.914062 L 805.941406 382.492188 L 890.394531 527.378906 L 1058.089844 526.6875 Z M 1141.335938 381.105469 " fill-opacity="1" fill-rule="nonzero"/></g></g></g><g clip-path="url(#3521be2937)"><g clip-path="url(#1eeada8795)"><g clip-path="url(#8775d016d6)"><path fill="#ffffff" d="M 891.113281 384.308594 L 932.078125 312.6875 L 1014.589844 312.339844 L 1056.167969 383.671875 L 1015.199219 455.292969 L 932.691406 455.640625 Z M 891.113281 384.308594 " fill-opacity="1" fill-rule="nonzero"/></g></g></g><g clip-path="url(#5a2d4014c6)"><g clip-path="url(#1349d973c2)"><g clip-path="url(#9b58c2848f)"><path fill="#191919" d="M 1051.21875 383.660156 L 1012.699219 451 L 935.121094 451.332031 L 896.0625 384.320312 L 934.566406 316.953125 L 1012.160156 316.648438 L 1051.21875 383.660156 M 1057.003906 383.644531 L 1015.019531 311.625 L 931.660156 311.96875 L 890.277344 384.335938 L 932.257812 456.355469 L 1015.621094 456.011719 Z M 1057.003906 383.644531 " fill-opacity="1" fill-rule="nonzero"/></g></g></g><g clip-path="url(#ae2dd7864e)"><g clip-path="url(#dea57471b4)"><g clip-path="url(#40729a81a5)"><path fill="#ffffff" d="M 70.335938 110.953125 L 87.925781 80.203125 L 123.351562 80.054688 L 141.203125 110.679688 L 123.613281 141.429688 L 88.1875 141.582031 Z M 70.335938 110.953125 " fill-opacity="1" fill-rule="nonzero"/></g></g></g><g clip-path="url(#09373752a1)"><g clip-path="url(#148022d576)"><g clip-path="url(#9f1a255249)"><path fill="#191919" d="M 139.078125 110.675781 L 122.539062 139.585938 L 89.230469 139.730469 L 72.460938 110.960938 L 88.992188 82.035156 L 122.308594 81.90625 L 139.078125 110.675781 M 141.558594 110.667969 L 123.535156 79.746094 L 87.746094 79.894531 L 69.976562 110.964844 L 88 141.886719 L 123.792969 141.738281 Z M 141.558594 110.667969 " fill-opacity="1" fill-rule="nonzero"/></g></g></g><g clip-path="url(#265a9ce6c6)"><g clip-path="url(#bce11344d1)"><g clip-path="url(#1acc9d2d40)"><path fill="#3edad8" d="M 70.863281 200.492188 L 88.453125 169.742188 L 123.878906 169.59375 L 141.730469 200.21875 L 124.140625 230.96875 L 88.714844 231.117188 Z M 70.863281 200.492188 " fill-opacity="1" fill-rule="nonzero"/></g></g></g><g clip-path="url(#1b1b3ae2f9)"><g clip-path="url(#6c51e83390)"><g clip-path="url(#d6239f2838)"><path fill="#191919" d="M 139.605469 200.214844 L 123.066406 229.125 L 89.757812 229.269531 L 72.988281 200.5 L 89.519531 171.574219 L 122.835938 171.441406 L 139.605469 200.214844 M 142.089844 200.207031 L 124.0625 169.285156 L 88.273438 169.433594 L 70.507812 200.503906 L 88.53125 231.425781 L 124.320312 231.277344 Z M 142.089844 200.207031 " fill-opacity="1" fill-rule="nonzero"/></g></g></g><g clip-path="url(#0a4e26c33d)"><g clip-path="url(#f3552e8709)"><g clip-path="url(#ef5f2f53b3)"><path fill="#37c9ef" d="M 70.300781 290.4375 L 87.816406 259.8125 L 123.09375 259.664062 L 140.871094 290.164062 L 123.355469 320.785156 L 88.078125 320.933594 Z M 70.300781 290.4375 " fill-opacity="1" fill-rule="nonzero"/></g></g></g><g clip-path="url(#60805766e0)"><g clip-path="url(#da71c1b643)"><g clip-path="url(#60417e1a79)"><path fill="#191919" d="M 138.753906 290.15625 L 122.285156 318.949219 L 89.117188 319.09375 L 72.414062 290.441406 L 88.878906 261.636719 L 122.054688 261.507812 L 138.753906 290.15625 M 141.226562 290.152344 L 123.277344 259.359375 L 87.636719 259.507812 L 69.941406 290.445312 L 87.890625 321.242188 L 123.535156 321.09375 Z M 141.226562 290.152344 " fill-opacity="1" fill-rule="nonzero"/></g></g></g><g clip-path="url(#3369face8a)"><g clip-path="url(#d17bf09e82)"><g clip-path="url(#ef167b39b8)"><path fill="#2c92d5" d="M 70.242188 378.433594 L 87.65625 347.988281 L 122.726562 347.839844 L 140.398438 378.160156 L 122.988281 408.601562 L 87.917969 408.75 Z M 70.242188 378.433594 " fill-opacity="1" fill-rule="nonzero"/></g></g></g><g clip-path="url(#ae56c8d9e4)"><g clip-path="url(#94419156ec)"><g clip-path="url(#32728119d6)"><path fill="#191919" d="M 138.296875 378.15625 L 121.921875 406.777344 L 88.949219 406.917969 L 72.347656 378.4375 L 88.710938 349.800781 L 121.695312 349.671875 L 138.296875 378.15625 M 140.753906 378.152344 L 122.910156 347.539062 L 87.476562 347.683594 L 69.890625 378.441406 L 87.734375 409.054688 L 123.164062 408.910156 Z M 140.753906 378.152344 " fill-opacity="1" fill-rule="nonzero"/></g></g></g><g fill="#ffffff" fill-opacity="1"><g transform="translate(156.153046, 123.197431)"><g><path d="M 17.03125 -6.453125 C 17.03125 -4.316406 16.253906 -2.648438 14.703125 -1.453125 C 13.160156 -0.265625 11.0625 0.328125 8.40625 0.328125 C 5.519531 0.328125 3.304688 -0.0390625 1.765625 -0.78125 L 1.765625 -3.5 C 2.753906 -3.082031 3.835938 -2.75 5.015625 -2.5 C 6.191406 -2.257812 7.351562 -2.140625 8.5 -2.140625 C 10.382812 -2.140625 11.800781 -2.492188 12.75 -3.203125 C 13.695312 -3.921875 14.171875 -4.914062 14.171875 -6.1875 C 14.171875 -7.03125 14.003906 -7.71875 13.671875 -8.25 C 13.335938 -8.789062 12.773438 -9.285156 11.984375 -9.734375 C 11.191406 -10.191406 9.988281 -10.710938 8.375 -11.296875 C 6.113281 -12.097656 4.5 -13.050781 3.53125 -14.15625 C 2.5625 -15.269531 2.078125 -16.71875 2.078125 -18.5 C 2.078125 -20.363281 2.78125 -21.847656 4.1875 -22.953125 C 5.59375 -24.066406 7.453125 -24.625 9.765625 -24.625 C 12.171875 -24.625 14.390625 -24.179688 16.421875 -23.296875 L 15.546875 -20.828125 C 13.535156 -21.671875 11.585938 -22.09375 9.703125 -22.09375 C 8.203125 -22.09375 7.03125 -21.769531 6.1875 -21.125 C 5.351562 -20.488281 4.9375 -19.601562 4.9375 -18.46875 C 4.9375 -17.625 5.085938 -16.929688 5.390625 -16.390625 C 5.703125 -15.859375 6.222656 -15.367188 6.953125 -14.921875 C 7.691406 -14.472656 8.820312 -13.976562 10.34375 -13.4375 C 12.882812 -12.519531 14.632812 -11.539062 15.59375 -10.5 C 16.550781 -9.46875 17.03125 -8.117188 17.03125 -6.453125 Z M 17.03125 -6.453125 "/></g></g></g><g fill="#ffffff" fill-opacity="1"><g transform="translate(174.811058, 123.197431)"><g><path d="M 18.625 -9.109375 C 18.625 -6.148438 17.875 -3.835938 16.375 -2.171875 C 14.882812 -0.503906 12.820312 0.328125 10.1875 0.328125 C 8.5625 0.328125 7.117188 -0.0507812 5.859375 -0.8125 C 4.597656 -1.570312 3.625 -2.664062 2.9375 -4.09375 C 2.25 -5.53125 1.90625 -7.203125 1.90625 -9.109375 C 1.90625 -12.078125 2.644531 -14.390625 4.125 -16.046875 C 5.613281 -17.703125 7.675781 -18.53125 10.3125 -18.53125 C 12.851562 -18.53125 14.875 -17.679688 16.375 -15.984375 C 17.875 -14.296875 18.625 -12.003906 18.625 -9.109375 Z M 4.765625 -9.109375 C 4.765625 -6.785156 5.226562 -5.015625 6.15625 -3.796875 C 7.082031 -2.578125 8.453125 -1.96875 10.265625 -1.96875 C 12.066406 -1.96875 13.429688 -2.570312 14.359375 -3.78125 C 15.296875 -5 15.765625 -6.773438 15.765625 -9.109375 C 15.765625 -11.421875 15.296875 -13.175781 14.359375 -14.375 C 13.429688 -15.582031 12.054688 -16.1875 10.234375 -16.1875 C 8.421875 -16.1875 7.054688 -15.59375 6.140625 -14.40625 C 5.222656 -13.226562 4.765625 -11.460938 4.765625 -9.109375 Z M 4.765625 -9.109375 "/></g></g></g><g fill="#ffffff" fill-opacity="1"><g transform="translate(195.344836, 123.197431)"><g><path d="M 10.1875 0.328125 C 7.5625 0.328125 5.523438 -0.476562 4.078125 -2.09375 C 2.628906 -3.71875 1.90625 -6.015625 1.90625 -8.984375 C 1.90625 -12.023438 2.640625 -14.375 4.109375 -16.03125 C 5.578125 -17.695312 7.664062 -18.53125 10.375 -18.53125 C 11.25 -18.53125 12.125 -18.4375 13 -18.25 C 13.875 -18.0625 14.5625 -17.835938 15.0625 -17.578125 L 14.21875 -15.234375 C 13.601562 -15.484375 12.9375 -15.6875 12.21875 -15.84375 C 11.5 -16.007812 10.863281 -16.09375 10.3125 -16.09375 C 6.613281 -16.09375 4.765625 -13.734375 4.765625 -9.015625 C 4.765625 -6.773438 5.210938 -5.054688 6.109375 -3.859375 C 7.015625 -2.671875 8.351562 -2.078125 10.125 -2.078125 C 11.644531 -2.078125 13.203125 -2.40625 14.796875 -3.0625 L 14.796875 -0.609375 C 13.578125 0.015625 12.039062 0.328125 10.1875 0.328125 Z M 10.1875 0.328125 "/></g></g></g><g fill="#ffffff" fill-opacity="1"><g transform="translate(211.529504, 123.197431)"><g><path d="M 5.671875 0 L 2.921875 0 L 2.921875 -18.203125 L 5.671875 -18.203125 Z M 2.6875 -23.125 C 2.6875 -23.757812 2.84375 -24.222656 3.15625 -24.515625 C 3.46875 -24.804688 3.851562 -24.953125 4.3125 -24.953125 C 4.757812 -24.953125 5.140625 -24.800781 5.453125 -24.5 C 5.773438 -24.207031 5.9375 -23.75 5.9375 -23.125 C 5.9375 -22.507812 5.773438 -22.046875 5.453125 -21.734375 C 5.140625 -21.429688 4.757812 -21.28125 4.3125 -21.28125 C 3.851562 -21.28125 3.46875 -21.429688 3.15625 -21.734375 C 2.84375 -22.046875 2.6875 -22.507812 2.6875 -23.125 Z M 2.6875 -23.125 "/></g></g></g><g fill="#ffffff" fill-opacity="1"><g transform="translate(220.128125, 123.197431)"><g><path d="M 10.609375 0.328125 C 7.921875 0.328125 5.796875 -0.488281 4.234375 -2.125 C 2.679688 -3.757812 1.90625 -6.035156 1.90625 -8.953125 C 1.90625 -11.878906 2.628906 -14.207031 4.078125 -15.9375 C 5.523438 -17.664062 7.460938 -18.53125 9.890625 -18.53125 C 12.171875 -18.53125 13.972656 -17.78125 15.296875 -16.28125 C 16.628906 -14.78125 17.296875 -12.800781 17.296875 -10.34375 L 17.296875 -8.59375 L 4.765625 -8.59375 C 4.816406 -6.457031 5.351562 -4.835938 6.375 -3.734375 C 7.40625 -2.628906 8.847656 -2.078125 10.703125 -2.078125 C 12.660156 -2.078125 14.597656 -2.484375 16.515625 -3.296875 L 16.515625 -0.84375 C 15.546875 -0.425781 14.625 -0.128906 13.75 0.046875 C 12.882812 0.234375 11.835938 0.328125 10.609375 0.328125 Z M 9.859375 -16.21875 C 8.398438 -16.21875 7.234375 -15.738281 6.359375 -14.78125 C 5.492188 -13.832031 4.984375 -12.519531 4.828125 -10.84375 L 14.34375 -10.84375 C 14.34375 -12.582031 13.953125 -13.910156 13.171875 -14.828125 C 12.398438 -15.753906 11.296875 -16.21875 9.859375 -16.21875 Z M 9.859375 -16.21875 "/></g></g></g><g fill="#ffffff" fill-opacity="1"><g transform="translate(239.201134, 123.197431)"><g><path d="M 8.796875 -1.9375 C 9.285156 -1.9375 9.753906 -1.972656 10.203125 -2.046875 C 10.660156 -2.117188 11.023438 -2.195312 11.296875 -2.28125 L 11.296875 -0.171875 C 10.992188 -0.0234375 10.550781 0.09375 9.96875 0.1875 C 9.382812 0.28125 8.863281 0.328125 8.40625 0.328125 C 4.882812 0.328125 3.125 -1.523438 3.125 -5.234375 L 3.125 -16.046875 L 0.515625 -16.046875 L 0.515625 -17.375 L 3.125 -18.53125 L 4.28125 -22.40625 L 5.875 -22.40625 L 5.875 -18.203125 L 11.15625 -18.203125 L 11.15625 -16.046875 L 5.875 -16.046875 L 5.875 -5.34375 C 5.875 -4.25 6.132812 -3.40625 6.65625 -2.8125 C 7.175781 -2.226562 7.890625 -1.9375 8.796875 -1.9375 Z M 8.796875 -1.9375 "/></g></g></g><g fill="#ffffff" fill-opacity="1"><g transform="translate(251.202689, 123.197431)"><g><path d="M 14.109375 0 L 13.5625 -2.59375 L 13.4375 -2.59375 C 12.519531 -1.445312 11.609375 -0.671875 10.703125 -0.265625 C 9.804688 0.128906 8.6875 0.328125 7.34375 0.328125 C 5.53125 0.328125 4.113281 -0.132812 3.09375 -1.0625 C 2.070312 -1.988281 1.5625 -3.3125 1.5625 -5.03125 C 1.5625 -8.707031 4.5 -10.632812 10.375 -10.8125 L 13.46875 -10.90625 L 13.46875 -12.03125 C 13.46875 -13.457031 13.160156 -14.507812 12.546875 -15.1875 C 11.929688 -15.875 10.945312 -16.21875 9.59375 -16.21875 C 8.082031 -16.21875 6.367188 -15.753906 4.453125 -14.828125 L 3.609375 -16.9375 C 4.503906 -17.425781 5.484375 -17.804688 6.546875 -18.078125 C 7.617188 -18.359375 8.691406 -18.5 9.765625 -18.5 C 11.929688 -18.5 13.535156 -18.015625 14.578125 -17.046875 C 15.628906 -16.085938 16.15625 -14.546875 16.15625 -12.421875 L 16.15625 0 Z M 7.890625 -1.9375 C 9.597656 -1.9375 10.941406 -2.40625 11.921875 -3.34375 C 12.898438 -4.289062 13.390625 -5.613281 13.390625 -7.3125 L 13.390625 -8.953125 L 10.640625 -8.828125 C 8.453125 -8.753906 6.875 -8.414062 5.90625 -7.8125 C 4.9375 -7.207031 4.453125 -6.269531 4.453125 -5 C 4.453125 -4 4.753906 -3.238281 5.359375 -2.71875 C 5.960938 -2.195312 6.804688 -1.9375 7.890625 -1.9375 Z M 11.15625 -20.609375 L 9.328125 -20.609375 C 8.609375 -21.179688 7.753906 -22 6.765625 -23.0625 C 5.785156 -24.125 5.078125 -25.003906 4.640625 -25.703125 L 4.640625 -26.046875 L 8 -26.046875 C 8.351562 -25.285156 8.84375 -24.398438 9.46875 -23.390625 C 10.101562 -22.390625 10.664062 -21.597656 11.15625 -21.015625 Z M 11.15625 -20.609375 "/></g></g></g><g fill="#ffffff" fill-opacity="1"><g transform="translate(270.109702, 123.197431)"><g/></g></g><g fill="#ffffff" fill-opacity="1"><g transform="translate(278.940718, 123.197431)"><g><path d="M 18.59375 0 L 15.578125 -7.71875 L 5.84375 -7.71875 L 2.859375 0 L 0 0 L 9.59375 -24.375 L 11.96875 -24.375 L 21.515625 0 Z M 14.6875 -10.265625 L 11.875 -17.78125 C 11.507812 -18.726562 11.128906 -19.894531 10.734375 -21.28125 C 10.492188 -20.21875 10.148438 -19.050781 9.703125 -17.78125 L 6.84375 -10.265625 Z M 14.6875 -10.265625 "/></g></g></g><g fill="#ffffff" fill-opacity="1"><g transform="translate(300.45387, 123.197431)"><g><path d="M 17.8125 -18.203125 L 17.8125 -16.453125 L 14.4375 -16.046875 C 14.75 -15.660156 15.023438 -15.15625 15.265625 -14.53125 C 15.515625 -13.90625 15.640625 -13.203125 15.640625 -12.421875 C 15.640625 -10.640625 15.03125 -9.21875 13.8125 -8.15625 C 12.59375 -7.09375 10.921875 -6.5625 8.796875 -6.5625 C 8.253906 -6.5625 7.742188 -6.601562 7.265625 -6.6875 C 6.097656 -6.070312 5.515625 -5.289062 5.515625 -4.34375 C 5.515625 -3.851562 5.71875 -3.488281 6.125 -3.25 C 6.53125 -3.007812 7.234375 -2.890625 8.234375 -2.890625 L 11.453125 -2.890625 C 13.421875 -2.890625 14.929688 -2.472656 15.984375 -1.640625 C 17.046875 -0.816406 17.578125 0.382812 17.578125 1.96875 C 17.578125 3.988281 16.769531 5.523438 15.15625 6.578125 C 13.539062 7.640625 11.179688 8.171875 8.078125 8.171875 C 5.703125 8.171875 3.867188 7.726562 2.578125 6.84375 C 1.285156 5.957031 0.640625 4.707031 0.640625 3.09375 C 0.640625 1.976562 0.992188 1.015625 1.703125 0.203125 C 2.410156 -0.597656 3.410156 -1.140625 4.703125 -1.421875 C 4.234375 -1.640625 3.84375 -1.96875 3.53125 -2.40625 C 3.21875 -2.851562 3.0625 -3.367188 3.0625 -3.953125 C 3.0625 -4.617188 3.238281 -5.195312 3.59375 -5.6875 C 3.945312 -6.1875 4.503906 -6.671875 5.265625 -7.140625 C 4.328125 -7.523438 3.5625 -8.179688 2.96875 -9.109375 C 2.375 -10.046875 2.078125 -11.109375 2.078125 -12.296875 C 2.078125 -14.296875 2.671875 -15.832031 3.859375 -16.90625 C 5.054688 -17.988281 6.753906 -18.53125 8.953125 -18.53125 C 9.898438 -18.53125 10.753906 -18.421875 11.515625 -18.203125 Z M 3.296875 3.0625 C 3.296875 4.039062 3.710938 4.785156 4.546875 5.296875 C 5.378906 5.804688 6.570312 6.0625 8.125 6.0625 C 10.4375 6.0625 12.144531 5.710938 13.25 5.015625 C 14.363281 4.328125 14.921875 3.390625 14.921875 2.203125 C 14.921875 1.222656 14.613281 0.539062 14 0.15625 C 13.394531 -0.226562 12.253906 -0.421875 10.578125 -0.421875 L 7.265625 -0.421875 C 6.015625 -0.421875 5.039062 -0.125 4.34375 0.46875 C 3.644531 1.070312 3.296875 1.9375 3.296875 3.0625 Z M 4.796875 -12.375 C 4.796875 -11.09375 5.15625 -10.125 5.875 -9.46875 C 6.59375 -8.820312 7.59375 -8.5 8.875 -8.5 C 11.570312 -8.5 12.921875 -9.804688 12.921875 -12.421875 C 12.921875 -15.148438 11.554688 -16.515625 8.828125 -16.515625 C 7.535156 -16.515625 6.539062 -16.164062 5.84375 -15.46875 C 5.144531 -14.769531 4.796875 -13.738281 4.796875 -12.375 Z M 4.796875 -12.375 "/></g></g></g><g fill="#ffffff" fill-opacity="1"><g transform="translate(319.078682, 123.197431)"><g><path d="M 11.21875 -18.53125 C 12.03125 -18.53125 12.753906 -18.460938 13.390625 -18.328125 L 13.015625 -15.765625 C 12.265625 -15.929688 11.601562 -16.015625 11.03125 -16.015625 C 9.550781 -16.015625 8.285156 -15.414062 7.234375 -14.21875 C 6.191406 -13.03125 5.671875 -11.546875 5.671875 -9.765625 L 5.671875 0 L 2.921875 0 L 2.921875 -18.203125 L 5.203125 -18.203125 L 5.515625 -14.828125 L 5.640625 -14.828125 C 6.316406 -16.015625 7.128906 -16.925781 8.078125 -17.5625 C 9.035156 -18.207031 10.082031 -18.53125 11.21875 -18.53125 Z M 11.21875 -18.53125 "/></g></g></g><g fill="#ffffff" fill-opacity="1"><g transform="translate(332.955993, 123.197431)"><g><path d="M 5.671875 0 L 2.921875 0 L 2.921875 -18.203125 L 5.671875 -18.203125 Z M 2.6875 -23.125 C 2.6875 -23.757812 2.84375 -24.222656 3.15625 -24.515625 C 3.46875 -24.804688 3.851562 -24.953125 4.3125 -24.953125 C 4.757812 -24.953125 5.140625 -24.800781 5.453125 -24.5 C 5.773438 -24.207031 5.9375 -23.75 5.9375 -23.125 C 5.9375 -22.507812 5.773438 -22.046875 5.453125 -21.734375 C 5.140625 -21.429688 4.757812 -21.28125 4.3125 -21.28125 C 3.851562 -21.28125 3.46875 -21.429688 3.15625 -21.734375 C 2.84375 -22.046875 2.6875 -22.507812 2.6875 -23.125 Z M 2.6875 -23.125 "/></g></g></g><g fill="#ffffff" fill-opacity="1"><g transform="translate(341.554613, 123.197431)"><g><path d="M 10.1875 0.328125 C 7.5625 0.328125 5.523438 -0.476562 4.078125 -2.09375 C 2.628906 -3.71875 1.90625 -6.015625 1.90625 -8.984375 C 1.90625 -12.023438 2.640625 -14.375 4.109375 -16.03125 C 5.578125 -17.695312 7.664062 -18.53125 10.375 -18.53125 C 11.25 -18.53125 12.125 -18.4375 13 -18.25 C 13.875 -18.0625 14.5625 -17.835938 15.0625 -17.578125 L 14.21875 -15.234375 C 13.601562 -15.484375 12.9375 -15.6875 12.21875 -15.84375 C 11.5 -16.007812 10.863281 -16.09375 10.3125 -16.09375 C 6.613281 -16.09375 4.765625 -13.734375 4.765625 -9.015625 C 4.765625 -6.773438 5.210938 -5.054688 6.109375 -3.859375 C 7.015625 -2.671875 8.351562 -2.078125 10.125 -2.078125 C 11.644531 -2.078125 13.203125 -2.40625 14.796875 -3.0625 L 14.796875 -0.609375 C 13.578125 0.015625 12.039062 0.328125 10.1875 0.328125 Z M 10.1875 0.328125 "/></g></g></g><g fill="#ffffff" fill-opacity="1"><g transform="translate(357.739294, 123.197431)"><g><path d="M 18.625 -9.109375 C 18.625 -6.148438 17.875 -3.835938 16.375 -2.171875 C 14.882812 -0.503906 12.820312 0.328125 10.1875 0.328125 C 8.5625 0.328125 7.117188 -0.0507812 5.859375 -0.8125 C 4.597656 -1.570312 3.625 -2.664062 2.9375 -4.09375 C 2.25 -5.53125 1.90625 -7.203125 1.90625 -9.109375 C 1.90625 -12.078125 2.644531 -14.390625 4.125 -16.046875 C 5.613281 -17.703125 7.675781 -18.53125 10.3125 -18.53125 C 12.851562 -18.53125 14.875 -17.679688 16.375 -15.984375 C 17.875 -14.296875 18.625 -12.003906 18.625 -9.109375 Z M 4.765625 -9.109375 C 4.765625 -6.785156 5.226562 -5.015625 6.15625 -3.796875 C 7.082031 -2.578125 8.453125 -1.96875 10.265625 -1.96875 C 12.066406 -1.96875 13.429688 -2.570312 14.359375 -3.78125 C 15.296875 -5 15.765625 -6.773438 15.765625 -9.109375 C 15.765625 -11.421875 15.296875 -13.175781 14.359375 -14.375 C 13.429688 -15.582031 12.054688 -16.1875 10.234375 -16.1875 C 8.421875 -16.1875 7.054688 -15.59375 6.140625 -14.40625 C 5.222656 -13.226562 4.765625 -11.460938 4.765625 -9.109375 Z M 4.765625 -9.109375 "/></g></g></g><g fill="#ffffff" fill-opacity="1"><g transform="translate(378.273061, 123.197431)"><g><path d="M 5.671875 0 L 2.921875 0 L 2.921875 -25.828125 L 5.671875 -25.828125 Z M 5.671875 0 "/></g></g></g><g fill="#ffffff" fill-opacity="1"><g transform="translate(386.871693, 123.197431)"><g><path d="M 14.109375 0 L 13.5625 -2.59375 L 13.4375 -2.59375 C 12.519531 -1.445312 11.609375 -0.671875 10.703125 -0.265625 C 9.804688 0.128906 8.6875 0.328125 7.34375 0.328125 C 5.53125 0.328125 4.113281 -0.132812 3.09375 -1.0625 C 2.070312 -1.988281 1.5625 -3.3125 1.5625 -5.03125 C 1.5625 -8.707031 4.5 -10.632812 10.375 -10.8125 L 13.46875 -10.90625 L 13.46875 -12.03125 C 13.46875 -13.457031 13.160156 -14.507812 12.546875 -15.1875 C 11.929688 -15.875 10.945312 -16.21875 9.59375 -16.21875 C 8.082031 -16.21875 6.367188 -15.753906 4.453125 -14.828125 L 3.609375 -16.9375 C 4.503906 -17.425781 5.484375 -17.804688 6.546875 -18.078125 C 7.617188 -18.359375 8.691406 -18.5 9.765625 -18.5 C 11.929688 -18.5 13.535156 -18.015625 14.578125 -17.046875 C 15.628906 -16.085938 16.15625 -14.546875 16.15625 -12.421875 L 16.15625 0 Z M 7.890625 -1.9375 C 9.597656 -1.9375 10.941406 -2.40625 11.921875 -3.34375 C 12.898438 -4.289062 13.390625 -5.613281 13.390625 -7.3125 L 13.390625 -8.953125 L 10.640625 -8.828125 C 8.453125 -8.753906 6.875 -8.414062 5.90625 -7.8125 C 4.9375 -7.207031 4.453125 -6.269531 4.453125 -5 C 4.453125 -4 4.753906 -3.238281 5.359375 -2.71875 C 5.960938 -2.195312 6.804688 -1.9375 7.890625 -1.9375 Z M 7.890625 -1.9375 "/></g></g></g><g fill="#ffffff" fill-opacity="1"><g transform="translate(156.153046, 212.735899)"><g><path d="M 17.203125 -24.265625 L 20.234375 -24.265625 L 11.484375 0 L 8.703125 0 L 0 -24.265625 L 2.984375 -24.265625 L 8.5625 -8.5625 C 9.207031 -6.757812 9.71875 -5.003906 10.09375 -3.296875 C 10.488281 -5.097656 11.007812 -6.890625 11.65625 -8.671875 Z M 17.203125 -24.265625 "/></g></g></g><g fill="#ffffff" fill-opacity="1"><g transform="translate(176.38803, 212.735899)"><g><path d="M 14.109375 0 L 13.5625 -2.59375 L 13.4375 -2.59375 C 12.519531 -1.445312 11.609375 -0.671875 10.703125 -0.265625 C 9.804688 0.128906 8.6875 0.328125 7.34375 0.328125 C 5.53125 0.328125 4.113281 -0.132812 3.09375 -1.0625 C 2.070312 -1.988281 1.5625 -3.3125 1.5625 -5.03125 C 1.5625 -8.707031 4.5 -10.632812 10.375 -10.8125 L 13.46875 -10.90625 L 13.46875 -12.03125 C 13.46875 -13.457031 13.160156 -14.507812 12.546875 -15.1875 C 11.929688 -15.875 10.945312 -16.21875 9.59375 -16.21875 C 8.082031 -16.21875 6.367188 -15.753906 4.453125 -14.828125 L 3.609375 -16.9375 C 4.503906 -17.425781 5.484375 -17.804688 6.546875 -18.078125 C 7.617188 -18.359375 8.691406 -18.5 9.765625 -18.5 C 11.929688 -18.5 13.535156 -18.015625 14.578125 -17.046875 C 15.628906 -16.085938 16.15625 -14.546875 16.15625 -12.421875 L 16.15625 0 Z M 7.890625 -1.9375 C 9.597656 -1.9375 10.941406 -2.40625 11.921875 -3.34375 C 12.898438 -4.289062 13.390625 -5.613281 13.390625 -7.3125 L 13.390625 -8.953125 L 10.640625 -8.828125 C 8.453125 -8.753906 6.875 -8.414062 5.90625 -7.8125 C 4.9375 -7.207031 4.453125 -6.269531 4.453125 -5 C 4.453125 -4 4.753906 -3.238281 5.359375 -2.71875 C 5.960938 -2.195312 6.804688 -1.9375 7.890625 -1.9375 Z M 7.890625 -1.9375 "/></g></g></g><g fill="#ffffff" fill-opacity="1"><g transform="translate(195.295043, 212.735899)"><g><path d="M 5.671875 0 L 2.921875 0 L 2.921875 -25.828125 L 5.671875 -25.828125 Z M 5.671875 0 "/></g></g></g><g fill="#ffffff" fill-opacity="1"><g transform="translate(203.893664, 212.735899)"><g><path d="M 5.515625 -18.203125 L 5.515625 -6.390625 C 5.515625 -4.910156 5.847656 -3.800781 6.515625 -3.0625 C 7.191406 -2.332031 8.253906 -1.96875 9.703125 -1.96875 C 11.597656 -1.96875 12.984375 -2.488281 13.859375 -3.53125 C 14.742188 -4.570312 15.1875 -6.273438 15.1875 -8.640625 L 15.1875 -18.203125 L 17.953125 -18.203125 L 17.953125 0 L 15.671875 0 L 15.28125 -2.4375 L 15.125 -2.4375 C 14.5625 -1.539062 13.773438 -0.851562 12.765625 -0.375 C 11.765625 0.09375 10.625 0.328125 9.34375 0.328125 C 7.132812 0.328125 5.476562 -0.195312 4.375 -1.25 C 3.269531 -2.300781 2.71875 -3.984375 2.71875 -6.296875 L 2.71875 -18.203125 Z M 5.515625 -18.203125 "/></g></g></g><g fill="#ffffff" fill-opacity="1"><g transform="translate(224.759435, 212.735899)"><g><path d="M 8.796875 -1.9375 C 9.285156 -1.9375 9.753906 -1.972656 10.203125 -2.046875 C 10.660156 -2.117188 11.023438 -2.195312 11.296875 -2.28125 L 11.296875 -0.171875 C 10.992188 -0.0234375 10.550781 0.09375 9.96875 0.1875 C 9.382812 0.28125 8.863281 0.328125 8.40625 0.328125 C 4.882812 0.328125 3.125 -1.523438 3.125 -5.234375 L 3.125 -16.046875 L 0.515625 -16.046875 L 0.515625 -17.375 L 3.125 -18.53125 L 4.28125 -22.40625 L 5.875 -22.40625 L 5.875 -18.203125 L 11.15625 -18.203125 L 11.15625 -16.046875 L 5.875 -16.046875 L 5.875 -5.34375 C 5.875 -4.25 6.132812 -3.40625 6.65625 -2.8125 C 7.175781 -2.226562 7.890625 -1.9375 8.796875 -1.9375 Z M 8.796875 -1.9375 "/></g></g></g><g fill="#ffffff" fill-opacity="1"><g transform="translate(236.760991, 212.735899)"><g><path d="M 14.109375 0 L 13.5625 -2.59375 L 13.4375 -2.59375 C 12.519531 -1.445312 11.609375 -0.671875 10.703125 -0.265625 C 9.804688 0.128906 8.6875 0.328125 7.34375 0.328125 C 5.53125 0.328125 4.113281 -0.132812 3.09375 -1.0625 C 2.070312 -1.988281 1.5625 -3.3125 1.5625 -5.03125 C 1.5625 -8.707031 4.5 -10.632812 10.375 -10.8125 L 13.46875 -10.90625 L 13.46875 -12.03125 C 13.46875 -13.457031 13.160156 -14.507812 12.546875 -15.1875 C 11.929688 -15.875 10.945312 -16.21875 9.59375 -16.21875 C 8.082031 -16.21875 6.367188 -15.753906 4.453125 -14.828125 L 3.609375 -16.9375 C 4.503906 -17.425781 5.484375 -17.804688 6.546875 -18.078125 C 7.617188 -18.359375 8.691406 -18.5 9.765625 -18.5 C 11.929688 -18.5 13.535156 -18.015625 14.578125 -17.046875 C 15.628906 -16.085938 16.15625 -14.546875 16.15625 -12.421875 L 16.15625 0 Z M 7.890625 -1.9375 C 9.597656 -1.9375 10.941406 -2.40625 11.921875 -3.34375 C 12.898438 -4.289062 13.390625 -5.613281 13.390625 -7.3125 L 13.390625 -8.953125 L 10.640625 -8.828125 C 8.453125 -8.753906 6.875 -8.414062 5.90625 -7.8125 C 4.9375 -7.207031 4.453125 -6.269531 4.453125 -5 C 4.453125 -4 4.753906 -3.238281 5.359375 -2.71875 C 5.960938 -2.195312 6.804688 -1.9375 7.890625 -1.9375 Z M 7.890625 -1.9375 "/></g></g></g><g fill="#ffffff" fill-opacity="1"><g transform="translate(255.668003, 212.735899)"><g><path d="M 14.5625 0 L 1.359375 0 L 1.359375 -1.875 L 11.296875 -16.046875 L 1.96875 -16.046875 L 1.96875 -18.203125 L 14.3125 -18.203125 L 14.3125 -16.046875 L 4.515625 -2.140625 L 14.5625 -2.140625 Z M 14.5625 0 "/></g></g></g><g fill="#ffffff" fill-opacity="1"><g transform="translate(271.570472, 212.735899)"><g><path d="M 5.671875 0 L 2.921875 0 L 2.921875 -18.203125 L 5.671875 -18.203125 Z M 2.6875 -23.125 C 2.6875 -23.757812 2.84375 -24.222656 3.15625 -24.515625 C 3.46875 -24.804688 3.851562 -24.953125 4.3125 -24.953125 C 4.757812 -24.953125 5.140625 -24.800781 5.453125 -24.5 C 5.773438 -24.207031 5.9375 -23.75 5.9375 -23.125 C 5.9375 -22.507812 5.773438 -22.046875 5.453125 -21.734375 C 5.140625 -21.429688 4.757812 -21.28125 4.3125 -21.28125 C 3.851562 -21.28125 3.46875 -21.429688 3.15625 -21.734375 C 2.84375 -22.046875 2.6875 -22.507812 2.6875 -23.125 Z M 2.6875 -23.125 "/></g></g></g><g fill="#ffffff" fill-opacity="1"><g transform="translate(280.169093, 212.735899)"><g><path d="M 18.625 -9.109375 C 18.625 -6.148438 17.875 -3.835938 16.375 -2.171875 C 14.882812 -0.503906 12.820312 0.328125 10.1875 0.328125 C 8.5625 0.328125 7.117188 -0.0507812 5.859375 -0.8125 C 4.597656 -1.570312 3.625 -2.664062 2.9375 -4.09375 C 2.25 -5.53125 1.90625 -7.203125 1.90625 -9.109375 C 1.90625 -12.078125 2.644531 -14.390625 4.125 -16.046875 C 5.613281 -17.703125 7.675781 -18.53125 10.3125 -18.53125 C 12.851562 -18.53125 14.875 -17.679688 16.375 -15.984375 C 17.875 -14.296875 18.625 -12.003906 18.625 -9.109375 Z M 4.765625 -9.109375 C 4.765625 -6.785156 5.226562 -5.015625 6.15625 -3.796875 C 7.082031 -2.578125 8.453125 -1.96875 10.265625 -1.96875 C 12.066406 -1.96875 13.429688 -2.570312 14.359375 -3.78125 C 15.296875 -5 15.765625 -6.773438 15.765625 -9.109375 C 15.765625 -11.421875 15.296875 -13.175781 14.359375 -14.375 C 13.429688 -15.582031 12.054688 -16.1875 10.234375 -16.1875 C 8.421875 -16.1875 7.054688 -15.59375 6.140625 -14.40625 C 5.222656 -13.226562 4.765625 -11.460938 4.765625 -9.109375 Z M 4.765625 -9.109375 "/></g></g></g><g fill="#ffffff" fill-opacity="1"><g transform="translate(300.702871, 212.735899)"><g><path d="M 15.375 0 L 15.375 -11.765625 C 15.375 -13.253906 15.035156 -14.363281 14.359375 -15.09375 C 13.679688 -15.820312 12.625 -16.1875 11.1875 -16.1875 C 9.28125 -16.1875 7.882812 -15.671875 7 -14.640625 C 6.113281 -13.609375 5.671875 -11.910156 5.671875 -9.546875 L 5.671875 0 L 2.921875 0 L 2.921875 -18.203125 L 5.15625 -18.203125 L 5.609375 -15.703125 L 5.75 -15.703125 C 6.3125 -16.597656 7.097656 -17.289062 8.109375 -17.78125 C 9.128906 -18.28125 10.265625 -18.53125 11.515625 -18.53125 C 13.710938 -18.53125 15.363281 -18 16.46875 -16.9375 C 17.570312 -15.882812 18.125 -14.195312 18.125 -11.875 L 18.125 0 Z M 15.375 0 "/></g></g></g><g fill="#ffffff" fill-opacity="1"><g transform="translate(321.568642, 212.735899)"><g><path d="M 10.609375 0.328125 C 7.921875 0.328125 5.796875 -0.488281 4.234375 -2.125 C 2.679688 -3.757812 1.90625 -6.035156 1.90625 -8.953125 C 1.90625 -11.878906 2.628906 -14.207031 4.078125 -15.9375 C 5.523438 -17.664062 7.460938 -18.53125 9.890625 -18.53125 C 12.171875 -18.53125 13.972656 -17.78125 15.296875 -16.28125 C 16.628906 -14.78125 17.296875 -12.800781 17.296875 -10.34375 L 17.296875 -8.59375 L 4.765625 -8.59375 C 4.816406 -6.457031 5.351562 -4.835938 6.375 -3.734375 C 7.40625 -2.628906 8.847656 -2.078125 10.703125 -2.078125 C 12.660156 -2.078125 14.597656 -2.484375 16.515625 -3.296875 L 16.515625 -0.84375 C 15.546875 -0.425781 14.625 -0.128906 13.75 0.046875 C 12.882812 0.234375 11.835938 0.328125 10.609375 0.328125 Z M 9.859375 -16.21875 C 8.398438 -16.21875 7.234375 -15.738281 6.359375 -14.78125 C 5.492188 -13.832031 4.984375 -12.519531 4.828125 -10.84375 L 14.34375 -10.84375 C 14.34375 -12.582031 13.953125 -13.910156 13.171875 -14.828125 C 12.398438 -15.753906 11.296875 -16.21875 9.859375 -16.21875 Z M 9.859375 -16.21875 "/></g></g></g><g fill="#ffffff" fill-opacity="1"><g transform="translate(340.641651, 212.735899)"><g/></g></g><g fill="#ffffff" fill-opacity="1"><g transform="translate(349.472678, 212.735899)"><g><path d="M 14.109375 0 L 13.5625 -2.59375 L 13.4375 -2.59375 C 12.519531 -1.445312 11.609375 -0.671875 10.703125 -0.265625 C 9.804688 0.128906 8.6875 0.328125 7.34375 0.328125 C 5.53125 0.328125 4.113281 -0.132812 3.09375 -1.0625 C 2.070312 -1.988281 1.5625 -3.3125 1.5625 -5.03125 C 1.5625 -8.707031 4.5 -10.632812 10.375 -10.8125 L 13.46875 -10.90625 L 13.46875 -12.03125 C 13.46875 -13.457031 13.160156 -14.507812 12.546875 -15.1875 C 11.929688 -15.875 10.945312 -16.21875 9.59375 -16.21875 C 8.082031 -16.21875 6.367188 -15.753906 4.453125 -14.828125 L 3.609375 -16.9375 C 4.503906 -17.425781 5.484375 -17.804688 6.546875 -18.078125 C 7.617188 -18.359375 8.691406 -18.5 9.765625 -18.5 C 11.929688 -18.5 13.535156 -18.015625 14.578125 -17.046875 C 15.628906 -16.085938 16.15625 -14.546875 16.15625 -12.421875 L 16.15625 0 Z M 7.890625 -1.9375 C 9.597656 -1.9375 10.941406 -2.40625 11.921875 -3.34375 C 12.898438 -4.289062 13.390625 -5.613281 13.390625 -7.3125 L 13.390625 -8.953125 L 10.640625 -8.828125 C 8.453125 -8.753906 6.875 -8.414062 5.90625 -7.8125 C 4.9375 -7.207031 4.453125 -6.269531 4.453125 -5 C 4.453125 -4 4.753906 -3.238281 5.359375 -2.71875 C 5.960938 -2.195312 6.804688 -1.9375 7.890625 -1.9375 Z M 7.890625 -1.9375 "/></g></g></g><g fill="#ffffff" fill-opacity="1"><g transform="translate(368.379691, 212.735899)"><g><path d="M 8.796875 -1.9375 C 9.285156 -1.9375 9.753906 -1.972656 10.203125 -2.046875 C 10.660156 -2.117188 11.023438 -2.195312 11.296875 -2.28125 L 11.296875 -0.171875 C 10.992188 -0.0234375 10.550781 0.09375 9.96875 0.1875 C 9.382812 0.28125 8.863281 0.328125 8.40625 0.328125 C 4.882812 0.328125 3.125 -1.523438 3.125 -5.234375 L 3.125 -16.046875 L 0.515625 -16.046875 L 0.515625 -17.375 L 3.125 -18.53125 L 4.28125 -22.40625 L 5.875 -22.40625 L 5.875 -18.203125 L 11.15625 -18.203125 L 11.15625 -16.046875 L 5.875 -16.046875 L 5.875 -5.34375 C 5.875 -4.25 6.132812 -3.40625 6.65625 -2.8125 C 7.175781 -2.226562 7.890625 -1.9375 8.796875 -1.9375 Z M 8.796875 -1.9375 "/></g></g></g><g fill="#ffffff" fill-opacity="1"><g transform="translate(380.381246, 212.735899)"><g><path d="M 8.796875 -1.9375 C 9.285156 -1.9375 9.753906 -1.972656 10.203125 -2.046875 C 10.660156 -2.117188 11.023438 -2.195312 11.296875 -2.28125 L 11.296875 -0.171875 C 10.992188 -0.0234375 10.550781 0.09375 9.96875 0.1875 C 9.382812 0.28125 8.863281 0.328125 8.40625 0.328125 C 4.882812 0.328125 3.125 -1.523438 3.125 -5.234375 L 3.125 -16.046875 L 0.515625 -16.046875 L 0.515625 -17.375 L 3.125 -18.53125 L 4.28125 -22.40625 L 5.875 -22.40625 L 5.875 -18.203125 L 11.15625 -18.203125 L 11.15625 -16.046875 L 5.875 -16.046875 L 5.875 -5.34375 C 5.875 -4.25 6.132812 -3.40625 6.65625 -2.8125 C 7.175781 -2.226562 7.890625 -1.9375 8.796875 -1.9375 Z M 8.796875 -1.9375 "/></g></g></g><g fill="#ffffff" fill-opacity="1"><g transform="translate(392.382802, 212.735899)"><g><path d="M 5.671875 0 L 2.921875 0 L 2.921875 -18.203125 L 5.671875 -18.203125 Z M 2.6875 -23.125 C 2.6875 -23.757812 2.84375 -24.222656 3.15625 -24.515625 C 3.46875 -24.804688 3.851562 -24.953125 4.3125 -24.953125 C 4.757812 -24.953125 5.140625 -24.800781 5.453125 -24.5 C 5.773438 -24.207031 5.9375 -23.75 5.9375 -23.125 C 5.9375 -22.507812 5.773438 -22.046875 5.453125 -21.734375 C 5.140625 -21.429688 4.757812 -21.28125 4.3125 -21.28125 C 3.851562 -21.28125 3.46875 -21.429688 3.15625 -21.734375 C 2.84375 -22.046875 2.6875 -22.507812 2.6875 -23.125 Z M 2.6875 -23.125 "/></g></g></g><g fill="#ffffff" fill-opacity="1"><g transform="translate(400.981435, 212.735899)"><g><path d="M 6.90625 0 L 0 -18.203125 L 2.953125 -18.203125 L 6.875 -7.40625 C 7.757812 -4.882812 8.28125 -3.242188 8.4375 -2.484375 L 8.5625 -2.484375 C 8.6875 -3.078125 9.070312 -4.296875 9.71875 -6.140625 C 10.363281 -7.984375 11.816406 -12.003906 14.078125 -18.203125 L 17.03125 -18.203125 L 10.125 0 Z M 6.90625 0 "/></g></g></g><g fill="#ffffff" fill-opacity="1"><g transform="translate(418.012668, 212.735899)"><g><path d="M 5.671875 0 L 2.921875 0 L 2.921875 -18.203125 L 5.671875 -18.203125 Z M 2.6875 -23.125 C 2.6875 -23.757812 2.84375 -24.222656 3.15625 -24.515625 C 3.46875 -24.804688 3.851562 -24.953125 4.3125 -24.953125 C 4.757812 -24.953125 5.140625 -24.800781 5.453125 -24.5 C 5.773438 -24.207031 5.9375 -23.75 5.9375 -23.125 C 5.9375 -22.507812 5.773438 -22.046875 5.453125 -21.734375 C 5.140625 -21.429688 4.757812 -21.28125 4.3125 -21.28125 C 3.851562 -21.28125 3.46875 -21.429688 3.15625 -21.734375 C 2.84375 -22.046875 2.6875 -22.507812 2.6875 -23.125 Z M 2.6875 -23.125 "/></g></g></g><g fill="#ffffff" fill-opacity="1"><g transform="translate(426.611301, 212.735899)"><g><path d="M 8.796875 -1.9375 C 9.285156 -1.9375 9.753906 -1.972656 10.203125 -2.046875 C 10.660156 -2.117188 11.023438 -2.195312 11.296875 -2.28125 L 11.296875 -0.171875 C 10.992188 -0.0234375 10.550781 0.09375 9.96875 0.1875 C 9.382812 0.28125 8.863281 0.328125 8.40625 0.328125 C 4.882812 0.328125 3.125 -1.523438 3.125 -5.234375 L 3.125 -16.046875 L 0.515625 -16.046875 L 0.515625 -17.375 L 3.125 -18.53125 L 4.28125 -22.40625 L 5.875 -22.40625 L 5.875 -18.203125 L 11.15625 -18.203125 L 11.15625 -16.046875 L 5.875 -16.046875 L 5.875 -5.34375 C 5.875 -4.25 6.132812 -3.40625 6.65625 -2.8125 C 7.175781 -2.226562 7.890625 -1.9375 8.796875 -1.9375 Z M 8.796875 -1.9375 "/></g></g></g><g fill="#ffffff" fill-opacity="1"><g transform="translate(438.612857, 212.735899)"><g><path d="M 14.109375 0 L 13.5625 -2.59375 L 13.4375 -2.59375 C 12.519531 -1.445312 11.609375 -0.671875 10.703125 -0.265625 C 9.804688 0.128906 8.6875 0.328125 7.34375 0.328125 C 5.53125 0.328125 4.113281 -0.132812 3.09375 -1.0625 C 2.070312 -1.988281 1.5625 -3.3125 1.5625 -5.03125 C 1.5625 -8.707031 4.5 -10.632812 10.375 -10.8125 L 13.46875 -10.90625 L 13.46875 -12.03125 C 13.46875 -13.457031 13.160156 -14.507812 12.546875 -15.1875 C 11.929688 -15.875 10.945312 -16.21875 9.59375 -16.21875 C 8.082031 -16.21875 6.367188 -15.753906 4.453125 -14.828125 L 3.609375 -16.9375 C 4.503906 -17.425781 5.484375 -17.804688 6.546875 -18.078125 C 7.617188 -18.359375 8.691406 -18.5 9.765625 -18.5 C 11.929688 -18.5 13.535156 -18.015625 14.578125 -17.046875 C 15.628906 -16.085938 16.15625 -14.546875 16.15625 -12.421875 L 16.15625 0 Z M 7.890625 -1.9375 C 9.597656 -1.9375 10.941406 -2.40625 11.921875 -3.34375 C 12.898438 -4.289062 13.390625 -5.613281 13.390625 -7.3125 L 13.390625 -8.953125 L 10.640625 -8.828125 C 8.453125 -8.753906 6.875 -8.414062 5.90625 -7.8125 C 4.9375 -7.207031 4.453125 -6.269531 4.453125 -5 C 4.453125 -4 4.753906 -3.238281 5.359375 -2.71875 C 5.960938 -2.195312 6.804688 -1.9375 7.890625 -1.9375 Z M 11.15625 -20.609375 L 9.328125 -20.609375 C 8.609375 -21.179688 7.753906 -22 6.765625 -23.0625 C 5.785156 -24.125 5.078125 -25.003906 4.640625 -25.703125 L 4.640625 -26.046875 L 8 -26.046875 C 8.351562 -25.285156 8.84375 -24.398438 9.46875 -23.390625 C 10.101562 -22.390625 10.664062 -21.597656 11.15625 -21.015625 Z M 11.15625 -20.609375 "/></g></g></g><g fill="#ffffff" fill-opacity="1"><g transform="translate(156.153046, 301.931988)"><g><path d="M 13.734375 -22.09375 C 11.066406 -22.09375 8.957031 -21.203125 7.40625 -19.421875 C 5.863281 -17.648438 5.09375 -15.222656 5.09375 -12.140625 C 5.09375 -8.960938 5.835938 -6.503906 7.328125 -4.765625 C 8.816406 -3.035156 10.941406 -2.171875 13.703125 -2.171875 C 15.390625 -2.171875 17.316406 -2.476562 19.484375 -3.09375 L 19.484375 -0.609375 C 17.804688 0.015625 15.734375 0.328125 13.265625 0.328125 C 9.691406 0.328125 6.929688 -0.753906 4.984375 -2.921875 C 3.046875 -5.085938 2.078125 -8.171875 2.078125 -12.171875 C 2.078125 -14.671875 2.539062 -16.859375 3.46875 -18.734375 C 4.40625 -20.617188 5.753906 -22.070312 7.515625 -23.09375 C 9.285156 -24.113281 11.367188 -24.625 13.765625 -24.625 C 16.304688 -24.625 18.53125 -24.15625 20.4375 -23.21875 L 19.234375 -20.796875 C 17.398438 -21.660156 15.566406 -22.09375 13.734375 -22.09375 Z M 13.734375 -22.09375 "/></g></g></g><g fill="#ffffff" fill-opacity="1"><g transform="translate(177.5998, 301.931988)"><g><path d="M 18.625 -9.109375 C 18.625 -6.148438 17.875 -3.835938 16.375 -2.171875 C 14.882812 -0.503906 12.820312 0.328125 10.1875 0.328125 C 8.5625 0.328125 7.117188 -0.0507812 5.859375 -0.8125 C 4.597656 -1.570312 3.625 -2.664062 2.9375 -4.09375 C 2.25 -5.53125 1.90625 -7.203125 1.90625 -9.109375 C 1.90625 -12.078125 2.644531 -14.390625 4.125 -16.046875 C 5.613281 -17.703125 7.675781 -18.53125 10.3125 -18.53125 C 12.851562 -18.53125 14.875 -17.679688 16.375 -15.984375 C 17.875 -14.296875 18.625 -12.003906 18.625 -9.109375 Z M 4.765625 -9.109375 C 4.765625 -6.785156 5.226562 -5.015625 6.15625 -3.796875 C 7.082031 -2.578125 8.453125 -1.96875 10.265625 -1.96875 C 12.066406 -1.96875 13.429688 -2.570312 14.359375 -3.78125 C 15.296875 -5 15.765625 -6.773438 15.765625 -9.109375 C 15.765625 -11.421875 15.296875 -13.175781 14.359375 -14.375 C 13.429688 -15.582031 12.054688 -16.1875 10.234375 -16.1875 C 8.421875 -16.1875 7.054688 -15.59375 6.140625 -14.40625 C 5.222656 -13.226562 4.765625 -11.460938 4.765625 -9.109375 Z M 4.765625 -9.109375 "/></g></g></g><g fill="#ffffff" fill-opacity="1"><g transform="translate(198.133578, 301.931988)"><g><path d="M 15.375 0 L 15.375 -11.765625 C 15.375 -13.253906 15.035156 -14.363281 14.359375 -15.09375 C 13.679688 -15.820312 12.625 -16.1875 11.1875 -16.1875 C 9.28125 -16.1875 7.882812 -15.671875 7 -14.640625 C 6.113281 -13.609375 5.671875 -11.910156 5.671875 -9.546875 L 5.671875 0 L 2.921875 0 L 2.921875 -18.203125 L 5.15625 -18.203125 L 5.609375 -15.703125 L 5.75 -15.703125 C 6.3125 -16.597656 7.097656 -17.289062 8.109375 -17.78125 C 9.128906 -18.28125 10.265625 -18.53125 11.515625 -18.53125 C 13.710938 -18.53125 15.363281 -18 16.46875 -16.9375 C 17.570312 -15.882812 18.125 -14.195312 18.125 -11.875 L 18.125 0 Z M 15.375 0 "/></g></g></g><g fill="#ffffff" fill-opacity="1"><g transform="translate(218.999349, 301.931988)"><g><path d="M 14.65625 -4.96875 C 14.65625 -3.269531 14.023438 -1.960938 12.765625 -1.046875 C 11.503906 -0.128906 9.734375 0.328125 7.453125 0.328125 C 5.035156 0.328125 3.15625 -0.0507812 1.8125 -0.8125 L 1.8125 -3.375 C 2.6875 -2.925781 3.625 -2.570312 4.625 -2.3125 C 5.625 -2.0625 6.585938 -1.9375 7.515625 -1.9375 C 8.953125 -1.9375 10.054688 -2.164062 10.828125 -2.625 C 11.609375 -3.09375 12 -3.796875 12 -4.734375 C 12 -5.441406 11.691406 -6.046875 11.078125 -6.546875 C 10.460938 -7.054688 9.265625 -7.648438 7.484375 -8.328125 C 5.796875 -8.960938 4.59375 -9.515625 3.875 -9.984375 C 3.164062 -10.453125 2.632812 -10.984375 2.28125 -11.578125 C 1.9375 -12.179688 1.765625 -12.898438 1.765625 -13.734375 C 1.765625 -15.210938 2.363281 -16.378906 3.5625 -17.234375 C 4.769531 -18.097656 6.425781 -18.53125 8.53125 -18.53125 C 10.488281 -18.53125 12.40625 -18.128906 14.28125 -17.328125 L 13.296875 -15.09375 C 11.472656 -15.84375 9.816406 -16.21875 8.328125 -16.21875 C 7.023438 -16.21875 6.039062 -16.007812 5.375 -15.59375 C 4.71875 -15.1875 4.390625 -14.625 4.390625 -13.90625 C 4.390625 -13.425781 4.507812 -13.015625 4.75 -12.671875 C 5 -12.328125 5.398438 -12 5.953125 -11.6875 C 6.515625 -11.375 7.578125 -10.925781 9.140625 -10.34375 C 11.304688 -9.5625 12.765625 -8.769531 13.515625 -7.96875 C 14.273438 -7.175781 14.65625 -6.175781 14.65625 -4.96875 Z M 14.65625 -4.96875 "/></g></g></g><g fill="#ffffff" fill-opacity="1"><g transform="translate(235.217217, 301.931988)"><g><path d="M 5.515625 -18.203125 L 5.515625 -6.390625 C 5.515625 -4.910156 5.847656 -3.800781 6.515625 -3.0625 C 7.191406 -2.332031 8.253906 -1.96875 9.703125 -1.96875 C 11.597656 -1.96875 12.984375 -2.488281 13.859375 -3.53125 C 14.742188 -4.570312 15.1875 -6.273438 15.1875 -8.640625 L 15.1875 -18.203125 L 17.953125 -18.203125 L 17.953125 0 L 15.671875 0 L 15.28125 -2.4375 L 15.125 -2.4375 C 14.5625 -1.539062 13.773438 -0.851562 12.765625 -0.375 C 11.765625 0.09375 10.625 0.328125 9.34375 0.328125 C 7.132812 0.328125 5.476562 -0.195312 4.375 -1.25 C 3.269531 -2.300781 2.71875 -3.984375 2.71875 -6.296875 L 2.71875 -18.203125 Z M 5.515625 -18.203125 "/></g></g></g><g fill="#ffffff" fill-opacity="1"><g transform="translate(256.082989, 301.931988)"><g><path d="M 5.671875 0 L 2.921875 0 L 2.921875 -25.828125 L 5.671875 -25.828125 Z M 5.671875 0 "/></g></g></g><g fill="#ffffff" fill-opacity="1"><g transform="translate(264.68161, 301.931988)"><g><path d="M 10.609375 0.328125 C 7.921875 0.328125 5.796875 -0.488281 4.234375 -2.125 C 2.679688 -3.757812 1.90625 -6.035156 1.90625 -8.953125 C 1.90625 -11.878906 2.628906 -14.207031 4.078125 -15.9375 C 5.523438 -17.664062 7.460938 -18.53125 9.890625 -18.53125 C 12.171875 -18.53125 13.972656 -17.78125 15.296875 -16.28125 C 16.628906 -14.78125 17.296875 -12.800781 17.296875 -10.34375 L 17.296875 -8.59375 L 4.765625 -8.59375 C 4.816406 -6.457031 5.351562 -4.835938 6.375 -3.734375 C 7.40625 -2.628906 8.847656 -2.078125 10.703125 -2.078125 C 12.660156 -2.078125 14.597656 -2.484375 16.515625 -3.296875 L 16.515625 -0.84375 C 15.546875 -0.425781 14.625 -0.128906 13.75 0.046875 C 12.882812 0.234375 11.835938 0.328125 10.609375 0.328125 Z M 9.859375 -16.21875 C 8.398438 -16.21875 7.234375 -15.738281 6.359375 -14.78125 C 5.492188 -13.832031 4.984375 -12.519531 4.828125 -10.84375 L 14.34375 -10.84375 C 14.34375 -12.582031 13.953125 -13.910156 13.171875 -14.828125 C 12.398438 -15.753906 11.296875 -16.21875 9.859375 -16.21875 Z M 9.859375 -16.21875 "/></g></g></g><g fill="#ffffff" fill-opacity="1"><g transform="translate(283.754618, 301.931988)"><g><path d="M 15.375 0 L 15.375 -11.765625 C 15.375 -13.253906 15.035156 -14.363281 14.359375 -15.09375 C 13.679688 -15.820312 12.625 -16.1875 11.1875 -16.1875 C 9.28125 -16.1875 7.882812 -15.671875 7 -14.640625 C 6.113281 -13.609375 5.671875 -11.910156 5.671875 -9.546875 L 5.671875 0 L 2.921875 0 L 2.921875 -18.203125 L 5.15625 -18.203125 L 5.609375 -15.703125 L 5.75 -15.703125 C 6.3125 -16.597656 7.097656 -17.289062 8.109375 -17.78125 C 9.128906 -18.28125 10.265625 -18.53125 11.515625 -18.53125 C 13.710938 -18.53125 15.363281 -18 16.46875 -16.9375 C 17.570312 -15.882812 18.125 -14.195312 18.125 -11.875 L 18.125 0 Z M 15.375 0 "/></g></g></g><g fill="#ffffff" fill-opacity="1"><g transform="translate(304.62039, 301.931988)"><g><path d="M 14.5625 0 L 1.359375 0 L 1.359375 -1.875 L 11.296875 -16.046875 L 1.96875 -16.046875 L 1.96875 -18.203125 L 14.3125 -18.203125 L 14.3125 -16.046875 L 4.515625 -2.140625 L 14.5625 -2.140625 Z M 14.5625 0 "/></g></g></g><g fill="#ffffff" fill-opacity="1"><g transform="translate(320.522858, 301.931988)"><g><path d="M 14.109375 0 L 13.5625 -2.59375 L 13.4375 -2.59375 C 12.519531 -1.445312 11.609375 -0.671875 10.703125 -0.265625 C 9.804688 0.128906 8.6875 0.328125 7.34375 0.328125 C 5.53125 0.328125 4.113281 -0.132812 3.09375 -1.0625 C 2.070312 -1.988281 1.5625 -3.3125 1.5625 -5.03125 C 1.5625 -8.707031 4.5 -10.632812 10.375 -10.8125 L 13.46875 -10.90625 L 13.46875 -12.03125 C 13.46875 -13.457031 13.160156 -14.507812 12.546875 -15.1875 C 11.929688 -15.875 10.945312 -16.21875 9.59375 -16.21875 C 8.082031 -16.21875 6.367188 -15.753906 4.453125 -14.828125 L 3.609375 -16.9375 C 4.503906 -17.425781 5.484375 -17.804688 6.546875 -18.078125 C 7.617188 -18.359375 8.691406 -18.5 9.765625 -18.5 C 11.929688 -18.5 13.535156 -18.015625 14.578125 -17.046875 C 15.628906 -16.085938 16.15625 -14.546875 16.15625 -12.421875 L 16.15625 0 Z M 7.890625 -1.9375 C 9.597656 -1.9375 10.941406 -2.40625 11.921875 -3.34375 C 12.898438 -4.289062 13.390625 -5.613281 13.390625 -7.3125 L 13.390625 -8.953125 L 10.640625 -8.828125 C 8.453125 -8.753906 6.875 -8.414062 5.90625 -7.8125 C 4.9375 -7.207031 4.453125 -6.269531 4.453125 -5 C 4.453125 -4 4.753906 -3.238281 5.359375 -2.71875 C 5.960938 -2.195312 6.804688 -1.9375 7.890625 -1.9375 Z M 7.890625 -1.9375 "/></g></g></g><g fill="#ffffff" fill-opacity="1"><g transform="translate(339.429871, 301.931988)"><g/></g></g><g fill="#ffffff" fill-opacity="1"><g transform="translate(348.260887, 301.931988)"><g><path d="M 14.109375 0 L 13.5625 -2.59375 L 13.4375 -2.59375 C 12.519531 -1.445312 11.609375 -0.671875 10.703125 -0.265625 C 9.804688 0.128906 8.6875 0.328125 7.34375 0.328125 C 5.53125 0.328125 4.113281 -0.132812 3.09375 -1.0625 C 2.070312 -1.988281 1.5625 -3.3125 1.5625 -5.03125 C 1.5625 -8.707031 4.5 -10.632812 10.375 -10.8125 L 13.46875 -10.90625 L 13.46875 -12.03125 C 13.46875 -13.457031 13.160156 -14.507812 12.546875 -15.1875 C 11.929688 -15.875 10.945312 -16.21875 9.59375 -16.21875 C 8.082031 -16.21875 6.367188 -15.753906 4.453125 -14.828125 L 3.609375 -16.9375 C 4.503906 -17.425781 5.484375 -17.804688 6.546875 -18.078125 C 7.617188 -18.359375 8.691406 -18.5 9.765625 -18.5 C 11.929688 -18.5 13.535156 -18.015625 14.578125 -17.046875 C 15.628906 -16.085938 16.15625 -14.546875 16.15625 -12.421875 L 16.15625 0 Z M 7.890625 -1.9375 C 9.597656 -1.9375 10.941406 -2.40625 11.921875 -3.34375 C 12.898438 -4.289062 13.390625 -5.613281 13.390625 -7.3125 L 13.390625 -8.953125 L 10.640625 -8.828125 C 8.453125 -8.753906 6.875 -8.414062 5.90625 -7.8125 C 4.9375 -7.207031 4.453125 -6.269531 4.453125 -5 C 4.453125 -4 4.753906 -3.238281 5.359375 -2.71875 C 5.960938 -2.195312 6.804688 -1.9375 7.890625 -1.9375 Z M 7.890625 -1.9375 "/></g></g></g><g fill="#ffffff" fill-opacity="1"><g transform="translate(367.167899, 301.931988)"><g><path d="M 14.5625 0 L 1.359375 0 L 1.359375 -1.875 L 11.296875 -16.046875 L 1.96875 -16.046875 L 1.96875 -18.203125 L 14.3125 -18.203125 L 14.3125 -16.046875 L 4.515625 -2.140625 L 14.5625 -2.140625 Z M 14.5625 0 "/></g></g></g><g fill="#ffffff" fill-opacity="1"><g transform="translate(383.070379, 301.931988)"><g><path d="M 5.671875 0 L 2.921875 0 L 2.921875 -18.203125 L 5.671875 -18.203125 Z M 2.6875 -23.125 C 2.6875 -23.757812 2.84375 -24.222656 3.15625 -24.515625 C 3.46875 -24.804688 3.851562 -24.953125 4.3125 -24.953125 C 4.757812 -24.953125 5.140625 -24.800781 5.453125 -24.5 C 5.773438 -24.207031 5.9375 -23.75 5.9375 -23.125 C 5.9375 -22.507812 5.773438 -22.046875 5.453125 -21.734375 C 5.140625 -21.429688 4.757812 -21.28125 4.3125 -21.28125 C 3.851562 -21.28125 3.46875 -21.429688 3.15625 -21.734375 C 2.84375 -22.046875 2.6875 -22.507812 2.6875 -23.125 Z M 2.6875 -23.125 "/></g></g></g><g fill="#ffffff" fill-opacity="1"><g transform="translate(391.669012, 301.931988)"><g><path d="M 10.609375 0.328125 C 7.921875 0.328125 5.796875 -0.488281 4.234375 -2.125 C 2.679688 -3.757812 1.90625 -6.035156 1.90625 -8.953125 C 1.90625 -11.878906 2.628906 -14.207031 4.078125 -15.9375 C 5.523438 -17.664062 7.460938 -18.53125 9.890625 -18.53125 C 12.171875 -18.53125 13.972656 -17.78125 15.296875 -16.28125 C 16.628906 -14.78125 17.296875 -12.800781 17.296875 -10.34375 L 17.296875 -8.59375 L 4.765625 -8.59375 C 4.816406 -6.457031 5.351562 -4.835938 6.375 -3.734375 C 7.40625 -2.628906 8.847656 -2.078125 10.703125 -2.078125 C 12.660156 -2.078125 14.597656 -2.484375 16.515625 -3.296875 L 16.515625 -0.84375 C 15.546875 -0.425781 14.625 -0.128906 13.75 0.046875 C 12.882812 0.234375 11.835938 0.328125 10.609375 0.328125 Z M 9.859375 -16.21875 C 8.398438 -16.21875 7.234375 -15.738281 6.359375 -14.78125 C 5.492188 -13.832031 4.984375 -12.519531 4.828125 -10.84375 L 14.34375 -10.84375 C 14.34375 -12.582031 13.953125 -13.910156 13.171875 -14.828125 C 12.398438 -15.753906 11.296875 -16.21875 9.859375 -16.21875 Z M 9.859375 -16.21875 "/></g></g></g><g fill="#ffffff" fill-opacity="1"><g transform="translate(410.742009, 301.931988)"><g><path d="M 15.375 0 L 15.375 -11.765625 C 15.375 -13.253906 15.035156 -14.363281 14.359375 -15.09375 C 13.679688 -15.820312 12.625 -16.1875 11.1875 -16.1875 C 9.28125 -16.1875 7.882812 -15.671875 7 -14.640625 C 6.113281 -13.609375 5.671875 -11.910156 5.671875 -9.546875 L 5.671875 0 L 2.921875 0 L 2.921875 -18.203125 L 5.15625 -18.203125 L 5.609375 -15.703125 L 5.75 -15.703125 C 6.3125 -16.597656 7.097656 -17.289062 8.109375 -17.78125 C 9.128906 -18.28125 10.265625 -18.53125 11.515625 -18.53125 C 13.710938 -18.53125 15.363281 -18 16.46875 -16.9375 C 17.570312 -15.882812 18.125 -14.195312 18.125 -11.875 L 18.125 0 Z M 15.375 0 "/></g></g></g><g fill="#ffffff" fill-opacity="1"><g transform="translate(431.607792, 301.931988)"><g><path d="M 15.3125 -2.4375 L 15.15625 -2.4375 C 13.882812 -0.59375 11.984375 0.328125 9.453125 0.328125 C 7.066406 0.328125 5.210938 -0.484375 3.890625 -2.109375 C 2.566406 -3.734375 1.90625 -6.046875 1.90625 -9.046875 C 1.90625 -12.046875 2.566406 -14.375 3.890625 -16.03125 C 5.222656 -17.695312 7.078125 -18.53125 9.453125 -18.53125 C 11.921875 -18.53125 13.8125 -17.632812 15.125 -15.84375 L 15.34375 -15.84375 L 15.21875 -17.15625 L 15.15625 -18.421875 L 15.15625 -25.828125 L 17.90625 -25.828125 L 17.90625 0 L 15.671875 0 Z M 9.796875 -1.96875 C 11.679688 -1.96875 13.046875 -2.476562 13.890625 -3.5 C 14.734375 -4.53125 15.15625 -6.1875 15.15625 -8.46875 L 15.15625 -9.046875 C 15.15625 -11.628906 14.722656 -13.46875 13.859375 -14.5625 C 13.003906 -15.664062 11.640625 -16.21875 9.765625 -16.21875 C 8.148438 -16.21875 6.910156 -15.585938 6.046875 -14.328125 C 5.191406 -13.078125 4.765625 -11.304688 4.765625 -9.015625 C 4.765625 -6.691406 5.191406 -4.9375 6.046875 -3.75 C 6.898438 -2.5625 8.148438 -1.96875 9.796875 -1.96875 Z M 9.796875 -1.96875 "/></g></g></g><g fill="#ffffff" fill-opacity="1"><g transform="translate(452.440363, 301.931988)"><g><path d="M 14.109375 0 L 13.5625 -2.59375 L 13.4375 -2.59375 C 12.519531 -1.445312 11.609375 -0.671875 10.703125 -0.265625 C 9.804688 0.128906 8.6875 0.328125 7.34375 0.328125 C 5.53125 0.328125 4.113281 -0.132812 3.09375 -1.0625 C 2.070312 -1.988281 1.5625 -3.3125 1.5625 -5.03125 C 1.5625 -8.707031 4.5 -10.632812 10.375 -10.8125 L 13.46875 -10.90625 L 13.46875 -12.03125 C 13.46875 -13.457031 13.160156 -14.507812 12.546875 -15.1875 C 11.929688 -15.875 10.945312 -16.21875 9.59375 -16.21875 C 8.082031 -16.21875 6.367188 -15.753906 4.453125 -14.828125 L 3.609375 -16.9375 C 4.503906 -17.425781 5.484375 -17.804688 6.546875 -18.078125 C 7.617188 -18.359375 8.691406 -18.5 9.765625 -18.5 C 11.929688 -18.5 13.535156 -18.015625 14.578125 -17.046875 C 15.628906 -16.085938 16.15625 -14.546875 16.15625 -12.421875 L 16.15625 0 Z M 7.890625 -1.9375 C 9.597656 -1.9375 10.941406 -2.40625 11.921875 -3.34375 C 12.898438 -4.289062 13.390625 -5.613281 13.390625 -7.3125 L 13.390625 -8.953125 L 10.640625 -8.828125 C 8.453125 -8.753906 6.875 -8.414062 5.90625 -7.8125 C 4.9375 -7.207031 4.453125 -6.269531 4.453125 -5 C 4.453125 -4 4.753906 -3.238281 5.359375 -2.71875 C 5.960938 -2.195312 6.804688 -1.9375 7.890625 -1.9375 Z M 7.890625 -1.9375 "/></g></g></g><g fill="#ffffff" fill-opacity="1"><g transform="translate(471.347376, 301.931988)"><g><path d="M 5.671875 0 L 2.921875 0 L 2.921875 -25.828125 L 5.671875 -25.828125 Z M 5.671875 0 "/></g></g></g><g fill="#ffffff" fill-opacity="1"><g transform="translate(479.945985, 301.931988)"><g><path d="M 10.609375 0.328125 C 7.921875 0.328125 5.796875 -0.488281 4.234375 -2.125 C 2.679688 -3.757812 1.90625 -6.035156 1.90625 -8.953125 C 1.90625 -11.878906 2.628906 -14.207031 4.078125 -15.9375 C 5.523438 -17.664062 7.460938 -18.53125 9.890625 -18.53125 C 12.171875 -18.53125 13.972656 -17.78125 15.296875 -16.28125 C 16.628906 -14.78125 17.296875 -12.800781 17.296875 -10.34375 L 17.296875 -8.59375 L 4.765625 -8.59375 C 4.816406 -6.457031 5.351562 -4.835938 6.375 -3.734375 C 7.40625 -2.628906 8.847656 -2.078125 10.703125 -2.078125 C 12.660156 -2.078125 14.597656 -2.484375 16.515625 -3.296875 L 16.515625 -0.84375 C 15.546875 -0.425781 14.625 -0.128906 13.75 0.046875 C 12.882812 0.234375 11.835938 0.328125 10.609375 0.328125 Z M 9.859375 -16.21875 C 8.398438 -16.21875 7.234375 -15.738281 6.359375 -14.78125 C 5.492188 -13.832031 4.984375 -12.519531 4.828125 -10.84375 L 14.34375 -10.84375 C 14.34375 -12.582031 13.953125 -13.910156 13.171875 -14.828125 C 12.398438 -15.753906 11.296875 -16.21875 9.859375 -16.21875 Z M 9.859375 -16.21875 "/></g></g></g><g fill="#ffffff" fill-opacity="1"><g transform="translate(156.153046, 391.128077)"><g><path d="M 6.15625 0 L 3.34375 0 L 3.34375 -24.265625 L 16.875 -24.265625 L 16.875 -21.765625 L 6.15625 -21.765625 L 6.15625 -12.890625 L 16.21875 -12.890625 L 16.21875 -10.375 L 6.15625 -10.375 Z M 6.15625 0 "/></g></g></g><g fill="#ffffff" fill-opacity="1"><g transform="translate(173.698887, 391.128077)"><g><path d="M 18.625 -9.109375 C 18.625 -6.148438 17.875 -3.835938 16.375 -2.171875 C 14.882812 -0.503906 12.820312 0.328125 10.1875 0.328125 C 8.5625 0.328125 7.117188 -0.0507812 5.859375 -0.8125 C 4.597656 -1.570312 3.625 -2.664062 2.9375 -4.09375 C 2.25 -5.53125 1.90625 -7.203125 1.90625 -9.109375 C 1.90625 -12.078125 2.644531 -14.390625 4.125 -16.046875 C 5.613281 -17.703125 7.675781 -18.53125 10.3125 -18.53125 C 12.851562 -18.53125 14.875 -17.679688 16.375 -15.984375 C 17.875 -14.296875 18.625 -12.003906 18.625 -9.109375 Z M 4.765625 -9.109375 C 4.765625 -6.785156 5.226562 -5.015625 6.15625 -3.796875 C 7.082031 -2.578125 8.453125 -1.96875 10.265625 -1.96875 C 12.066406 -1.96875 13.429688 -2.570312 14.359375 -3.78125 C 15.296875 -5 15.765625 -6.773438 15.765625 -9.109375 C 15.765625 -11.421875 15.296875 -13.175781 14.359375 -14.375 C 13.429688 -15.582031 12.054688 -16.1875 10.234375 -16.1875 C 8.421875 -16.1875 7.054688 -15.59375 6.140625 -14.40625 C 5.222656 -13.226562 4.765625 -11.460938 4.765625 -9.109375 Z M 4.765625 -9.109375 "/></g></g></g><g fill="#ffffff" fill-opacity="1"><g transform="translate(194.232665, 391.128077)"><g><path d="M 11.21875 -18.53125 C 12.03125 -18.53125 12.753906 -18.460938 13.390625 -18.328125 L 13.015625 -15.765625 C 12.265625 -15.929688 11.601562 -16.015625 11.03125 -16.015625 C 9.550781 -16.015625 8.285156 -15.414062 7.234375 -14.21875 C 6.191406 -13.03125 5.671875 -11.546875 5.671875 -9.765625 L 5.671875 0 L 2.921875 0 L 2.921875 -18.203125 L 5.203125 -18.203125 L 5.515625 -14.828125 L 5.640625 -14.828125 C 6.316406 -16.015625 7.128906 -16.925781 8.078125 -17.5625 C 9.035156 -18.207031 10.082031 -18.53125 11.21875 -18.53125 Z M 11.21875 -18.53125 "/></g></g></g><g fill="#ffffff" fill-opacity="1"><g transform="translate(208.109976, 391.128077)"><g><path d="M 26.109375 0 L 26.109375 -11.84375 C 26.109375 -13.289062 25.796875 -14.375 25.171875 -15.09375 C 24.554688 -15.820312 23.597656 -16.1875 22.296875 -16.1875 C 20.578125 -16.1875 19.304688 -15.691406 18.484375 -14.703125 C 17.671875 -13.722656 17.265625 -12.207031 17.265625 -10.15625 L 17.265625 0 L 14.515625 0 L 14.515625 -11.84375 C 14.515625 -13.289062 14.203125 -14.375 13.578125 -15.09375 C 12.960938 -15.820312 11.992188 -16.1875 10.671875 -16.1875 C 8.941406 -16.1875 7.675781 -15.664062 6.875 -14.625 C 6.070312 -13.59375 5.671875 -11.898438 5.671875 -9.546875 L 5.671875 0 L 2.921875 0 L 2.921875 -18.203125 L 5.15625 -18.203125 L 5.609375 -15.703125 L 5.75 -15.703125 C 6.269531 -16.585938 7 -17.28125 7.9375 -17.78125 C 8.882812 -18.28125 9.945312 -18.53125 11.125 -18.53125 C 13.96875 -18.53125 15.828125 -17.5 16.703125 -15.4375 L 16.828125 -15.4375 C 17.367188 -16.394531 18.15625 -17.148438 19.1875 -17.703125 C 20.21875 -18.253906 21.394531 -18.53125 22.71875 -18.53125 C 24.769531 -18.53125 26.304688 -18 27.328125 -16.9375 C 28.359375 -15.882812 28.875 -14.195312 28.875 -11.875 L 28.875 0 Z M 26.109375 0 "/></g></g></g><g fill="#ffffff" fill-opacity="1"><g transform="translate(239.732323, 391.128077)"><g><path d="M 14.109375 0 L 13.5625 -2.59375 L 13.4375 -2.59375 C 12.519531 -1.445312 11.609375 -0.671875 10.703125 -0.265625 C 9.804688 0.128906 8.6875 0.328125 7.34375 0.328125 C 5.53125 0.328125 4.113281 -0.132812 3.09375 -1.0625 C 2.070312 -1.988281 1.5625 -3.3125 1.5625 -5.03125 C 1.5625 -8.707031 4.5 -10.632812 10.375 -10.8125 L 13.46875 -10.90625 L 13.46875 -12.03125 C 13.46875 -13.457031 13.160156 -14.507812 12.546875 -15.1875 C 11.929688 -15.875 10.945312 -16.21875 9.59375 -16.21875 C 8.082031 -16.21875 6.367188 -15.753906 4.453125 -14.828125 L 3.609375 -16.9375 C 4.503906 -17.425781 5.484375 -17.804688 6.546875 -18.078125 C 7.617188 -18.359375 8.691406 -18.5 9.765625 -18.5 C 11.929688 -18.5 13.535156 -18.015625 14.578125 -17.046875 C 15.628906 -16.085938 16.15625 -14.546875 16.15625 -12.421875 L 16.15625 0 Z M 7.890625 -1.9375 C 9.597656 -1.9375 10.941406 -2.40625 11.921875 -3.34375 C 12.898438 -4.289062 13.390625 -5.613281 13.390625 -7.3125 L 13.390625 -8.953125 L 10.640625 -8.828125 C 8.453125 -8.753906 6.875 -8.414062 5.90625 -7.8125 C 4.9375 -7.207031 4.453125 -6.269531 4.453125 -5 C 4.453125 -4 4.753906 -3.238281 5.359375 -2.71875 C 5.960938 -2.195312 6.804688 -1.9375 7.890625 -1.9375 Z M 7.890625 -1.9375 "/></g></g></g><g fill="#ffffff" fill-opacity="1"><g transform="translate(258.639335, 391.128077)"><g><path d="M 14.5625 0 L 1.359375 0 L 1.359375 -1.875 L 11.296875 -16.046875 L 1.96875 -16.046875 L 1.96875 -18.203125 L 14.3125 -18.203125 L 14.3125 -16.046875 L 4.515625 -2.140625 L 14.5625 -2.140625 Z M 14.5625 0 "/></g></g></g><g fill="#ffffff" fill-opacity="1"><g transform="translate(274.541804, 391.128077)"><g><path d="M 5.671875 0 L 2.921875 0 L 2.921875 -18.203125 L 5.671875 -18.203125 Z M 2.6875 -23.125 C 2.6875 -23.757812 2.84375 -24.222656 3.15625 -24.515625 C 3.46875 -24.804688 3.851562 -24.953125 4.3125 -24.953125 C 4.757812 -24.953125 5.140625 -24.800781 5.453125 -24.5 C 5.773438 -24.207031 5.9375 -23.75 5.9375 -23.125 C 5.9375 -22.507812 5.773438 -22.046875 5.453125 -21.734375 C 5.140625 -21.429688 4.757812 -21.28125 4.3125 -21.28125 C 3.851562 -21.28125 3.46875 -21.429688 3.15625 -21.734375 C 2.84375 -22.046875 2.6875 -22.507812 2.6875 -23.125 Z M 2.6875 -23.125 "/></g></g></g><g fill="#ffffff" fill-opacity="1"><g transform="translate(283.140425, 391.128077)"><g><path d="M 18.625 -9.109375 C 18.625 -6.148438 17.875 -3.835938 16.375 -2.171875 C 14.882812 -0.503906 12.820312 0.328125 10.1875 0.328125 C 8.5625 0.328125 7.117188 -0.0507812 5.859375 -0.8125 C 4.597656 -1.570312 3.625 -2.664062 2.9375 -4.09375 C 2.25 -5.53125 1.90625 -7.203125 1.90625 -9.109375 C 1.90625 -12.078125 2.644531 -14.390625 4.125 -16.046875 C 5.613281 -17.703125 7.675781 -18.53125 10.3125 -18.53125 C 12.851562 -18.53125 14.875 -17.679688 16.375 -15.984375 C 17.875 -14.296875 18.625 -12.003906 18.625 -9.109375 Z M 4.765625 -9.109375 C 4.765625 -6.785156 5.226562 -5.015625 6.15625 -3.796875 C 7.082031 -2.578125 8.453125 -1.96875 10.265625 -1.96875 C 12.066406 -1.96875 13.429688 -2.570312 14.359375 -3.78125 C 15.296875 -5 15.765625 -6.773438 15.765625 -9.109375 C 15.765625 -11.421875 15.296875 -13.175781 14.359375 -14.375 C 13.429688 -15.582031 12.054688 -16.1875 10.234375 -16.1875 C 8.421875 -16.1875 7.054688 -15.59375 6.140625 -14.40625 C 5.222656 -13.226562 4.765625 -11.460938 4.765625 -9.109375 Z M 4.765625 -9.109375 "/></g></g></g><g fill="#ffffff" fill-opacity="1"><g transform="translate(303.674203, 391.128077)"><g><path d="M 15.375 0 L 15.375 -11.765625 C 15.375 -13.253906 15.035156 -14.363281 14.359375 -15.09375 C 13.679688 -15.820312 12.625 -16.1875 11.1875 -16.1875 C 9.28125 -16.1875 7.882812 -15.671875 7 -14.640625 C 6.113281 -13.609375 5.671875 -11.910156 5.671875 -9.546875 L 5.671875 0 L 2.921875 0 L 2.921875 -18.203125 L 5.15625 -18.203125 L 5.609375 -15.703125 L 5.75 -15.703125 C 6.3125 -16.597656 7.097656 -17.289062 8.109375 -17.78125 C 9.128906 -18.28125 10.265625 -18.53125 11.515625 -18.53125 C 13.710938 -18.53125 15.363281 -18 16.46875 -16.9375 C 17.570312 -15.882812 18.125 -14.195312 18.125 -11.875 L 18.125 0 Z M 15.375 0 "/></g></g></g><g fill="#ffffff" fill-opacity="1"><g transform="translate(324.539975, 391.128077)"><g><path d="M 10.609375 0.328125 C 7.921875 0.328125 5.796875 -0.488281 4.234375 -2.125 C 2.679688 -3.757812 1.90625 -6.035156 1.90625 -8.953125 C 1.90625 -11.878906 2.628906 -14.207031 4.078125 -15.9375 C 5.523438 -17.664062 7.460938 -18.53125 9.890625 -18.53125 C 12.171875 -18.53125 13.972656 -17.78125 15.296875 -16.28125 C 16.628906 -14.78125 17.296875 -12.800781 17.296875 -10.34375 L 17.296875 -8.59375 L 4.765625 -8.59375 C 4.816406 -6.457031 5.351562 -4.835938 6.375 -3.734375 C 7.40625 -2.628906 8.847656 -2.078125 10.703125 -2.078125 C 12.660156 -2.078125 14.597656 -2.484375 16.515625 -3.296875 L 16.515625 -0.84375 C 15.546875 -0.425781 14.625 -0.128906 13.75 0.046875 C 12.882812 0.234375 11.835938 0.328125 10.609375 0.328125 Z M 9.859375 -16.21875 C 8.398438 -16.21875 7.234375 -15.738281 6.359375 -14.78125 C 5.492188 -13.832031 4.984375 -12.519531 4.828125 -10.84375 L 14.34375 -10.84375 C 14.34375 -12.582031 13.953125 -13.910156 13.171875 -14.828125 C 12.398438 -15.753906 11.296875 -16.21875 9.859375 -16.21875 Z M 9.859375 -16.21875 "/></g></g></g></svg>