<svg xmlns="http://www.w3.org/2000/svg" xmlns:xlink="http://www.w3.org/1999/xlink" width="2000" zoomAndPan="magnify" viewBox="0 0 1500 187.499995" height="250" preserveAspectRatio="xMidYMid meet" version="1.0"><defs><filter x="0%" y="0%" width="100%" height="100%" id="7ed58a706b"><feColorMatrix values="0 0 0 0 1 0 0 0 0 1 0 0 0 0 1 0 0 0 1 0" color-interpolation-filters="sRGB"/></filter><mask id="453e3daced"><g filter="url(#7ed58a706b)"><rect x="-150" width="1800" fill="#000000" y="-18.749999" height="224.999994" fill-opacity="0.36"/></g></mask><clipPath id="1648f52243"><path d="M 1 2 L 1457 2 L 1457 148 L 1 148 Z M 1 2 " clip-rule="nonzero"/></clipPath><clipPath id="d40b6d88bc"><rect x="0" width="1459" y="0" height="148"/></clipPath><mask id="3183ba05fd"><g filter="url(#7ed58a706b)"><rect x="-150" width="1800" fill="#000000" y="-18.749999" height="224.999994" fill-opacity="0.26"/></g></mask><clipPath id="b9e26dd34b"><path d="M 2 0 L 1423.722656 0 L 1423.722656 158 L 2 158 Z M 2 0 " clip-rule="nonzero"/></clipPath><clipPath id="8411c2c224"><rect x="0" width="1424" y="0" height="164"/></clipPath></defs><g mask="url(#453e3daced)"><g transform="matrix(1, 0, 0, 1, 30, 39)"><g clip-path="url(#d40b6d88bc)"><g clip-path="url(#1648f52243)"><path fill="#00f9ff" d="M 1456.722656 26.925781 C 1422.300781 22.625 1387.746094 20.195312 1353.058594 19.636719 C 885.121094 4.722656 500.640625 -0.984375 32.496094 4.789062 L 1.976562 128.527344 C 468.332031 122.820312 882.992188 128.113281 1349.347656 142.964844 C 1379.796875 143.472656 1410.136719 145.582031 1440.363281 149.289062 C 1444.28125 108.523438 1449.917969 67.621094 1456.722656 26.925781 Z M 1456.722656 26.925781 " fill-opacity="1" fill-rule="nonzero"/></g></g></g></g><g mask="url(#3183ba05fd)"><g transform="matrix(1, 0, 0, 1, 30, 0)"><g clip-path="url(#8411c2c224)"><g clip-path="url(#b9e26dd34b)"><path fill="#00f9ff" d="M 1423.660156 36.019531 C 956.203125 12.234375 571.722656 3.023438 103.785156 -0.136719 C 84.535156 -0.136719 63.980469 -0.136719 42.742188 0.34375 C 30.089844 42.964844 15.242188 85.035156 2.042969 127.449219 C 35.601562 124.003906 69.238281 122.71875 102.960938 123.601562 C 569.382812 126.761719 915.644531 134.1875 1381.585938 157.972656 Z M 1423.660156 36.019531 " fill-opacity="1" fill-rule="nonzero"/></g></g></g></g></svg>