<svg xmlns="http://www.w3.org/2000/svg" xmlns:xlink="http://www.w3.org/1999/xlink" width="2000" zoomAndPan="magnify" viewBox="0 0 1500 187.499995" height="250" preserveAspectRatio="xMidYMid meet" version="1.0"><defs><filter x="0%" y="0%" width="100%" height="100%" id="6789120df6"><feColorMatrix values="0 0 0 0 1 0 0 0 0 1 0 0 0 0 1 0 0 0 1 0" color-interpolation-filters="sRGB"/></filter><mask id="50b37d0ff0"><g filter="url(#6789120df6)"><rect x="-150" width="1800" fill="#000000" y="-18.749999" height="224.999994" fill-opacity="0.36"/></g></mask><clipPath id="fc339cc00f"><path d="M 1 3 L 1457 3 L 1457 148 L 1 148 Z M 1 3 " clip-rule="nonzero"/></clipPath><clipPath id="9c539ea50e"><rect x="0" width="1458" y="0" height="148"/></clipPath><clipPath id="1c209e42cf"><path d="M 19 0.746094 L 1443 0.746094 L 1443 164 L 19 164 Z M 19 0.746094 " clip-rule="nonzero"/></clipPath><mask id="eb60fc0311"><g filter="url(#6789120df6)"><rect x="-150" width="1800" fill="#000000" y="-18.749999" height="224.999994" fill-opacity="0.26"/></g></mask><clipPath id="2f2037eacd"><path d="M 1 0.746094 L 1423.472656 0.746094 L 1423.472656 159 L 1 159 Z M 1 0.746094 " clip-rule="nonzero"/></clipPath><clipPath id="5de7493eed"><rect x="0" width="1424" y="0" height="164"/></clipPath></defs><g mask="url(#50b37d0ff0)"><g transform="matrix(1, 0, 0, 1, 19, 39)"><g clip-path="url(#9c539ea50e)"><g clip-path="url(#fc339cc00f)"><path fill="#ff66c4" d="M 1456.503906 27.671875 C 1422.082031 23.375 1387.527344 20.945312 1352.839844 20.386719 C 884.902344 5.46875 500.421875 -0.238281 32.277344 5.539062 L 1.753906 129.277344 C 468.109375 123.570312 882.769531 128.863281 1349.128906 143.710938 C 1379.578125 144.222656 1409.914062 146.328125 1440.144531 150.035156 C 1444.0625 109.269531 1449.699219 68.367188 1456.503906 27.671875 Z M 1456.503906 27.671875 " fill-opacity="1" fill-rule="nonzero"/></g></g></g></g><g clip-path="url(#1c209e42cf)"><g mask="url(#eb60fc0311)"><g transform="matrix(1, 0, 0, 1, 19, 0)"><g clip-path="url(#5de7493eed)"><g clip-path="url(#2f2037eacd)"><path fill="#ff66c4" d="M 1423.4375 36.769531 C 955.984375 12.984375 571.5 3.773438 103.5625 0.609375 C 84.316406 0.609375 63.761719 0.609375 42.519531 1.089844 C 29.871094 43.710938 15.023438 85.785156 1.824219 128.199219 C 35.378906 124.75 69.019531 123.46875 102.738281 124.347656 C 569.164062 127.511719 915.425781 134.933594 1381.367188 158.71875 Z M 1423.4375 36.769531 " fill-opacity="1" fill-rule="nonzero"/></g></g></g></g></g></svg>