<svg xmlns="http://www.w3.org/2000/svg" xmlns:xlink="http://www.w3.org/1999/xlink" width="1500" zoomAndPan="magnify" viewBox="0 0 1125 149.999998" height="200" preserveAspectRatio="xMidYMid meet" version="1.0"><defs><g/></defs><g fill="#000000" fill-opacity="1"><g transform="translate(-3.74999, 135.786068)"><g><path d="M 8.515625 0 L 8.515625 -122.046875 L 33.640625 -122.046875 L 33.640625 0 Z M 8.515625 0 "/></g></g></g><g fill="#000000" fill-opacity="1"><g transform="translate(31.303257, 135.786068)"><g><path d="M 13.484375 -9.015625 C 6.671875 -16.441406 3.265625 -25.546875 3.265625 -36.328125 C 3.265625 -47.117188 6.671875 -56.25 13.484375 -63.71875 C 20.296875 -71.195312 28.953125 -74.9375 39.453125 -74.9375 C 49.109375 -74.9375 57.054688 -71.910156 63.296875 -65.859375 L 63.296875 -72.8125 L 88.421875 -72.8125 L 88.421875 0 L 63.578125 0 L 63.578125 -8.234375 L 63.296875 -8.234375 C 57.054688 -1.328125 49.109375 2.125 39.453125 2.125 C 28.953125 2.125 20.296875 -1.585938 13.484375 -9.015625 Z M 34.84375 -48.671875 C 31.582031 -45.460938 29.953125 -41.347656 29.953125 -36.328125 C 29.953125 -31.316406 31.507812 -27.222656 34.625 -24.046875 C 37.75 -20.878906 41.863281 -19.296875 46.96875 -19.296875 C 51.894531 -19.296875 55.941406 -20.90625 59.109375 -24.125 C 62.273438 -27.34375 63.859375 -31.410156 63.859375 -36.328125 C 63.859375 -41.347656 62.226562 -45.460938 58.96875 -48.671875 C 55.707031 -51.890625 51.707031 -53.5 46.96875 -53.5 C 42.144531 -53.5 38.101562 -51.890625 34.84375 -48.671875 Z M 34.84375 -48.671875 "/></g></g></g><g fill="#000000" fill-opacity="1"><g transform="translate(121.13649, 135.786068)"><g/></g></g><g fill="#000000" fill-opacity="1"><g transform="translate(152.783728, 135.786068)"><g><path d="M 8.515625 0 L 8.515625 -72.8125 L 33.640625 -72.8125 L 33.640625 -65.140625 L 33.921875 -65.140625 C 40.453125 -71.671875 47.40625 -74.9375 54.78125 -74.9375 C 58.375 -74.9375 61.941406 -74.460938 65.484375 -73.515625 C 69.035156 -72.566406 72.441406 -71.097656 75.703125 -69.109375 C 78.972656 -67.128906 81.625 -64.316406 83.65625 -60.671875 C 85.695312 -57.023438 86.71875 -52.789062 86.71875 -47.96875 L 86.71875 0 L 61.59375 0 L 61.59375 -41.15625 C 61.59375 -44.9375 60.382812 -48.242188 57.96875 -51.078125 C 55.5625 -53.921875 52.414062 -55.34375 48.53125 -55.34375 C 44.75 -55.34375 41.320312 -53.875 38.25 -50.9375 C 35.175781 -48.007812 33.640625 -44.75 33.640625 -41.15625 L 33.640625 0 Z M 8.515625 0 "/></g></g></g><g fill="#000000" fill-opacity="1"><g transform="translate(239.494783, 135.786068)"><g><path d="M 15.390625 -8.65625 C 7.304688 -15.84375 3.265625 -25.066406 3.265625 -36.328125 C 3.265625 -47.585938 7.472656 -56.835938 15.890625 -64.078125 C 24.316406 -71.316406 34.726562 -74.9375 47.125 -74.9375 C 59.320312 -74.9375 69.609375 -71.289062 77.984375 -64 C 86.359375 -56.71875 90.546875 -47.492188 90.546875 -36.328125 C 90.546875 -25.160156 86.453125 -15.957031 78.265625 -8.71875 C 70.085938 -1.488281 59.707031 2.125 47.125 2.125 C 34.0625 2.125 23.484375 -1.46875 15.390625 -8.65625 Z M 34.84375 -48.671875 C 31.582031 -45.460938 29.953125 -41.347656 29.953125 -36.328125 C 29.953125 -31.316406 31.507812 -27.222656 34.625 -24.046875 C 37.75 -20.878906 41.863281 -19.296875 46.96875 -19.296875 C 51.894531 -19.296875 55.941406 -20.90625 59.109375 -24.125 C 62.273438 -27.34375 63.859375 -31.410156 63.859375 -36.328125 C 63.859375 -41.347656 62.226562 -45.460938 58.96875 -48.671875 C 55.707031 -51.890625 51.707031 -53.5 46.96875 -53.5 C 42.144531 -53.5 38.101562 -51.890625 34.84375 -48.671875 Z M 34.84375 -48.671875 "/></g></g></g><g fill="#000000" fill-opacity="1"><g transform="translate(326.205851, 135.786068)"><g><path d="M 40.15625 -74.9375 C 44.320312 -74.9375 48.4375 -74.460938 52.5 -73.515625 C 56.570312 -72.566406 59.601562 -71.617188 61.59375 -70.671875 L 64.578125 -69.265625 L 56.34375 -52.796875 C 50.664062 -55.828125 45.269531 -57.34375 40.15625 -57.34375 C 37.320312 -57.34375 35.3125 -57.03125 34.125 -56.40625 C 32.945312 -55.789062 32.359375 -54.632812 32.359375 -52.9375 C 32.359375 -52.5625 32.40625 -52.179688 32.5 -51.796875 C 32.59375 -51.421875 32.78125 -51.066406 33.0625 -50.734375 C 33.351562 -50.398438 33.613281 -50.113281 33.84375 -49.875 C 34.082031 -49.644531 34.484375 -49.382812 35.046875 -49.09375 C 35.617188 -48.8125 36.070312 -48.597656 36.40625 -48.453125 C 36.738281 -48.316406 37.28125 -48.109375 38.03125 -47.828125 C 38.789062 -47.546875 39.359375 -47.332031 39.734375 -47.1875 C 40.117188 -47.039062 40.757812 -46.828125 41.65625 -46.546875 C 42.550781 -46.265625 43.238281 -46.078125 43.71875 -45.984375 C 46.644531 -45.128906 49.195312 -44.179688 51.375 -43.140625 C 53.550781 -42.097656 55.84375 -40.675781 58.25 -38.875 C 60.664062 -37.082031 62.535156 -34.8125 63.859375 -32.0625 C 65.191406 -29.320312 65.859375 -26.203125 65.859375 -22.703125 C 65.859375 -6.148438 54.359375 2.125 31.359375 2.125 C 26.160156 2.125 21.21875 1.320312 16.53125 -0.28125 C 11.851562 -1.894531 8.472656 -3.503906 6.390625 -5.109375 L 3.265625 -7.65625 L 13.484375 -24.84375 C 14.242188 -24.175781 15.238281 -23.390625 16.46875 -22.484375 C 17.695312 -21.585938 19.914062 -20.359375 23.125 -18.796875 C 26.34375 -17.242188 29.132812 -16.46875 31.5 -16.46875 C 36.707031 -16.46875 39.3125 -18.21875 39.3125 -21.71875 C 39.3125 -23.320312 38.648438 -24.570312 37.328125 -25.46875 C 36.003906 -26.375 33.753906 -27.394531 30.578125 -28.53125 C 27.410156 -29.664062 24.929688 -30.707031 23.140625 -31.65625 C 18.597656 -34.019531 15 -36.691406 12.34375 -39.671875 C 9.695312 -42.648438 8.375 -46.597656 8.375 -51.515625 C 8.375 -58.898438 11.234375 -64.648438 16.953125 -68.765625 C 22.679688 -72.878906 30.414062 -74.9375 40.15625 -74.9375 Z M 40.15625 -74.9375 "/></g></g></g><g fill="#000000" fill-opacity="1"><g transform="translate(388.932924, 135.786068)"><g><path d="M 12.765625 -72.8125 L 12.765625 -99.90625 L 37.890625 -99.90625 L 37.890625 -72.8125 L 53.21875 -72.8125 L 53.21875 -53.640625 L 37.890625 -53.640625 L 37.890625 -30.515625 C 37.890625 -23.796875 39.78125 -20.4375 43.5625 -20.4375 C 44.507812 -20.4375 45.503906 -20.625 46.546875 -21 C 47.585938 -21.382812 48.394531 -21.765625 48.96875 -22.140625 L 49.8125 -22.703125 L 56.0625 -2.40625 C 50.664062 0.613281 44.515625 2.125 37.609375 2.125 C 32.878906 2.125 28.8125 1.296875 25.40625 -0.359375 C 22 -2.015625 19.421875 -4.238281 17.671875 -7.03125 C 15.921875 -9.820312 14.664062 -12.753906 13.90625 -15.828125 C 13.144531 -18.898438 12.765625 -22.1875 12.765625 -25.6875 L 12.765625 -53.640625 L 2.265625 -53.640625 L 2.265625 -72.8125 Z M 12.765625 -72.8125 "/></g></g></g><g fill="#000000" fill-opacity="1"><g transform="translate(437.894034, 135.786068)"><g><path d="M 8.515625 0 L 8.515625 -72.8125 L 33.640625 -72.8125 L 33.640625 -62.296875 L 33.921875 -62.296875 C 34.109375 -62.679688 34.414062 -63.15625 34.84375 -63.71875 C 35.269531 -64.289062 36.191406 -65.285156 37.609375 -66.703125 C 39.023438 -68.117188 40.535156 -69.394531 42.140625 -70.53125 C 43.753906 -71.664062 45.835938 -72.679688 48.390625 -73.578125 C 50.953125 -74.484375 53.554688 -74.9375 56.203125 -74.9375 C 58.941406 -74.9375 61.632812 -74.554688 64.28125 -73.796875 C 66.9375 -73.035156 68.878906 -72.28125 70.109375 -71.53125 L 72.09375 -70.390625 L 61.59375 -49.109375 C 58.46875 -51.753906 54.113281 -53.078125 48.53125 -53.078125 C 45.507812 -53.078125 42.910156 -52.414062 40.734375 -51.09375 C 38.554688 -49.769531 37.015625 -48.160156 36.109375 -46.265625 C 35.210938 -44.367188 34.578125 -42.757812 34.203125 -41.4375 C 33.828125 -40.113281 33.640625 -39.070312 33.640625 -38.3125 L 33.640625 0 Z M 8.515625 0 "/></g></g></g><g fill="#000000" fill-opacity="1"><g transform="translate(501.472593, 135.786068)"><g><path d="M 13.484375 -9.015625 C 6.671875 -16.441406 3.265625 -25.546875 3.265625 -36.328125 C 3.265625 -47.117188 6.671875 -56.25 13.484375 -63.71875 C 20.296875 -71.195312 28.953125 -74.9375 39.453125 -74.9375 C 49.109375 -74.9375 57.054688 -71.910156 63.296875 -65.859375 L 63.296875 -72.8125 L 88.421875 -72.8125 L 88.421875 0 L 63.578125 0 L 63.578125 -8.234375 L 63.296875 -8.234375 C 57.054688 -1.328125 49.109375 2.125 39.453125 2.125 C 28.953125 2.125 20.296875 -1.585938 13.484375 -9.015625 Z M 34.84375 -48.671875 C 31.582031 -45.460938 29.953125 -41.347656 29.953125 -36.328125 C 29.953125 -31.316406 31.507812 -27.222656 34.625 -24.046875 C 37.75 -20.878906 41.863281 -19.296875 46.96875 -19.296875 C 51.894531 -19.296875 55.941406 -20.90625 59.109375 -24.125 C 62.273438 -27.34375 63.859375 -31.410156 63.859375 -36.328125 C 63.859375 -41.347656 62.226562 -45.460938 58.96875 -48.671875 C 55.707031 -51.890625 51.707031 -53.5 46.96875 -53.5 C 42.144531 -53.5 38.101562 -51.890625 34.84375 -48.671875 Z M 34.84375 -48.671875 "/></g></g></g><g fill="#000000" fill-opacity="1"><g transform="translate(591.3058, 135.786068)"><g/></g></g><g fill="#000000" fill-opacity="1"><g transform="translate(622.953038, 135.786068)"><g><path d="M 105.3125 0 L 99.765625 -69.40625 L 99.0625 -69.40625 L 75.078125 -0.703125 L 59.1875 -0.703125 L 35.203125 -69.40625 L 34.484375 -69.40625 L 28.953125 0 L 2.265625 0 L 12.765625 -117.078125 L 41.15625 -117.078125 L 67.125 -49.53125 L 93.09375 -117.078125 L 121.484375 -117.078125 L 131.984375 0 Z M 105.3125 0 "/></g></g></g><g fill="#000000" fill-opacity="1"><g transform="translate(750.11046, 135.786068)"><g><path d="M 10.921875 -113.390625 C 13.859375 -116.328125 17.359375 -117.796875 21.421875 -117.796875 C 25.492188 -117.796875 28.992188 -116.328125 31.921875 -113.390625 C 34.859375 -110.460938 36.328125 -106.960938 36.328125 -102.890625 C 36.328125 -98.828125 34.859375 -95.328125 31.921875 -92.390625 C 28.992188 -89.453125 25.492188 -87.984375 21.421875 -87.984375 C 17.359375 -87.984375 13.859375 -89.453125 10.921875 -92.390625 C 7.992188 -95.328125 6.53125 -98.828125 6.53125 -102.890625 C 6.53125 -106.960938 7.992188 -110.460938 10.921875 -113.390625 Z M 8.515625 -72.8125 L 8.515625 0 L 33.640625 0 L 33.640625 -72.8125 Z M 8.515625 -72.8125 "/></g></g></g><g fill="#000000" fill-opacity="1"><g transform="translate(785.873314, 135.786068)"><g><path d="M 40.15625 -74.9375 C 44.320312 -74.9375 48.4375 -74.460938 52.5 -73.515625 C 56.570312 -72.566406 59.601562 -71.617188 61.59375 -70.671875 L 64.578125 -69.265625 L 56.34375 -52.796875 C 50.664062 -55.828125 45.269531 -57.34375 40.15625 -57.34375 C 37.320312 -57.34375 35.3125 -57.03125 34.125 -56.40625 C 32.945312 -55.789062 32.359375 -54.632812 32.359375 -52.9375 C 32.359375 -52.5625 32.40625 -52.179688 32.5 -51.796875 C 32.59375 -51.421875 32.78125 -51.066406 33.0625 -50.734375 C 33.351562 -50.398438 33.613281 -50.113281 33.84375 -49.875 C 34.082031 -49.644531 34.484375 -49.382812 35.046875 -49.09375 C 35.617188 -48.8125 36.070312 -48.597656 36.40625 -48.453125 C 36.738281 -48.316406 37.28125 -48.109375 38.03125 -47.828125 C 38.789062 -47.546875 39.359375 -47.332031 39.734375 -47.1875 C 40.117188 -47.039062 40.757812 -46.828125 41.65625 -46.546875 C 42.550781 -46.265625 43.238281 -46.078125 43.71875 -45.984375 C 46.644531 -45.128906 49.195312 -44.179688 51.375 -43.140625 C 53.550781 -42.097656 55.84375 -40.675781 58.25 -38.875 C 60.664062 -37.082031 62.535156 -34.8125 63.859375 -32.0625 C 65.191406 -29.320312 65.859375 -26.203125 65.859375 -22.703125 C 65.859375 -6.148438 54.359375 2.125 31.359375 2.125 C 26.160156 2.125 21.21875 1.320312 16.53125 -0.28125 C 11.851562 -1.894531 8.472656 -3.503906 6.390625 -5.109375 L 3.265625 -7.65625 L 13.484375 -24.84375 C 14.242188 -24.175781 15.238281 -23.390625 16.46875 -22.484375 C 17.695312 -21.585938 19.914062 -20.359375 23.125 -18.796875 C 26.34375 -17.242188 29.132812 -16.46875 31.5 -16.46875 C 36.707031 -16.46875 39.3125 -18.21875 39.3125 -21.71875 C 39.3125 -23.320312 38.648438 -24.570312 37.328125 -25.46875 C 36.003906 -26.375 33.753906 -27.394531 30.578125 -28.53125 C 27.410156 -29.664062 24.929688 -30.707031 23.140625 -31.65625 C 18.597656 -34.019531 15 -36.691406 12.34375 -39.671875 C 9.695312 -42.648438 8.375 -46.597656 8.375 -51.515625 C 8.375 -58.898438 11.234375 -64.648438 16.953125 -68.765625 C 22.679688 -72.878906 30.414062 -74.9375 40.15625 -74.9375 Z M 40.15625 -74.9375 "/></g></g></g><g fill="#000000" fill-opacity="1"><g transform="translate(848.600438, 135.786068)"><g><path d="M 40.15625 -74.9375 C 44.320312 -74.9375 48.4375 -74.460938 52.5 -73.515625 C 56.570312 -72.566406 59.601562 -71.617188 61.59375 -70.671875 L 64.578125 -69.265625 L 56.34375 -52.796875 C 50.664062 -55.828125 45.269531 -57.34375 40.15625 -57.34375 C 37.320312 -57.34375 35.3125 -57.03125 34.125 -56.40625 C 32.945312 -55.789062 32.359375 -54.632812 32.359375 -52.9375 C 32.359375 -52.5625 32.40625 -52.179688 32.5 -51.796875 C 32.59375 -51.421875 32.78125 -51.066406 33.0625 -50.734375 C 33.351562 -50.398438 33.613281 -50.113281 33.84375 -49.875 C 34.082031 -49.644531 34.484375 -49.382812 35.046875 -49.09375 C 35.617188 -48.8125 36.070312 -48.597656 36.40625 -48.453125 C 36.738281 -48.316406 37.28125 -48.109375 38.03125 -47.828125 C 38.789062 -47.546875 39.359375 -47.332031 39.734375 -47.1875 C 40.117188 -47.039062 40.757812 -46.828125 41.65625 -46.546875 C 42.550781 -46.265625 43.238281 -46.078125 43.71875 -45.984375 C 46.644531 -45.128906 49.195312 -44.179688 51.375 -43.140625 C 53.550781 -42.097656 55.84375 -40.675781 58.25 -38.875 C 60.664062 -37.082031 62.535156 -34.8125 63.859375 -32.0625 C 65.191406 -29.320312 65.859375 -26.203125 65.859375 -22.703125 C 65.859375 -6.148438 54.359375 2.125 31.359375 2.125 C 26.160156 2.125 21.21875 1.320312 16.53125 -0.28125 C 11.851562 -1.894531 8.472656 -3.503906 6.390625 -5.109375 L 3.265625 -7.65625 L 13.484375 -24.84375 C 14.242188 -24.175781 15.238281 -23.390625 16.46875 -22.484375 C 17.695312 -21.585938 19.914062 -20.359375 23.125 -18.796875 C 26.34375 -17.242188 29.132812 -16.46875 31.5 -16.46875 C 36.707031 -16.46875 39.3125 -18.21875 39.3125 -21.71875 C 39.3125 -23.320312 38.648438 -24.570312 37.328125 -25.46875 C 36.003906 -26.375 33.753906 -27.394531 30.578125 -28.53125 C 27.410156 -29.664062 24.929688 -30.707031 23.140625 -31.65625 C 18.597656 -34.019531 15 -36.691406 12.34375 -39.671875 C 9.695312 -42.648438 8.375 -46.597656 8.375 -51.515625 C 8.375 -58.898438 11.234375 -64.648438 16.953125 -68.765625 C 22.679688 -72.878906 30.414062 -74.9375 40.15625 -74.9375 Z M 40.15625 -74.9375 "/></g></g></g><g fill="#000000" fill-opacity="1"><g transform="translate(911.327562, 135.786068)"><g><path d="M 10.921875 -113.390625 C 13.859375 -116.328125 17.359375 -117.796875 21.421875 -117.796875 C 25.492188 -117.796875 28.992188 -116.328125 31.921875 -113.390625 C 34.859375 -110.460938 36.328125 -106.960938 36.328125 -102.890625 C 36.328125 -98.828125 34.859375 -95.328125 31.921875 -92.390625 C 28.992188 -89.453125 25.492188 -87.984375 21.421875 -87.984375 C 17.359375 -87.984375 13.859375 -89.453125 10.921875 -92.390625 C 7.992188 -95.328125 6.53125 -98.828125 6.53125 -102.890625 C 6.53125 -106.960938 7.992188 -110.460938 10.921875 -113.390625 Z M 8.515625 -72.8125 L 8.515625 0 L 33.640625 0 L 33.640625 -72.8125 Z M 8.515625 -72.8125 "/></g></g></g><g fill="#000000" fill-opacity="1"><g transform="translate(947.090365, 135.786068)"><g><path d="M 15.390625 -8.65625 C 7.304688 -15.84375 3.265625 -25.066406 3.265625 -36.328125 C 3.265625 -47.585938 7.472656 -56.835938 15.890625 -64.078125 C 24.316406 -71.316406 34.726562 -74.9375 47.125 -74.9375 C 59.320312 -74.9375 69.609375 -71.289062 77.984375 -64 C 86.359375 -56.71875 90.546875 -47.492188 90.546875 -36.328125 C 90.546875 -25.160156 86.453125 -15.957031 78.265625 -8.71875 C 70.085938 -1.488281 59.707031 2.125 47.125 2.125 C 34.0625 2.125 23.484375 -1.46875 15.390625 -8.65625 Z M 34.84375 -48.671875 C 31.582031 -45.460938 29.953125 -41.347656 29.953125 -36.328125 C 29.953125 -31.316406 31.507812 -27.222656 34.625 -24.046875 C 37.75 -20.878906 41.863281 -19.296875 46.96875 -19.296875 C 51.894531 -19.296875 55.941406 -20.90625 59.109375 -24.125 C 62.273438 -27.34375 63.859375 -31.410156 63.859375 -36.328125 C 63.859375 -41.347656 62.226562 -45.460938 58.96875 -48.671875 C 55.707031 -51.890625 51.707031 -53.5 46.96875 -53.5 C 42.144531 -53.5 38.101562 -51.890625 34.84375 -48.671875 Z M 34.84375 -48.671875 "/></g></g></g><g fill="#000000" fill-opacity="1"><g transform="translate(1033.801458, 135.786068)"><g><path d="M 8.515625 0 L 8.515625 -72.8125 L 33.640625 -72.8125 L 33.640625 -65.140625 L 33.921875 -65.140625 C 40.453125 -71.671875 47.40625 -74.9375 54.78125 -74.9375 C 58.375 -74.9375 61.941406 -74.460938 65.484375 -73.515625 C 69.035156 -72.566406 72.441406 -71.097656 75.703125 -69.109375 C 78.972656 -67.128906 81.625 -64.316406 83.65625 -60.671875 C 85.695312 -57.023438 86.71875 -52.789062 86.71875 -47.96875 L 86.71875 0 L 61.59375 0 L 61.59375 -41.15625 C 61.59375 -44.9375 60.382812 -48.242188 57.96875 -51.078125 C 55.5625 -53.921875 52.414062 -55.34375 48.53125 -55.34375 C 44.75 -55.34375 41.320312 -53.875 38.25 -50.9375 C 35.175781 -48.007812 33.640625 -44.75 33.640625 -41.15625 L 33.640625 0 Z M 8.515625 0 "/></g></g></g></svg>