<svg xmlns="http://www.w3.org/2000/svg" xmlns:xlink="http://www.w3.org/1999/xlink" width="1300" zoomAndPan="magnify" viewBox="0 0 974.88 187.499995" height="250" preserveAspectRatio="xMidYMid meet" version="1.0"><defs><g/><clipPath id="3755f612b0"><path d="M 183.167969 70.554688 L 224.308594 70.554688 L 224.308594 111.695312 L 183.167969 111.695312 Z M 183.167969 70.554688 " clip-rule="nonzero"/></clipPath><clipPath id="95ea2a46eb"><path d="M 137.699219 114.175781 L 188.5625 114.175781 L 188.5625 165.039062 L 137.699219 165.039062 Z M 137.699219 114.175781 " clip-rule="nonzero"/></clipPath><clipPath id="2587a664e5"><path d="M 237.789062 91.023438 L 312.589844 91.023438 L 312.589844 165.824219 L 237.789062 165.824219 Z M 237.789062 91.023438 " clip-rule="nonzero"/></clipPath><clipPath id="a7bab847c0"><path d="M 215.605469 34.589844 L 239.542969 34.589844 L 239.542969 58.523438 L 215.605469 58.523438 Z M 215.605469 34.589844 " clip-rule="nonzero"/></clipPath><clipPath id="42ba48befd"><path d="M 247.019531 58.679688 L 272.449219 58.679688 L 272.449219 84.109375 L 247.019531 84.109375 Z M 247.019531 58.679688 " clip-rule="nonzero"/></clipPath><clipPath id="8a6caf8bc6"><path d="M 280.121094 28.507812 L 316.023438 28.507812 L 316.023438 64.410156 L 280.121094 64.410156 Z M 280.121094 28.507812 " clip-rule="nonzero"/></clipPath><clipPath id="8eac213982"><path d="M 93.089844 132.886719 L 123 132.886719 L 123 162.804688 L 93.089844 162.804688 Z M 93.089844 132.886719 " clip-rule="nonzero"/></clipPath><clipPath id="1b9d16c96d"><path d="M 163.277344 58.679688 L 173.75 58.679688 L 173.75 69.148438 L 163.277344 69.148438 Z M 163.277344 58.679688 " clip-rule="nonzero"/></clipPath><clipPath id="a0f1ba8a8c"><path d="M 203.636719 139.753906 L 215.605469 139.753906 L 215.605469 151.722656 L 203.636719 151.722656 Z M 203.636719 139.753906 " clip-rule="nonzero"/></clipPath><clipPath id="eaae02f6a1"><path d="M 148.011719 83.644531 L 159.980469 83.644531 L 159.980469 95.613281 L 148.011719 95.613281 Z M 148.011719 83.644531 " clip-rule="nonzero"/></clipPath></defs><g fill="#000000" fill-opacity="1"><g transform="translate(340.010566, 157.481668)"><g><path d="M 107.578125 0 L 101.921875 -70.890625 L 101.203125 -70.890625 L 76.703125 -0.71875 L 60.453125 -0.71875 L 35.953125 -70.890625 L 35.234375 -70.890625 L 29.578125 0 L 2.3125 0 L 13.046875 -119.609375 L 42.046875 -119.609375 L 68.578125 -50.59375 L 95.109375 -119.609375 L 124.109375 -119.609375 L 134.828125 0 Z M 107.578125 0 "/></g></g></g><g fill="#000000" fill-opacity="1"><g transform="translate(469.916215, 157.481668)"><g><path d="M 35.953125 -119.609375 L 35.953125 0 L 8.703125 0 L 8.703125 -119.609375 Z M 35.953125 -119.609375 "/></g></g></g><g fill="#000000" fill-opacity="1"><g transform="translate(507.321797, 157.481668)"><g><path d="M 52.78125 -121.78125 C 59.25 -121.78125 65.578125 -120.835938 71.765625 -118.953125 C 77.953125 -117.066406 82.546875 -115.207031 85.546875 -113.375 L 89.890625 -110.484375 L 78.875 -88.734375 C 78 -89.304688 76.785156 -90.050781 75.234375 -90.96875 C 73.691406 -91.894531 70.796875 -93.128906 66.546875 -94.671875 C 62.296875 -96.222656 58.332031 -97 54.65625 -97 C 50.113281 -97 46.609375 -96.03125 44.140625 -94.09375 C 41.679688 -92.15625 40.453125 -89.546875 40.453125 -86.265625 C 40.453125 -84.617188 41.03125 -83.09375 42.1875 -81.6875 C 43.351562 -80.289062 45.335938 -78.796875 48.140625 -77.203125 C 50.941406 -75.609375 53.40625 -74.328125 55.53125 -73.359375 C 57.65625 -72.390625 60.941406 -70.941406 65.390625 -69.015625 C 73.117188 -65.722656 79.710938 -61.25 85.171875 -55.59375 C 90.640625 -49.945312 93.375 -43.546875 93.375 -36.390625 C 93.375 -29.523438 92.140625 -23.53125 89.671875 -18.40625 C 87.203125 -13.289062 83.816406 -9.28125 79.515625 -6.375 C 75.222656 -3.476562 70.460938 -1.332031 65.234375 0.0625 C 60.015625 1.46875 54.363281 2.171875 48.28125 2.171875 C 43.0625 2.171875 37.9375 1.640625 32.90625 0.578125 C 27.882812 -0.484375 23.679688 -1.8125 20.296875 -3.40625 C 16.910156 -5 13.863281 -6.566406 11.15625 -8.109375 C 8.457031 -9.660156 6.476562 -10.96875 5.21875 -12.03125 L 3.328125 -13.625 L 16.96875 -36.53125 C 18.125 -35.570312 19.71875 -34.34375 21.75 -32.84375 C 23.78125 -31.34375 27.378906 -29.332031 32.546875 -26.8125 C 37.722656 -24.300781 42.289062 -23.046875 46.25 -23.046875 C 57.75 -23.046875 63.5 -26.960938 63.5 -34.796875 C 63.5 -36.441406 63.085938 -37.960938 62.265625 -39.359375 C 61.441406 -40.765625 59.988281 -42.164062 57.90625 -43.5625 C 55.832031 -44.96875 54 -46.082031 52.40625 -46.90625 C 50.8125 -47.726562 48.203125 -48.984375 44.578125 -50.671875 C 40.953125 -52.359375 38.269531 -53.640625 36.53125 -54.515625 C 29.28125 -58.085938 23.675781 -62.554688 19.71875 -67.921875 C 15.757812 -73.285156 13.78125 -79.0625 13.78125 -85.25 C 13.78125 -95.976562 17.738281 -104.75 25.65625 -111.5625 C 33.582031 -118.375 42.625 -121.78125 52.78125 -121.78125 Z M 52.78125 -121.78125 "/></g></g></g><g fill="#000000" fill-opacity="1"><g transform="translate(597.501721, 157.481668)"><g><path d="M 52.78125 -121.78125 C 59.25 -121.78125 65.578125 -120.835938 71.765625 -118.953125 C 77.953125 -117.066406 82.546875 -115.207031 85.546875 -113.375 L 89.890625 -110.484375 L 78.875 -88.734375 C 78 -89.304688 76.785156 -90.050781 75.234375 -90.96875 C 73.691406 -91.894531 70.796875 -93.128906 66.546875 -94.671875 C 62.296875 -96.222656 58.332031 -97 54.65625 -97 C 50.113281 -97 46.609375 -96.03125 44.140625 -94.09375 C 41.679688 -92.15625 40.453125 -89.546875 40.453125 -86.265625 C 40.453125 -84.617188 41.03125 -83.09375 42.1875 -81.6875 C 43.351562 -80.289062 45.335938 -78.796875 48.140625 -77.203125 C 50.941406 -75.609375 53.40625 -74.328125 55.53125 -73.359375 C 57.65625 -72.390625 60.941406 -70.941406 65.390625 -69.015625 C 73.117188 -65.722656 79.710938 -61.25 85.171875 -55.59375 C 90.640625 -49.945312 93.375 -43.546875 93.375 -36.390625 C 93.375 -29.523438 92.140625 -23.53125 89.671875 -18.40625 C 87.203125 -13.289062 83.816406 -9.28125 79.515625 -6.375 C 75.222656 -3.476562 70.460938 -1.332031 65.234375 0.0625 C 60.015625 1.46875 54.363281 2.171875 48.28125 2.171875 C 43.0625 2.171875 37.9375 1.640625 32.90625 0.578125 C 27.882812 -0.484375 23.679688 -1.8125 20.296875 -3.40625 C 16.910156 -5 13.863281 -6.566406 11.15625 -8.109375 C 8.457031 -9.660156 6.476562 -10.96875 5.21875 -12.03125 L 3.328125 -13.625 L 16.96875 -36.53125 C 18.125 -35.570312 19.71875 -34.34375 21.75 -32.84375 C 23.78125 -31.34375 27.378906 -29.332031 32.546875 -26.8125 C 37.722656 -24.300781 42.289062 -23.046875 46.25 -23.046875 C 57.75 -23.046875 63.5 -26.960938 63.5 -34.796875 C 63.5 -36.441406 63.085938 -37.960938 62.265625 -39.359375 C 61.441406 -40.765625 59.988281 -42.164062 57.90625 -43.5625 C 55.832031 -44.96875 54 -46.082031 52.40625 -46.90625 C 50.8125 -47.726562 48.203125 -48.984375 44.578125 -50.671875 C 40.953125 -52.359375 38.269531 -53.640625 36.53125 -54.515625 C 29.28125 -58.085938 23.675781 -62.554688 19.71875 -67.921875 C 15.757812 -73.285156 13.78125 -79.0625 13.78125 -85.25 C 13.78125 -95.976562 17.738281 -104.75 25.65625 -111.5625 C 33.582031 -118.375 42.625 -121.78125 52.78125 -121.78125 Z M 52.78125 -121.78125 "/></g></g></g><g fill="#000000" fill-opacity="1"><g transform="translate(687.681645, 157.481668)"><g><path d="M 35.953125 -119.609375 L 35.953125 0 L 8.703125 0 L 8.703125 -119.609375 Z M 35.953125 -119.609375 "/></g></g></g><g fill="#000000" fill-opacity="1"><g transform="translate(725.087228, 157.481668)"><g><path d="M 3.328125 -59.875 C 3.328125 -77.175781 9.222656 -91.816406 21.015625 -103.796875 C 32.804688 -115.785156 47.015625 -121.78125 63.640625 -121.78125 C 80.367188 -121.78125 94.578125 -115.8125 106.265625 -103.875 C 117.960938 -91.9375 123.8125 -77.269531 123.8125 -59.875 C 123.8125 -42.382812 118.0625 -27.671875 106.5625 -15.734375 C 95.0625 -3.796875 80.753906 2.171875 63.640625 2.171875 C 46.148438 2.171875 31.722656 -3.742188 20.359375 -15.578125 C 9.003906 -27.421875 3.328125 -42.1875 3.328125 -59.875 Z M 32.765625 -59.875 C 32.765625 -53.59375 33.726562 -47.863281 35.65625 -42.6875 C 37.59375 -37.519531 40.976562 -33.148438 45.8125 -29.578125 C 50.644531 -26.003906 56.585938 -24.21875 63.640625 -24.21875 C 73.796875 -24.21875 81.457031 -27.695312 86.625 -34.65625 C 91.800781 -41.613281 94.390625 -50.019531 94.390625 -59.875 C 94.390625 -69.632812 91.753906 -78.019531 86.484375 -85.03125 C 81.210938 -92.039062 73.597656 -95.546875 63.640625 -95.546875 C 53.785156 -95.546875 46.175781 -92.039062 40.8125 -85.03125 C 35.445312 -78.019531 32.765625 -69.632812 32.765625 -59.875 Z M 32.765625 -59.875 "/></g></g></g><g fill="#000000" fill-opacity="1"><g transform="translate(844.988947, 157.481668)"><g><path d="M 35.953125 -74.234375 L 35.953125 0 L 8.703125 0 L 8.703125 -119.609375 L 35.953125 -119.609375 L 83.515625 -45.375 L 83.796875 -45.375 L 83.796875 -119.609375 L 111.0625 -119.609375 L 111.0625 0 L 83.796875 0 L 36.25 -74.234375 Z M 35.953125 -74.234375 "/></g></g></g><g clip-path="url(#3755f612b0)"><path fill="#5ce1e6" d="M 224.101562 91.019531 C 224.101562 91.691406 224.066406 92.359375 224 93.027344 C 223.933594 93.691406 223.835938 94.355469 223.707031 95.011719 C 223.574219 95.667969 223.414062 96.320312 223.21875 96.960938 C 223.023438 97.601562 222.796875 98.230469 222.542969 98.851562 C 222.285156 99.46875 222 100.074219 221.683594 100.667969 C 221.367188 101.257812 221.023438 101.832031 220.652344 102.390625 C 220.277344 102.945312 219.878906 103.484375 219.453125 104.003906 C 219.027344 104.519531 218.578125 105.015625 218.105469 105.492188 C 217.632812 105.964844 217.136719 106.414062 216.617188 106.839844 C 216.097656 107.265625 215.5625 107.664062 215.003906 108.035156 C 214.445312 108.410156 213.871094 108.753906 213.28125 109.066406 C 212.691406 109.382812 212.085938 109.671875 211.464844 109.925781 C 210.847656 110.183594 210.214844 110.410156 209.574219 110.605469 C 208.933594 110.796875 208.285156 110.960938 207.628906 111.089844 C 206.96875 111.222656 206.308594 111.320312 205.640625 111.386719 C 204.972656 111.453125 204.304688 111.484375 203.632812 111.484375 C 202.964844 111.484375 202.296875 111.453125 201.628906 111.386719 C 200.960938 111.320312 200.300781 111.222656 199.640625 111.089844 C 198.984375 110.960938 198.335938 110.796875 197.695312 110.605469 C 197.050781 110.410156 196.421875 110.183594 195.804688 109.925781 C 195.183594 109.671875 194.578125 109.382812 193.988281 109.066406 C 193.394531 108.753906 192.824219 108.410156 192.265625 108.035156 C 191.707031 107.664062 191.171875 107.265625 190.652344 106.839844 C 190.132812 106.414062 189.636719 105.964844 189.164062 105.492188 C 188.691406 105.015625 188.242188 104.519531 187.816406 104.003906 C 187.390625 103.484375 186.992188 102.945312 186.617188 102.390625 C 186.246094 101.832031 185.902344 101.257812 185.585938 100.667969 C 185.269531 100.074219 184.984375 99.46875 184.726562 98.851562 C 184.472656 98.230469 184.246094 97.601562 184.050781 96.960938 C 183.855469 96.320312 183.695312 95.667969 183.5625 95.011719 C 183.433594 94.355469 183.332031 93.691406 183.269531 93.027344 C 183.203125 92.359375 183.167969 91.691406 183.167969 91.019531 C 183.167969 90.347656 183.203125 89.679688 183.269531 89.015625 C 183.332031 88.347656 183.433594 87.683594 183.5625 87.027344 C 183.695312 86.371094 183.855469 85.71875 184.050781 85.078125 C 184.246094 84.4375 184.472656 83.808594 184.726562 83.1875 C 184.984375 82.570312 185.269531 81.964844 185.585938 81.371094 C 185.902344 80.78125 186.246094 80.207031 186.617188 79.648438 C 186.992188 79.09375 187.390625 78.554688 187.816406 78.035156 C 188.242188 77.519531 188.691406 77.023438 189.164062 76.550781 C 189.636719 76.074219 190.132812 75.625 190.652344 75.199219 C 191.171875 74.773438 191.707031 74.375 192.265625 74.003906 C 192.824219 73.632812 193.394531 73.289062 193.988281 72.972656 C 194.578125 72.65625 195.183594 72.371094 195.804688 72.113281 C 196.421875 71.855469 197.050781 71.628906 197.695312 71.4375 C 198.335938 71.242188 198.984375 71.078125 199.640625 70.949219 C 200.300781 70.816406 200.960938 70.71875 201.628906 70.652344 C 202.296875 70.585938 202.964844 70.554688 203.632812 70.554688 C 204.304688 70.554688 204.972656 70.585938 205.640625 70.652344 C 206.308594 70.71875 206.96875 70.816406 207.628906 70.949219 C 208.285156 71.078125 208.933594 71.242188 209.574219 71.4375 C 210.214844 71.628906 210.847656 71.855469 211.464844 72.113281 C 212.085938 72.371094 212.691406 72.65625 213.28125 72.972656 C 213.871094 73.289062 214.445312 73.632812 215.003906 74.003906 C 215.5625 74.375 216.097656 74.773438 216.617188 75.199219 C 217.136719 75.625 217.632812 76.074219 218.105469 76.550781 C 218.578125 77.023438 219.027344 77.519531 219.453125 78.035156 C 219.878906 78.554688 220.277344 79.09375 220.652344 79.648438 C 221.023438 80.207031 221.367188 80.78125 221.683594 81.371094 C 222 81.964844 222.285156 82.570312 222.542969 83.1875 C 222.796875 83.808594 223.023438 84.4375 223.21875 85.078125 C 223.414062 85.71875 223.574219 86.371094 223.707031 87.027344 C 223.835938 87.683594 223.933594 88.347656 224 89.015625 C 224.066406 89.679688 224.101562 90.347656 224.101562 91.019531 Z M 224.101562 91.019531 " fill-opacity="1" fill-rule="nonzero"/></g><g clip-path="url(#95ea2a46eb)"><path fill="#9cabcc" d="M 188.84375 139.75 C 188.84375 140.585938 188.800781 141.421875 188.71875 142.253906 C 188.636719 143.089844 188.515625 143.917969 188.351562 144.738281 C 188.1875 145.558594 187.984375 146.371094 187.742188 147.171875 C 187.5 147.972656 187.214844 148.761719 186.894531 149.535156 C 186.574219 150.308594 186.21875 151.066406 185.824219 151.804688 C 185.429688 152.542969 185 153.261719 184.53125 153.957031 C 184.066406 154.652344 183.570312 155.324219 183.039062 155.972656 C 182.507812 156.621094 181.945312 157.238281 181.351562 157.832031 C 180.761719 158.421875 180.140625 158.984375 179.492188 159.515625 C 178.847656 160.046875 178.175781 160.546875 177.476562 161.011719 C 176.78125 161.476562 176.0625 161.90625 175.324219 162.300781 C 174.585938 162.695312 173.832031 163.054688 173.054688 163.375 C 172.28125 163.695312 171.496094 163.976562 170.695312 164.21875 C 169.890625 164.464844 169.082031 164.667969 168.257812 164.828125 C 167.4375 164.992188 166.609375 165.117188 165.777344 165.199219 C 164.945312 165.28125 164.109375 165.320312 163.269531 165.320312 C 162.433594 165.320312 161.597656 165.28125 160.765625 165.199219 C 159.929688 165.117188 159.101562 164.992188 158.28125 164.828125 C 157.460938 164.667969 156.648438 164.464844 155.847656 164.21875 C 155.046875 163.976562 154.257812 163.695312 153.484375 163.375 C 152.710938 163.054688 151.953125 162.695312 151.214844 162.300781 C 150.476562 161.90625 149.757812 161.476562 149.0625 161.011719 C 148.367188 160.546875 147.695312 160.046875 147.046875 159.515625 C 146.398438 158.984375 145.78125 158.421875 145.1875 157.832031 C 144.597656 157.238281 144.035156 156.621094 143.503906 155.972656 C 142.972656 155.324219 142.472656 154.652344 142.007812 153.957031 C 141.542969 153.261719 141.113281 152.542969 140.71875 151.804688 C 140.324219 151.066406 139.964844 150.308594 139.644531 149.535156 C 139.324219 148.761719 139.042969 147.972656 138.800781 147.171875 C 138.554688 146.371094 138.351562 145.558594 138.1875 144.738281 C 138.027344 143.917969 137.902344 143.089844 137.820312 142.253906 C 137.738281 141.421875 137.699219 140.585938 137.699219 139.75 C 137.699219 138.910156 137.738281 138.074219 137.820312 137.242188 C 137.902344 136.410156 138.027344 135.582031 138.1875 134.761719 C 138.351562 133.9375 138.554688 133.128906 138.800781 132.324219 C 139.042969 131.523438 139.324219 130.738281 139.644531 129.960938 C 139.964844 129.1875 140.324219 128.433594 140.71875 127.695312 C 141.113281 126.957031 141.542969 126.238281 142.007812 125.542969 C 142.472656 124.84375 142.972656 124.171875 143.503906 123.527344 C 144.035156 122.878906 144.597656 122.257812 145.1875 121.667969 C 145.78125 121.074219 146.398438 120.511719 147.046875 119.980469 C 147.695312 119.449219 148.367188 118.953125 149.0625 118.484375 C 149.757812 118.019531 150.476562 117.589844 151.214844 117.195312 C 151.953125 116.800781 152.710938 116.445312 153.484375 116.125 C 154.257812 115.800781 155.046875 115.519531 155.847656 115.277344 C 156.648438 115.035156 157.460938 114.832031 158.28125 114.667969 C 159.101562 114.503906 159.929688 114.382812 160.765625 114.300781 C 161.597656 114.21875 162.433594 114.175781 163.269531 114.175781 C 164.109375 114.175781 164.945312 114.21875 165.777344 114.300781 C 166.609375 114.382812 167.4375 114.503906 168.257812 114.667969 C 169.082031 114.832031 169.890625 115.035156 170.695312 115.277344 C 171.496094 115.519531 172.28125 115.800781 173.054688 116.125 C 173.832031 116.445312 174.585938 116.800781 175.324219 117.195312 C 176.0625 117.589844 176.78125 118.019531 177.476562 118.484375 C 178.175781 118.953125 178.847656 119.449219 179.492188 119.980469 C 180.140625 120.511719 180.761719 121.074219 181.351562 121.667969 C 181.945312 122.257812 182.507812 122.878906 183.039062 123.527344 C 183.570312 124.171875 184.066406 124.84375 184.53125 125.542969 C 185 126.238281 185.429688 126.957031 185.824219 127.695312 C 186.21875 128.433594 186.574219 129.1875 186.894531 129.960938 C 187.21875 130.738281 187.5 131.523438 187.742188 132.324219 C 187.984375 133.128906 188.1875 133.9375 188.351562 134.761719 C 188.515625 135.582031 188.636719 136.410156 188.71875 137.242188 C 188.800781 138.074219 188.84375 138.910156 188.84375 139.75 Z M 188.84375 139.75 " fill-opacity="1" fill-rule="nonzero"/></g><g clip-path="url(#2587a664e5)"><path fill="#b74e93" d="M 312.613281 128.433594 C 312.613281 129.660156 312.550781 130.882812 312.429688 132.101562 C 312.3125 133.320312 312.132812 134.53125 311.894531 135.734375 C 311.652344 136.933594 311.355469 138.121094 311 139.296875 C 310.644531 140.46875 310.234375 141.621094 309.765625 142.75 C 309.296875 143.882812 308.773438 144.988281 308.195312 146.070312 C 307.617188 147.152344 306.988281 148.199219 306.308594 149.21875 C 305.625 150.238281 304.898438 151.222656 304.121094 152.167969 C 303.34375 153.117188 302.519531 154.023438 301.652344 154.890625 C 300.789062 155.753906 299.878906 156.578125 298.933594 157.355469 C 297.988281 158.132812 297.003906 158.859375 295.984375 159.542969 C 294.964844 160.222656 293.917969 160.851562 292.835938 161.429688 C 291.753906 162.007812 290.648438 162.53125 289.515625 163 C 288.382812 163.46875 287.234375 163.878906 286.058594 164.234375 C 284.886719 164.589844 283.699219 164.890625 282.5 165.128906 C 281.296875 165.367188 280.085938 165.546875 278.867188 165.667969 C 277.648438 165.785156 276.425781 165.847656 275.199219 165.847656 C 273.972656 165.847656 272.753906 165.785156 271.53125 165.667969 C 270.3125 165.546875 269.101562 165.367188 267.902344 165.128906 C 266.699219 164.890625 265.511719 164.589844 264.339844 164.234375 C 263.167969 163.878906 262.015625 163.46875 260.882812 163 C 259.75 162.53125 258.644531 162.007812 257.5625 161.429688 C 256.484375 160.851562 255.433594 160.222656 254.414062 159.542969 C 253.394531 158.859375 252.414062 158.132812 251.464844 157.355469 C 250.519531 156.578125 249.613281 155.753906 248.746094 154.890625 C 247.878906 154.023438 247.058594 153.117188 246.28125 152.167969 C 245.503906 151.222656 244.773438 150.238281 244.09375 149.21875 C 243.414062 148.199219 242.78125 147.152344 242.207031 146.070312 C 241.628906 144.988281 241.105469 143.882812 240.636719 142.75 C 240.167969 141.621094 239.753906 140.46875 239.398438 139.296875 C 239.042969 138.121094 238.746094 136.933594 238.507812 135.734375 C 238.269531 134.53125 238.089844 133.320312 237.96875 132.101562 C 237.847656 130.882812 237.789062 129.660156 237.789062 128.433594 C 237.789062 127.210938 237.847656 125.988281 237.96875 124.769531 C 238.089844 123.546875 238.269531 122.339844 238.507812 121.136719 C 238.746094 119.933594 239.042969 118.746094 239.398438 117.574219 C 239.753906 116.402344 240.167969 115.25 240.636719 114.117188 C 241.105469 112.984375 241.628906 111.878906 242.207031 110.800781 C 242.78125 109.71875 243.414062 108.667969 244.09375 107.648438 C 244.773438 106.632812 245.503906 105.648438 246.28125 104.699219 C 247.058594 103.753906 247.878906 102.847656 248.746094 101.980469 C 249.613281 101.113281 250.519531 100.292969 251.464844 99.515625 C 252.414062 98.738281 253.394531 98.007812 254.414062 97.328125 C 255.433594 96.648438 256.484375 96.019531 257.5625 95.441406 C 258.644531 94.863281 259.75 94.339844 260.882812 93.871094 C 262.015625 93.402344 263.167969 92.988281 264.339844 92.632812 C 265.511719 92.277344 266.699219 91.980469 267.902344 91.742188 C 269.101562 91.503906 270.3125 91.324219 271.53125 91.203125 C 272.753906 91.082031 273.972656 91.023438 275.199219 91.023438 C 276.425781 91.023438 277.648438 91.082031 278.867188 91.203125 C 280.085938 91.324219 281.296875 91.503906 282.5 91.742188 C 283.699219 91.980469 284.886719 92.277344 286.058594 92.632812 C 287.234375 92.988281 288.382812 93.402344 289.515625 93.871094 C 290.648438 94.339844 291.753906 94.863281 292.835938 95.441406 C 293.917969 96.019531 294.964844 96.648438 295.984375 97.328125 C 297.003906 98.007812 297.988281 98.738281 298.933594 99.515625 C 299.878906 100.292969 300.789062 101.113281 301.652344 101.980469 C 302.519531 102.847656 303.34375 103.753906 304.121094 104.699219 C 304.898438 105.648438 305.625 106.632812 306.308594 107.648438 C 306.988281 108.667969 307.617188 109.71875 308.195312 110.800781 C 308.773438 111.878906 309.296875 112.984375 309.765625 114.117188 C 310.234375 115.25 310.644531 116.402344 311 117.574219 C 311.355469 118.746094 311.652344 119.933594 311.894531 121.136719 C 312.132812 122.339844 312.3125 123.546875 312.429688 124.769531 C 312.550781 125.988281 312.613281 127.210938 312.613281 128.433594 Z M 312.613281 128.433594 " fill-opacity="1" fill-rule="nonzero"/></g><g clip-path="url(#a7bab847c0)"><path fill="#ff66c4" d="M 239.695312 46.632812 C 239.695312 47.421875 239.617188 48.207031 239.460938 48.980469 C 239.308594 49.757812 239.078125 50.511719 238.777344 51.242188 C 238.476562 51.972656 238.105469 52.667969 237.664062 53.324219 C 237.226562 53.980469 236.726562 54.589844 236.167969 55.148438 C 235.605469 55.707031 235 56.207031 234.339844 56.648438 C 233.683594 57.085938 232.988281 57.457031 232.257812 57.757812 C 231.527344 58.0625 230.773438 58.289062 230 58.445312 C 229.222656 58.597656 228.441406 58.675781 227.648438 58.675781 C 226.859375 58.675781 226.074219 58.597656 225.300781 58.445312 C 224.523438 58.289062 223.773438 58.0625 223.039062 57.757812 C 222.308594 57.457031 221.617188 57.085938 220.957031 56.648438 C 220.300781 56.207031 219.691406 55.707031 219.132812 55.148438 C 218.574219 54.589844 218.074219 53.980469 217.636719 53.324219 C 217.195312 52.667969 216.824219 51.972656 216.523438 51.242188 C 216.21875 50.511719 215.992188 49.757812 215.835938 48.980469 C 215.683594 48.207031 215.605469 47.421875 215.605469 46.632812 C 215.605469 45.839844 215.683594 45.058594 215.835938 44.28125 C 215.992188 43.507812 216.21875 42.753906 216.523438 42.023438 C 216.824219 41.292969 217.195312 40.597656 217.636719 39.941406 C 218.074219 39.285156 218.574219 38.675781 219.132812 38.117188 C 219.691406 37.558594 220.300781 37.058594 220.957031 36.617188 C 221.617188 36.179688 222.308594 35.808594 223.039062 35.503906 C 223.773438 35.203125 224.523438 34.972656 225.300781 34.820312 C 226.074219 34.664062 226.859375 34.589844 227.648438 34.589844 C 228.441406 34.589844 229.222656 34.664062 230 34.820312 C 230.773438 34.972656 231.527344 35.203125 232.257812 35.503906 C 232.988281 35.808594 233.683594 36.179688 234.339844 36.617188 C 235 37.058594 235.605469 37.558594 236.167969 38.117188 C 236.726562 38.675781 237.226562 39.285156 237.664062 39.941406 C 238.105469 40.597656 238.476562 41.292969 238.777344 42.023438 C 239.078125 42.753906 239.308594 43.507812 239.460938 44.28125 C 239.617188 45.058594 239.695312 45.839844 239.695312 46.632812 Z M 239.695312 46.632812 " fill-opacity="1" fill-rule="nonzero"/></g><g clip-path="url(#42ba48befd)"><path fill="#4464ab" d="M 272.789062 71.5625 C 272.789062 72.410156 272.707031 73.246094 272.542969 74.078125 C 272.375 74.90625 272.132812 75.714844 271.808594 76.496094 C 271.484375 77.277344 271.085938 78.019531 270.617188 78.722656 C 270.148438 79.425781 269.613281 80.078125 269.015625 80.675781 C 268.417969 81.273438 267.765625 81.808594 267.0625 82.277344 C 266.359375 82.746094 265.617188 83.144531 264.835938 83.46875 C 264.054688 83.792969 263.246094 84.035156 262.417969 84.203125 C 261.585938 84.367188 260.75 84.449219 259.902344 84.449219 C 259.058594 84.449219 258.21875 84.367188 257.390625 84.203125 C 256.558594 84.035156 255.753906 83.792969 254.972656 83.46875 C 254.191406 83.144531 253.449219 82.746094 252.746094 82.277344 C 252.042969 81.808594 251.390625 81.273438 250.792969 80.675781 C 250.195312 80.078125 249.660156 79.425781 249.1875 78.722656 C 248.71875 78.019531 248.324219 77.277344 248 76.496094 C 247.675781 75.714844 247.429688 74.90625 247.265625 74.078125 C 247.101562 73.246094 247.019531 72.410156 247.019531 71.5625 C 247.019531 70.71875 247.101562 69.878906 247.265625 69.050781 C 247.429688 68.21875 247.675781 67.414062 248 66.632812 C 248.324219 65.851562 248.71875 65.109375 249.1875 64.40625 C 249.660156 63.703125 250.195312 63.050781 250.792969 62.453125 C 251.390625 61.855469 252.042969 61.320312 252.746094 60.851562 C 253.449219 60.378906 254.191406 59.984375 254.972656 59.660156 C 255.753906 59.335938 256.558594 59.089844 257.390625 58.925781 C 258.21875 58.761719 259.058594 58.679688 259.902344 58.679688 C 260.75 58.679688 261.585938 58.761719 262.417969 58.925781 C 263.246094 59.089844 264.054688 59.335938 264.835938 59.660156 C 265.617188 59.984375 266.359375 60.378906 267.0625 60.851562 C 267.765625 61.320312 268.417969 61.855469 269.015625 62.453125 C 269.613281 63.050781 270.148438 63.703125 270.617188 64.40625 C 271.085938 65.109375 271.484375 65.851562 271.808594 66.632812 C 272.132812 67.414062 272.375 68.21875 272.542969 69.050781 C 272.707031 69.878906 272.789062 70.71875 272.789062 71.5625 Z M 272.789062 71.5625 " fill-opacity="1" fill-rule="nonzero"/></g><g clip-path="url(#8a6caf8bc6)"><path fill="#ff5a87" d="M 316.363281 46.628906 C 316.363281 47.222656 316.335938 47.8125 316.277344 48.40625 C 316.21875 48.996094 316.128906 49.582031 316.015625 50.164062 C 315.898438 50.746094 315.753906 51.320312 315.582031 51.890625 C 315.410156 52.457031 315.210938 53.015625 314.984375 53.5625 C 314.757812 54.113281 314.503906 54.648438 314.222656 55.171875 C 313.945312 55.695312 313.640625 56.203125 313.308594 56.695312 C 312.980469 57.191406 312.625 57.664062 312.25 58.125 C 311.875 58.582031 311.476562 59.023438 311.054688 59.441406 C 310.636719 59.863281 310.195312 60.261719 309.738281 60.636719 C 309.277344 61.011719 308.804688 61.367188 308.308594 61.695312 C 307.816406 62.027344 307.308594 62.332031 306.785156 62.609375 C 306.261719 62.890625 305.726562 63.144531 305.175781 63.371094 C 304.628906 63.597656 304.070312 63.796875 303.503906 63.96875 C 302.933594 64.140625 302.359375 64.285156 301.777344 64.402344 C 301.195312 64.519531 300.609375 64.605469 300.019531 64.664062 C 299.425781 64.722656 298.835938 64.75 298.242188 64.75 C 297.648438 64.75 297.054688 64.722656 296.464844 64.664062 C 295.875 64.605469 295.289062 64.519531 294.707031 64.402344 C 294.125 64.285156 293.550781 64.140625 292.980469 63.96875 C 292.414062 63.796875 291.855469 63.597656 291.308594 63.371094 C 290.757812 63.144531 290.222656 62.890625 289.699219 62.609375 C 289.175781 62.332031 288.667969 62.027344 288.171875 61.695312 C 287.679688 61.367188 287.203125 61.011719 286.746094 60.636719 C 286.285156 60.261719 285.847656 59.863281 285.425781 59.441406 C 285.007812 59.023438 284.609375 58.582031 284.234375 58.125 C 283.855469 57.664062 283.503906 57.191406 283.175781 56.695312 C 282.84375 56.203125 282.539062 55.695312 282.261719 55.171875 C 281.980469 54.648438 281.726562 54.113281 281.5 53.5625 C 281.273438 53.015625 281.074219 52.457031 280.898438 51.890625 C 280.726562 51.320312 280.585938 50.746094 280.46875 50.164062 C 280.351562 49.582031 280.265625 48.996094 280.207031 48.40625 C 280.148438 47.8125 280.121094 47.222656 280.121094 46.628906 C 280.121094 46.035156 280.148438 45.441406 280.207031 44.851562 C 280.265625 44.261719 280.351562 43.675781 280.46875 43.09375 C 280.585938 42.511719 280.726562 41.9375 280.898438 41.367188 C 281.074219 40.800781 281.273438 40.242188 281.5 39.695312 C 281.726562 39.144531 281.980469 38.609375 282.261719 38.085938 C 282.539062 37.5625 282.84375 37.054688 283.175781 36.5625 C 283.503906 36.066406 283.855469 35.589844 284.234375 35.132812 C 284.609375 34.671875 285.007812 34.234375 285.425781 33.816406 C 285.847656 33.394531 286.285156 32.996094 286.746094 32.621094 C 287.203125 32.242188 287.679688 31.890625 288.171875 31.5625 C 288.667969 31.230469 289.175781 30.925781 289.699219 30.648438 C 290.222656 30.367188 290.757812 30.113281 291.308594 29.886719 C 291.855469 29.660156 292.414062 29.460938 292.980469 29.289062 C 293.550781 29.113281 294.125 28.972656 294.707031 28.855469 C 295.289062 28.738281 295.875 28.652344 296.464844 28.59375 C 297.054688 28.535156 297.648438 28.507812 298.242188 28.507812 C 298.835938 28.507812 299.425781 28.535156 300.019531 28.59375 C 300.609375 28.652344 301.195312 28.738281 301.777344 28.855469 C 302.359375 28.972656 302.933594 29.113281 303.503906 29.289062 C 304.070312 29.460938 304.628906 29.660156 305.175781 29.886719 C 305.726562 30.113281 306.261719 30.367188 306.785156 30.648438 C 307.308594 30.925781 307.816406 31.230469 308.308594 31.5625 C 308.804688 31.890625 309.277344 32.242188 309.738281 32.621094 C 310.195312 32.996094 310.636719 33.394531 311.054688 33.816406 C 311.476562 34.234375 311.875 34.671875 312.25 35.132812 C 312.625 35.589844 312.980469 36.066406 313.308594 36.5625 C 313.640625 37.054688 313.945312 37.5625 314.222656 38.085938 C 314.503906 38.609375 314.757812 39.144531 314.984375 39.695312 C 315.210938 40.242188 315.410156 40.800781 315.582031 41.367188 C 315.753906 41.9375 315.898438 42.511719 316.015625 43.09375 C 316.128906 43.675781 316.21875 44.261719 316.277344 44.851562 C 316.335938 45.441406 316.363281 46.035156 316.363281 46.628906 Z M 316.363281 46.628906 " fill-opacity="1" fill-rule="nonzero"/></g><g clip-path="url(#8eac213982)"><path fill="#ff5a87" d="M 122.730469 147.703125 C 122.730469 148.679688 122.632812 149.640625 122.445312 150.597656 C 122.253906 151.550781 121.972656 152.476562 121.601562 153.375 C 121.226562 154.273438 120.773438 155.128906 120.230469 155.9375 C 119.691406 156.746094 119.078125 157.496094 118.386719 158.183594 C 117.699219 158.871094 116.953125 159.488281 116.140625 160.027344 C 115.332031 160.566406 114.480469 161.023438 113.582031 161.398438 C 112.679688 161.769531 111.753906 162.050781 110.800781 162.238281 C 109.847656 162.429688 108.882812 162.523438 107.910156 162.523438 C 106.9375 162.523438 105.972656 162.429688 105.019531 162.238281 C 104.0625 162.050781 103.136719 161.769531 102.238281 161.398438 C 101.339844 161.023438 100.484375 160.566406 99.675781 160.027344 C 98.867188 159.488281 98.117188 158.871094 97.429688 158.183594 C 96.742188 157.496094 96.128906 156.746094 95.585938 155.9375 C 95.046875 155.128906 94.589844 154.273438 94.21875 153.375 C 93.84375 152.476562 93.5625 151.550781 93.375 150.597656 C 93.183594 149.640625 93.089844 148.679688 93.089844 147.703125 C 93.089844 146.730469 93.183594 145.769531 93.375 144.8125 C 93.5625 143.859375 93.84375 142.933594 94.21875 142.035156 C 94.589844 141.132812 95.046875 140.28125 95.585938 139.472656 C 96.128906 138.664062 96.742188 137.914062 97.429688 137.226562 C 98.117188 136.539062 98.867188 135.921875 99.675781 135.382812 C 100.484375 134.84375 101.339844 134.386719 102.238281 134.011719 C 103.136719 133.640625 104.0625 133.359375 105.019531 133.167969 C 105.972656 132.980469 106.9375 132.886719 107.910156 132.886719 C 108.882812 132.886719 109.847656 132.980469 110.800781 133.167969 C 111.753906 133.359375 112.679688 133.640625 113.582031 134.011719 C 114.480469 134.386719 115.332031 134.84375 116.140625 135.382812 C 116.953125 135.921875 117.699219 136.539062 118.386719 137.226562 C 119.078125 137.914062 119.691406 138.664062 120.230469 139.472656 C 120.773438 140.28125 121.226562 141.132812 121.601562 142.035156 C 121.972656 142.933594 122.253906 143.859375 122.445312 144.8125 C 122.632812 145.769531 122.730469 146.730469 122.730469 147.703125 Z M 122.730469 147.703125 " fill-opacity="1" fill-rule="nonzero"/></g><g clip-path="url(#1b9d16c96d)"><path fill="#4464ab" d="M 173.679688 63.878906 C 173.679688 64.222656 173.644531 64.558594 173.578125 64.894531 C 173.511719 65.230469 173.414062 65.554688 173.28125 65.871094 C 173.152344 66.183594 172.992188 66.484375 172.800781 66.769531 C 172.613281 67.054688 172.394531 67.316406 172.15625 67.558594 C 171.914062 67.796875 171.652344 68.015625 171.367188 68.203125 C 171.082031 68.394531 170.78125 68.554688 170.46875 68.683594 C 170.152344 68.816406 169.828125 68.914062 169.492188 68.980469 C 169.15625 69.046875 168.820312 69.082031 168.476562 69.082031 C 168.136719 69.082031 167.796875 69.046875 167.460938 68.980469 C 167.128906 68.914062 166.800781 68.816406 166.488281 68.683594 C 166.171875 68.554688 165.871094 68.394531 165.585938 68.203125 C 165.304688 68.015625 165.039062 67.796875 164.800781 67.558594 C 164.558594 67.316406 164.34375 67.054688 164.152344 66.769531 C 163.960938 66.484375 163.800781 66.183594 163.671875 65.871094 C 163.542969 65.554688 163.441406 65.230469 163.375 64.894531 C 163.308594 64.558594 163.277344 64.222656 163.277344 63.878906 C 163.277344 63.539062 163.308594 63.199219 163.375 62.863281 C 163.441406 62.53125 163.542969 62.203125 163.671875 61.890625 C 163.800781 61.574219 163.960938 61.273438 164.152344 60.988281 C 164.34375 60.707031 164.558594 60.441406 164.800781 60.203125 C 165.039062 59.960938 165.304688 59.746094 165.585938 59.554688 C 165.871094 59.363281 166.171875 59.203125 166.488281 59.074219 C 166.800781 58.945312 167.128906 58.84375 167.460938 58.777344 C 167.796875 58.710938 168.136719 58.679688 168.476562 58.679688 C 168.820312 58.679688 169.15625 58.710938 169.492188 58.777344 C 169.828125 58.84375 170.152344 58.945312 170.46875 59.074219 C 170.78125 59.203125 171.082031 59.363281 171.367188 59.554688 C 171.652344 59.746094 171.914062 59.960938 172.15625 60.203125 C 172.394531 60.441406 172.613281 60.707031 172.800781 60.988281 C 172.992188 61.273438 173.152344 61.574219 173.28125 61.890625 C 173.414062 62.203125 173.511719 62.53125 173.578125 62.863281 C 173.644531 63.199219 173.679688 63.539062 173.679688 63.878906 Z M 173.679688 63.878906 " fill-opacity="1" fill-rule="nonzero"/></g><g clip-path="url(#a0f1ba8a8c)"><path fill="#ff66c4" d="M 215.605469 145.738281 C 215.605469 146.132812 215.566406 146.519531 215.492188 146.90625 C 215.414062 147.292969 215.300781 147.664062 215.152344 148.027344 C 215 148.390625 214.816406 148.738281 214.597656 149.0625 C 214.378906 149.390625 214.132812 149.691406 213.851562 149.96875 C 213.574219 150.246094 213.273438 150.496094 212.945312 150.714844 C 212.621094 150.933594 212.273438 151.117188 211.910156 151.265625 C 211.550781 151.417969 211.175781 151.53125 210.789062 151.609375 C 210.402344 151.683594 210.015625 151.722656 209.621094 151.722656 C 209.230469 151.722656 208.839844 151.683594 208.453125 151.609375 C 208.070312 151.53125 207.695312 151.417969 207.332031 151.265625 C 206.96875 151.117188 206.625 150.933594 206.296875 150.714844 C 205.96875 150.496094 205.667969 150.246094 205.390625 149.96875 C 205.113281 149.691406 204.863281 149.390625 204.644531 149.0625 C 204.429688 148.738281 204.242188 148.390625 204.09375 148.027344 C 203.941406 147.664062 203.828125 147.292969 203.753906 146.90625 C 203.675781 146.519531 203.636719 146.132812 203.636719 145.738281 C 203.636719 145.34375 203.675781 144.957031 203.753906 144.570312 C 203.828125 144.1875 203.941406 143.8125 204.09375 143.449219 C 204.242188 143.085938 204.429688 142.742188 204.644531 142.414062 C 204.863281 142.085938 205.113281 141.785156 205.390625 141.507812 C 205.667969 141.230469 205.96875 140.980469 206.296875 140.761719 C 206.625 140.542969 206.96875 140.359375 207.332031 140.210938 C 207.695312 140.058594 208.070312 139.945312 208.453125 139.871094 C 208.839844 139.792969 209.230469 139.753906 209.621094 139.753906 C 210.015625 139.753906 210.402344 139.792969 210.789062 139.871094 C 211.175781 139.945312 211.550781 140.058594 211.910156 140.210938 C 212.273438 140.359375 212.621094 140.542969 212.945312 140.761719 C 213.273438 140.980469 213.574219 141.230469 213.851562 141.507812 C 214.132812 141.785156 214.378906 142.085938 214.597656 142.414062 C 214.816406 142.742188 215 143.085938 215.152344 143.449219 C 215.300781 143.8125 215.414062 144.1875 215.492188 144.570312 C 215.566406 144.957031 215.605469 145.34375 215.605469 145.738281 Z M 215.605469 145.738281 " fill-opacity="1" fill-rule="nonzero"/></g><g clip-path="url(#eaae02f6a1)"><path fill="#5ce1e6" d="M 159.980469 89.628906 C 159.980469 90.019531 159.941406 90.410156 159.867188 90.796875 C 159.789062 91.179688 159.675781 91.554688 159.527344 91.917969 C 159.375 92.28125 159.191406 92.625 158.972656 92.953125 C 158.753906 93.28125 158.507812 93.582031 158.230469 93.859375 C 157.949219 94.136719 157.648438 94.386719 157.320312 94.605469 C 156.996094 94.820312 156.652344 95.007812 156.289062 95.15625 C 155.925781 95.308594 155.550781 95.421875 155.164062 95.496094 C 154.78125 95.574219 154.390625 95.613281 153.996094 95.613281 C 153.605469 95.613281 153.214844 95.574219 152.832031 95.496094 C 152.445312 95.421875 152.070312 95.308594 151.707031 95.15625 C 151.34375 95.007812 151 94.820312 150.671875 94.605469 C 150.347656 94.386719 150.042969 94.136719 149.765625 93.859375 C 149.488281 93.582031 149.242188 93.28125 149.023438 92.953125 C 148.804688 92.625 148.621094 92.28125 148.46875 91.917969 C 148.320312 91.554688 148.207031 91.179688 148.128906 90.796875 C 148.050781 90.410156 148.011719 90.019531 148.011719 89.628906 C 148.011719 89.234375 148.050781 88.847656 148.128906 88.460938 C 148.207031 88.074219 148.320312 87.699219 148.46875 87.339844 C 148.621094 86.976562 148.804688 86.628906 149.023438 86.304688 C 149.242188 85.976562 149.488281 85.675781 149.765625 85.398438 C 150.042969 85.117188 150.347656 84.871094 150.671875 84.652344 C 151 84.433594 151.34375 84.25 151.707031 84.097656 C 152.070312 83.949219 152.445312 83.835938 152.832031 83.757812 C 153.214844 83.683594 153.605469 83.644531 153.996094 83.644531 C 154.390625 83.644531 154.78125 83.683594 155.164062 83.757812 C 155.550781 83.835938 155.925781 83.949219 156.289062 84.097656 C 156.652344 84.25 156.996094 84.433594 157.320312 84.652344 C 157.648438 84.871094 157.949219 85.117188 158.230469 85.398438 C 158.507812 85.675781 158.753906 85.976562 158.972656 86.304688 C 159.191406 86.628906 159.375 86.976562 159.527344 87.339844 C 159.675781 87.699219 159.789062 88.074219 159.867188 88.460938 C 159.941406 88.847656 159.980469 89.234375 159.980469 89.628906 Z M 159.980469 89.628906 " fill-opacity="1" fill-rule="nonzero"/></g></svg>