<svg xmlns="http://www.w3.org/2000/svg" xmlns:xlink="http://www.w3.org/1999/xlink" width="1300" zoomAndPan="magnify" viewBox="0 0 974.88 187.499995" height="250" preserveAspectRatio="xMidYMid meet" version="1.0"><defs><g/><clipPath id="f63ae3190f"><path d="M 30.183594 72.882812 L 122.9375 72.882812 L 122.9375 165.636719 L 30.183594 165.636719 Z M 30.183594 72.882812 " clip-rule="nonzero"/></clipPath><clipPath id="452b077a94"><path d="M 133.621094 72.882812 L 226.375 72.882812 L 226.375 165.636719 L 133.621094 165.636719 Z M 133.621094 72.882812 " clip-rule="nonzero"/></clipPath><clipPath id="15242e2cd7"><path d="M 236.816406 72.882812 L 329.570312 72.882812 L 329.570312 165.636719 L 236.816406 165.636719 Z M 236.816406 72.882812 " clip-rule="nonzero"/></clipPath></defs><g fill="#000000" fill-opacity="1"><g transform="translate(340.010566, 165.509128)"><g><path d="M 130.515625 0 L 123.65625 -86.015625 L 122.78125 -86.015625 L 93.046875 -0.875 L 73.359375 -0.875 L 43.625 -86.015625 L 42.75 -86.015625 L 35.890625 0 L 2.8125 0 L 15.828125 -145.125 L 51.015625 -145.125 L 83.203125 -61.390625 L 115.390625 -145.125 L 150.578125 -145.125 L 163.59375 0 Z M 130.515625 0 "/></g></g></g><g fill="#000000" fill-opacity="1"><g transform="translate(497.614155, 165.509128)"><g><path d="M 13.546875 -140.546875 C 17.179688 -144.179688 21.519531 -146 26.5625 -146 C 31.601562 -146 35.941406 -144.179688 39.578125 -140.546875 C 43.210938 -136.910156 45.03125 -132.570312 45.03125 -127.53125 C 45.03125 -122.488281 43.210938 -118.148438 39.578125 -114.515625 C 35.941406 -110.878906 31.601562 -109.0625 26.5625 -109.0625 C 21.519531 -109.0625 17.179688 -110.878906 13.546875 -114.515625 C 9.910156 -118.148438 8.09375 -122.488281 8.09375 -127.53125 C 8.09375 -132.570312 9.910156 -136.910156 13.546875 -140.546875 Z M 10.546875 -90.234375 L 10.546875 0 L 41.6875 0 L 41.6875 -90.234375 Z M 10.546875 -90.234375 "/></g></g></g><g fill="#000000" fill-opacity="1"><g transform="translate(541.939931, 165.509128)"><g><path d="M 49.78125 -92.875 C 54.9375 -92.875 60.035156 -92.285156 65.078125 -91.109375 C 70.128906 -89.941406 73.882812 -88.769531 76.34375 -87.59375 L 80.03125 -85.84375 L 69.828125 -65.4375 C 62.796875 -69.1875 56.113281 -71.0625 49.78125 -71.0625 C 46.257812 -71.0625 43.765625 -70.679688 42.296875 -69.921875 C 40.835938 -69.160156 40.109375 -67.722656 40.109375 -65.609375 C 40.109375 -65.140625 40.164062 -64.671875 40.28125 -64.203125 C 40.394531 -63.734375 40.628906 -63.289062 40.984375 -62.875 C 41.335938 -62.46875 41.660156 -62.117188 41.953125 -61.828125 C 42.242188 -61.535156 42.738281 -61.210938 43.4375 -60.859375 C 44.144531 -60.503906 44.703125 -60.238281 45.109375 -60.0625 C 45.523438 -59.894531 46.203125 -59.632812 47.140625 -59.28125 C 48.078125 -58.925781 48.78125 -58.660156 49.25 -58.484375 C 49.71875 -58.304688 50.507812 -58.039062 51.625 -57.6875 C 52.738281 -57.34375 53.585938 -57.113281 54.171875 -57 C 57.804688 -55.9375 60.972656 -54.757812 63.671875 -53.46875 C 66.367188 -52.1875 69.210938 -50.429688 72.203125 -48.203125 C 75.191406 -45.972656 77.507812 -43.15625 79.15625 -39.75 C 80.800781 -36.351562 81.625 -32.484375 81.625 -28.140625 C 81.625 -7.617188 67.375 2.640625 38.875 2.640625 C 32.425781 2.640625 26.296875 1.644531 20.484375 -0.34375 C 14.679688 -2.34375 10.492188 -4.335938 7.921875 -6.328125 L 4.046875 -9.5 L 16.71875 -30.78125 C 17.65625 -29.957031 18.882812 -28.988281 20.40625 -27.875 C 21.925781 -26.757812 24.679688 -25.234375 28.671875 -23.296875 C 32.660156 -21.367188 36.117188 -20.40625 39.046875 -20.40625 C 45.492188 -20.40625 48.71875 -22.570312 48.71875 -26.90625 C 48.71875 -28.90625 47.894531 -30.460938 46.25 -31.578125 C 44.613281 -32.691406 41.832031 -33.953125 37.90625 -35.359375 C 33.976562 -36.765625 30.898438 -38.054688 28.671875 -39.234375 C 23.046875 -42.160156 18.585938 -45.46875 15.296875 -49.15625 C 12.015625 -52.851562 10.375 -57.753906 10.375 -63.859375 C 10.375 -73.003906 13.921875 -80.125 21.015625 -85.21875 C 28.109375 -90.320312 37.695312 -92.875 49.78125 -92.875 Z M 49.78125 -92.875 "/></g></g></g><g fill="#000000" fill-opacity="1"><g transform="translate(619.686202, 165.509128)"><g><path d="M 49.78125 -92.875 C 54.9375 -92.875 60.035156 -92.285156 65.078125 -91.109375 C 70.128906 -89.941406 73.882812 -88.769531 76.34375 -87.59375 L 80.03125 -85.84375 L 69.828125 -65.4375 C 62.796875 -69.1875 56.113281 -71.0625 49.78125 -71.0625 C 46.257812 -71.0625 43.765625 -70.679688 42.296875 -69.921875 C 40.835938 -69.160156 40.109375 -67.722656 40.109375 -65.609375 C 40.109375 -65.140625 40.164062 -64.671875 40.28125 -64.203125 C 40.394531 -63.734375 40.628906 -63.289062 40.984375 -62.875 C 41.335938 -62.46875 41.660156 -62.117188 41.953125 -61.828125 C 42.242188 -61.535156 42.738281 -61.210938 43.4375 -60.859375 C 44.144531 -60.503906 44.703125 -60.238281 45.109375 -60.0625 C 45.523438 -59.894531 46.203125 -59.632812 47.140625 -59.28125 C 48.078125 -58.925781 48.78125 -58.660156 49.25 -58.484375 C 49.71875 -58.304688 50.507812 -58.039062 51.625 -57.6875 C 52.738281 -57.34375 53.585938 -57.113281 54.171875 -57 C 57.804688 -55.9375 60.972656 -54.757812 63.671875 -53.46875 C 66.367188 -52.1875 69.210938 -50.429688 72.203125 -48.203125 C 75.191406 -45.972656 77.507812 -43.15625 79.15625 -39.75 C 80.800781 -36.351562 81.625 -32.484375 81.625 -28.140625 C 81.625 -7.617188 67.375 2.640625 38.875 2.640625 C 32.425781 2.640625 26.296875 1.644531 20.484375 -0.34375 C 14.679688 -2.34375 10.492188 -4.335938 7.921875 -6.328125 L 4.046875 -9.5 L 16.71875 -30.78125 C 17.65625 -29.957031 18.882812 -28.988281 20.40625 -27.875 C 21.925781 -26.757812 24.679688 -25.234375 28.671875 -23.296875 C 32.660156 -21.367188 36.117188 -20.40625 39.046875 -20.40625 C 45.492188 -20.40625 48.71875 -22.570312 48.71875 -26.90625 C 48.71875 -28.90625 47.894531 -30.460938 46.25 -31.578125 C 44.613281 -32.691406 41.832031 -33.953125 37.90625 -35.359375 C 33.976562 -36.765625 30.898438 -38.054688 28.671875 -39.234375 C 23.046875 -42.160156 18.585938 -45.46875 15.296875 -49.15625 C 12.015625 -52.851562 10.375 -57.753906 10.375 -63.859375 C 10.375 -73.003906 13.921875 -80.125 21.015625 -85.21875 C 28.109375 -90.320312 37.695312 -92.875 49.78125 -92.875 Z M 49.78125 -92.875 "/></g></g></g><g fill="#000000" fill-opacity="1"><g transform="translate(697.432456, 165.509128)"><g><path d="M 13.546875 -140.546875 C 17.179688 -144.179688 21.519531 -146 26.5625 -146 C 31.601562 -146 35.941406 -144.179688 39.578125 -140.546875 C 43.210938 -136.910156 45.03125 -132.570312 45.03125 -127.53125 C 45.03125 -122.488281 43.210938 -118.148438 39.578125 -114.515625 C 35.941406 -110.878906 31.601562 -109.0625 26.5625 -109.0625 C 21.519531 -109.0625 17.179688 -110.878906 13.546875 -114.515625 C 9.910156 -118.148438 8.09375 -122.488281 8.09375 -127.53125 C 8.09375 -132.570312 9.910156 -136.910156 13.546875 -140.546875 Z M 10.546875 -90.234375 L 10.546875 0 L 41.6875 0 L 41.6875 -90.234375 Z M 10.546875 -90.234375 "/></g></g></g><g fill="#000000" fill-opacity="1"><g transform="translate(741.758232, 165.509128)"><g><path d="M 19.078125 -10.71875 C 9.054688 -19.632812 4.046875 -31.070312 4.046875 -45.03125 C 4.046875 -58.988281 9.265625 -70.453125 19.703125 -79.421875 C 30.140625 -88.390625 43.039062 -92.875 58.40625 -92.875 C 73.53125 -92.875 86.28125 -88.359375 96.65625 -79.328125 C 107.039062 -70.296875 112.234375 -58.863281 112.234375 -45.03125 C 112.234375 -31.195312 107.160156 -19.789062 97.015625 -10.8125 C 86.867188 -1.84375 74 2.640625 58.40625 2.640625 C 42.21875 2.640625 29.109375 -1.8125 19.078125 -10.71875 Z M 43.171875 -60.328125 C 39.128906 -56.347656 37.109375 -51.25 37.109375 -45.03125 C 37.109375 -38.8125 39.039062 -33.738281 42.90625 -29.8125 C 46.78125 -25.882812 51.882812 -23.921875 58.21875 -23.921875 C 64.320312 -23.921875 69.335938 -25.914062 73.265625 -29.90625 C 77.191406 -33.894531 79.15625 -38.9375 79.15625 -45.03125 C 79.15625 -51.25 77.128906 -56.347656 73.078125 -60.328125 C 69.035156 -64.316406 64.082031 -66.3125 58.21875 -66.3125 C 52.238281 -66.3125 47.222656 -64.316406 43.171875 -60.328125 Z M 43.171875 -60.328125 "/></g></g></g><g fill="#000000" fill-opacity="1"><g transform="translate(849.23112, 165.509128)"><g><path d="M 10.546875 0 L 10.546875 -90.234375 L 41.6875 -90.234375 L 41.6875 -80.734375 L 42.046875 -80.734375 C 50.128906 -88.828125 58.75 -92.875 67.90625 -92.875 C 72.351562 -92.875 76.773438 -92.285156 81.171875 -91.109375 C 85.578125 -89.941406 89.800781 -88.125 93.84375 -85.65625 C 97.894531 -83.195312 101.179688 -79.707031 103.703125 -75.1875 C 106.222656 -70.675781 107.484375 -65.429688 107.484375 -59.453125 L 107.484375 0 L 76.34375 0 L 76.34375 -51.015625 C 76.34375 -55.703125 74.847656 -59.804688 71.859375 -63.328125 C 68.867188 -66.847656 64.96875 -68.609375 60.15625 -68.609375 C 55.46875 -68.609375 51.21875 -66.789062 47.40625 -63.15625 C 43.59375 -59.519531 41.6875 -55.472656 41.6875 -51.015625 L 41.6875 0 Z M 10.546875 0 "/></g></g></g><g clip-path="url(#f63ae3190f)"><path fill="#8ae9f2" d="M 123.148438 119.367188 C 123.148438 120.886719 123.074219 122.40625 122.921875 123.921875 C 122.773438 125.4375 122.550781 126.941406 122.253906 128.433594 C 121.957031 129.925781 121.589844 131.402344 121.144531 132.859375 C 120.703125 134.316406 120.191406 135.746094 119.609375 137.152344 C 119.027344 138.558594 118.375 139.933594 117.660156 141.277344 C 116.941406 142.617188 116.160156 143.921875 115.3125 145.1875 C 114.46875 146.453125 113.5625 147.675781 112.597656 148.851562 C 111.632812 150.03125 110.609375 151.15625 109.535156 152.234375 C 108.457031 153.308594 107.332031 154.332031 106.152344 155.296875 C 104.976562 156.261719 103.753906 157.167969 102.488281 158.011719 C 101.222656 158.859375 99.917969 159.640625 98.578125 160.359375 C 97.234375 161.074219 95.859375 161.726562 94.453125 162.308594 C 93.046875 162.890625 91.617188 163.402344 90.160156 163.84375 C 88.703125 164.289062 87.226562 164.65625 85.734375 164.953125 C 84.242188 165.25 82.738281 165.472656 81.222656 165.621094 C 79.707031 165.773438 78.1875 165.847656 76.667969 165.847656 C 75.144531 165.847656 73.625 165.773438 72.109375 165.621094 C 70.59375 165.472656 69.089844 165.25 67.597656 164.953125 C 66.105469 164.65625 64.628906 164.289062 63.171875 163.84375 C 61.714844 163.402344 60.285156 162.890625 58.878906 162.308594 C 57.472656 161.726562 56.097656 161.074219 54.753906 160.359375 C 53.414062 159.640625 52.109375 158.859375 50.84375 158.011719 C 49.578125 157.167969 48.355469 156.261719 47.179688 155.296875 C 46 154.332031 44.875 153.308594 43.796875 152.234375 C 42.722656 151.15625 41.703125 150.03125 40.734375 148.851562 C 39.769531 147.675781 38.863281 146.453125 38.019531 145.1875 C 37.171875 143.921875 36.390625 142.617188 35.671875 141.277344 C 34.957031 139.933594 34.304688 138.558594 33.722656 137.152344 C 33.140625 135.746094 32.628906 134.316406 32.1875 132.859375 C 31.746094 131.402344 31.375 129.925781 31.078125 128.433594 C 30.78125 126.941406 30.558594 125.4375 30.410156 123.921875 C 30.257812 122.40625 30.183594 120.886719 30.183594 119.367188 C 30.183594 117.84375 30.257812 116.324219 30.410156 114.808594 C 30.558594 113.292969 30.78125 111.789062 31.078125 110.296875 C 31.375 108.804688 31.746094 107.328125 32.1875 105.871094 C 32.628906 104.414062 33.140625 102.984375 33.722656 101.578125 C 34.304688 100.171875 34.957031 98.796875 35.671875 97.453125 C 36.390625 96.113281 37.171875 94.808594 38.019531 93.542969 C 38.863281 92.277344 39.769531 91.054688 40.734375 89.878906 C 41.703125 88.699219 42.722656 87.574219 43.796875 86.496094 C 44.875 85.421875 46 84.398438 47.179688 83.433594 C 48.355469 82.46875 49.578125 81.5625 50.84375 80.71875 C 52.109375 79.871094 53.414062 79.089844 54.753906 78.371094 C 56.097656 77.65625 57.472656 77.003906 58.878906 76.421875 C 60.285156 75.839844 61.714844 75.328125 63.171875 74.886719 C 64.628906 74.441406 66.105469 74.074219 67.597656 73.777344 C 69.089844 73.480469 70.59375 73.257812 72.109375 73.109375 C 73.625 72.957031 75.144531 72.882812 76.667969 72.882812 C 78.1875 72.882812 79.707031 72.957031 81.222656 73.109375 C 82.738281 73.257812 84.242188 73.480469 85.734375 73.777344 C 87.226562 74.074219 88.703125 74.441406 90.160156 74.886719 C 91.617188 75.328125 93.046875 75.839844 94.453125 76.421875 C 95.859375 77.003906 97.234375 77.65625 98.578125 78.371094 C 99.921875 79.089844 101.222656 79.871094 102.488281 80.71875 C 103.753906 81.5625 104.976562 82.46875 106.152344 83.433594 C 107.332031 84.398438 108.457031 85.421875 109.535156 86.496094 C 110.609375 87.574219 111.632812 88.699219 112.597656 89.878906 C 113.5625 91.054688 114.46875 92.277344 115.3125 93.542969 C 116.160156 94.808594 116.941406 96.113281 117.660156 97.453125 C 118.375 98.796875 119.027344 100.171875 119.609375 101.578125 C 120.191406 102.984375 120.703125 104.414062 121.144531 105.871094 C 121.589844 107.328125 121.957031 108.804688 122.253906 110.296875 C 122.550781 111.789062 122.773438 113.292969 122.921875 114.808594 C 123.074219 116.324219 123.148438 117.84375 123.148438 119.367188 Z M 123.148438 119.367188 " fill-opacity="1" fill-rule="nonzero"/></g><g clip-path="url(#452b077a94)"><path fill="#9cabcc" d="M 226.585938 119.367188 C 226.585938 120.886719 226.511719 122.40625 226.359375 123.921875 C 226.210938 125.4375 225.988281 126.941406 225.691406 128.433594 C 225.394531 129.925781 225.023438 131.402344 224.582031 132.859375 C 224.140625 134.316406 223.628906 135.746094 223.046875 137.152344 C 222.464844 138.558594 221.8125 139.933594 221.097656 141.277344 C 220.378906 142.617188 219.597656 143.921875 218.75 145.1875 C 217.90625 146.453125 217 147.675781 216.035156 148.851562 C 215.066406 150.03125 214.046875 151.15625 212.96875 152.234375 C 211.894531 153.308594 210.765625 154.332031 209.589844 155.296875 C 208.414062 156.261719 207.191406 157.167969 205.925781 158.011719 C 204.660156 158.859375 203.355469 159.640625 202.015625 160.359375 C 200.671875 161.074219 199.296875 161.726562 197.890625 162.308594 C 196.484375 162.890625 195.050781 163.402344 193.597656 163.84375 C 192.140625 164.289062 190.664062 164.65625 189.171875 164.953125 C 187.679688 165.25 186.175781 165.472656 184.660156 165.621094 C 183.144531 165.773438 181.625 165.847656 180.101562 165.847656 C 178.582031 165.847656 177.0625 165.773438 175.546875 165.621094 C 174.03125 165.472656 172.527344 165.25 171.035156 164.953125 C 169.542969 164.65625 168.066406 164.289062 166.609375 163.84375 C 165.152344 163.402344 163.722656 162.890625 162.316406 162.308594 C 160.910156 161.726562 159.535156 161.074219 158.191406 160.359375 C 156.847656 159.640625 155.546875 158.859375 154.277344 158.011719 C 153.011719 157.167969 151.792969 156.261719 150.617188 155.296875 C 149.4375 154.332031 148.3125 153.308594 147.234375 152.234375 C 146.160156 151.15625 145.136719 150.03125 144.171875 148.851562 C 143.207031 147.675781 142.300781 146.453125 141.453125 145.1875 C 140.609375 143.921875 139.828125 142.617188 139.109375 141.277344 C 138.390625 139.933594 137.742188 138.558594 137.160156 137.152344 C 136.578125 135.746094 136.066406 134.316406 135.621094 132.859375 C 135.179688 131.402344 134.8125 129.925781 134.515625 128.433594 C 134.21875 126.941406 133.996094 125.4375 133.84375 123.921875 C 133.695312 122.40625 133.621094 120.886719 133.621094 119.367188 C 133.621094 117.84375 133.695312 116.324219 133.84375 114.808594 C 133.996094 113.292969 134.21875 111.789062 134.515625 110.296875 C 134.8125 108.804688 135.179688 107.328125 135.621094 105.871094 C 136.066406 104.414062 136.578125 102.984375 137.160156 101.578125 C 137.742188 100.171875 138.390625 98.796875 139.109375 97.453125 C 139.828125 96.113281 140.609375 94.808594 141.453125 93.542969 C 142.300781 92.277344 143.207031 91.054688 144.171875 89.878906 C 145.136719 88.699219 146.160156 87.574219 147.234375 86.496094 C 148.3125 85.421875 149.4375 84.398438 150.617188 83.433594 C 151.792969 82.46875 153.011719 81.5625 154.277344 80.71875 C 155.546875 79.871094 156.847656 79.089844 158.191406 78.371094 C 159.535156 77.65625 160.910156 77.003906 162.316406 76.421875 C 163.722656 75.839844 165.152344 75.328125 166.609375 74.886719 C 168.066406 74.441406 169.542969 74.074219 171.035156 73.777344 C 172.527344 73.480469 174.03125 73.257812 175.546875 73.109375 C 177.0625 72.957031 178.582031 72.882812 180.101562 72.882812 C 181.625 72.882812 183.144531 72.957031 184.660156 73.109375 C 186.175781 73.257812 187.679688 73.480469 189.171875 73.777344 C 190.664062 74.074219 192.140625 74.441406 193.597656 74.886719 C 195.050781 75.328125 196.484375 75.839844 197.890625 76.421875 C 199.296875 77.003906 200.671875 77.65625 202.015625 78.371094 C 203.355469 79.089844 204.660156 79.871094 205.925781 80.71875 C 207.191406 81.5625 208.414062 82.46875 209.589844 83.433594 C 210.765625 84.398438 211.894531 85.421875 212.96875 86.496094 C 214.046875 87.574219 215.066406 88.699219 216.035156 89.878906 C 217 91.054688 217.90625 92.277344 218.75 93.542969 C 219.597656 94.808594 220.378906 96.113281 221.097656 97.453125 C 221.8125 98.796875 222.464844 100.171875 223.046875 101.578125 C 223.628906 102.984375 224.140625 104.414062 224.582031 105.871094 C 225.023438 107.328125 225.394531 108.804688 225.691406 110.296875 C 225.988281 111.789062 226.210938 113.292969 226.359375 114.808594 C 226.511719 116.324219 226.585938 117.84375 226.585938 119.367188 Z M 226.585938 119.367188 " fill-opacity="1" fill-rule="nonzero"/></g><g clip-path="url(#15242e2cd7)"><path fill="#b74e93" d="M 329.777344 119.367188 C 329.777344 120.886719 329.703125 122.40625 329.554688 123.921875 C 329.40625 125.4375 329.183594 126.941406 328.886719 128.433594 C 328.589844 129.925781 328.21875 131.402344 327.777344 132.859375 C 327.335938 134.316406 326.824219 135.746094 326.242188 137.152344 C 325.660156 138.558594 325.007812 139.933594 324.289062 141.277344 C 323.574219 142.617188 322.792969 143.921875 321.945312 145.1875 C 321.101562 146.453125 320.195312 147.675781 319.226562 148.851562 C 318.261719 150.03125 317.242188 151.15625 316.164062 152.234375 C 315.089844 153.308594 313.960938 154.332031 312.785156 155.296875 C 311.609375 156.261719 310.386719 157.167969 309.121094 158.011719 C 307.855469 158.859375 306.550781 159.640625 305.207031 160.359375 C 303.867188 161.074219 302.492188 161.726562 301.085938 162.308594 C 299.679688 162.890625 298.246094 163.402344 296.789062 163.84375 C 295.332031 164.289062 293.859375 164.65625 292.367188 164.953125 C 290.871094 165.25 289.367188 165.472656 287.851562 165.621094 C 286.339844 165.773438 284.820312 165.847656 283.296875 165.847656 C 281.773438 165.847656 280.257812 165.773438 278.742188 165.621094 C 277.226562 165.472656 275.722656 165.25 274.230469 164.953125 C 272.738281 164.65625 271.261719 164.289062 269.804688 163.84375 C 268.347656 163.402344 266.917969 162.890625 265.511719 162.308594 C 264.101562 161.726562 262.730469 161.074219 261.386719 160.359375 C 260.042969 159.640625 258.738281 158.859375 257.472656 158.011719 C 256.207031 157.167969 254.988281 156.261719 253.808594 155.296875 C 252.632812 154.332031 251.507812 153.308594 250.429688 152.234375 C 249.355469 151.15625 248.332031 150.03125 247.367188 148.851562 C 246.402344 147.675781 245.496094 146.453125 244.648438 145.1875 C 243.804688 143.921875 243.023438 142.617188 242.304688 141.277344 C 241.585938 139.933594 240.9375 138.558594 240.355469 137.152344 C 239.773438 135.746094 239.257812 134.316406 238.816406 132.859375 C 238.375 131.402344 238.007812 129.925781 237.710938 128.433594 C 237.414062 126.941406 237.1875 125.4375 237.039062 123.921875 C 236.890625 122.40625 236.816406 120.886719 236.816406 119.367188 C 236.816406 117.84375 236.890625 116.324219 237.039062 114.808594 C 237.1875 113.292969 237.414062 111.789062 237.710938 110.296875 C 238.007812 108.804688 238.375 107.328125 238.816406 105.871094 C 239.257812 104.414062 239.773438 102.984375 240.355469 101.578125 C 240.9375 100.171875 241.585938 98.796875 242.304688 97.453125 C 243.023438 96.113281 243.804688 94.808594 244.648438 93.542969 C 245.496094 92.277344 246.402344 91.054688 247.367188 89.878906 C 248.332031 88.699219 249.355469 87.574219 250.429688 86.496094 C 251.507812 85.421875 252.632812 84.398438 253.808594 83.433594 C 254.988281 82.46875 256.207031 81.5625 257.472656 80.71875 C 258.738281 79.871094 260.042969 79.089844 261.386719 78.371094 C 262.730469 77.65625 264.101562 77.003906 265.511719 76.421875 C 266.917969 75.839844 268.347656 75.328125 269.804688 74.886719 C 271.261719 74.441406 272.738281 74.074219 274.230469 73.777344 C 275.722656 73.480469 277.226562 73.257812 278.742188 73.109375 C 280.257812 72.957031 281.773438 72.882812 283.296875 72.882812 C 284.820312 72.882812 286.339844 72.957031 287.851562 73.109375 C 289.367188 73.257812 290.871094 73.480469 292.367188 73.777344 C 293.859375 74.074219 295.332031 74.441406 296.789062 74.886719 C 298.246094 75.328125 299.679688 75.839844 301.085938 76.421875 C 302.492188 77.003906 303.867188 77.65625 305.207031 78.371094 C 306.550781 79.089844 307.855469 79.871094 309.121094 80.71875 C 310.386719 81.5625 311.609375 82.46875 312.785156 83.433594 C 313.960938 84.398438 315.089844 85.421875 316.164062 86.496094 C 317.242188 87.574219 318.261719 88.699219 319.226562 89.878906 C 320.195312 91.054688 321.101562 92.277344 321.945312 93.542969 C 322.792969 94.808594 323.574219 96.113281 324.289062 97.453125 C 325.007812 98.796875 325.660156 100.171875 326.242188 101.578125 C 326.824219 102.984375 327.335938 104.414062 327.777344 105.871094 C 328.21875 107.328125 328.589844 108.804688 328.886719 110.296875 C 329.183594 111.789062 329.40625 113.292969 329.554688 114.808594 C 329.703125 116.324219 329.777344 117.84375 329.777344 119.367188 Z M 329.777344 119.367188 " fill-opacity="1" fill-rule="nonzero"/></g></svg>