<svg xmlns="http://www.w3.org/2000/svg" xmlns:xlink="http://www.w3.org/1999/xlink" width="700" zoomAndPan="magnify" viewBox="0 0 525 225" height="300" preserveAspectRatio="xMidYMid meet" version="1.0"><defs><g/></defs><g fill="#000000" fill-opacity="1"><g transform="translate(26.561686, 98.619737)"><g><path d="M 6.765625 0 L 6.765625 -97 L 26.734375 -97 L 26.734375 0 Z M 6.765625 0 "/></g></g></g><g fill="#000000" fill-opacity="1"><g transform="translate(54.423582, 98.619737)"><g><path d="M 10.71875 -7.15625 C 5.300781 -13.0625 2.59375 -20.300781 2.59375 -28.875 C 2.59375 -37.445312 5.300781 -44.703125 10.71875 -50.640625 C 16.132812 -56.585938 23.015625 -59.5625 31.359375 -59.5625 C 39.023438 -59.5625 45.34375 -57.15625 50.3125 -52.34375 L 50.3125 -57.859375 L 70.265625 -57.859375 L 70.265625 0 L 50.53125 0 L 50.53125 -6.546875 L 50.3125 -6.546875 C 45.34375 -1.054688 39.023438 1.6875 31.359375 1.6875 C 23.015625 1.6875 16.132812 -1.257812 10.71875 -7.15625 Z M 27.6875 -38.6875 C 25.09375 -36.132812 23.796875 -32.863281 23.796875 -28.875 C 23.796875 -24.882812 25.035156 -21.628906 27.515625 -19.109375 C 30.003906 -16.597656 33.273438 -15.34375 37.328125 -15.34375 C 41.242188 -15.34375 44.460938 -16.617188 46.984375 -19.171875 C 49.503906 -21.734375 50.765625 -24.96875 50.765625 -28.875 C 50.765625 -32.863281 49.460938 -36.132812 46.859375 -38.6875 C 44.265625 -41.25 41.085938 -42.53125 37.328125 -42.53125 C 33.492188 -42.53125 30.28125 -41.25 27.6875 -38.6875 Z M 27.6875 -38.6875 "/></g></g></g><g fill="#000000" fill-opacity="1"><g transform="translate(125.827182, 98.619737)"><g/></g></g><g fill="#000000" fill-opacity="1"><g transform="translate(150.981826, 98.619737)"><g><path d="M 6.765625 0 L 6.765625 -57.859375 L 26.734375 -57.859375 L 26.734375 -51.78125 L 26.953125 -51.78125 C 32.140625 -56.96875 37.671875 -59.5625 43.546875 -59.5625 C 46.398438 -59.5625 49.234375 -59.179688 52.046875 -58.421875 C 54.867188 -57.671875 57.578125 -56.503906 60.171875 -54.921875 C 62.765625 -53.347656 64.867188 -51.113281 66.484375 -48.21875 C 68.109375 -45.320312 68.921875 -41.957031 68.921875 -38.125 L 68.921875 0 L 48.953125 0 L 48.953125 -32.71875 C 48.953125 -35.71875 47.992188 -38.34375 46.078125 -40.59375 C 44.160156 -42.851562 41.660156 -43.984375 38.578125 -43.984375 C 35.566406 -43.984375 32.835938 -42.816406 30.390625 -40.484375 C 27.953125 -38.160156 26.734375 -35.570312 26.734375 -32.71875 L 26.734375 0 Z M 6.765625 0 "/></g></g></g><g fill="#000000" fill-opacity="1"><g transform="translate(219.903781, 98.619737)"><g><path d="M 12.234375 -6.875 C 5.804688 -12.59375 2.59375 -19.925781 2.59375 -28.875 C 2.59375 -37.820312 5.9375 -45.171875 12.625 -50.921875 C 19.320312 -56.679688 27.597656 -59.5625 37.453125 -59.5625 C 47.148438 -59.5625 55.328125 -56.664062 61.984375 -50.875 C 68.640625 -45.082031 71.96875 -37.75 71.96875 -28.875 C 71.96875 -20 68.710938 -12.6875 62.203125 -6.9375 C 55.703125 -1.1875 47.453125 1.6875 37.453125 1.6875 C 27.066406 1.6875 18.660156 -1.164062 12.234375 -6.875 Z M 27.6875 -38.6875 C 25.09375 -36.132812 23.796875 -32.863281 23.796875 -28.875 C 23.796875 -24.882812 25.035156 -21.628906 27.515625 -19.109375 C 30.003906 -16.597656 33.273438 -15.34375 37.328125 -15.34375 C 41.242188 -15.34375 44.460938 -16.617188 46.984375 -19.171875 C 49.503906 -21.734375 50.765625 -24.96875 50.765625 -28.875 C 50.765625 -32.863281 49.460938 -36.132812 46.859375 -38.6875 C 44.265625 -41.25 41.085938 -42.53125 37.328125 -42.53125 C 33.492188 -42.53125 30.28125 -41.25 27.6875 -38.6875 Z M 27.6875 -38.6875 "/></g></g></g><g fill="#000000" fill-opacity="1"><g transform="translate(288.825736, 98.619737)"><g><path d="M 31.921875 -59.5625 C 35.234375 -59.5625 38.503906 -59.179688 41.734375 -58.421875 C 44.960938 -57.671875 47.367188 -56.921875 48.953125 -56.171875 L 51.328125 -55.046875 L 44.78125 -41.953125 C 40.269531 -44.359375 35.984375 -45.5625 31.921875 -45.5625 C 29.660156 -45.5625 28.0625 -45.316406 27.125 -44.828125 C 26.1875 -44.347656 25.71875 -43.429688 25.71875 -42.078125 C 25.71875 -41.773438 25.753906 -41.472656 25.828125 -41.171875 C 25.898438 -40.867188 26.050781 -40.585938 26.28125 -40.328125 C 26.507812 -40.066406 26.71875 -39.835938 26.90625 -39.640625 C 27.09375 -39.453125 27.410156 -39.242188 27.859375 -39.015625 C 28.304688 -38.796875 28.660156 -38.628906 28.921875 -38.515625 C 29.191406 -38.398438 29.625 -38.226562 30.21875 -38 C 30.820312 -37.78125 31.273438 -37.613281 31.578125 -37.5 C 31.878906 -37.382812 32.382812 -37.210938 33.09375 -36.984375 C 33.8125 -36.765625 34.359375 -36.617188 34.734375 -36.546875 C 37.066406 -35.867188 39.097656 -35.113281 40.828125 -34.28125 C 42.554688 -33.457031 44.378906 -32.332031 46.296875 -30.90625 C 48.210938 -29.476562 49.695312 -27.671875 50.75 -25.484375 C 51.8125 -23.304688 52.34375 -20.828125 52.34375 -18.046875 C 52.34375 -4.890625 43.203125 1.6875 24.921875 1.6875 C 20.785156 1.6875 16.859375 1.050781 13.140625 -0.21875 C 9.421875 -1.5 6.734375 -2.78125 5.078125 -4.0625 L 2.59375 -6.09375 L 10.71875 -19.734375 C 11.320312 -19.210938 12.109375 -18.59375 13.078125 -17.875 C 14.054688 -17.164062 15.820312 -16.1875 18.375 -14.9375 C 20.9375 -13.695312 23.160156 -13.078125 25.046875 -13.078125 C 29.179688 -13.078125 31.25 -14.472656 31.25 -17.265625 C 31.25 -18.535156 30.722656 -19.523438 29.671875 -20.234375 C 28.617188 -20.953125 26.832031 -21.765625 24.3125 -22.671875 C 21.789062 -23.578125 19.816406 -24.40625 18.390625 -25.15625 C 14.773438 -27.03125 11.914062 -29.148438 9.8125 -31.515625 C 7.707031 -33.890625 6.65625 -37.03125 6.65625 -40.9375 C 6.65625 -46.8125 8.925781 -51.382812 13.46875 -54.65625 C 18.019531 -57.925781 24.171875 -59.5625 31.921875 -59.5625 Z M 31.921875 -59.5625 "/></g></g></g><g fill="#000000" fill-opacity="1"><g transform="translate(338.684089, 98.619737)"><g><path d="M 10.15625 -57.859375 L 10.15625 -79.40625 L 30.109375 -79.40625 L 30.109375 -57.859375 L 42.296875 -57.859375 L 42.296875 -42.640625 L 30.109375 -42.640625 L 30.109375 -24.25 C 30.109375 -18.914062 31.613281 -16.25 34.625 -16.25 C 35.375 -16.25 36.160156 -16.394531 36.984375 -16.6875 C 37.816406 -16.988281 38.460938 -17.289062 38.921875 -17.59375 L 39.59375 -18.046875 L 44.5625 -1.921875 C 40.269531 0.484375 35.378906 1.6875 29.890625 1.6875 C 26.128906 1.6875 22.894531 1.03125 20.1875 -0.28125 C 17.476562 -1.59375 15.425781 -3.359375 14.03125 -5.578125 C 12.644531 -7.796875 11.648438 -10.128906 11.046875 -12.578125 C 10.453125 -15.023438 10.15625 -17.640625 10.15625 -20.421875 L 10.15625 -42.640625 L 1.8125 -42.640625 L 1.8125 -57.859375 Z M 10.15625 -57.859375 "/></g></g></g><g fill="#000000" fill-opacity="1"><g transform="translate(377.600617, 98.619737)"><g><path d="M 6.765625 0 L 6.765625 -57.859375 L 26.734375 -57.859375 L 26.734375 -49.515625 L 26.953125 -49.515625 C 27.109375 -49.816406 27.351562 -50.191406 27.6875 -50.640625 C 28.03125 -51.097656 28.765625 -51.890625 29.890625 -53.015625 C 31.015625 -54.140625 32.21875 -55.148438 33.5 -56.046875 C 34.78125 -56.953125 36.4375 -57.765625 38.46875 -58.484375 C 40.5 -59.203125 42.566406 -59.5625 44.671875 -59.5625 C 46.847656 -59.5625 48.988281 -59.257812 51.09375 -58.65625 C 53.195312 -58.050781 54.738281 -57.445312 55.71875 -56.84375 L 57.296875 -55.953125 L 48.953125 -39.03125 C 46.472656 -41.132812 43.015625 -42.1875 38.578125 -42.1875 C 36.171875 -42.1875 34.101562 -41.660156 32.375 -40.609375 C 30.644531 -39.554688 29.421875 -38.273438 28.703125 -36.765625 C 27.992188 -35.265625 27.488281 -33.988281 27.1875 -32.9375 C 26.882812 -31.882812 26.734375 -31.054688 26.734375 -30.453125 L 26.734375 0 Z M 6.765625 0 "/></g></g></g><g fill="#000000" fill-opacity="1"><g transform="translate(428.135774, 98.619737)"><g><path d="M 10.71875 -7.15625 C 5.300781 -13.0625 2.59375 -20.300781 2.59375 -28.875 C 2.59375 -37.445312 5.300781 -44.703125 10.71875 -50.640625 C 16.132812 -56.585938 23.015625 -59.5625 31.359375 -59.5625 C 39.023438 -59.5625 45.34375 -57.15625 50.3125 -52.34375 L 50.3125 -57.859375 L 70.265625 -57.859375 L 70.265625 0 L 50.53125 0 L 50.53125 -6.546875 L 50.3125 -6.546875 C 45.34375 -1.054688 39.023438 1.6875 31.359375 1.6875 C 23.015625 1.6875 16.132812 -1.257812 10.71875 -7.15625 Z M 27.6875 -38.6875 C 25.09375 -36.132812 23.796875 -32.863281 23.796875 -28.875 C 23.796875 -24.882812 25.035156 -21.628906 27.515625 -19.109375 C 30.003906 -16.597656 33.273438 -15.34375 37.328125 -15.34375 C 41.242188 -15.34375 44.460938 -16.617188 46.984375 -19.171875 C 49.503906 -21.734375 50.765625 -24.96875 50.765625 -28.875 C 50.765625 -32.863281 49.460938 -36.132812 46.859375 -38.6875 C 44.265625 -41.25 41.085938 -42.53125 37.328125 -42.53125 C 33.492188 -42.53125 30.28125 -41.25 27.6875 -38.6875 Z M 27.6875 -38.6875 "/></g></g></g><g fill="#000000" fill-opacity="1"><g transform="translate(26.561686, 221.297019)"><g><path d="M 99.609375 0 L 94.359375 -65.640625 L 93.703125 -65.640625 L 71.015625 -0.671875 L 55.96875 -0.671875 L 33.296875 -65.640625 L 32.625 -65.640625 L 27.390625 0 L 2.140625 0 L 12.078125 -110.75 L 38.921875 -110.75 L 63.5 -46.84375 L 88.0625 -110.75 L 114.90625 -110.75 L 124.84375 0 Z M 99.609375 0 "/></g></g></g><g fill="#000000" fill-opacity="1"><g transform="translate(146.832638, 221.297019)"><g><path d="M 10.328125 -107.25 C 13.109375 -110.03125 16.421875 -111.421875 20.265625 -111.421875 C 24.117188 -111.421875 27.429688 -110.03125 30.203125 -107.25 C 32.972656 -104.476562 34.359375 -101.164062 34.359375 -97.3125 C 34.359375 -93.46875 32.972656 -90.15625 30.203125 -87.375 C 27.429688 -84.601562 24.117188 -83.21875 20.265625 -83.21875 C 16.421875 -83.21875 13.109375 -84.601562 10.328125 -87.375 C 7.554688 -90.15625 6.171875 -93.46875 6.171875 -97.3125 C 6.171875 -101.164062 7.554688 -104.476562 10.328125 -107.25 Z M 8.046875 -68.859375 L 8.046875 0 L 31.8125 0 L 31.8125 -68.859375 Z M 8.046875 -68.859375 "/></g></g></g><g fill="#000000" fill-opacity="1"><g transform="translate(180.658665, 221.297019)"><g><path d="M 37.984375 -70.875 C 41.921875 -70.875 45.8125 -70.425781 49.65625 -69.53125 C 53.507812 -68.632812 56.375 -67.738281 58.25 -66.84375 L 61.078125 -65.5 L 53.296875 -49.9375 C 47.921875 -52.800781 42.816406 -54.234375 37.984375 -54.234375 C 35.304688 -54.234375 33.40625 -53.941406 32.28125 -53.359375 C 31.164062 -52.773438 30.609375 -51.675781 30.609375 -50.0625 C 30.609375 -49.707031 30.648438 -49.347656 30.734375 -48.984375 C 30.828125 -48.628906 31.003906 -48.296875 31.265625 -47.984375 C 31.535156 -47.671875 31.78125 -47.398438 32 -47.171875 C 32.226562 -46.953125 32.613281 -46.707031 33.15625 -46.4375 C 33.695312 -46.175781 34.125 -45.976562 34.4375 -45.84375 C 34.75 -45.707031 35.257812 -45.503906 35.96875 -45.234375 C 36.6875 -44.960938 37.222656 -44.757812 37.578125 -44.625 C 37.941406 -44.5 38.546875 -44.300781 39.390625 -44.03125 C 40.242188 -43.757812 40.894531 -43.578125 41.34375 -43.484375 C 44.113281 -42.679688 46.53125 -41.785156 48.59375 -40.796875 C 50.65625 -39.816406 52.828125 -38.476562 55.109375 -36.78125 C 57.390625 -35.082031 59.15625 -32.929688 60.40625 -30.328125 C 61.65625 -27.734375 62.28125 -24.785156 62.28125 -21.484375 C 62.28125 -5.816406 51.410156 2.015625 29.671875 2.015625 C 24.742188 2.015625 20.066406 1.253906 15.640625 -0.265625 C 11.210938 -1.785156 8.015625 -3.304688 6.046875 -4.828125 L 3.09375 -7.25 L 12.75 -23.484375 C 13.46875 -22.859375 14.40625 -22.117188 15.5625 -21.265625 C 16.726562 -20.421875 18.832031 -19.257812 21.875 -17.78125 C 24.914062 -16.3125 27.554688 -15.578125 29.796875 -15.578125 C 34.722656 -15.578125 37.1875 -17.226562 37.1875 -20.53125 C 37.1875 -22.050781 36.554688 -23.238281 35.296875 -24.09375 C 34.046875 -24.945312 31.921875 -25.910156 28.921875 -26.984375 C 25.929688 -28.054688 23.582031 -29.039062 21.875 -29.9375 C 17.582031 -32.175781 14.179688 -34.703125 11.671875 -37.515625 C 9.171875 -40.335938 7.921875 -44.078125 7.921875 -48.734375 C 7.921875 -55.710938 10.625 -61.144531 16.03125 -65.03125 C 21.445312 -68.925781 28.765625 -70.875 37.984375 -70.875 Z M 37.984375 -70.875 "/></g></g></g><g fill="#000000" fill-opacity="1"><g transform="translate(239.988647, 221.297019)"><g><path d="M 37.984375 -70.875 C 41.921875 -70.875 45.8125 -70.425781 49.65625 -69.53125 C 53.507812 -68.632812 56.375 -67.738281 58.25 -66.84375 L 61.078125 -65.5 L 53.296875 -49.9375 C 47.921875 -52.800781 42.816406 -54.234375 37.984375 -54.234375 C 35.304688 -54.234375 33.40625 -53.941406 32.28125 -53.359375 C 31.164062 -52.773438 30.609375 -51.675781 30.609375 -50.0625 C 30.609375 -49.707031 30.648438 -49.347656 30.734375 -48.984375 C 30.828125 -48.628906 31.003906 -48.296875 31.265625 -47.984375 C 31.535156 -47.671875 31.78125 -47.398438 32 -47.171875 C 32.226562 -46.953125 32.613281 -46.707031 33.15625 -46.4375 C 33.695312 -46.175781 34.125 -45.976562 34.4375 -45.84375 C 34.75 -45.707031 35.257812 -45.503906 35.96875 -45.234375 C 36.6875 -44.960938 37.222656 -44.757812 37.578125 -44.625 C 37.941406 -44.5 38.546875 -44.300781 39.390625 -44.03125 C 40.242188 -43.757812 40.894531 -43.578125 41.34375 -43.484375 C 44.113281 -42.679688 46.53125 -41.785156 48.59375 -40.796875 C 50.65625 -39.816406 52.828125 -38.476562 55.109375 -36.78125 C 57.390625 -35.082031 59.15625 -32.929688 60.40625 -30.328125 C 61.65625 -27.734375 62.28125 -24.785156 62.28125 -21.484375 C 62.28125 -5.816406 51.410156 2.015625 29.671875 2.015625 C 24.742188 2.015625 20.066406 1.253906 15.640625 -0.265625 C 11.210938 -1.785156 8.015625 -3.304688 6.046875 -4.828125 L 3.09375 -7.25 L 12.75 -23.484375 C 13.46875 -22.859375 14.40625 -22.117188 15.5625 -21.265625 C 16.726562 -20.421875 18.832031 -19.257812 21.875 -17.78125 C 24.914062 -16.3125 27.554688 -15.578125 29.796875 -15.578125 C 34.722656 -15.578125 37.1875 -17.226562 37.1875 -20.53125 C 37.1875 -22.050781 36.554688 -23.238281 35.296875 -24.09375 C 34.046875 -24.945312 31.921875 -25.910156 28.921875 -26.984375 C 25.929688 -28.054688 23.582031 -29.039062 21.875 -29.9375 C 17.582031 -32.175781 14.179688 -34.703125 11.671875 -37.515625 C 9.171875 -40.335938 7.921875 -44.078125 7.921875 -48.734375 C 7.921875 -55.710938 10.625 -61.144531 16.03125 -65.03125 C 21.445312 -68.925781 28.765625 -70.875 37.984375 -70.875 Z M 37.984375 -70.875 "/></g></g></g><g fill="#000000" fill-opacity="1"><g transform="translate(299.318616, 221.297019)"><g><path d="M 10.328125 -107.25 C 13.109375 -110.03125 16.421875 -111.421875 20.265625 -111.421875 C 24.117188 -111.421875 27.429688 -110.03125 30.203125 -107.25 C 32.972656 -104.476562 34.359375 -101.164062 34.359375 -97.3125 C 34.359375 -93.46875 32.972656 -90.15625 30.203125 -87.375 C 27.429688 -84.601562 24.117188 -83.21875 20.265625 -83.21875 C 16.421875 -83.21875 13.109375 -84.601562 10.328125 -87.375 C 7.554688 -90.15625 6.171875 -93.46875 6.171875 -97.3125 C 6.171875 -101.164062 7.554688 -104.476562 10.328125 -107.25 Z M 8.046875 -68.859375 L 8.046875 0 L 31.8125 0 L 31.8125 -68.859375 Z M 8.046875 -68.859375 "/></g></g></g><g fill="#000000" fill-opacity="1"><g transform="translate(333.144643, 221.297019)"><g><path d="M 14.5625 -8.1875 C 6.914062 -14.988281 3.09375 -23.710938 3.09375 -34.359375 C 3.09375 -45.015625 7.070312 -53.765625 15.03125 -60.609375 C 23 -67.453125 32.84375 -70.875 44.5625 -70.875 C 56.101562 -70.875 65.832031 -67.425781 73.75 -60.53125 C 81.675781 -53.644531 85.640625 -44.921875 85.640625 -34.359375 C 85.640625 -23.804688 81.769531 -15.101562 74.03125 -8.25 C 66.289062 -1.40625 56.46875 2.015625 44.5625 2.015625 C 32.21875 2.015625 22.21875 -1.382812 14.5625 -8.1875 Z M 32.953125 -46.046875 C 29.867188 -43.003906 28.328125 -39.109375 28.328125 -34.359375 C 28.328125 -29.617188 29.800781 -25.75 32.75 -22.75 C 35.707031 -19.75 39.601562 -18.25 44.4375 -18.25 C 49.082031 -18.25 52.90625 -19.769531 55.90625 -22.8125 C 58.90625 -25.863281 60.40625 -29.710938 60.40625 -34.359375 C 60.40625 -39.109375 58.859375 -43.003906 55.765625 -46.046875 C 52.679688 -49.085938 48.90625 -50.609375 44.4375 -50.609375 C 39.863281 -50.609375 36.035156 -49.085938 32.953125 -46.046875 Z M 32.953125 -46.046875 "/></g></g></g><g fill="#000000" fill-opacity="1"><g transform="translate(415.159694, 221.297019)"><g><path d="M 8.046875 0 L 8.046875 -68.859375 L 31.8125 -68.859375 L 31.8125 -61.609375 L 32.078125 -61.609375 C 38.253906 -67.785156 44.832031 -70.875 51.8125 -70.875 C 55.21875 -70.875 58.597656 -70.425781 61.953125 -69.53125 C 65.304688 -68.632812 68.523438 -67.242188 71.609375 -65.359375 C 74.703125 -63.484375 77.207031 -60.820312 79.125 -57.375 C 81.050781 -53.9375 82.015625 -49.9375 82.015625 -45.375 L 82.015625 0 L 58.25 0 L 58.25 -38.921875 C 58.25 -42.503906 57.109375 -45.632812 54.828125 -48.3125 C 52.546875 -51 49.570312 -52.34375 45.90625 -52.34375 C 42.320312 -52.34375 39.078125 -50.957031 36.171875 -48.1875 C 33.265625 -45.414062 31.8125 -42.328125 31.8125 -38.921875 L 31.8125 0 Z M 8.046875 0 "/></g></g></g></svg>