<svg xmlns="http://www.w3.org/2000/svg" xmlns:xlink="http://www.w3.org/1999/xlink" width="1366" zoomAndPan="magnify" viewBox="0 0 1024.5 576" height="768" preserveAspectRatio="xMidYMid meet" version="1.0"><defs><filter x="0%" y="0%" width="100%" height="100%" id="00e6dd48d4"><feColorMatrix values="0 0 0 0 1 0 0 0 0 1 0 0 0 0 1 0 0 0 1 0" color-interpolation-filters="sRGB"/></filter><mask id="872c571235"><g filter="url(#00e6dd48d4)"><rect x="-102.45" width="1229.4" fill="#000000" y="-57.6" height="691.2" fill-opacity="0.2471"/></g></mask><clipPath id="87c70b45a0"><path d="M 200 47 L 207.464844 47 L 207.464844 56 L 200 56 Z M 200 47 " clip-rule="nonzero"/></clipPath><clipPath id="308a5be3e4"><path d="M 88 1.019531 L 95 1.019531 L 95 7 L 88 7 Z M 88 1.019531 " clip-rule="nonzero"/></clipPath><clipPath id="6d9eef6841"><path d="M 130.046875 238 L 136.253906 238 L 136.253906 243.964844 L 130.046875 243.964844 Z M 130.046875 238 " clip-rule="nonzero"/></clipPath><clipPath id="6107334316"><path d="M 0.464844 133 L 7 133 L 7 140 L 0.464844 140 Z M 0.464844 133 " clip-rule="nonzero"/></clipPath><clipPath id="64eba878c9"><rect x="0" width="208" y="0" height="245"/></clipPath><mask id="a0ae594e2d"><g filter="url(#00e6dd48d4)"><rect x="-102.45" width="1229.4" fill="#000000" y="-57.6" height="691.2" fill-opacity="0.098"/></g></mask><clipPath id="08a69a7a76"><path d="M 88 1.019531 L 94 1.019531 L 94 7 L 88 7 Z M 88 1.019531 " clip-rule="nonzero"/></clipPath><clipPath id="aedef2e75c"><path d="M 129 238 L 136 238 L 136 244.019531 L 129 244.019531 Z M 129 238 " clip-rule="nonzero"/></clipPath><clipPath id="90d78a671c"><path d="M 240 121.546875 L 246.113281 121.546875 L 246.113281 127.863281 L 240 127.863281 Z M 240 121.546875 " clip-rule="nonzero"/></clipPath><clipPath id="d87708c01a"><path d="M 0.128906 133 L 7 133 L 7 140 L 0.128906 140 Z M 0.128906 133 " clip-rule="nonzero"/></clipPath><clipPath id="424900bdee"><rect x="0" width="247" y="0" height="245"/></clipPath><mask id="59f58c5c9f"><g filter="url(#00e6dd48d4)"><rect x="-102.45" width="1229.4" fill="#000000" y="-57.6" height="691.2" fill-opacity="0.2471"/></g></mask><clipPath id="6127c7d6bc"><path d="M 1.261719 189 L 9 189 L 9 197 L 1.261719 197 Z M 1.261719 189 " clip-rule="nonzero"/></clipPath><clipPath id="21bdbdfe56"><path d="M 114 237 L 121 237 L 121 243.019531 L 114 243.019531 Z M 114 237 " clip-rule="nonzero"/></clipPath><clipPath id="adbeba4652"><path d="M 72.238281 0.332031 L 78.445312 0.332031 L 78.445312 6.503906 L 72.238281 6.503906 Z M 72.238281 0.332031 " clip-rule="nonzero"/></clipPath><clipPath id="c7d9d57112"><path d="M 202 105 L 208.027344 105 L 208.027344 111 L 202 111 Z M 202 105 " clip-rule="nonzero"/></clipPath><clipPath id="8353d36472"><rect x="0" width="209" y="0" height="244"/></clipPath></defs><g mask="url(#872c571235)"><g transform="matrix(1, 0, 0, 1, 71, 177)"><g clip-path="url(#64eba878c9)"><path fill="#5ce1e6" d="M 91.929688 4.128906 L 55.191406 36.945312 L 123.769531 11.460938 Z M 52.695312 38.449219 L 91.777344 3.539062 L 91.914062 3.570312 L 125.648438 11.335938 L 124.804688 11.652344 L 52.695312 38.449219 " fill-opacity="1" fill-rule="nonzero"/><path fill="#5ce1e6" d="M 125.761719 11.523438 L 173.644531 30.355469 L 162.460938 6.289062 Z M 174.707031 31.351562 L 174.078125 31.105469 L 123.660156 11.277344 L 162.785156 5.699219 L 174.707031 31.351562 " fill-opacity="1" fill-rule="nonzero"/><path fill="#5ce1e6" d="M 105.859375 227.761719 L 133 241.304688 L 160.835938 223.945312 Z M 133.03125 241.921875 L 103.84375 227.363281 L 162.964844 223.253906 L 133.03125 241.921875 " fill-opacity="1" fill-rule="nonzero"/><path fill="#5ce1e6" d="M 75.585938 216.242188 L 89.761719 237.632812 L 104.28125 227.625 Z M 89.613281 238.390625 L 89.460938 238.160156 L 74.183594 215.105469 L 105.421875 227.5 L 89.613281 238.390625 " fill-opacity="1" fill-rule="nonzero"/><path fill="#5ce1e6" d="M 40.546875 197.613281 L 53.714844 221.125 L 74.15625 215.589844 Z M 53.445312 221.753906 L 39.171875 196.265625 L 75.613281 215.757812 L 53.445312 221.753906 " fill-opacity="1" fill-rule="nonzero"/><path fill="#5ce1e6" d="M 19.941406 184.558594 L 39.324219 196.300781 L 24.789062 158.304688 Z M 40.394531 197.578125 L 19.339844 184.824219 L 24.605469 156.3125 L 40.394531 197.578125 " fill-opacity="1" fill-rule="nonzero"/><path fill="#5ce1e6" d="M 4.085938 135.648438 L 24.328125 156.539062 L 18.394531 108.832031 Z M 25.0625 158.078125 L 3.421875 135.738281 L 3.515625 135.566406 L 18.722656 107.070312 L 25.0625 158.078125 " fill-opacity="1" fill-rule="nonzero"/><path fill="#5ce1e6" d="M 7.683594 82.421875 L 18.433594 106.992188 L 25.367188 62.351562 Z M 18.683594 108.914062 L 7.046875 82.324219 L 7.160156 82.195312 L 26.1875 60.601562 L 18.683594 108.914062 " fill-opacity="1" fill-rule="nonzero"/><path fill="#5ce1e6" d="M 34.273438 38.683594 L 26.375 60.617188 L 53.167969 37.996094 Z M 25.183594 62.335938 L 33.890625 38.15625 L 54.714844 37.398438 L 25.183594 62.335938 " fill-opacity="1" fill-rule="nonzero"/><path fill="#5ce1e6" d="M 125.015625 11.808594 L 126.765625 33.09375 L 172.917969 30.652344 Z M 126.265625 33.660156 L 124.40625 10.988281 L 175.433594 31.058594 L 126.265625 33.660156 " fill-opacity="1" fill-rule="nonzero"/><path fill="#5ce1e6" d="M 54.570312 37.933594 L 77.457031 60.0625 L 125.335938 33.714844 Z M 77.367188 60.730469 L 77.222656 60.589844 L 53.3125 37.464844 L 53.925781 37.429688 L 127.695312 33.035156 L 77.367188 60.730469 " fill-opacity="1" fill-rule="nonzero"/><path fill="#5ce1e6" d="M 26.011719 61.742188 L 18.933594 107.300781 L 76.625 60.683594 Z M 18.179688 108.601562 L 25.546875 61.210938 L 78.195312 60.109375 L 18.179688 108.601562 " fill-opacity="1" fill-rule="nonzero"/><path fill="#5ce1e6" d="M 18.871094 108.292969 L 24.847656 156.320312 L 44.167969 113.550781 Z M 24.546875 158.300781 L 18.242188 107.609375 L 44.941406 113.160156 L 44.800781 113.46875 L 24.546875 158.300781 " fill-opacity="1" fill-rule="nonzero"/><path fill="#5ce1e6" d="M 77.394531 60.933594 L 45.402344 112.503906 L 90.050781 84.441406 Z M 43.707031 114.207031 L 77.429688 59.855469 L 90.769531 84.628906 L 90.554688 84.761719 L 43.707031 114.207031 " fill-opacity="1" fill-rule="nonzero"/><path fill="#5ce1e6" d="M 127.5 33.59375 L 170.707031 56.730469 L 173.867188 31.140625 Z M 171.148438 57.578125 L 170.796875 57.390625 L 125.535156 33.15625 L 174.484375 30.566406 L 174.445312 30.886719 L 171.148438 57.578125 " fill-opacity="1" fill-rule="nonzero"/><path fill="#5ce1e6" d="M 25.117188 157.652344 L 39.914062 196.316406 L 59.285156 163.277344 Z M 39.808594 197.5625 L 24.273438 156.964844 L 24.742188 157.042969 L 60.152344 162.871094 L 59.953125 163.210938 L 39.808594 197.5625 " fill-opacity="1" fill-rule="nonzero"/><path fill="#5ce1e6" d="M 42.160156 197.128906 C 42.160156 198.222656 41.269531 199.109375 40.171875 199.109375 C 39.078125 199.109375 38.1875 198.222656 38.1875 197.128906 C 38.1875 196.035156 39.078125 195.148438 40.171875 195.148438 C 41.269531 195.148438 42.160156 196.035156 42.160156 197.128906 " fill-opacity="1" fill-rule="nonzero"/><path fill="#5ce1e6" d="M 163.597656 223.710938 C 163.597656 224.804688 162.710938 225.691406 161.613281 225.691406 C 160.515625 225.691406 159.628906 224.804688 159.628906 223.710938 C 159.628906 222.621094 160.515625 221.730469 161.613281 221.730469 C 162.710938 221.730469 163.597656 222.621094 163.597656 223.710938 " fill-opacity="1" fill-rule="nonzero"/><path fill="#5ce1e6" d="M 46.1875 113.359375 C 46.1875 114.453125 45.296875 115.335938 44.199219 115.335938 C 43.105469 115.335938 42.214844 114.453125 42.214844 113.359375 C 42.214844 112.265625 43.105469 111.375 44.199219 111.375 C 45.296875 111.375 46.1875 112.265625 46.1875 113.359375 " fill-opacity="1" fill-rule="nonzero"/><path fill="#5ce1e6" d="M 56.40625 37.625 C 56.40625 38.71875 55.519531 39.605469 54.425781 39.605469 C 53.328125 39.605469 52.441406 38.71875 52.441406 37.625 C 52.441406 36.527344 53.328125 35.644531 54.425781 35.644531 C 55.519531 35.644531 56.40625 36.527344 56.40625 37.625 " fill-opacity="1" fill-rule="nonzero"/><path fill="#5ce1e6" d="M 176.175781 31.132812 C 176.175781 32.226562 175.285156 33.113281 174.191406 33.113281 C 173.09375 33.113281 172.203125 32.226562 172.203125 31.132812 C 172.203125 30.039062 173.09375 29.152344 174.191406 29.152344 C 175.285156 29.152344 176.175781 30.039062 176.175781 31.132812 " fill-opacity="1" fill-rule="nonzero"/><path fill="#5ce1e6" d="M 127.351562 11.347656 C 127.351562 12.441406 126.464844 13.328125 125.367188 13.328125 C 124.269531 13.328125 123.382812 12.441406 123.382812 11.347656 C 123.382812 10.253906 124.269531 9.367188 125.367188 9.367188 C 126.464844 9.367188 127.351562 10.253906 127.351562 11.347656 " fill-opacity="1" fill-rule="nonzero"/><path fill="#5ce1e6" d="M 20.164062 108.101562 C 20.164062 109.195312 19.273438 110.082031 18.179688 110.082031 C 17.082031 110.082031 16.191406 109.195312 16.191406 108.101562 C 16.191406 107.007812 17.082031 106.121094 18.179688 106.121094 C 19.273438 106.121094 20.164062 107.007812 20.164062 108.101562 " fill-opacity="1" fill-rule="nonzero"/><path fill="#5ce1e6" d="M 27.90625 61.425781 C 27.90625 62.519531 27.019531 63.40625 25.921875 63.40625 C 24.824219 63.40625 23.9375 62.519531 23.9375 61.425781 C 23.9375 60.332031 24.824219 59.445312 25.921875 59.445312 C 27.019531 59.445312 27.90625 60.332031 27.90625 61.425781 " fill-opacity="1" fill-rule="nonzero"/><path fill="#5ce1e6" d="M 61.984375 163.617188 C 61.984375 164.710938 61.097656 165.597656 60 165.597656 C 58.902344 165.597656 58.015625 164.710938 58.015625 163.617188 C 58.015625 162.523438 58.902344 161.636719 60 161.636719 C 61.097656 161.636719 61.984375 162.523438 61.984375 163.617188 " fill-opacity="1" fill-rule="nonzero"/><path fill="#5ce1e6" d="M 26.359375 157.253906 C 26.359375 158.347656 25.46875 159.230469 24.375 159.230469 C 23.277344 159.230469 22.390625 158.347656 22.390625 157.253906 C 22.390625 156.15625 23.277344 155.269531 24.375 155.269531 C 25.46875 155.269531 26.359375 156.15625 26.359375 157.253906 " fill-opacity="1" fill-rule="nonzero"/><path fill="#5ce1e6" d="M 107.527344 226.804688 C 107.527344 227.898438 106.636719 228.785156 105.539062 228.785156 C 104.445312 228.785156 103.554688 227.898438 103.554688 226.804688 C 103.554688 225.710938 104.445312 224.824219 105.539062 224.824219 C 106.636719 224.824219 107.527344 225.710938 107.527344 226.804688 " fill-opacity="1" fill-rule="nonzero"/><path fill="#5ce1e6" d="M 173.855469 56.171875 C 173.855469 57.796875 172.535156 59.113281 170.90625 59.113281 C 169.28125 59.113281 167.960938 57.796875 167.960938 56.171875 C 167.960938 54.546875 169.28125 53.230469 170.90625 53.230469 C 172.535156 53.230469 173.855469 54.546875 173.855469 56.171875 " fill-opacity="1" fill-rule="nonzero"/><path fill="#5ce1e6" d="M 80.296875 60.5 C 80.296875 62.121094 78.976562 63.441406 77.347656 63.441406 C 75.71875 63.441406 74.402344 62.121094 74.402344 60.5 C 74.402344 58.875 75.71875 57.554688 77.347656 57.554688 C 78.976562 57.554688 80.296875 58.875 80.296875 60.5 " fill-opacity="1" fill-rule="nonzero"/><path fill="#5ce1e6" d="M 128.625 33.914062 C 128.625 35.539062 127.304688 36.855469 125.675781 36.855469 C 124.046875 36.855469 122.730469 35.539062 122.730469 33.914062 C 122.730469 32.289062 124.046875 30.972656 125.675781 30.972656 C 127.304688 30.972656 128.625 32.289062 128.625 33.914062 " fill-opacity="1" fill-rule="nonzero"/><path fill="#5ce1e6" d="M 93.605469 4.15625 L 122.921875 14.359375 L 160.417969 6.199219 Z M 122.890625 14.921875 L 122.816406 14.898438 L 90.101562 3.507812 L 164.824219 5.792969 L 122.890625 14.921875 " fill-opacity="1" fill-rule="nonzero"/><path fill="#5ce1e6" d="M 169.308594 16.585938 L 200.761719 29.007812 L 163.410156 6.777344 Z M 203.683594 30.742188 L 168.9375 17.019531 L 161.835938 5.210938 L 203.921875 30.261719 L 203.683594 30.742188 " fill-opacity="1" fill-rule="nonzero"/><path fill="#5ce1e6" d="M 91.109375 4.589844 L 35.984375 37.59375 L 79.394531 25.21875 Z M 32.183594 39.242188 L 92.597656 3.074219 L 79.757812 25.679688 L 79.652344 25.710938 L 32.183594 39.242188 " fill-opacity="1" fill-rule="nonzero"/><path fill="#5ce1e6" d="M 33.8125 39.386719 L 8.582031 80.886719 L 33.8125 57.753906 Z M 6.144531 83.855469 L 34.351562 37.453125 L 34.351562 57.992188 L 34.265625 58.074219 L 6.144531 83.855469 " fill-opacity="1" fill-rule="nonzero"/><path fill="#5ce1e6" d="M 7.566406 83.382812 L 4.230469 132.683594 L 13.574219 95.375 Z M 4.015625 135.757812 L 3.484375 135.675781 L 7.160156 81.363281 L 14.152344 95.3125 L 4.015625 135.757812 " fill-opacity="1" fill-rule="nonzero"/><path fill="#5ce1e6" d="M 4.238281 136.316406 L 19.429688 183.15625 L 20.808594 146.648438 Z M 19.855469 186.226562 L 3.265625 135.074219 L 21.363281 146.355469 L 21.355469 146.511719 L 19.855469 186.226562 " fill-opacity="1" fill-rule="nonzero"/><path fill="#5ce1e6" d="M 20.691406 185.429688 L 52.832031 220.230469 L 43.257812 194.980469 Z M 54.328125 222.648438 L 18.59375 183.953125 L 43.683594 194.574219 L 43.722656 194.683594 L 54.328125 222.648438 " fill-opacity="1" fill-rule="nonzero"/><path fill="#5ce1e6" d="M 154.0625 220.277344 L 133.984375 241 L 187.296875 223.039062 Z M 132.046875 242.226562 L 153.851562 219.71875 L 153.980469 219.726562 L 189.945312 222.71875 L 132.046875 242.226562 " fill-opacity="1" fill-rule="nonzero"/><path fill="#5ce1e6" d="M 55 221.792969 L 88.8125 237.3125 L 77.992188 223.140625 Z M 90.5625 238.707031 L 52.160156 221.085938 L 78.273438 222.617188 L 78.347656 222.714844 L 90.5625 238.707031 " fill-opacity="1" fill-rule="nonzero"/><path fill="#5ce1e6" d="M 91.15625 237.863281 L 131.832031 241.242188 L 114.203125 231.097656 Z M 134.199219 241.984375 L 88.21875 238.160156 L 114.273438 230.511719 L 114.375 230.570312 L 134.199219 241.984375 " fill-opacity="1" fill-rule="nonzero"/><path fill="#5ce1e6" d="M 124.042969 14.964844 L 160.332031 35.160156 L 168.707031 17.054688 Z M 160.578125 35.914062 L 121.769531 14.316406 L 169.535156 16.550781 L 160.578125 35.914062 " fill-opacity="1" fill-rule="nonzero"/><path fill="#5ce1e6" d="M 81.253906 25.308594 L 116.242188 28.046875 L 122.414062 15.042969 Z M 116.570312 28.617188 L 116.386719 28.601562 L 77.902344 25.589844 L 123.394531 14.238281 L 116.570312 28.617188 " fill-opacity="1" fill-rule="nonzero"/><path fill="#5ce1e6" d="M 79.316406 25.96875 L 35.070312 57.5 L 79.84375 52.945312 Z M 33.09375 58.246094 L 79.839844 24.933594 L 80.394531 53.433594 L 80.148438 53.460938 L 33.09375 58.246094 " fill-opacity="1" fill-rule="nonzero"/><path fill="#5ce1e6" d="M 34.140625 58.339844 L 14.640625 94.476562 L 46.675781 72.238281 Z M 13.085938 96.210938 L 34.027344 57.40625 L 47.488281 72.332031 L 13.085938 96.210938 " fill-opacity="1" fill-rule="nonzero"/><path fill="#5ce1e6" d="M 80.621094 53.171875 L 116.136719 73.976562 L 116.136719 28.84375 Z M 116.675781 74.917969 L 116.269531 74.679688 L 79.613281 53.207031 L 79.964844 52.96875 L 116.675781 27.820312 L 116.675781 74.917969 " fill-opacity="1" fill-rule="nonzero"/><path fill="#5ce1e6" d="M 116.675781 28.648438 L 116.675781 73.847656 L 159.851562 35.710938 Z M 116.136719 75.046875 L 116.136719 28.015625 L 161.0625 35.363281 L 160.636719 35.738281 L 116.136719 75.046875 " fill-opacity="1" fill-rule="nonzero"/><path fill="#5ce1e6" d="M 160.824219 35.386719 L 203.425781 51.414062 L 169.207031 17.265625 Z M 205.585938 52.804688 L 160.089844 35.6875 L 160.210938 35.421875 L 169.039062 16.335938 L 205.585938 52.804688 " fill-opacity="1" fill-rule="nonzero"/><path fill="#5ce1e6" d="M 48.039062 72.042969 L 115.351562 74.144531 L 80.117188 53.503906 Z M 117.457031 74.75 L 46.125 72.527344 L 80.121094 52.878906 L 80.253906 52.957031 L 117.457031 74.75 " fill-opacity="1" fill-rule="nonzero"/><path fill="#5ce1e6" d="M 14.285156 95.378906 L 48.238281 129.257812 L 46.824219 72.792969 Z M 48.8125 130.597656 L 13.441406 95.304688 L 47.339844 71.777344 L 47.351562 72.277344 L 48.8125 130.597656 " fill-opacity="1" fill-rule="nonzero"/><path fill="#5ce1e6" d="M 14.242188 96.105469 L 21.296875 146.058594 L 48.089844 129.875 Z M 20.875 146.945312 L 13.484375 94.578125 L 48.960938 129.980469 L 20.875 146.945312 " fill-opacity="1" fill-rule="nonzero"/><path fill="#5ce1e6" d="M 21.433594 146.609375 L 43.28125 193.726562 L 48.214844 130.433594 Z M 43.660156 195.832031 L 20.738281 146.394531 L 20.945312 146.269531 L 48.835938 129.425781 L 48.796875 129.949219 L 43.660156 195.832031 " fill-opacity="1" fill-rule="nonzero"/><path fill="#5ce1e6" d="M 44.128906 194.964844 L 78.078125 222.484375 L 102.832031 187.203125 Z M 78.1875 223.273438 L 77.960938 223.089844 L 42.8125 194.59375 L 103.984375 186.503906 L 103.628906 187.007812 L 78.1875 223.273438 " fill-opacity="1" fill-rule="nonzero"/><path fill="#5ce1e6" d="M 78.585938 222.703125 L 113.875 230.449219 L 103.289062 187.496094 Z M 114.609375 231.160156 L 77.679688 223.054688 L 103.527344 186.210938 L 114.609375 231.160156 " fill-opacity="1" fill-rule="nonzero"/><path fill="#5ce1e6" d="M 83.957031 52.667969 C 83.957031 54.714844 82.292969 56.375 80.242188 56.375 C 78.1875 56.375 76.523438 54.714844 76.523438 52.667969 C 76.523438 50.621094 78.1875 48.957031 80.242188 48.957031 C 82.292969 48.957031 83.957031 50.621094 83.957031 52.667969 " fill-opacity="1" fill-rule="nonzero"/><path fill="#5ce1e6" d="M 82.773438 25.878906 C 82.773438 27.503906 81.457031 28.816406 79.828125 28.816406 C 78.199219 28.816406 76.878906 27.503906 76.878906 25.878906 C 76.878906 24.253906 78.199219 22.9375 79.828125 22.9375 C 81.457031 22.9375 82.773438 24.253906 82.773438 25.878906 " fill-opacity="1" fill-rule="nonzero"/><g clip-path="url(#87c70b45a0)"><path fill="#5ce1e6" d="M 207.464844 51.429688 C 207.464844 53.480469 205.800781 55.140625 203.746094 55.140625 C 201.691406 55.140625 200.027344 53.480469 200.027344 51.429688 C 200.027344 49.382812 201.691406 47.722656 203.746094 47.722656 C 205.800781 47.722656 207.464844 49.382812 207.464844 51.429688 " fill-opacity="1" fill-rule="nonzero"/></g><path fill="#5ce1e6" d="M 50.5 72.449219 C 50.5 74.5 48.835938 76.160156 46.78125 76.160156 C 44.730469 76.160156 43.066406 74.5 43.066406 72.449219 C 43.066406 70.402344 44.730469 68.742188 46.78125 68.742188 C 48.835938 68.742188 50.5 70.402344 50.5 72.449219 " fill-opacity="1" fill-rule="nonzero"/><path fill="#5ce1e6" d="M 119.894531 28.761719 C 119.894531 30.808594 118.230469 32.472656 116.175781 32.472656 C 114.121094 32.472656 112.457031 30.808594 112.457031 28.761719 C 112.457031 26.714844 114.121094 25.054688 116.175781 25.054688 C 118.230469 25.054688 119.894531 26.714844 119.894531 28.761719 " fill-opacity="1" fill-rule="nonzero"/><path fill="#5ce1e6" d="M 164.09375 36.179688 C 164.09375 38.230469 162.429688 39.890625 160.375 39.890625 C 158.320312 39.890625 156.65625 38.230469 156.65625 36.179688 C 156.65625 34.132812 158.320312 32.472656 160.375 32.472656 C 162.429688 32.472656 164.09375 34.132812 164.09375 36.179688 " fill-opacity="1" fill-rule="nonzero"/><path fill="#5ce1e6" d="M 171.996094 17.222656 C 171.996094 18.847656 170.675781 20.164062 169.046875 20.164062 C 167.421875 20.164062 166.101562 18.847656 166.101562 17.222656 C 166.101562 15.597656 167.421875 14.28125 169.046875 14.28125 C 170.675781 14.28125 171.996094 15.597656 171.996094 17.222656 " fill-opacity="1" fill-rule="nonzero"/><path fill="#5ce1e6" d="M 165.800781 5.269531 C 165.800781 6.894531 164.480469 8.210938 162.851562 8.210938 C 161.222656 8.210938 159.90625 6.894531 159.90625 5.269531 C 159.90625 3.644531 161.222656 2.328125 162.851562 2.328125 C 164.480469 2.328125 165.800781 3.644531 165.800781 5.269531 " fill-opacity="1" fill-rule="nonzero"/><path fill="#5ce1e6" d="M 125.675781 14.75 C 125.675781 16.371094 124.359375 17.691406 122.730469 17.691406 C 121.101562 17.691406 119.78125 16.371094 119.78125 14.75 C 119.78125 13.125 121.101562 11.808594 122.730469 11.808594 C 124.359375 11.808594 125.675781 13.125 125.675781 14.75 " fill-opacity="1" fill-rule="nonzero"/><g clip-path="url(#308a5be3e4)"><path fill="#5ce1e6" d="M 94.339844 4.035156 C 94.339844 5.65625 93.019531 6.972656 91.394531 6.972656 C 89.765625 6.972656 88.445312 5.65625 88.445312 4.035156 C 88.445312 2.410156 89.765625 1.089844 91.394531 1.089844 C 93.019531 1.089844 94.339844 2.410156 94.339844 4.035156 " fill-opacity="1" fill-rule="nonzero"/></g><path fill="#5ce1e6" d="M 36.925781 39.066406 C 36.925781 40.691406 35.605469 42.007812 33.976562 42.007812 C 32.347656 42.007812 31.03125 40.691406 31.03125 39.066406 C 31.03125 37.441406 32.347656 36.125 33.976562 36.125 C 35.605469 36.125 36.925781 37.441406 36.925781 39.066406 " fill-opacity="1" fill-rule="nonzero"/><path fill="#5ce1e6" d="M 37.75 58.4375 C 37.75 60.0625 36.429688 61.378906 34.804688 61.378906 C 33.175781 61.378906 31.855469 60.0625 31.855469 58.4375 C 31.855469 56.8125 33.175781 55.496094 34.804688 55.496094 C 36.429688 55.496094 37.75 56.8125 37.75 58.4375 " fill-opacity="1" fill-rule="nonzero"/><path fill="#5ce1e6" d="M 17.511719 95.53125 C 17.511719 97.15625 16.191406 98.472656 14.5625 98.472656 C 12.933594 98.472656 11.617188 97.15625 11.617188 95.53125 C 11.617188 93.90625 12.933594 92.589844 14.5625 92.589844 C 16.191406 92.589844 17.511719 93.90625 17.511719 95.53125 " fill-opacity="1" fill-rule="nonzero"/><path fill="#5ce1e6" d="M 22.878906 184.144531 C 22.878906 185.769531 21.5625 187.085938 19.933594 187.085938 C 18.304688 187.085938 16.984375 185.769531 16.984375 184.144531 C 16.984375 182.519531 18.304688 181.203125 19.933594 181.203125 C 21.5625 181.203125 22.878906 182.519531 22.878906 184.144531 " fill-opacity="1" fill-rule="nonzero"/><path fill="#5ce1e6" d="M 55.511719 222.0625 C 55.511719 223.6875 54.191406 225.003906 52.566406 225.003906 C 50.9375 225.003906 49.617188 223.6875 49.617188 222.0625 C 49.617188 220.4375 50.9375 219.121094 52.566406 219.121094 C 54.191406 219.121094 55.511719 220.4375 55.511719 222.0625 " fill-opacity="1" fill-rule="nonzero"/><path fill="#5ce1e6" d="M 92.21875 238.136719 C 92.21875 239.761719 90.898438 241.078125 89.269531 241.078125 C 87.644531 241.078125 86.324219 239.761719 86.324219 238.136719 C 86.324219 236.511719 87.644531 235.195312 89.269531 235.195312 C 90.898438 235.195312 92.21875 236.511719 92.21875 238.136719 " fill-opacity="1" fill-rule="nonzero"/><g clip-path="url(#6d9eef6841)"><path fill="#5ce1e6" d="M 136.003906 241.023438 C 136.003906 242.648438 134.683594 243.964844 133.054688 243.964844 C 131.429688 243.964844 130.109375 242.648438 130.109375 241.023438 C 130.109375 239.398438 131.429688 238.082031 133.054688 238.082031 C 134.683594 238.082031 136.003906 239.398438 136.003906 241.023438 " fill-opacity="1" fill-rule="nonzero"/></g><path fill="#5ce1e6" d="M 193.003906 222.476562 C 193.003906 224.101562 191.6875 225.417969 190.058594 225.417969 C 188.429688 225.417969 187.109375 224.101562 187.109375 222.476562 C 187.109375 220.851562 188.429688 219.535156 190.058594 219.535156 C 191.6875 219.535156 193.003906 220.851562 193.003906 222.476562 " fill-opacity="1" fill-rule="nonzero"/><path fill="#5ce1e6" d="M 206.222656 30.410156 C 206.222656 32.035156 204.90625 33.351562 203.277344 33.351562 C 201.648438 33.351562 200.328125 32.035156 200.328125 30.410156 C 200.328125 28.785156 201.648438 27.46875 203.277344 27.46875 C 204.90625 27.46875 206.222656 28.785156 206.222656 30.410156 " fill-opacity="1" fill-rule="nonzero"/><path fill="#5ce1e6" d="M 81.121094 221.652344 C 81.121094 223.277344 79.800781 224.59375 78.175781 224.59375 C 76.546875 224.59375 75.226562 223.277344 75.226562 221.652344 C 75.226562 220.027344 76.546875 218.710938 78.175781 218.710938 C 79.800781 218.710938 81.121094 220.027344 81.121094 221.652344 " fill-opacity="1" fill-rule="nonzero"/><path fill="#5ce1e6" d="M 10.488281 82.34375 C 10.488281 83.96875 9.167969 85.285156 7.542969 85.285156 C 5.914062 85.285156 4.59375 83.96875 4.59375 82.34375 C 4.59375 80.71875 5.914062 79.402344 7.542969 79.402344 C 9.167969 79.402344 10.488281 80.71875 10.488281 82.34375 " fill-opacity="1" fill-rule="nonzero"/><g clip-path="url(#6107334316)"><path fill="#5ce1e6" d="M 6.359375 136.335938 C 6.359375 137.960938 5.039062 139.277344 3.410156 139.277344 C 1.78125 139.277344 0.464844 137.960938 0.464844 136.335938 C 0.464844 134.710938 1.78125 133.394531 3.410156 133.394531 C 5.039062 133.394531 6.359375 134.710938 6.359375 136.335938 " fill-opacity="1" fill-rule="nonzero"/></g><path fill="#5ce1e6" d="M 106.675781 186.617188 C 106.675781 188.667969 105.011719 190.328125 102.957031 190.328125 C 100.90625 190.328125 99.242188 188.667969 99.242188 186.617188 C 99.242188 184.570312 100.90625 182.910156 102.957031 182.910156 C 105.011719 182.910156 106.675781 184.570312 106.675781 186.617188 " fill-opacity="1" fill-rule="nonzero"/><path fill="#5ce1e6" d="M 118.242188 229.894531 C 118.242188 231.941406 116.578125 233.601562 114.523438 233.601562 C 112.472656 233.601562 110.808594 231.941406 110.808594 229.894531 C 110.808594 227.847656 112.472656 226.183594 114.523438 226.183594 C 116.578125 226.183594 118.242188 227.847656 118.242188 229.894531 " fill-opacity="1" fill-rule="nonzero"/><path fill="#5ce1e6" d="M 158.308594 219.179688 C 158.308594 221.226562 156.644531 222.890625 154.589844 222.890625 C 152.539062 222.890625 150.871094 221.226562 150.871094 219.179688 C 150.871094 217.128906 152.539062 215.46875 154.589844 215.46875 C 156.644531 215.46875 158.308594 217.128906 158.308594 219.179688 " fill-opacity="1" fill-rule="nonzero"/><path fill="#5ce1e6" d="M 24.0625 145.816406 C 24.0625 147.863281 22.398438 149.523438 20.347656 149.523438 C 18.292969 149.523438 16.628906 147.863281 16.628906 145.816406 C 16.628906 143.765625 18.292969 142.105469 20.347656 142.105469 C 22.398438 142.105469 24.0625 143.765625 24.0625 145.816406 " fill-opacity="1" fill-rule="nonzero"/><path fill="#5ce1e6" d="M 46.78125 194.449219 C 46.78125 196.496094 45.117188 198.15625 43.066406 198.15625 C 41.011719 198.15625 39.347656 196.496094 39.347656 194.449219 C 39.347656 192.402344 41.011719 190.738281 43.066406 190.738281 C 45.117188 190.738281 46.78125 192.402344 46.78125 194.449219 " fill-opacity="1" fill-rule="nonzero"/><path fill="#5ce1e6" d="M 120.605469 74.511719 C 120.605469 77.410156 118.253906 79.757812 115.351562 79.757812 C 112.445312 79.757812 110.09375 77.410156 110.09375 74.511719 C 110.09375 71.613281 112.445312 69.265625 115.351562 69.265625 C 118.253906 69.265625 120.605469 71.613281 120.605469 74.511719 " fill-opacity="1" fill-rule="nonzero"/><path fill="#5ce1e6" d="M 53.277344 130.152344 C 53.277344 133.050781 50.925781 135.398438 48.019531 135.398438 C 45.117188 135.398438 42.765625 133.050781 42.765625 130.152344 C 42.765625 127.253906 45.117188 124.90625 48.019531 124.90625 C 50.925781 124.90625 53.277344 127.253906 53.277344 130.152344 " fill-opacity="1" fill-rule="nonzero"/></g></g></g><g mask="url(#a0ae594e2d)"><g transform="matrix(1, 0, 0, 1, 389, 177)"><g clip-path="url(#424900bdee)"><path fill="#5ce1e6" d="M 91.519531 4.054688 L 54.820312 36.890625 L 123.324219 11.390625 Z M 52.324219 38.398438 L 91.363281 3.464844 L 91.5 3.5 L 125.199219 11.269531 L 124.355469 11.585938 L 52.324219 38.398438 " fill-opacity="1" fill-rule="nonzero"/><path fill="#5ce1e6" d="M 125.3125 11.453125 L 173.140625 30.296875 L 161.96875 6.21875 Z M 174.203125 31.296875 L 173.570312 31.046875 L 123.210938 11.207031 L 162.289062 5.628906 L 174.203125 31.296875 " fill-opacity="1" fill-rule="nonzero"/><path fill="#5ce1e6" d="M 174.363281 31.058594 L 220.566406 72.683594 L 203.066406 30.707031 Z M 221.988281 74.695312 L 172.976562 30.535156 L 203.425781 30.164062 L 203.496094 30.332031 L 221.988281 74.695312 " fill-opacity="1" fill-rule="nonzero"/><path fill="#5ce1e6" d="M 221.640625 74.003906 L 226.589844 92.726562 L 242.351562 123.191406 L 234.03125 75.378906 Z M 243.484375 126.5625 L 226.085938 92.921875 L 220.914062 73.378906 L 234.492188 74.886719 L 234.527344 75.085938 L 243.484375 126.5625 " fill-opacity="1" fill-rule="nonzero"/><path fill="#5ce1e6" d="M 218.390625 156.578125 L 232.660156 171.1875 L 242.40625 125.96875 Z M 232.976562 172.285156 L 217.671875 156.617188 L 217.820312 156.429688 L 243.429688 123.785156 L 243.183594 124.933594 L 232.976562 172.285156 " fill-opacity="1" fill-rule="nonzero"/><path fill="#5ce1e6" d="M 218.113281 157.070312 L 189.09375 221.371094 L 232.449219 171.746094 Z M 187.101562 224.472656 L 217.949219 156.125 L 233.1875 171.726562 L 233.023438 171.914062 L 187.101562 224.472656 " fill-opacity="1" fill-rule="nonzero"/><path fill="#5ce1e6" d="M 216.988281 158.253906 L 162.003906 223.355469 L 187.921875 222.65625 Z M 160.8125 223.929688 L 161.203125 223.46875 L 219.074219 154.941406 L 188.273438 223.1875 L 188.105469 223.191406 L 160.8125 223.929688 " fill-opacity="1" fill-rule="nonzero"/><path fill="#5ce1e6" d="M 105.429688 227.808594 L 132.542969 241.355469 L 160.347656 223.988281 Z M 132.570312 241.976562 L 103.417969 227.40625 L 162.472656 223.300781 L 132.570312 241.976562 " fill-opacity="1" fill-rule="nonzero"/><path fill="#5ce1e6" d="M 75.191406 216.285156 L 89.351562 237.683594 L 103.855469 227.671875 Z M 89.203125 238.441406 L 89.050781 238.210938 L 73.789062 215.144531 L 104.996094 227.542969 L 89.203125 238.441406 " fill-opacity="1" fill-rule="nonzero"/><path fill="#5ce1e6" d="M 40.195312 197.644531 L 53.34375 221.164062 L 73.765625 215.628906 Z M 53.078125 221.796875 L 38.820312 196.292969 L 75.21875 215.796875 L 53.078125 221.796875 " fill-opacity="1" fill-rule="nonzero"/><path fill="#5ce1e6" d="M 19.609375 184.578125 L 38.972656 196.328125 L 24.449219 158.316406 Z M 40.039062 197.609375 L 19.011719 184.847656 L 24.269531 156.324219 L 40.039062 197.609375 " fill-opacity="1" fill-rule="nonzero"/><path fill="#5ce1e6" d="M 3.773438 135.648438 L 23.992188 156.546875 L 18.0625 108.816406 Z M 24.726562 158.089844 L 3.109375 135.738281 L 3.203125 135.566406 L 18.390625 107.054688 L 24.726562 158.089844 " fill-opacity="1" fill-rule="nonzero"/><path fill="#5ce1e6" d="M 7.363281 82.390625 L 18.101562 106.972656 L 25.03125 62.308594 Z M 18.351562 108.894531 L 6.730469 82.292969 L 6.84375 82.164062 L 25.851562 60.5625 L 18.351562 108.894531 " fill-opacity="1" fill-rule="nonzero"/><path fill="#5ce1e6" d="M 33.929688 38.628906 L 26.035156 60.578125 L 52.800781 37.945312 Z M 24.84375 62.292969 L 33.542969 38.101562 L 54.34375 37.34375 L 24.84375 62.292969 " fill-opacity="1" fill-rule="nonzero"/><path fill="#5ce1e6" d="M 124.566406 11.742188 L 126.3125 33.035156 L 172.414062 30.59375 Z M 125.816406 33.605469 L 123.957031 10.917969 L 174.925781 31 L 125.816406 33.605469 " fill-opacity="1" fill-rule="nonzero"/><path fill="#5ce1e6" d="M 54.203125 37.878906 L 77.058594 60.019531 L 124.886719 33.660156 Z M 76.96875 60.6875 L 76.828125 60.546875 L 52.941406 37.410156 L 53.554688 37.375 L 127.242188 32.980469 L 76.96875 60.6875 " fill-opacity="1" fill-rule="nonzero"/><path fill="#5ce1e6" d="M 25.671875 61.699219 L 18.605469 107.285156 L 76.230469 60.640625 Z M 17.851562 108.585938 L 25.207031 61.167969 L 77.800781 60.066406 L 17.851562 108.585938 " fill-opacity="1" fill-rule="nonzero"/><path fill="#5ce1e6" d="M 18.542969 108.277344 L 24.507812 156.328125 L 43.8125 113.539062 Z M 24.207031 158.308594 L 17.914062 107.59375 L 44.582031 113.144531 L 44.445312 113.453125 L 24.207031 158.308594 " fill-opacity="1" fill-rule="nonzero"/><path fill="#5ce1e6" d="M 77 60.894531 L 45.042969 112.492188 L 89.640625 84.410156 Z M 43.351562 114.195312 L 77.03125 59.8125 L 90.359375 84.597656 L 90.144531 84.734375 L 43.351562 114.195312 " fill-opacity="1" fill-rule="nonzero"/><path fill="#5ce1e6" d="M 90.5 84.261719 L 148.011719 87.457031 L 126.003906 33.878906 Z M 148.839844 88.042969 L 89.496094 84.746094 L 89.777344 84.351562 L 126.128906 32.761719 L 148.839844 88.042969 " fill-opacity="1" fill-rule="nonzero"/><path fill="#5ce1e6" d="M 127.046875 33.539062 L 170.203125 56.683594 L 173.363281 31.082031 Z M 170.644531 57.535156 L 170.296875 57.347656 L 125.085938 33.101562 L 173.980469 30.507812 L 173.9375 30.828125 L 170.644531 57.535156 " fill-opacity="1" fill-rule="nonzero"/><path fill="#5ce1e6" d="M 170.53125 57.429688 L 149.042969 87.355469 L 220.199219 73.625 Z M 147.808594 88.144531 L 170.320312 56.792969 L 222.355469 73.757812 L 147.808594 88.144531 " fill-opacity="1" fill-rule="nonzero"/><path fill="#5ce1e6" d="M 192.75 128.082031 L 217.785156 155.921875 L 220.960938 74.867188 Z M 218.277344 157.273438 L 192.097656 128.160156 L 192.1875 127.992188 L 221.59375 72.515625 L 221.546875 73.703125 L 218.277344 157.273438 " fill-opacity="1" fill-rule="nonzero"/><path fill="#5ce1e6" d="M 148.738281 88.40625 L 152.992188 152.523438 L 191.980469 128.082031 Z M 152.511719 153.464844 L 152.484375 153.011719 L 148.109375 87.09375 L 192.871094 128.160156 L 192.570312 128.351562 L 152.511719 153.464844 " fill-opacity="1" fill-rule="nonzero"/><path fill="#5ce1e6" d="M 90.359375 84.796875 L 105.269531 139.445312 L 147.875 87.988281 Z M 105.023438 140.589844 L 104.882812 140.089844 L 89.640625 84.214844 L 90.011719 84.234375 L 148.976562 87.507812 L 105.023438 140.589844 " fill-opacity="1" fill-rule="nonzero"/><path fill="#5ce1e6" d="M 44.625 113.824219 L 59.507812 162.699219 L 104.511719 140.035156 Z M 59.179688 163.472656 L 59.085938 163.167969 L 43.765625 112.859375 L 105.78125 140 L 59.179688 163.472656 " fill-opacity="1" fill-rule="nonzero"/><path fill="#5ce1e6" d="M 105.640625 140.433594 L 127.914062 187.78125 L 152.308594 153.152344 Z M 127.820312 188.855469 L 127.621094 188.433594 L 104.652344 139.601562 L 105.21875 139.757812 L 153.195312 152.832031 L 152.976562 153.148438 L 127.820312 188.855469 " fill-opacity="1" fill-rule="nonzero"/><path fill="#5ce1e6" d="M 153.042969 153.132812 L 161.527344 222.398438 L 191.9375 128.746094 Z M 161.289062 224.886719 L 152.464844 152.855469 L 152.609375 152.765625 L 192.914062 127.496094 L 192.683594 128.203125 L 161.289062 224.886719 " fill-opacity="1" fill-rule="nonzero"/><path fill="#5ce1e6" d="M 128.214844 188.292969 L 161.042969 222.863281 L 152.570312 153.722656 Z M 161.777344 224.425781 L 127.519531 188.34375 L 127.644531 188.164062 L 152.933594 152.261719 L 153.023438 152.960938 L 161.777344 224.425781 " fill-opacity="1" fill-rule="nonzero"/><path fill="#5ce1e6" d="M 60.058594 163.640625 L 104.40625 227.109375 L 127.46875 188.460938 Z M 104.445312 228.105469 L 104.203125 227.765625 L 58.628906 162.535156 L 128.265625 188.175781 L 128.101562 188.457031 L 104.445312 228.105469 " fill-opacity="1" fill-rule="nonzero"/><path fill="#5ce1e6" d="M 24.78125 157.664062 L 39.558594 196.347656 L 58.910156 163.289062 Z M 39.457031 197.59375 L 23.9375 156.976562 L 24.402344 157.054688 L 59.777344 162.882812 L 59.578125 163.222656 L 39.457031 197.59375 " fill-opacity="1" fill-rule="nonzero"/><path fill="#5ce1e6" d="M 41.800781 197.160156 C 41.800781 198.253906 40.914062 199.140625 39.820312 199.140625 C 38.722656 199.140625 37.835938 198.253906 37.835938 197.160156 C 37.835938 196.0625 38.722656 195.175781 39.820312 195.175781 C 40.914062 195.175781 41.800781 196.0625 41.800781 197.160156 " fill-opacity="1" fill-rule="nonzero"/><path fill="#5ce1e6" d="M 163.105469 223.757812 C 163.105469 224.851562 162.21875 225.738281 161.121094 225.738281 C 160.027344 225.738281 159.136719 224.851562 159.136719 223.757812 C 159.136719 222.660156 160.027344 221.773438 161.121094 221.773438 C 162.21875 221.773438 163.105469 222.660156 163.105469 223.757812 " fill-opacity="1" fill-rule="nonzero"/><path fill="#5ce1e6" d="M 129.25 188.191406 C 129.25 189.28125 128.363281 190.171875 127.265625 190.171875 C 126.171875 190.171875 125.28125 189.28125 125.28125 188.191406 C 125.28125 187.09375 126.171875 186.207031 127.265625 186.207031 C 128.363281 186.207031 129.25 187.09375 129.25 188.191406 " fill-opacity="1" fill-rule="nonzero"/><path fill="#5ce1e6" d="M 220.042969 156.953125 C 220.042969 158.046875 219.15625 158.933594 218.058594 158.933594 C 216.964844 158.933594 216.078125 158.046875 216.078125 156.953125 C 216.078125 155.855469 216.964844 154.96875 218.058594 154.96875 C 219.15625 154.96875 220.042969 155.855469 220.042969 156.953125 " fill-opacity="1" fill-rule="nonzero"/><path fill="#5ce1e6" d="M 45.824219 113.34375 C 45.824219 114.4375 44.9375 115.324219 43.839844 115.324219 C 42.746094 115.324219 41.859375 114.4375 41.859375 113.34375 C 41.859375 112.25 42.746094 111.363281 43.839844 111.363281 C 44.9375 111.363281 45.824219 112.25 45.824219 113.34375 " fill-opacity="1" fill-rule="nonzero"/><path fill="#5ce1e6" d="M 56.035156 37.570312 C 56.035156 38.664062 55.148438 39.550781 54.054688 39.550781 C 52.960938 39.550781 52.070312 38.664062 52.070312 37.570312 C 52.070312 36.476562 52.960938 35.585938 54.054688 35.585938 C 55.148438 35.585938 56.035156 36.476562 56.035156 37.570312 " fill-opacity="1" fill-rule="nonzero"/><path fill="#5ce1e6" d="M 175.664062 31.074219 C 175.664062 32.171875 174.777344 33.058594 173.683594 33.058594 C 172.589844 33.058594 171.699219 32.171875 171.699219 31.074219 C 171.699219 29.980469 172.589844 29.09375 173.683594 29.09375 C 174.777344 29.09375 175.664062 29.980469 175.664062 31.074219 " fill-opacity="1" fill-rule="nonzero"/><path fill="#5ce1e6" d="M 126.898438 11.28125 C 126.898438 12.375 126.011719 13.261719 124.917969 13.261719 C 123.820312 13.261719 122.933594 12.375 122.933594 11.28125 C 122.933594 10.1875 123.820312 9.300781 124.917969 9.300781 C 126.011719 9.300781 126.898438 10.1875 126.898438 11.28125 " fill-opacity="1" fill-rule="nonzero"/><path fill="#5ce1e6" d="M 19.832031 108.085938 C 19.832031 109.179688 18.945312 110.066406 17.847656 110.066406 C 16.753906 110.066406 15.867188 109.179688 15.867188 108.085938 C 15.867188 106.992188 16.753906 106.105469 17.847656 106.105469 C 18.945312 106.105469 19.832031 106.992188 19.832031 108.085938 " fill-opacity="1" fill-rule="nonzero"/><path fill="#5ce1e6" d="M 27.566406 61.386719 C 27.566406 62.480469 26.679688 63.367188 25.585938 63.367188 C 24.488281 63.367188 23.601562 62.480469 23.601562 61.386719 C 23.601562 60.289062 24.488281 59.402344 25.585938 59.402344 C 26.679688 59.402344 27.566406 60.289062 27.566406 61.386719 " fill-opacity="1" fill-rule="nonzero"/><path fill="#5ce1e6" d="M 61.605469 163.628906 C 61.605469 164.726562 60.71875 165.613281 59.625 165.613281 C 58.527344 165.613281 57.640625 164.726562 57.640625 163.628906 C 57.640625 162.535156 58.527344 161.648438 59.625 161.648438 C 60.71875 161.648438 61.605469 162.535156 61.605469 163.628906 " fill-opacity="1" fill-rule="nonzero"/><path fill="#5ce1e6" d="M 26.019531 157.261719 C 26.019531 158.355469 25.132812 159.242188 24.039062 159.242188 C 22.941406 159.242188 22.054688 158.355469 22.054688 157.261719 C 22.054688 156.167969 22.941406 155.28125 24.039062 155.28125 C 25.132812 155.28125 26.019531 156.167969 26.019531 157.261719 " fill-opacity="1" fill-rule="nonzero"/><path fill="#5ce1e6" d="M 107.09375 226.847656 C 107.09375 227.941406 106.207031 228.832031 105.113281 228.832031 C 104.019531 228.832031 103.128906 227.941406 103.128906 226.847656 C 103.128906 225.753906 104.019531 224.867188 105.113281 224.867188 C 106.207031 224.867188 107.09375 225.753906 107.09375 226.847656 " fill-opacity="1" fill-rule="nonzero"/><path fill="#5ce1e6" d="M 155.09375 152.621094 C 155.09375 154.246094 153.773438 155.566406 152.148438 155.566406 C 150.523438 155.566406 149.203125 154.246094 149.203125 152.621094 C 149.203125 150.996094 150.523438 149.679688 152.148438 149.679688 C 153.773438 149.679688 155.09375 150.996094 155.09375 152.621094 " fill-opacity="1" fill-rule="nonzero"/><path fill="#5ce1e6" d="M 107.746094 140.558594 C 107.746094 142.183594 106.429688 143.503906 104.804688 143.503906 C 103.175781 143.503906 101.859375 142.183594 101.859375 140.558594 C 101.859375 138.933594 103.175781 137.617188 104.804688 137.617188 C 106.429688 137.617188 107.746094 138.933594 107.746094 140.558594 " fill-opacity="1" fill-rule="nonzero"/><path fill="#5ce1e6" d="M 173.351562 56.125 C 173.351562 57.75 172.03125 59.070312 170.40625 59.070312 C 168.78125 59.070312 167.460938 57.75 167.460938 56.125 C 167.460938 54.5 168.78125 53.183594 170.40625 53.183594 C 172.03125 53.183594 173.351562 54.5 173.351562 56.125 " fill-opacity="1" fill-rule="nonzero"/><path fill="#5ce1e6" d="M 92.585938 84.582031 C 92.585938 86.207031 91.265625 87.523438 89.640625 87.523438 C 88.011719 87.523438 86.695312 86.207031 86.695312 84.582031 C 86.695312 82.957031 88.011719 81.636719 89.640625 81.636719 C 91.265625 81.636719 92.585938 82.957031 92.585938 84.582031 " fill-opacity="1" fill-rule="nonzero"/><path fill="#5ce1e6" d="M 79.898438 60.457031 C 79.898438 62.082031 78.578125 63.398438 76.953125 63.398438 C 75.328125 63.398438 74.007812 62.082031 74.007812 60.457031 C 74.007812 58.832031 75.328125 57.515625 76.953125 57.515625 C 78.578125 57.515625 79.898438 58.832031 79.898438 60.457031 " fill-opacity="1" fill-rule="nonzero"/><path fill="#5ce1e6" d="M 194.703125 129.117188 C 194.703125 130.742188 193.382812 132.058594 191.757812 132.058594 C 190.132812 132.058594 188.8125 130.742188 188.8125 129.117188 C 188.8125 127.492188 190.132812 126.171875 191.757812 126.171875 C 193.382812 126.171875 194.703125 127.492188 194.703125 129.117188 " fill-opacity="1" fill-rule="nonzero"/><path fill="#5ce1e6" d="M 223.789062 73.445312 C 223.789062 75.070312 222.46875 76.390625 220.847656 76.390625 C 219.21875 76.390625 217.902344 75.070312 217.902344 73.445312 C 217.902344 71.820312 219.21875 70.503906 220.847656 70.503906 C 222.46875 70.503906 223.789062 71.820312 223.789062 73.445312 " fill-opacity="1" fill-rule="nonzero"/><path fill="#5ce1e6" d="M 151.070312 87.363281 C 151.070312 88.988281 149.75 90.304688 148.125 90.304688 C 146.5 90.304688 145.179688 88.988281 145.179688 87.363281 C 145.179688 85.738281 146.5 84.421875 148.125 84.421875 C 149.75 84.421875 151.070312 85.738281 151.070312 87.363281 " fill-opacity="1" fill-rule="nonzero"/><path fill="#5ce1e6" d="M 128.171875 33.859375 C 128.171875 35.484375 126.851562 36.800781 125.226562 36.800781 C 123.601562 36.800781 122.28125 35.484375 122.28125 33.859375 C 122.28125 32.234375 123.601562 30.914062 125.226562 30.914062 C 126.851562 30.914062 128.171875 32.234375 128.171875 33.859375 " fill-opacity="1" fill-rule="nonzero"/><path fill="#c1ff72" d="M 93.191406 4.085938 L 122.476562 14.292969 L 159.929688 6.128906 Z M 122.441406 14.855469 L 122.367188 14.828125 L 89.691406 3.4375 L 164.328125 5.722656 L 122.441406 14.855469 " fill-opacity="1" fill-rule="nonzero"/><path fill="#c1ff72" d="M 168.808594 16.519531 L 200.226562 28.949219 L 162.914062 6.707031 Z M 203.144531 30.6875 L 168.4375 16.957031 L 161.34375 5.140625 L 203.382812 30.203125 L 203.144531 30.6875 " fill-opacity="1" fill-rule="nonzero"/><path fill="#c1ff72" d="M 90.699219 4.519531 L 35.632812 37.542969 L 79 25.160156 Z M 31.835938 39.1875 L 92.183594 3 L 79.359375 25.617188 L 79.253906 25.648438 L 31.835938 39.1875 " fill-opacity="1" fill-rule="nonzero"/><path fill="#c1ff72" d="M 204.234375 51.925781 L 233.0625 73.878906 L 203.546875 31.34375 Z M 235.460938 76.386719 L 203.699219 52.199219 L 203.695312 52.074219 L 202.945312 29.527344 L 203.46875 30.28125 L 235.460938 76.386719 " fill-opacity="1" fill-rule="nonzero"/><path fill="#c1ff72" d="M 33.46875 39.332031 L 8.265625 80.859375 L 33.46875 57.710938 Z M 5.828125 83.828125 L 34.007812 37.398438 L 34.007812 57.949219 L 33.917969 58.03125 L 5.828125 83.828125 " fill-opacity="1" fill-rule="nonzero"/><path fill="#c1ff72" d="M 228.066406 87.402344 L 242.214844 122.417969 L 234.132812 75.957031 Z M 243.621094 127.339844 L 227.472656 87.371094 L 227.53125 87.261719 L 234.394531 74.308594 L 243.621094 127.339844 " fill-opacity="1" fill-rule="nonzero"/><path fill="#c1ff72" d="M 7.25 83.351562 L 3.914062 132.679688 L 13.253906 95.351562 Z M 3.703125 135.757812 L 3.171875 135.671875 L 6.84375 81.332031 L 13.828125 95.289062 L 3.703125 135.757812 " fill-opacity="1" fill-rule="nonzero"/><path fill="#c1ff72" d="M 231.652344 146.566406 L 232.972656 169.730469 L 242.246094 126.710938 Z M 232.664062 173.746094 L 231.101562 146.445312 L 231.136719 146.378906 L 243.589844 123.042969 L 232.664062 173.746094 " fill-opacity="1" fill-rule="nonzero"/><path fill="#c1ff72" d="M 3.925781 136.3125 L 19.097656 183.175781 L 20.476562 146.652344 Z M 19.523438 186.25 L 2.957031 135.070312 L 21.027344 146.359375 L 21.023438 146.515625 L 19.523438 186.25 " fill-opacity="1" fill-rule="nonzero"/><path fill="#c1ff72" d="M 212.085938 177.015625 L 189.359375 221.070312 L 232.054688 172.199219 Z M 186.835938 224.777344 L 211.71875 176.550781 L 233.582031 171.273438 L 186.835938 224.777344 " fill-opacity="1" fill-rule="nonzero"/><path fill="#c1ff72" d="M 20.359375 185.453125 L 52.464844 220.273438 L 42.902344 195.011719 Z M 53.957031 222.691406 L 18.261719 183.976562 L 43.324219 194.605469 L 43.367188 194.710938 L 53.957031 222.691406 " fill-opacity="1" fill-rule="nonzero"/><path fill="#c1ff72" d="M 153.582031 220.320312 L 133.523438 241.054688 L 186.773438 223.082031 Z M 131.585938 242.28125 L 153.371094 219.761719 L 153.496094 219.769531 L 189.421875 222.761719 L 131.585938 242.28125 " fill-opacity="1" fill-rule="nonzero"/><path fill="#c1ff72" d="M 54.628906 221.835938 L 88.40625 237.363281 L 77.597656 223.183594 Z M 90.152344 238.761719 L 51.792969 221.128906 L 77.878906 222.660156 L 77.953125 222.761719 L 90.152344 238.761719 " fill-opacity="1" fill-rule="nonzero"/><path fill="#c1ff72" d="M 90.742188 237.914062 L 131.375 241.296875 L 113.765625 231.144531 Z M 133.738281 242.039062 L 87.8125 238.210938 L 113.835938 230.5625 L 113.9375 230.617188 L 133.738281 242.039062 " fill-opacity="1" fill-rule="nonzero"/><path fill="#c1ff72" d="M 123.597656 14.898438 L 159.84375 35.105469 L 168.207031 16.988281 Z M 160.089844 35.859375 L 121.324219 14.25 L 169.035156 16.488281 L 160.089844 35.859375 " fill-opacity="1" fill-rule="nonzero"/><path fill="#c1ff72" d="M 80.855469 25.25 L 115.800781 27.988281 L 121.96875 14.976562 Z M 116.132812 28.558594 L 115.945312 28.542969 L 77.503906 25.53125 L 122.949219 14.171875 L 116.132812 28.558594 " fill-opacity="1" fill-rule="nonzero"/><path fill="#c1ff72" d="M 78.917969 25.90625 L 34.722656 57.460938 L 79.445312 52.902344 Z M 32.75 58.203125 L 79.4375 24.871094 L 79.992188 53.390625 L 79.746094 53.414062 L 32.75 58.203125 " fill-opacity="1" fill-rule="nonzero"/><path fill="#c1ff72" d="M 33.792969 58.296875 L 14.3125 94.449219 L 46.3125 72.203125 Z M 12.765625 96.1875 L 33.679688 57.363281 L 47.125 72.296875 L 12.765625 96.1875 " fill-opacity="1" fill-rule="nonzero"/><path fill="#c1ff72" d="M 80.222656 53.128906 L 115.695312 73.941406 L 115.695312 28.789062 Z M 116.234375 74.886719 L 115.828125 74.644531 L 79.214844 53.164062 L 79.566406 52.921875 L 116.234375 27.757812 L 116.234375 74.886719 " fill-opacity="1" fill-rule="nonzero"/><path fill="#c1ff72" d="M 116.234375 28.589844 L 116.234375 73.8125 L 159.359375 35.65625 Z M 115.695312 75.011719 L 115.695312 27.953125 L 160.570312 35.308594 L 160.144531 35.683594 L 115.695312 75.011719 " fill-opacity="1" fill-rule="nonzero"/><path fill="#c1ff72" d="M 160.332031 35.332031 L 202.890625 51.371094 L 168.707031 17.203125 Z M 205.042969 52.757812 L 159.597656 35.632812 L 159.71875 35.371094 L 168.539062 16.273438 L 168.816406 16.546875 L 205.042969 52.757812 " fill-opacity="1" fill-rule="nonzero"/><path fill="#c1ff72" d="M 116.472656 74.324219 L 176.875 98.472656 L 159.820312 35.972656 Z M 177.683594 99.375 L 177.179688 99.175781 L 115.457031 74.5 L 115.789062 74.210938 L 160.113281 34.992188 L 160.226562 35.410156 L 177.683594 99.375 " fill-opacity="1" fill-rule="nonzero"/><path fill="#c1ff72" d="M 116.285156 74.832031 L 122.679688 131.101562 L 176.667969 98.972656 Z M 122.234375 131.992188 L 115.648438 73.992188 L 177.886719 98.875 L 122.234375 131.992188 " fill-opacity="1" fill-rule="nonzero"/><path fill="#c1ff72" d="M 47.675781 72.007812 L 114.914062 74.109375 L 79.71875 53.457031 Z M 117.015625 74.714844 L 45.765625 72.492188 L 79.71875 52.832031 L 79.855469 52.914062 L 117.015625 74.714844 " fill-opacity="1" fill-rule="nonzero"/><path fill="#c1ff72" d="M 48.898438 129.671875 L 122.15625 131.269531 L 115.753906 74.9375 Z M 122.761719 131.824219 L 47.425781 130.175781 L 47.992188 129.714844 L 116.179688 73.886719 L 116.234375 74.382812 L 122.761719 131.824219 " fill-opacity="1" fill-rule="nonzero"/><path fill="#c1ff72" d="M 13.960938 95.355469 L 47.875 129.253906 L 46.464844 72.757812 Z M 48.449219 130.59375 L 13.117188 95.28125 L 46.976562 71.742188 L 46.992188 72.242188 L 48.449219 130.59375 " fill-opacity="1" fill-rule="nonzero"/><path fill="#c1ff72" d="M 13.917969 96.082031 L 20.964844 146.0625 L 47.726562 129.871094 Z M 20.542969 146.949219 L 13.15625 94.558594 L 48.601562 129.976562 L 20.542969 146.949219 " fill-opacity="1" fill-rule="nonzero"/><path fill="#c1ff72" d="M 21.101562 146.613281 L 42.925781 193.753906 L 47.851562 130.425781 Z M 43.300781 195.859375 L 20.40625 146.398438 L 20.613281 146.273438 L 48.472656 129.417969 L 48.433594 129.945312 L 43.300781 195.859375 " fill-opacity="1" fill-rule="nonzero"/><path fill="#c1ff72" d="M 48.8125 130.207031 L 102.871094 186.375 L 122.078125 131.808594 Z M 103.089844 187.378906 L 47.515625 129.640625 L 48.167969 129.652344 L 122.839844 131.285156 L 122.714844 131.636719 L 103.089844 187.378906 " fill-opacity="1" fill-rule="nonzero"/><path fill="#c1ff72" d="M 123.023438 131.523438 L 187.746094 163.332031 L 177.078125 99.359375 Z M 188.449219 164.28125 L 187.976562 164.050781 L 121.890625 131.566406 L 122.320312 131.3125 L 177.480469 98.488281 L 177.542969 98.878906 L 188.449219 164.28125 " fill-opacity="1" fill-rule="nonzero"/><path fill="#c1ff72" d="M 122.613281 131.921875 L 103.410156 186.480469 L 187.335938 163.730469 Z M 102.558594 187.273438 L 122.304688 131.167969 L 122.578125 131.304688 L 188.859375 163.878906 L 102.558594 187.273438 " fill-opacity="1" fill-rule="nonzero"/><path fill="#c1ff72" d="M 43.769531 194.992188 L 77.683594 222.527344 L 102.40625 187.226562 Z M 77.789062 223.316406 L 77.566406 223.132812 L 42.457031 194.621094 L 103.558594 186.527344 L 103.207031 187.03125 L 77.789062 223.316406 " fill-opacity="1" fill-rule="nonzero"/><path fill="#c1ff72" d="M 78.191406 222.746094 L 113.4375 230.496094 L 102.863281 187.519531 Z M 114.167969 231.210938 L 77.28125 223.101562 L 103.101562 186.234375 L 114.167969 231.210938 " fill-opacity="1" fill-rule="nonzero"/><path fill="#c1ff72" d="M 186.878906 165.273438 L 114.824219 230.292969 L 153.300781 219.808594 Z M 112.777344 231.410156 L 113.621094 230.652344 L 189.316406 162.339844 L 153.648438 220.269531 L 153.546875 220.300781 L 112.777344 231.410156 " fill-opacity="1" fill-rule="nonzero"/><path fill="#c1ff72" d="M 188.191406 164.167969 L 154.4375 218.988281 L 211.398438 176.816406 Z M 152.507812 221.089844 L 153.246094 219.898438 L 188.003906 163.445312 L 188.226562 163.570312 L 212.402344 176.75 L 212.0625 177.003906 L 152.507812 221.089844 " fill-opacity="1" fill-rule="nonzero"/><path fill="#c1ff72" d="M 188.730469 163.84375 L 211.808594 176.425781 L 230.691406 147.070312 Z M 211.992188 177.140625 L 187.464844 163.769531 L 187.996094 163.554688 L 232.0625 145.941406 L 211.992188 177.140625 " fill-opacity="1" fill-rule="nonzero"/><path fill="#c1ff72" d="M 177.585938 99.128906 L 188.230469 162.964844 L 227.261719 87.78125 Z M 187.964844 164.652344 L 176.96875 98.714844 L 177.21875 98.660156 L 228.277344 86.996094 L 228.007812 87.511719 L 187.964844 164.652344 " fill-opacity="1" fill-rule="nonzero"/><path fill="#c1ff72" d="M 203.988281 52.578125 L 177.816406 98.523438 L 227.324219 87.214844 Z M 176.738281 99.324219 L 177.042969 98.789062 L 203.945312 51.550781 L 228.214844 87.566406 L 176.738281 99.324219 " fill-opacity="1" fill-rule="nonzero"/><path fill="#c1ff72" d="M 227.558594 88.382812 L 188.671875 163.285156 L 231.09375 146.324219 Z M 187.523438 164.328125 L 227.980469 86.398438 L 231.65625 146.683594 L 231.476562 146.757812 L 187.523438 164.328125 " fill-opacity="1" fill-rule="nonzero"/><path fill="#c1ff72" d="M 237.867188 75.714844 C 237.867188 77.761719 236.203125 79.425781 234.152344 79.425781 C 232.101562 79.425781 230.4375 77.761719 230.4375 75.714844 C 230.4375 73.664062 232.101562 72.003906 234.152344 72.003906 C 236.203125 72.003906 237.867188 73.664062 237.867188 75.714844 " fill-opacity="1" fill-rule="nonzero"/><path fill="#c1ff72" d="M 180.511719 98.394531 C 180.511719 100.445312 178.851562 102.105469 176.800781 102.105469 C 174.75 102.105469 173.089844 100.445312 173.089844 98.394531 C 173.089844 96.34375 174.75 94.683594 176.800781 94.683594 C 178.851562 94.683594 180.511719 96.34375 180.511719 98.394531 " fill-opacity="1" fill-rule="nonzero"/><path fill="#c1ff72" d="M 206.917969 51.382812 C 206.917969 53.433594 205.257812 55.097656 203.207031 55.097656 C 201.15625 55.097656 199.492188 53.433594 199.492188 51.382812 C 199.492188 49.335938 201.15625 47.671875 203.207031 47.671875 C 205.257812 47.671875 206.917969 49.335938 206.917969 51.382812 " fill-opacity="1" fill-rule="nonzero"/><path fill="#c1ff72" d="M 83.554688 52.621094 C 83.554688 54.671875 81.890625 56.332031 79.84375 56.332031 C 77.789062 56.332031 76.125 54.671875 76.125 52.621094 C 76.125 50.570312 77.789062 48.910156 79.84375 48.910156 C 81.890625 48.910156 83.554688 50.570312 83.554688 52.621094 " fill-opacity="1" fill-rule="nonzero"/><path fill="#c1ff72" d="M 50.132812 72.414062 C 50.132812 74.464844 48.472656 76.125 46.421875 76.125 C 44.371094 76.125 42.707031 74.464844 42.707031 72.414062 C 42.707031 70.363281 44.371094 68.703125 46.421875 68.703125 C 48.472656 68.703125 50.132812 70.363281 50.132812 72.414062 " fill-opacity="1" fill-rule="nonzero"/><path fill="#c1ff72" d="M 119.449219 28.703125 C 119.449219 30.753906 117.789062 32.414062 115.734375 32.414062 C 113.6875 32.414062 112.023438 30.753906 112.023438 28.703125 C 112.023438 26.652344 113.6875 24.992188 115.734375 24.992188 C 117.789062 24.992188 119.449219 26.652344 119.449219 28.703125 " fill-opacity="1" fill-rule="nonzero"/><path fill="#c1ff72" d="M 163.597656 36.125 C 163.597656 38.175781 161.933594 39.839844 159.886719 39.839844 C 157.832031 39.839844 156.171875 38.175781 156.171875 36.125 C 156.171875 34.078125 157.832031 32.414062 159.886719 32.414062 C 161.933594 32.414062 163.597656 34.078125 163.597656 36.125 " fill-opacity="1" fill-rule="nonzero"/><path fill="#c1ff72" d="M 171.492188 17.15625 C 171.492188 18.78125 170.175781 20.101562 168.546875 20.101562 C 166.921875 20.101562 165.605469 18.78125 165.605469 17.15625 C 165.605469 15.53125 166.921875 14.214844 168.546875 14.214844 C 170.175781 14.214844 171.492188 15.53125 171.492188 17.15625 " fill-opacity="1" fill-rule="nonzero"/><path fill="#c1ff72" d="M 165.304688 5.199219 C 165.304688 6.824219 163.984375 8.140625 162.359375 8.140625 C 160.734375 8.140625 159.414062 6.824219 159.414062 5.199219 C 159.414062 3.574219 160.734375 2.257812 162.359375 2.257812 C 163.984375 2.257812 165.304688 3.574219 165.304688 5.199219 " fill-opacity="1" fill-rule="nonzero"/><path fill="#c1ff72" d="M 125.226562 14.683594 C 125.226562 16.308594 123.910156 17.625 122.28125 17.625 C 120.65625 17.625 119.335938 16.308594 119.335938 14.683594 C 119.335938 13.058594 120.65625 11.742188 122.28125 11.742188 C 123.910156 11.742188 125.226562 13.058594 125.226562 14.683594 " fill-opacity="1" fill-rule="nonzero"/><g clip-path="url(#08a69a7a76)"><path fill="#c1ff72" d="M 93.925781 3.960938 C 93.925781 5.585938 92.605469 6.902344 90.980469 6.902344 C 89.355469 6.902344 88.035156 5.585938 88.035156 3.960938 C 88.035156 2.335938 89.355469 1.019531 90.980469 1.019531 C 92.605469 1.019531 93.925781 2.335938 93.925781 3.960938 " fill-opacity="1" fill-rule="nonzero"/></g><path fill="#c1ff72" d="M 36.574219 39.015625 C 36.574219 40.636719 35.257812 41.953125 33.628906 41.953125 C 32.003906 41.953125 30.6875 40.636719 30.6875 39.015625 C 30.6875 37.390625 32.003906 36.070312 33.628906 36.070312 C 35.257812 36.070312 36.574219 37.390625 36.574219 39.015625 " fill-opacity="1" fill-rule="nonzero"/><path fill="#c1ff72" d="M 37.402344 58.394531 C 37.402344 60.019531 36.082031 61.335938 34.453125 61.335938 C 32.832031 61.335938 31.511719 60.019531 31.511719 58.394531 C 31.511719 56.769531 32.832031 55.453125 34.453125 55.453125 C 36.082031 55.453125 37.402344 56.769531 37.402344 58.394531 " fill-opacity="1" fill-rule="nonzero"/><path fill="#c1ff72" d="M 17.183594 95.507812 C 17.183594 97.132812 15.863281 98.449219 14.238281 98.449219 C 12.613281 98.449219 11.292969 97.132812 11.292969 95.507812 C 11.292969 93.882812 12.613281 92.566406 14.238281 92.566406 C 15.863281 92.566406 17.183594 93.882812 17.183594 95.507812 " fill-opacity="1" fill-rule="nonzero"/><path fill="#c1ff72" d="M 22.546875 184.167969 C 22.546875 185.792969 21.230469 187.109375 19.601562 187.109375 C 17.976562 187.109375 16.660156 185.792969 16.660156 184.167969 C 16.660156 182.542969 17.976562 181.226562 19.601562 181.226562 C 21.230469 181.226562 22.546875 182.542969 22.546875 184.167969 " fill-opacity="1" fill-rule="nonzero"/><path fill="#c1ff72" d="M 55.140625 222.105469 C 55.140625 223.730469 53.824219 225.050781 52.199219 225.050781 C 50.570312 225.050781 49.253906 223.730469 49.253906 222.105469 C 49.253906 220.480469 50.570312 219.164062 52.199219 219.164062 C 53.824219 219.164062 55.140625 220.480469 55.140625 222.105469 " fill-opacity="1" fill-rule="nonzero"/><path fill="#c1ff72" d="M 91.808594 238.191406 C 91.808594 239.816406 90.488281 241.132812 88.863281 241.132812 C 87.238281 241.132812 85.917969 239.816406 85.917969 238.191406 C 85.917969 236.5625 87.238281 235.246094 88.863281 235.246094 C 90.488281 235.246094 91.808594 236.5625 91.808594 238.191406 " fill-opacity="1" fill-rule="nonzero"/><g clip-path="url(#aedef2e75c)"><path fill="#c1ff72" d="M 135.542969 241.078125 C 135.542969 242.703125 134.222656 244.019531 132.597656 244.019531 C 130.972656 244.019531 129.652344 242.703125 129.652344 241.078125 C 129.652344 239.449219 130.972656 238.132812 132.597656 238.132812 C 134.222656 238.132812 135.542969 239.449219 135.542969 241.078125 " fill-opacity="1" fill-rule="nonzero"/></g><path fill="#c1ff72" d="M 192.480469 222.519531 C 192.480469 224.144531 191.160156 225.460938 189.535156 225.460938 C 187.910156 225.460938 186.589844 224.144531 186.589844 222.519531 C 186.589844 220.894531 187.910156 219.578125 189.535156 219.578125 C 191.160156 219.578125 192.480469 220.894531 192.480469 222.519531 " fill-opacity="1" fill-rule="nonzero"/><path fill="#c1ff72" d="M 234.976562 171.382812 C 234.976562 173.007812 233.65625 174.328125 232.03125 174.328125 C 230.40625 174.328125 229.089844 173.007812 229.089844 171.382812 C 229.089844 169.757812 230.40625 168.441406 232.03125 168.441406 C 233.65625 168.441406 234.976562 169.757812 234.976562 171.382812 " fill-opacity="1" fill-rule="nonzero"/><path fill="#c1ff72" d="M 234.621094 145.816406 C 234.621094 147.445312 233.304688 148.761719 231.675781 148.761719 C 230.050781 148.761719 228.730469 147.445312 228.730469 145.816406 C 228.730469 144.191406 230.050781 142.875 231.675781 142.875 C 233.304688 142.875 234.621094 144.191406 234.621094 145.816406 " fill-opacity="1" fill-rule="nonzero"/><g clip-path="url(#90d78a671c)"><path fill="#c1ff72" d="M 246.117188 124.789062 C 246.117188 126.414062 244.796875 127.730469 243.171875 127.730469 C 241.546875 127.730469 240.226562 126.414062 240.226562 124.789062 C 240.226562 123.164062 241.546875 121.84375 243.171875 121.84375 C 244.796875 121.84375 246.117188 123.164062 246.117188 124.789062 " fill-opacity="1" fill-rule="nonzero"/></g><path fill="#c1ff72" d="M 230.4375 86.4375 C 230.4375 88.0625 229.121094 89.378906 227.496094 89.378906 C 225.867188 89.378906 224.550781 88.0625 224.550781 86.4375 C 224.550781 84.808594 225.867188 83.492188 227.496094 83.492188 C 229.121094 83.492188 230.4375 84.808594 230.4375 86.4375 " fill-opacity="1" fill-rule="nonzero"/><path fill="#c1ff72" d="M 205.683594 30.351562 C 205.683594 31.980469 204.363281 33.296875 202.738281 33.296875 C 201.113281 33.296875 199.792969 31.980469 199.792969 30.351562 C 199.792969 28.726562 201.113281 27.410156 202.738281 27.410156 C 204.363281 27.410156 205.683594 28.726562 205.683594 30.351562 " fill-opacity="1" fill-rule="nonzero"/><path fill="#c1ff72" d="M 80.722656 221.695312 C 80.722656 223.320312 79.402344 224.636719 77.777344 224.636719 C 76.152344 224.636719 74.832031 223.320312 74.832031 221.695312 C 74.832031 220.070312 76.152344 218.753906 77.777344 218.753906 C 79.402344 218.753906 80.722656 220.070312 80.722656 221.695312 " fill-opacity="1" fill-rule="nonzero"/><path fill="#c1ff72" d="M 82.371094 25.816406 C 82.371094 27.441406 81.054688 28.757812 79.429688 28.757812 C 77.800781 28.757812 76.484375 27.441406 76.484375 25.816406 C 76.484375 24.191406 77.800781 22.875 79.429688 22.875 C 81.054688 22.875 82.371094 24.191406 82.371094 25.816406 " fill-opacity="1" fill-rule="nonzero"/><path fill="#c1ff72" d="M 10.167969 82.3125 C 10.167969 83.9375 8.851562 85.253906 7.222656 85.253906 C 5.597656 85.253906 4.28125 83.9375 4.28125 82.3125 C 4.28125 80.6875 5.597656 79.371094 7.222656 79.371094 C 8.851562 79.371094 10.167969 80.6875 10.167969 82.3125 " fill-opacity="1" fill-rule="nonzero"/><g clip-path="url(#d87708c01a)"><path fill="#c1ff72" d="M 6.042969 136.332031 C 6.042969 137.957031 4.722656 139.277344 3.097656 139.277344 C 1.472656 139.277344 0.152344 137.957031 0.152344 136.332031 C 0.152344 134.707031 1.472656 133.390625 3.097656 133.390625 C 4.722656 133.390625 6.042969 134.707031 6.042969 136.332031 " fill-opacity="1" fill-rule="nonzero"/></g><path fill="#c1ff72" d="M 106.246094 186.640625 C 106.246094 188.691406 104.585938 190.355469 102.535156 190.355469 C 100.484375 190.355469 98.820312 188.691406 98.820312 186.640625 C 98.820312 184.59375 100.484375 182.929688 102.535156 182.929688 C 104.585938 182.929688 106.246094 184.59375 106.246094 186.640625 " fill-opacity="1" fill-rule="nonzero"/><path fill="#c1ff72" d="M 117.800781 229.941406 C 117.800781 231.992188 116.136719 233.652344 114.085938 233.652344 C 112.035156 233.652344 110.371094 231.992188 110.371094 229.941406 C 110.371094 227.890625 112.035156 226.230469 114.085938 226.230469 C 116.136719 226.230469 117.800781 227.890625 117.800781 229.941406 " fill-opacity="1" fill-rule="nonzero"/><path fill="#c1ff72" d="M 157.820312 219.21875 C 157.820312 221.269531 156.160156 222.929688 154.109375 222.929688 C 152.058594 222.929688 150.394531 221.269531 150.394531 219.21875 C 150.394531 217.171875 152.058594 215.511719 154.109375 215.511719 C 156.160156 215.511719 157.820312 217.171875 157.820312 219.21875 " fill-opacity="1" fill-rule="nonzero"/><path fill="#c1ff72" d="M 215.996094 176.332031 C 215.996094 178.382812 214.335938 180.046875 212.285156 180.046875 C 210.230469 180.046875 208.570312 178.382812 208.570312 176.332031 C 208.570312 174.285156 210.230469 172.621094 212.285156 172.621094 C 214.335938 172.621094 215.996094 174.285156 215.996094 176.332031 " fill-opacity="1" fill-rule="nonzero"/><path fill="#c1ff72" d="M 23.726562 145.816406 C 23.726562 147.867188 22.066406 149.53125 20.015625 149.53125 C 17.964844 149.53125 16.300781 147.867188 16.300781 145.816406 C 16.300781 143.769531 17.964844 142.105469 20.015625 142.105469 C 22.066406 142.105469 23.726562 143.769531 23.726562 145.816406 " fill-opacity="1" fill-rule="nonzero"/><path fill="#c1ff72" d="M 46.421875 194.476562 C 46.421875 196.527344 44.757812 198.1875 42.707031 198.1875 C 40.65625 198.1875 38.996094 196.527344 38.996094 194.476562 C 38.996094 192.429688 40.65625 190.769531 42.707031 190.769531 C 44.757812 190.769531 46.421875 192.429688 46.421875 194.476562 " fill-opacity="1" fill-rule="nonzero"/><path fill="#c1ff72" d="M 127.175781 130.972656 C 127.175781 133.871094 124.828125 136.222656 121.925781 136.222656 C 119.027344 136.222656 116.675781 133.871094 116.675781 130.972656 C 116.675781 128.074219 119.027344 125.722656 121.925781 125.722656 C 124.828125 125.722656 127.175781 128.074219 127.175781 130.972656 " fill-opacity="1" fill-rule="nonzero"/><path fill="#c1ff72" d="M 120.164062 74.476562 C 120.164062 77.375 117.8125 79.726562 114.910156 79.726562 C 112.011719 79.726562 109.660156 77.375 109.660156 74.476562 C 109.660156 71.578125 112.011719 69.226562 114.910156 69.226562 C 117.8125 69.226562 120.164062 71.578125 120.164062 74.476562 " fill-opacity="1" fill-rule="nonzero"/><path fill="#c1ff72" d="M 193.191406 163.550781 C 193.191406 166.449219 190.839844 168.800781 187.941406 168.800781 C 185.039062 168.800781 182.691406 166.449219 182.691406 163.550781 C 182.691406 160.652344 185.039062 158.300781 187.941406 158.300781 C 190.839844 158.300781 193.191406 160.652344 193.191406 163.550781 " fill-opacity="1" fill-rule="nonzero"/><path fill="#c1ff72" d="M 52.910156 130.148438 C 52.910156 133.046875 50.558594 135.394531 47.660156 135.394531 C 44.757812 135.394531 42.40625 133.046875 42.40625 130.148438 C 42.40625 127.25 44.757812 124.898438 47.660156 124.898438 C 50.558594 124.898438 52.910156 127.25 52.910156 130.148438 " fill-opacity="1" fill-rule="nonzero"/></g></g></g><g mask="url(#59f58c5c9f)"><g transform="matrix(1, 0, 0, 1, 745, 178)"><g clip-path="url(#8353d36472)"><path fill="#c1ff72" d="M 116.5625 240.167969 L 153.300781 207.347656 L 84.722656 232.835938 Z M 155.800781 205.84375 L 116.714844 240.757812 L 116.578125 240.726562 L 82.84375 232.957031 L 83.6875 232.644531 L 155.800781 205.84375 " fill-opacity="1" fill-rule="nonzero"/><path fill="#c1ff72" d="M 82.730469 232.773438 L 34.847656 213.941406 L 46.03125 238.003906 Z M 33.785156 212.941406 L 34.417969 213.191406 L 84.832031 233.019531 L 45.707031 238.597656 L 33.785156 212.941406 " fill-opacity="1" fill-rule="nonzero"/><path fill="#c1ff72" d="M 102.632812 16.53125 L 75.492188 2.988281 L 47.65625 20.351562 Z M 75.460938 2.371094 L 104.648438 16.933594 L 45.527344 21.039062 L 75.460938 2.371094 " fill-opacity="1" fill-rule="nonzero"/><path fill="#c1ff72" d="M 132.90625 28.050781 L 118.730469 6.664062 L 104.210938 16.667969 Z M 118.878906 5.90625 L 119.03125 6.136719 L 134.308594 29.191406 L 103.070312 16.796875 L 118.878906 5.90625 " fill-opacity="1" fill-rule="nonzero"/><path fill="#c1ff72" d="M 167.945312 46.679688 L 154.777344 23.171875 L 134.335938 28.707031 Z M 155.046875 22.542969 L 169.320312 48.03125 L 132.878906 28.539062 L 155.046875 22.542969 " fill-opacity="1" fill-rule="nonzero"/><path fill="#c1ff72" d="M 188.550781 59.738281 L 169.167969 47.996094 L 183.703125 85.988281 Z M 168.097656 46.714844 L 189.152344 59.472656 L 183.886719 87.984375 L 168.097656 46.714844 " fill-opacity="1" fill-rule="nonzero"/><path fill="#c1ff72" d="M 204.40625 108.648438 L 184.164062 87.753906 L 190.097656 135.460938 Z M 183.429688 86.21875 L 205.070312 108.554688 L 204.976562 108.730469 L 189.769531 137.222656 L 183.429688 86.21875 " fill-opacity="1" fill-rule="nonzero"/><path fill="#c1ff72" d="M 200.808594 161.871094 L 190.0625 137.304688 L 183.125 181.945312 Z M 189.808594 135.382812 L 201.445312 161.972656 L 201.332031 162.101562 L 182.304688 183.691406 L 189.808594 135.382812 " fill-opacity="1" fill-rule="nonzero"/><path fill="#c1ff72" d="M 174.21875 205.613281 L 182.117188 183.675781 L 155.324219 206.296875 Z M 183.308594 181.960938 L 174.601562 206.140625 L 153.777344 206.894531 L 183.308594 181.960938 " fill-opacity="1" fill-rule="nonzero"/><path fill="#c1ff72" d="M 83.476562 232.484375 L 81.726562 211.203125 L 35.574219 213.644531 Z M 82.226562 210.636719 L 84.089844 233.308594 L 33.058594 213.238281 L 82.226562 210.636719 " fill-opacity="1" fill-rule="nonzero"/><path fill="#c1ff72" d="M 153.921875 206.363281 L 131.035156 184.234375 L 83.15625 210.578125 Z M 131.128906 183.566406 L 131.269531 183.707031 L 155.179688 206.832031 L 154.566406 206.867188 L 80.796875 211.261719 L 131.128906 183.566406 " fill-opacity="1" fill-rule="nonzero"/><path fill="#c1ff72" d="M 182.480469 182.554688 L 189.558594 136.992188 L 131.867188 183.613281 Z M 190.3125 135.691406 L 182.945312 183.085938 L 130.296875 184.1875 L 190.3125 135.691406 " fill-opacity="1" fill-rule="nonzero"/><path fill="#c1ff72" d="M 189.621094 136 L 183.644531 87.976562 L 164.324219 130.742188 Z M 183.945312 85.996094 L 190.25 136.683594 L 163.550781 131.132812 L 163.691406 130.828125 L 183.945312 85.996094 " fill-opacity="1" fill-rule="nonzero"/><path fill="#c1ff72" d="M 131.097656 183.359375 L 163.089844 131.789062 L 118.441406 159.855469 Z M 164.785156 130.085938 L 131.0625 184.441406 L 117.722656 159.667969 L 117.9375 159.53125 L 164.785156 130.085938 " fill-opacity="1" fill-rule="nonzero"/><path fill="#c1ff72" d="M 80.996094 210.703125 L 37.785156 187.566406 L 34.625 213.15625 Z M 37.34375 186.71875 L 37.695312 186.902344 L 82.957031 211.140625 L 34.007812 213.730469 L 34.046875 213.40625 L 37.34375 186.71875 " fill-opacity="1" fill-rule="nonzero"/><path fill="#c1ff72" d="M 183.375 86.644531 L 168.578125 47.980469 L 149.207031 81.019531 Z M 168.683594 46.734375 L 184.21875 87.328125 L 183.753906 87.25 L 148.339844 81.425781 L 148.539062 81.085938 L 168.683594 46.734375 " fill-opacity="1" fill-rule="nonzero"/><path fill="#c1ff72" d="M 166.332031 47.167969 C 166.332031 46.074219 167.222656 45.1875 168.320312 45.1875 C 169.414062 45.1875 170.304688 46.074219 170.304688 47.167969 C 170.304688 48.261719 169.414062 49.148438 168.320312 49.148438 C 167.222656 49.148438 166.332031 48.261719 166.332031 47.167969 " fill-opacity="1" fill-rule="nonzero"/><path fill="#c1ff72" d="M 44.894531 20.582031 C 44.894531 19.488281 45.785156 18.601562 46.878906 18.601562 C 47.976562 18.601562 48.863281 19.488281 48.863281 20.582031 C 48.863281 21.675781 47.976562 22.5625 46.878906 22.5625 C 45.785156 22.5625 44.894531 21.675781 44.894531 20.582031 " fill-opacity="1" fill-rule="nonzero"/><path fill="#c1ff72" d="M 162.304688 130.9375 C 162.304688 129.84375 163.195312 128.957031 164.292969 128.957031 C 165.390625 128.957031 166.277344 129.84375 166.277344 130.9375 C 166.277344 132.03125 165.390625 132.917969 164.292969 132.917969 C 163.195312 132.917969 162.304688 132.03125 162.304688 130.9375 " fill-opacity="1" fill-rule="nonzero"/><path fill="#c1ff72" d="M 152.085938 206.671875 C 152.085938 205.578125 152.972656 204.691406 154.070312 204.691406 C 155.164062 204.691406 156.054688 205.578125 156.054688 206.671875 C 156.054688 207.765625 155.164062 208.652344 154.070312 208.652344 C 152.972656 208.652344 152.085938 207.765625 152.085938 206.671875 " fill-opacity="1" fill-rule="nonzero"/><path fill="#c1ff72" d="M 32.320312 213.164062 C 32.320312 212.070312 33.207031 211.183594 34.304688 211.183594 C 35.398438 211.183594 36.289062 212.070312 36.289062 213.164062 C 36.289062 214.257812 35.398438 215.144531 34.304688 215.144531 C 33.207031 215.144531 32.320312 214.257812 32.320312 213.164062 " fill-opacity="1" fill-rule="nonzero"/><path fill="#c1ff72" d="M 81.140625 232.949219 C 81.140625 231.851562 82.027344 230.964844 83.125 230.964844 C 84.222656 230.964844 85.109375 231.851562 85.109375 232.949219 C 85.109375 234.042969 84.222656 234.925781 83.125 234.925781 C 82.027344 234.925781 81.140625 234.042969 81.140625 232.949219 " fill-opacity="1" fill-rule="nonzero"/><path fill="#c1ff72" d="M 188.332031 136.191406 C 188.332031 135.097656 189.21875 134.210938 190.316406 134.210938 C 191.410156 134.210938 192.300781 135.097656 192.300781 136.191406 C 192.300781 137.289062 191.410156 138.171875 190.316406 138.171875 C 189.21875 138.171875 188.332031 137.289062 188.332031 136.191406 " fill-opacity="1" fill-rule="nonzero"/><path fill="#c1ff72" d="M 180.585938 182.871094 C 180.585938 181.777344 181.472656 180.890625 182.570312 180.890625 C 183.667969 180.890625 184.554688 181.777344 184.554688 182.871094 C 184.554688 183.964844 183.667969 184.851562 182.570312 184.851562 C 181.472656 184.851562 180.585938 183.964844 180.585938 182.871094 " fill-opacity="1" fill-rule="nonzero"/><path fill="#c1ff72" d="M 146.507812 80.675781 C 146.507812 79.582031 147.394531 78.699219 148.492188 78.699219 C 149.589844 78.699219 150.476562 79.582031 150.476562 80.675781 C 150.476562 81.773438 149.589844 82.660156 148.492188 82.660156 C 147.394531 82.660156 146.507812 81.773438 146.507812 80.675781 " fill-opacity="1" fill-rule="nonzero"/><path fill="#c1ff72" d="M 182.132812 87.042969 C 182.132812 85.949219 183.023438 85.0625 184.117188 85.0625 C 185.214844 85.0625 186.101562 85.949219 186.101562 87.042969 C 186.101562 88.136719 185.214844 89.023438 184.117188 89.023438 C 183.023438 89.023438 182.132812 88.136719 182.132812 87.042969 " fill-opacity="1" fill-rule="nonzero"/><path fill="#c1ff72" d="M 100.964844 17.492188 C 100.964844 16.398438 101.855469 15.511719 102.953125 15.511719 C 104.050781 15.511719 104.9375 16.398438 104.9375 17.492188 C 104.9375 18.585938 104.050781 19.472656 102.953125 19.472656 C 101.855469 19.472656 100.964844 18.585938 100.964844 17.492188 " fill-opacity="1" fill-rule="nonzero"/><path fill="#c1ff72" d="M 34.636719 188.125 C 34.636719 186.5 35.957031 185.183594 37.585938 185.183594 C 39.210938 185.183594 40.53125 186.5 40.53125 188.125 C 40.53125 189.75 39.210938 191.066406 37.585938 191.066406 C 35.957031 191.066406 34.636719 189.75 34.636719 188.125 " fill-opacity="1" fill-rule="nonzero"/><path fill="#c1ff72" d="M 128.195312 183.796875 C 128.195312 182.171875 129.515625 180.855469 131.144531 180.855469 C 132.773438 180.855469 134.089844 182.171875 134.089844 183.796875 C 134.089844 185.421875 132.773438 186.738281 131.144531 186.738281 C 129.515625 186.738281 128.195312 185.421875 128.195312 183.796875 " fill-opacity="1" fill-rule="nonzero"/><path fill="#c1ff72" d="M 79.867188 210.378906 C 79.867188 208.757812 81.1875 207.441406 82.816406 207.441406 C 84.445312 207.441406 85.761719 208.757812 85.761719 210.378906 C 85.761719 212.003906 84.445312 213.320312 82.816406 213.320312 C 81.1875 213.320312 79.867188 212.003906 79.867188 210.378906 " fill-opacity="1" fill-rule="nonzero"/><path fill="#c1ff72" d="M 114.886719 240.136719 L 85.570312 229.933594 L 48.074219 238.097656 Z M 85.601562 229.375 L 85.675781 229.398438 L 118.390625 240.785156 L 43.667969 238.503906 L 85.601562 229.375 " fill-opacity="1" fill-rule="nonzero"/><path fill="#c1ff72" d="M 39.183594 227.710938 L 7.730469 215.285156 L 45.082031 237.515625 Z M 4.808594 213.550781 L 39.554688 227.277344 L 46.65625 239.085938 L 4.570312 214.035156 L 4.808594 213.550781 " fill-opacity="1" fill-rule="nonzero"/><path fill="#c1ff72" d="M 117.382812 239.703125 L 172.507812 206.699219 L 129.097656 219.074219 Z M 176.308594 205.054688 L 115.894531 241.222656 L 128.734375 218.617188 L 128.839844 218.585938 L 176.308594 205.054688 " fill-opacity="1" fill-rule="nonzero"/><path fill="#c1ff72" d="M 174.679688 204.910156 L 199.910156 163.40625 L 174.679688 186.539062 Z M 202.347656 160.4375 L 174.140625 206.84375 L 174.140625 186.304688 L 174.226562 186.222656 L 202.347656 160.4375 " fill-opacity="1" fill-rule="nonzero"/><path fill="#c1ff72" d="M 200.925781 160.914062 L 204.261719 111.613281 L 194.917969 148.921875 Z M 204.476562 108.535156 L 205.007812 108.621094 L 201.332031 162.929688 L 194.339844 148.984375 L 204.476562 108.535156 " fill-opacity="1" fill-rule="nonzero"/><path fill="#c1ff72" d="M 204.253906 107.980469 L 189.0625 61.140625 L 187.683594 97.648438 Z M 188.636719 58.070312 L 205.226562 109.222656 L 187.128906 97.941406 L 187.136719 97.785156 L 188.636719 58.070312 " fill-opacity="1" fill-rule="nonzero"/><path fill="#c1ff72" d="M 187.800781 58.867188 L 155.660156 24.0625 L 165.234375 49.3125 Z M 154.164062 21.648438 L 189.902344 60.34375 L 164.808594 49.71875 L 164.769531 49.613281 L 154.164062 21.648438 " fill-opacity="1" fill-rule="nonzero"/><path fill="#c1ff72" d="M 54.429688 24.019531 L 74.507812 3.292969 L 21.195312 21.253906 Z M 76.445312 2.070312 L 54.640625 24.578125 L 54.511719 24.566406 L 18.546875 21.578125 L 76.445312 2.070312 " fill-opacity="1" fill-rule="nonzero"/><path fill="#c1ff72" d="M 153.492188 22.503906 L 119.679688 6.984375 L 130.5 21.15625 Z M 117.929688 5.585938 L 156.332031 23.210938 L 130.21875 21.679688 L 130.144531 21.578125 L 117.929688 5.585938 " fill-opacity="1" fill-rule="nonzero"/><path fill="#c1ff72" d="M 117.335938 6.433594 L 76.660156 3.050781 L 94.289062 13.199219 Z M 74.292969 2.3125 L 120.273438 6.136719 L 94.21875 13.78125 L 94.117188 13.726562 L 74.292969 2.3125 " fill-opacity="1" fill-rule="nonzero"/><path fill="#c1ff72" d="M 84.449219 229.332031 L 48.160156 209.136719 L 39.785156 227.242188 Z M 47.914062 208.378906 L 86.722656 229.976562 L 38.957031 227.742188 L 47.914062 208.378906 " fill-opacity="1" fill-rule="nonzero"/><path fill="#c1ff72" d="M 127.238281 218.984375 L 92.25 216.246094 L 86.078125 229.253906 Z M 91.921875 215.679688 L 92.109375 215.695312 L 130.589844 218.707031 L 85.097656 230.054688 L 91.921875 215.679688 " fill-opacity="1" fill-rule="nonzero"/><path fill="#c1ff72" d="M 129.175781 218.328125 L 173.421875 186.792969 L 128.648438 191.347656 Z M 175.398438 186.050781 L 128.65625 219.363281 L 128.101562 190.859375 L 128.34375 190.835938 L 175.398438 186.050781 " fill-opacity="1" fill-rule="nonzero"/><path fill="#c1ff72" d="M 174.351562 185.953125 L 193.851562 149.820312 L 161.816406 172.058594 Z M 195.40625 148.085938 L 174.464844 186.886719 L 161.003906 171.964844 L 195.40625 148.085938 " fill-opacity="1" fill-rule="nonzero"/><path fill="#c1ff72" d="M 127.871094 191.121094 L 92.355469 170.320312 L 92.355469 215.449219 Z M 91.816406 169.375 L 92.222656 169.613281 L 128.878906 191.085938 L 128.527344 191.328125 L 91.816406 216.476562 L 91.816406 169.375 " fill-opacity="1" fill-rule="nonzero"/><path fill="#c1ff72" d="M 91.816406 215.644531 L 91.816406 170.449219 L 48.640625 208.582031 Z M 92.355469 169.25 L 92.355469 216.28125 L 47.429688 208.933594 L 47.855469 208.554688 L 92.355469 169.25 " fill-opacity="1" fill-rule="nonzero"/><path fill="#c1ff72" d="M 47.667969 208.910156 L 5.066406 192.878906 L 39.285156 227.027344 Z M 2.90625 191.492188 L 48.402344 208.605469 L 48.28125 208.871094 L 39.453125 227.957031 L 2.90625 191.492188 " fill-opacity="1" fill-rule="nonzero"/><path fill="#c1ff72" d="M 160.453125 172.25 L 93.140625 170.152344 L 128.375 190.792969 Z M 91.035156 169.546875 L 162.367188 171.769531 L 128.371094 191.417969 L 128.238281 191.339844 L 91.035156 169.546875 " fill-opacity="1" fill-rule="nonzero"/><path fill="#c1ff72" d="M 194.207031 148.914062 L 160.253906 115.035156 L 161.667969 171.5 Z M 159.679688 113.699219 L 195.050781 148.992188 L 161.152344 172.519531 L 161.140625 172.019531 L 159.679688 113.699219 " fill-opacity="1" fill-rule="nonzero"/><path fill="#c1ff72" d="M 194.25 148.191406 L 187.195312 98.238281 L 160.402344 114.417969 Z M 187.617188 97.351562 L 195.007812 149.714844 L 159.53125 114.3125 L 187.617188 97.351562 " fill-opacity="1" fill-rule="nonzero"/><path fill="#c1ff72" d="M 187.058594 97.6875 L 165.210938 50.570312 L 160.277344 113.863281 Z M 164.832031 48.464844 L 187.753906 97.898438 L 187.546875 98.027344 L 159.65625 114.871094 L 159.695312 114.347656 L 164.832031 48.464844 " fill-opacity="1" fill-rule="nonzero"/><path fill="#c1ff72" d="M 164.363281 49.332031 L 130.414062 21.808594 L 105.660156 57.09375 Z M 130.304688 21.023438 L 130.53125 21.207031 L 165.679688 49.703125 L 104.507812 57.792969 L 104.863281 57.289062 L 130.304688 21.023438 " fill-opacity="1" fill-rule="nonzero"/><path fill="#c1ff72" d="M 129.90625 21.59375 L 94.617188 13.847656 L 105.203125 56.800781 Z M 93.886719 13.132812 L 130.8125 21.242188 L 104.964844 58.085938 L 93.886719 13.132812 " fill-opacity="1" fill-rule="nonzero"/><path fill="#c1ff72" d="M 124.535156 191.628906 C 124.535156 189.578125 126.199219 187.917969 128.25 187.917969 C 130.304688 187.917969 131.96875 189.578125 131.96875 191.628906 C 131.96875 193.675781 130.304688 195.335938 128.25 195.335938 C 126.199219 195.335938 124.535156 193.675781 124.535156 191.628906 " fill-opacity="1" fill-rule="nonzero"/><path fill="#c1ff72" d="M 125.71875 218.417969 C 125.71875 216.792969 127.039062 215.476562 128.664062 215.476562 C 130.292969 215.476562 131.613281 216.792969 131.613281 218.417969 C 131.613281 220.042969 130.292969 221.359375 128.664062 221.359375 C 127.039062 221.359375 125.71875 220.042969 125.71875 218.417969 " fill-opacity="1" fill-rule="nonzero"/><g clip-path="url(#6127c7d6bc)"><path fill="#c1ff72" d="M 1.027344 192.863281 C 1.027344 190.816406 2.691406 189.15625 4.746094 189.15625 C 6.800781 189.15625 8.464844 190.816406 8.464844 192.863281 C 8.464844 194.914062 6.800781 196.574219 4.746094 196.574219 C 2.691406 196.574219 1.027344 194.914062 1.027344 192.863281 " fill-opacity="1" fill-rule="nonzero"/></g><path fill="#c1ff72" d="M 157.992188 171.84375 C 157.992188 169.796875 159.65625 168.136719 161.710938 168.136719 C 163.761719 168.136719 165.425781 169.796875 165.425781 171.84375 C 165.425781 173.894531 163.761719 175.554688 161.710938 175.554688 C 159.65625 175.554688 157.992188 173.894531 157.992188 171.84375 " fill-opacity="1" fill-rule="nonzero"/><path fill="#c1ff72" d="M 88.597656 215.53125 C 88.597656 213.484375 90.261719 211.824219 92.316406 211.824219 C 94.371094 211.824219 96.035156 213.484375 96.035156 215.53125 C 96.035156 217.582031 94.371094 219.242188 92.316406 219.242188 C 90.261719 219.242188 88.597656 217.582031 88.597656 215.53125 " fill-opacity="1" fill-rule="nonzero"/><path fill="#c1ff72" d="M 44.402344 208.113281 C 44.402344 206.066406 46.066406 204.40625 48.117188 204.40625 C 50.171875 204.40625 51.835938 206.066406 51.835938 208.113281 C 51.835938 210.164062 50.171875 211.824219 48.117188 211.824219 C 46.066406 211.824219 44.402344 210.164062 44.402344 208.113281 " fill-opacity="1" fill-rule="nonzero"/><path fill="#c1ff72" d="M 36.496094 227.074219 C 36.496094 225.449219 37.816406 224.132812 39.445312 224.132812 C 41.074219 224.132812 42.390625 225.449219 42.390625 227.074219 C 42.390625 228.699219 41.074219 230.015625 39.445312 230.015625 C 37.816406 230.015625 36.496094 228.699219 36.496094 227.074219 " fill-opacity="1" fill-rule="nonzero"/><path fill="#c1ff72" d="M 42.691406 239.027344 C 42.691406 237.402344 44.011719 236.085938 45.640625 236.085938 C 47.269531 236.085938 48.585938 237.402344 48.585938 239.027344 C 48.585938 240.652344 47.269531 241.96875 45.640625 241.96875 C 44.011719 241.96875 42.691406 240.652344 42.691406 239.027344 " fill-opacity="1" fill-rule="nonzero"/><path fill="#c1ff72" d="M 82.816406 229.546875 C 82.816406 227.921875 84.136719 226.605469 85.761719 226.605469 C 87.390625 226.605469 88.710938 227.921875 88.710938 229.546875 C 88.710938 231.171875 87.390625 232.488281 85.761719 232.488281 C 84.136719 232.488281 82.816406 231.171875 82.816406 229.546875 " fill-opacity="1" fill-rule="nonzero"/><g clip-path="url(#21bdbdfe56)"><path fill="#c1ff72" d="M 114.152344 240.261719 C 114.152344 238.640625 115.472656 237.320312 117.097656 237.320312 C 118.726562 237.320312 120.046875 238.640625 120.046875 240.261719 C 120.046875 241.886719 118.726562 243.203125 117.097656 243.203125 C 115.472656 243.203125 114.152344 241.886719 114.152344 240.261719 " fill-opacity="1" fill-rule="nonzero"/></g><path fill="#c1ff72" d="M 171.566406 205.230469 C 171.566406 203.605469 172.886719 202.289062 174.515625 202.289062 C 176.144531 202.289062 177.460938 203.605469 177.460938 205.230469 C 177.460938 206.851562 176.144531 208.167969 174.515625 208.167969 C 172.886719 208.167969 171.566406 206.851562 171.566406 205.230469 " fill-opacity="1" fill-rule="nonzero"/><path fill="#c1ff72" d="M 170.742188 185.859375 C 170.742188 184.234375 172.0625 182.917969 173.6875 182.917969 C 175.316406 182.917969 176.636719 184.234375 176.636719 185.859375 C 176.636719 187.484375 175.316406 188.800781 173.6875 188.800781 C 172.0625 188.800781 170.742188 187.484375 170.742188 185.859375 " fill-opacity="1" fill-rule="nonzero"/><path fill="#c1ff72" d="M 190.980469 148.761719 C 190.980469 147.140625 192.300781 145.824219 193.929688 145.824219 C 195.558594 145.824219 196.878906 147.140625 196.878906 148.761719 C 196.878906 150.386719 195.558594 151.707031 193.929688 151.707031 C 192.300781 151.707031 190.980469 150.386719 190.980469 148.761719 " fill-opacity="1" fill-rule="nonzero"/><path fill="#c1ff72" d="M 185.613281 60.148438 C 185.613281 58.523438 186.929688 57.207031 188.558594 57.207031 C 190.1875 57.207031 191.507812 58.523438 191.507812 60.148438 C 191.507812 61.773438 190.1875 63.09375 188.558594 63.09375 C 186.929688 63.09375 185.613281 61.773438 185.613281 60.148438 " fill-opacity="1" fill-rule="nonzero"/><path fill="#c1ff72" d="M 152.980469 22.230469 C 152.980469 20.609375 154.300781 19.292969 155.925781 19.292969 C 157.554688 19.292969 158.875 20.609375 158.875 22.230469 C 158.875 23.855469 157.554688 25.171875 155.925781 25.171875 C 154.300781 25.171875 152.980469 23.855469 152.980469 22.230469 " fill-opacity="1" fill-rule="nonzero"/><path fill="#c1ff72" d="M 116.273438 6.15625 C 116.273438 4.53125 117.59375 3.214844 119.222656 3.214844 C 120.847656 3.214844 122.167969 4.53125 122.167969 6.15625 C 122.167969 7.78125 120.847656 9.097656 119.222656 9.097656 C 117.59375 9.097656 116.273438 7.78125 116.273438 6.15625 " fill-opacity="1" fill-rule="nonzero"/><g clip-path="url(#adbeba4652)"><path fill="#c1ff72" d="M 72.488281 3.273438 C 72.488281 1.648438 73.808594 0.332031 75.4375 0.332031 C 77.066406 0.332031 78.382812 1.648438 78.382812 3.273438 C 78.382812 4.898438 77.066406 6.214844 75.4375 6.214844 C 73.808594 6.214844 72.488281 4.898438 72.488281 3.273438 " fill-opacity="1" fill-rule="nonzero"/></g><path fill="#c1ff72" d="M 15.488281 21.820312 C 15.488281 20.195312 16.804688 18.878906 18.433594 18.878906 C 20.0625 18.878906 21.382812 20.195312 21.382812 21.820312 C 21.382812 23.445312 20.0625 24.761719 18.433594 24.761719 C 16.804688 24.761719 15.488281 23.445312 15.488281 21.820312 " fill-opacity="1" fill-rule="nonzero"/><path fill="#c1ff72" d="M 2.269531 213.882812 C 2.269531 212.261719 3.585938 210.945312 5.214844 210.945312 C 6.84375 210.945312 8.164062 212.261719 8.164062 213.882812 C 8.164062 215.507812 6.84375 216.824219 5.214844 216.824219 C 3.585938 216.824219 2.269531 215.507812 2.269531 213.882812 " fill-opacity="1" fill-rule="nonzero"/><path fill="#c1ff72" d="M 127.371094 22.644531 C 127.371094 21.019531 128.691406 19.703125 130.316406 19.703125 C 131.945312 19.703125 133.265625 21.019531 133.265625 22.644531 C 133.265625 24.269531 131.945312 25.585938 130.316406 25.585938 C 128.691406 25.585938 127.371094 24.269531 127.371094 22.644531 " fill-opacity="1" fill-rule="nonzero"/><path fill="#c1ff72" d="M 198.003906 161.953125 C 198.003906 160.328125 199.324219 159.011719 200.949219 159.011719 C 202.578125 159.011719 203.898438 160.328125 203.898438 161.953125 C 203.898438 163.578125 202.578125 164.894531 200.949219 164.894531 C 199.324219 164.894531 198.003906 163.578125 198.003906 161.953125 " fill-opacity="1" fill-rule="nonzero"/><g clip-path="url(#c7d9d57112)"><path fill="#c1ff72" d="M 202.132812 107.960938 C 202.132812 106.335938 203.453125 105.019531 205.082031 105.019531 C 206.710938 105.019531 208.027344 106.335938 208.027344 107.960938 C 208.027344 109.585938 206.710938 110.902344 205.082031 110.902344 C 203.453125 110.902344 202.132812 109.585938 202.132812 107.960938 " fill-opacity="1" fill-rule="nonzero"/></g><path fill="#c1ff72" d="M 101.816406 57.675781 C 101.816406 55.628906 103.480469 53.96875 105.535156 53.96875 C 107.585938 53.96875 109.25 55.628906 109.25 57.675781 C 109.25 59.726562 107.585938 61.386719 105.535156 61.386719 C 103.480469 61.386719 101.816406 59.726562 101.816406 57.675781 " fill-opacity="1" fill-rule="nonzero"/><path fill="#c1ff72" d="M 90.25 14.398438 C 90.25 12.351562 91.914062 10.691406 93.96875 10.691406 C 96.019531 10.691406 97.683594 12.351562 97.683594 14.398438 C 97.683594 16.449219 96.019531 18.109375 93.96875 18.109375 C 91.914062 18.109375 90.25 16.449219 90.25 14.398438 " fill-opacity="1" fill-rule="nonzero"/><path fill="#c1ff72" d="M 50.183594 25.117188 C 50.183594 23.070312 51.847656 21.40625 53.902344 21.40625 C 55.953125 21.40625 57.621094 23.070312 57.621094 25.117188 C 57.621094 27.164062 55.953125 28.828125 53.902344 28.828125 C 51.847656 28.828125 50.183594 27.164062 50.183594 25.117188 " fill-opacity="1" fill-rule="nonzero"/><path fill="#c1ff72" d="M 184.429688 98.480469 C 184.429688 96.429688 186.09375 94.769531 188.144531 94.769531 C 190.199219 94.769531 191.863281 96.429688 191.863281 98.480469 C 191.863281 100.527344 190.199219 102.191406 188.144531 102.191406 C 186.09375 102.191406 184.429688 100.527344 184.429688 98.480469 " fill-opacity="1" fill-rule="nonzero"/><path fill="#c1ff72" d="M 161.710938 49.847656 C 161.710938 47.796875 163.375 46.136719 165.425781 46.136719 C 167.480469 46.136719 169.144531 47.796875 169.144531 49.847656 C 169.144531 51.894531 167.480469 53.554688 165.425781 53.554688 C 163.375 53.554688 161.710938 51.894531 161.710938 49.847656 " fill-opacity="1" fill-rule="nonzero"/><path fill="#c1ff72" d="M 87.886719 169.785156 C 87.886719 166.886719 90.238281 164.535156 93.140625 164.535156 C 96.046875 164.535156 98.398438 166.886719 98.398438 169.785156 C 98.398438 172.679688 96.046875 175.03125 93.140625 175.03125 C 90.238281 175.03125 87.886719 172.679688 87.886719 169.785156 " fill-opacity="1" fill-rule="nonzero"/><path fill="#c1ff72" d="M 155.214844 114.144531 C 155.214844 111.246094 157.566406 108.898438 160.472656 108.898438 C 163.375 108.898438 165.726562 111.246094 165.726562 114.144531 C 165.726562 117.039062 163.375 119.390625 160.472656 119.390625 C 157.566406 119.390625 155.214844 117.039062 155.214844 114.144531 " fill-opacity="1" fill-rule="nonzero"/></g></g></g></svg>