<svg xmlns="http://www.w3.org/2000/svg" xmlns:xlink="http://www.w3.org/1999/xlink" width="500" zoomAndPan="magnify" viewBox="0 0 375 374.999991" height="500" preserveAspectRatio="xMidYMid meet" version="1.0"><defs><filter x="0%" y="0%" width="100%" height="100%" id="efb41d6b26"><feColorMatrix values="0 0 0 0 1 0 0 0 0 1 0 0 0 0 1 0 0 0 1 0" color-interpolation-filters="sRGB"/></filter><mask id="f52051dc74"><g filter="url(#efb41d6b26)"><rect x="-37.5" width="450" fill="#000000" y="-37.499999" height="449.999989" fill-opacity="0.7882"/></g></mask><clipPath id="3a0a9bb1b3"><path d="M 0.734375 0.28125 L 239 0.28125 L 239 217 L 0.734375 217 Z M 0.734375 0.28125 " clip-rule="nonzero"/></clipPath><clipPath id="743d9fc2b1"><rect x="0" width="239" y="0" height="218"/></clipPath></defs><g mask="url(#f52051dc74)"><g transform="matrix(1, 0, 0, 1, 136, 65)"><g clip-path="url(#743d9fc2b1)"><path fill="#ffbd59" d="M 172.664062 114.988281 C 172.664062 112.238281 172.664062 109.625 172.664062 106.878906 C 172.664062 106.191406 172.664062 105.503906 171.699219 105.777344 C 169.636719 106.191406 167.574219 106.050781 165.511719 106.601562 C 158.085938 108.25 151.894531 111.824219 146.804688 117.324219 C 141.304688 123.371094 138.554688 130.65625 137.867188 138.769531 C 137.726562 140.003906 138.140625 140.691406 139.515625 140.554688 C 144.46875 140.417969 149.554688 140.554688 154.507812 140.554688 C 155.609375 140.554688 156.160156 140.28125 156.296875 139.042969 C 157.808594 130.933594 163.171875 125.710938 171.425781 124.058594 C 172.390625 123.921875 172.390625 123.371094 172.390625 122.683594 C 172.664062 120.210938 172.664062 117.597656 172.664062 114.988281 Z M 172.664062 114.988281 " fill-opacity="1" fill-rule="nonzero"/><path fill="#ffbd59" d="M 189.855469 69.761719 C 190.132812 68.113281 189.445312 67.699219 187.792969 67.699219 C 161.386719 67.699219 134.839844 67.699219 108.429688 67.699219 C 82.023438 67.699219 55.613281 67.699219 29.207031 67.699219 C 28.792969 67.699219 28.382812 67.699219 27.832031 67.699219 C 27.003906 67.5625 26.730469 68.113281 26.730469 68.9375 C 26.730469 70.175781 26.730469 71.414062 26.730469 72.785156 C 26.730469 75.125 26.730469 75.125 29.070312 75.125 C 80.921875 75.125 132.777344 75.125 184.628906 75.125 C 186.28125 75.125 188.34375 75.8125 189.445312 74.847656 C 190.542969 73.613281 189.582031 71.414062 189.855469 69.761719 Z M 189.855469 69.761719 " fill-opacity="1" fill-rule="nonzero"/><path fill="#ffbd59" d="M 130.023438 86.808594 C 96.328125 86.808594 62.628906 86.808594 28.929688 86.808594 C 28.792969 86.808594 28.65625 86.808594 28.65625 86.808594 C 27.144531 86.53125 26.730469 87.21875 26.867188 88.59375 C 27.003906 89.695312 27.003906 90.929688 26.867188 92.03125 C 26.730469 93.679688 27.28125 93.957031 28.929688 93.957031 C 45.710938 93.957031 62.628906 93.957031 79.410156 93.957031 C 96.328125 93.957031 113.109375 93.957031 130.023438 93.957031 C 132.226562 93.957031 132.226562 93.957031 132.226562 91.894531 C 132.226562 90.792969 132.089844 89.832031 132.226562 88.730469 C 132.363281 87.21875 131.675781 86.808594 130.023438 86.808594 Z M 130.023438 86.808594 " fill-opacity="1" fill-rule="nonzero"/><path fill="#ffbd59" d="M 105.40625 107.152344 C 105.40625 104.953125 105.40625 104.953125 103.34375 104.953125 C 90.964844 104.953125 78.585938 104.953125 66.207031 104.953125 C 56.441406 104.953125 46.8125 104.953125 37.046875 104.953125 C 34.15625 104.953125 31.269531 104.953125 28.242188 104.953125 C 27.144531 104.953125 26.730469 105.226562 26.867188 106.328125 C 27.003906 107.5625 26.867188 108.800781 26.867188 109.902344 C 26.867188 112.101562 26.867188 112.101562 29.070312 112.101562 C 44.472656 112.101562 59.878906 112.101562 75.28125 112.101562 C 84.773438 112.101562 94.265625 112.101562 103.753906 112.101562 C 104.992188 112.101562 105.542969 111.824219 105.40625 110.449219 C 105.265625 109.488281 105.40625 108.390625 105.40625 107.152344 Z M 105.40625 107.152344 " fill-opacity="1" fill-rule="nonzero"/><path fill="#dae0fc" d="M 175.003906 160.210938 C 175.003906 159.523438 174.863281 159.25 174.039062 159.113281 C 173.351562 159.113281 172.800781 158.972656 172.113281 158.835938 C 167.851562 158.011719 164.410156 155.949219 161.523438 152.652344 C 159.183594 149.902344 157.945312 146.742188 157.535156 143.304688 C 157.394531 142.203125 156.984375 141.929688 155.882812 142.066406 C 152.582031 142.480469 149.28125 142.339844 145.980469 142.339844 C 144.191406 142.339844 142.402344 142.339844 140.753906 142.339844 C 138.140625 142.339844 138.140625 142.339844 138.277344 145.089844 C 138.691406 153.886719 142.402344 161.3125 148.320312 167.773438 C 151.757812 171.484375 156.019531 174.09375 160.558594 176.15625 C 164.824219 177.945312 169.226562 178.769531 173.765625 179.042969 C 174.726562 179.042969 175.277344 178.90625 175.277344 177.667969 C 175.550781 171.757812 174.863281 165.984375 175.003906 160.210938 Z M 175.003906 160.210938 " fill-opacity="1" fill-rule="nonzero"/><path fill="#dae0fc" d="M 101.140625 143.304688 C 100.867188 136.707031 101.140625 130.109375 101.140625 123.507812 C 101.140625 119.796875 101.140625 119.796875 97.425781 119.796875 C 95.226562 119.796875 95.226562 119.796875 95.226562 121.996094 C 95.226562 140.554688 95.089844 159.25 95.503906 177.804688 C 97.566406 177.804688 99.492188 177.804688 101.554688 177.804688 C 101.140625 166.398438 101.691406 154.851562 101.140625 143.304688 Z M 101.140625 143.304688 " fill-opacity="1" fill-rule="nonzero"/><path fill="#dae0fc" d="M 48.324219 138.355469 C 46.675781 138.355469 46.261719 138.769531 46.261719 140.417969 C 46.125 151.964844 46.8125 163.511719 46.675781 175.058594 C 46.675781 176.019531 46.675781 176.980469 46.675781 178.082031 C 47.085938 178.632812 47.636719 178.355469 48.1875 178.355469 C 49.699219 178.492188 51.074219 177.945312 52.589844 178.082031 C 52.589844 166.261719 52.589844 154.4375 52.589844 142.617188 C 52.589844 138.355469 52.589844 138.355469 48.324219 138.355469 Z M 48.324219 138.355469 " fill-opacity="1" fill-rule="nonzero"/><path fill="#dae0fc" d="M 72.808594 151.140625 C 71.570312 151.140625 71.019531 151.550781 71.019531 152.789062 C 71.15625 156.773438 71.019531 160.761719 71.292969 164.746094 C 71.570312 169.007812 71.292969 173.40625 71.292969 177.804688 C 73.21875 177.804688 75.28125 177.804688 77.207031 177.804688 C 77.207031 170.382812 77.207031 162.960938 77.207031 155.539062 C 77.347656 151.140625 77.347656 151.140625 72.808594 151.140625 Z M 72.808594 151.140625 " fill-opacity="1" fill-rule="nonzero"/><path fill="#dae0fc" d="M 59.878906 136.292969 C 59.054688 136.292969 59.328125 137.117188 59.328125 137.667969 C 59.328125 138.21875 59.054688 139.179688 59.878906 139.042969 C 60.566406 139.042969 60.152344 138.082031 60.289062 137.667969 C 60.015625 137.253906 60.429688 136.292969 59.878906 136.292969 Z M 59.878906 136.292969 " fill-opacity="1" fill-rule="nonzero"/><path fill="#dae0fc" d="M 84.5 141.242188 C 83.8125 141.242188 83.949219 142.066406 83.949219 142.617188 C 83.949219 143.167969 83.671875 144.128906 84.5 144.128906 C 85.1875 144.128906 84.773438 143.167969 84.910156 142.753906 C 84.773438 142.203125 85.324219 141.242188 84.5 141.242188 Z M 84.5 141.242188 " fill-opacity="1" fill-rule="nonzero"/><path fill="#dae0fc" d="M 59.742188 131.34375 C 58.914062 131.34375 59.191406 132.308594 59.191406 132.855469 C 59.191406 133.40625 59.054688 134.230469 59.742188 134.230469 C 60.566406 134.230469 60.015625 133.269531 60.289062 132.71875 C 60.015625 132.167969 60.429688 131.34375 59.742188 131.34375 Z M 59.742188 131.34375 " fill-opacity="1" fill-rule="nonzero"/><path fill="#dae0fc" d="M 84.910156 147.566406 C 84.773438 147.152344 85.1875 146.191406 84.5 146.191406 C 83.8125 146.191406 83.949219 147.152344 83.949219 147.703125 C 83.949219 148.253906 83.8125 149.078125 84.5 149.078125 C 85.324219 148.941406 84.773438 147.976562 84.910156 147.566406 Z M 84.910156 147.566406 " fill-opacity="1" fill-rule="nonzero"/><path fill="#dae0fc" d="M 108.570312 138.90625 C 109.257812 138.90625 108.84375 138.082031 108.980469 137.667969 C 108.84375 137.117188 109.257812 136.292969 108.429688 136.15625 C 107.742188 136.15625 107.882812 136.980469 108.019531 137.394531 C 108.019531 137.941406 107.605469 138.90625 108.570312 138.90625 Z M 108.570312 138.90625 " fill-opacity="1" fill-rule="nonzero"/><path fill="#dae0fc" d="M 108.429688 141.105469 C 107.742188 141.105469 108.019531 141.929688 108.019531 142.339844 C 108.019531 142.890625 107.605469 143.714844 108.429688 143.855469 C 109.257812 143.855469 108.84375 143.027344 108.980469 142.617188 C 108.84375 142.066406 109.394531 141.105469 108.429688 141.105469 Z M 108.429688 141.105469 " fill-opacity="1" fill-rule="nonzero"/><path fill="#dae0fc" d="M 84.5 138.90625 C 85.1875 138.90625 84.773438 138.082031 84.910156 137.53125 C 84.773438 137.117188 85.1875 136.292969 84.359375 136.292969 C 83.671875 136.292969 83.8125 137.117188 83.8125 137.667969 C 83.949219 138.082031 83.671875 138.90625 84.5 138.90625 Z M 84.5 138.90625 " fill-opacity="1" fill-rule="nonzero"/><path fill="#dae0fc" d="M 108.570312 146.191406 C 107.882812 146.191406 108.019531 147.015625 108.019531 147.566406 C 108.019531 148.113281 107.742188 148.941406 108.429688 148.941406 C 109.117188 148.941406 108.84375 148.113281 108.980469 147.566406 C 108.84375 147.015625 109.257812 146.191406 108.570312 146.191406 Z M 108.570312 146.191406 " fill-opacity="1" fill-rule="nonzero"/><path fill="#dae0fc" d="M 59.878906 144.128906 C 60.152344 143.167969 60.429688 142.339844 59.742188 141.378906 C 59.191406 142.480469 59.191406 142.480469 59.878906 144.128906 Z M 59.878906 144.128906 " fill-opacity="1" fill-rule="nonzero"/><path fill="#dae0fc" d="M 108.980469 159.386719 C 108.980469 158.011719 109.257812 157.050781 108.570312 156.085938 C 108.429688 157.050781 108.019531 158.011719 108.980469 159.386719 Z M 108.980469 159.386719 " fill-opacity="1" fill-rule="nonzero"/><path fill="#dae0fc" d="M 108.707031 163.785156 C 109.117188 162.824219 109.117188 161.859375 108.707031 160.898438 C 108.292969 162 108.15625 162.824219 108.707031 163.785156 Z M 108.707031 163.785156 " fill-opacity="1" fill-rule="nonzero"/><path fill="#dae0fc" d="M 59.878906 161.3125 C 59.464844 162.273438 59.328125 163.234375 60.015625 164.199219 C 60.152344 163.234375 60.289062 162.273438 59.878906 161.3125 Z M 59.878906 161.3125 " fill-opacity="1" fill-rule="nonzero"/><path fill="#dae0fc" d="M 59.878906 169.558594 C 60.152344 168.183594 60.289062 167.222656 59.742188 165.847656 C 59.464844 167.222656 59.328125 168.183594 59.878906 169.558594 Z M 59.878906 169.558594 " fill-opacity="1" fill-rule="nonzero"/><path fill="#dae0fc" d="M 59.878906 174.09375 C 60.289062 173.132812 60.289062 172.171875 59.878906 170.796875 C 59.328125 172.171875 59.464844 173.132812 59.878906 174.09375 Z M 59.878906 174.09375 " fill-opacity="1" fill-rule="nonzero"/><path fill="#dae0fc" d="M 84.5 174.09375 C 85.046875 173.132812 84.910156 172.171875 84.636719 171.207031 C 84.085938 172.171875 84.222656 173.132812 84.5 174.09375 Z M 84.5 174.09375 " fill-opacity="1" fill-rule="nonzero"/><path fill="#dae0fc" d="M 84.5 153.886719 C 85.046875 153.0625 84.910156 152.238281 84.773438 151.140625 C 83.949219 152.238281 84.359375 153.0625 84.5 153.886719 Z M 84.5 153.886719 " fill-opacity="1" fill-rule="nonzero"/><g clip-path="url(#3a0a9bb1b3)"><path fill="#ffffff" d="M 235.382812 194.714844 C 234.007812 194.714844 233.734375 194.300781 233.734375 193.066406 C 233.734375 148.253906 233.734375 103.304688 233.734375 58.492188 C 233.734375 57.117188 234.144531 56.839844 235.382812 56.839844 C 237.859375 56.839844 238.960938 55.742188 238.960938 53.265625 C 238.960938 48.457031 238.960938 43.644531 238.960938 38.972656 C 238.960938 35.808594 237.996094 34.847656 234.832031 34.847656 C 198.246094 34.847656 161.660156 34.847656 125.074219 34.847656 C 124.660156 34.847656 124.25 34.847656 123.699219 34.847656 C 122.734375 34.984375 122.324219 34.574219 122.324219 33.609375 C 122.460938 32.234375 122.324219 30.863281 122.324219 29.488281 C 122.324219 28.523438 122.597656 28.113281 123.5625 27.835938 C 129.75 26.050781 133.601562 20.140625 133.328125 13.679688 C 132.914062 5.292969 125.074219 -1.441406 115.722656 0.894531 C 109.394531 2.40625 104.71875 8.59375 105.679688 16.152344 C 106.367188 20.964844 108.570312 24.8125 113.109375 26.601562 C 116.132812 27.835938 117.097656 29.488281 116.683594 32.511719 C 116.410156 34.710938 116.683594 34.710938 114.484375 34.710938 C 78.035156 34.710938 41.585938 34.710938 5.136719 34.710938 C 4.722656 34.710938 4.3125 34.710938 3.761719 34.710938 C 1.699219 34.847656 0.734375 35.808594 0.734375 37.871094 C 0.734375 43.234375 0.734375 48.59375 0.734375 53.816406 C 0.734375 55.46875 1.699219 56.839844 3.347656 56.839844 C 5.410156 56.703125 5.410156 57.804688 5.410156 59.316406 C 5.410156 103.714844 5.410156 147.976562 5.410156 192.378906 C 5.410156 192.652344 5.410156 193.066406 5.410156 193.339844 C 5.546875 194.4375 5.136719 194.714844 4.035156 194.714844 C 1.558594 194.714844 0.734375 195.675781 0.734375 198.011719 C 0.734375 202.960938 0.734375 207.773438 0.734375 212.722656 C 0.734375 216.019531 1.558594 216.84375 5 216.84375 C 43.234375 216.84375 81.472656 216.84375 119.710938 216.84375 C 157.945312 216.84375 196.183594 216.84375 234.421875 216.84375 C 234.832031 216.84375 235.246094 216.84375 235.796875 216.84375 C 238.132812 216.707031 239.234375 215.609375 239.234375 213.269531 C 239.234375 208.324219 239.234375 203.375 239.234375 198.425781 C 238.960938 195.8125 237.996094 194.714844 235.382812 194.714844 Z M 111.59375 14.230469 C 111.59375 9.832031 115.03125 6.394531 119.433594 6.394531 C 123.972656 6.394531 127.410156 9.832031 127.410156 14.367188 C 127.410156 18.765625 123.972656 22.203125 119.433594 22.203125 C 114.894531 22.203125 111.59375 18.902344 111.59375 14.230469 Z M 227.820312 192.515625 C 227.820312 194.714844 227.820312 194.714844 225.617188 194.714844 C 155.058594 194.714844 84.5 194.714844 13.9375 194.714844 C 11.324219 194.714844 11.601562 194.988281 11.601562 192.378906 C 11.601562 147.976562 11.601562 103.578125 11.601562 59.179688 C 11.601562 56.839844 11.601562 56.839844 13.9375 56.839844 C 49.148438 56.839844 84.5 56.839844 119.710938 56.839844 C 155.058594 56.839844 190.269531 56.839844 225.617188 56.839844 C 227.820312 56.839844 227.820312 56.839844 227.820312 59.039062 C 227.820312 103.578125 227.820312 148.113281 227.820312 192.515625 Z M 227.820312 192.515625 " fill-opacity="1" fill-rule="nonzero"/></g><path fill="#ffffff" d="M 203.609375 116.363281 C 202.097656 114.710938 202.097656 114.710938 200.449219 116.363281 C 199.484375 117.324219 198.660156 118.285156 197.695312 119.109375 C 197.285156 119.523438 197.007812 120.074219 196.046875 119.660156 C 198.246094 117.460938 200.308594 115.535156 202.375 113.476562 C 204.160156 111.6875 204.160156 111.6875 202.375 110.039062 C 199.070312 106.878906 195.222656 104.539062 191.230469 102.617188 C 186.144531 100.277344 180.777344 99.316406 175.277344 98.765625 C 174.3125 98.628906 173.765625 98.90625 173.765625 100.003906 C 173.765625 107.425781 173.765625 114.710938 173.765625 122.136719 C 173.765625 122.960938 173.902344 123.371094 174.863281 123.507812 C 178.851562 124.058594 182.566406 125.433594 185.59375 128.457031 C 186.28125 129.144531 186.691406 128.871094 187.242188 128.320312 C 189.582031 125.984375 191.78125 123.785156 194.121094 121.449219 C 194.53125 121.035156 194.671875 120.484375 195.496094 120.621094 C 195.359375 121.308594 194.945312 121.722656 194.53125 121.996094 C 192.746094 123.785156 190.820312 125.710938 189.03125 127.496094 C 188.480469 128.046875 188.070312 128.457031 188.757812 129.28125 C 192.195312 133.269531 193.707031 137.804688 193.019531 143.027344 C 192.609375 146.742188 191.230469 149.902344 188.894531 152.652344 C 186.003906 155.949219 182.566406 158.148438 178.027344 158.699219 C 176.789062 158.835938 176.378906 159.386719 176.378906 160.761719 C 176.515625 166.261719 176.515625 171.757812 176.378906 177.257812 C 176.378906 178.492188 176.789062 178.90625 178.027344 178.769531 C 179.953125 178.492188 181.878906 178.355469 183.804688 177.804688 C 191.507812 176.15625 197.972656 172.445312 203.199219 166.535156 C 210.625 158.289062 213.652344 148.664062 212.964844 137.804688 C 212.277344 129.832031 208.976562 122.683594 203.609375 116.363281 Z M 203.609375 116.363281 " fill-opacity="1" fill-rule="nonzero"/><path fill="#ffffff" d="M 118.195312 177.53125 C 115.859375 177.53125 113.519531 177.53125 111.042969 177.53125 C 109.945312 177.53125 108.707031 177.667969 108.707031 175.746094 C 108.019531 176.570312 108.429688 177.53125 107.191406 177.53125 C 105.269531 177.53125 103.203125 177.667969 101.277344 177.804688 C 99.214844 177.804688 97.289062 177.804688 95.226562 177.804688 C 92.613281 177.804688 89.863281 177.804688 87.113281 177.804688 C 85.875 177.804688 84.222656 178.21875 84.359375 175.746094 C 84.359375 178.21875 82.847656 177.804688 81.472656 177.804688 C 79.960938 177.804688 78.585938 177.804688 77.070312 177.804688 C 75.144531 177.804688 73.082031 177.804688 71.15625 177.804688 C 68.269531 177.804688 65.242188 177.804688 62.355469 177.804688 C 61.117188 177.804688 59.878906 178.21875 59.601562 176.15625 C 59.601562 177.804688 58.640625 177.945312 57.539062 177.804688 C 55.890625 177.667969 54.101562 177.804688 52.449219 177.804688 C 50.9375 177.667969 49.5625 178.355469 48.050781 178.082031 C 47.5 177.945312 46.949219 178.21875 46.535156 177.804688 C 44.335938 177.804688 42.136719 177.667969 39.933594 177.804688 C 38.421875 177.945312 37.871094 177.394531 37.871094 175.882812 C 37.871094 159.523438 37.871094 143.167969 37.871094 126.808594 C 37.871094 125.296875 37.734375 123.785156 37.597656 122.273438 C 37.597656 121.449219 36.910156 121.585938 36.359375 121.585938 C 35.671875 121.585938 35.671875 121.996094 35.671875 122.546875 C 35.808594 123.234375 35.808594 123.921875 35.808594 124.609375 C 35.808594 136.707031 35.808594 148.664062 35.808594 160.761719 C 35.808594 165.984375 35.808594 171.207031 35.808594 176.433594 C 35.808594 177.53125 35.53125 178.082031 34.296875 177.945312 C 33.195312 177.804688 31.957031 177.945312 30.855469 177.945312 C 30.167969 177.945312 29.894531 178.082031 29.757812 178.90625 C 29.757812 179.730469 30.03125 180.003906 30.855469 180.003906 C 32.09375 180.003906 33.332031 180.003906 34.433594 180.003906 C 35.394531 180.003906 35.671875 180.28125 35.671875 181.242188 C 35.671875 182.480469 35.671875 183.71875 35.671875 185.09375 C 35.671875 185.777344 35.671875 186.328125 36.632812 186.328125 C 37.597656 186.328125 37.597656 185.640625 37.597656 184.953125 C 37.597656 183.855469 37.734375 182.753906 37.597656 181.65625 C 37.457031 180.28125 38.007812 180.003906 39.246094 180.003906 C 54.789062 179.867188 70.332031 180.28125 85.875 179.730469 C 96.464844 179.457031 107.054688 179.730469 117.644531 179.59375 C 118.335938 179.59375 119.023438 179.730469 119.023438 178.632812 C 119.570312 177.53125 118.882812 177.53125 118.195312 177.53125 Z M 118.195312 177.53125 " fill-opacity="1" fill-rule="nonzero"/><path fill="#ffffff" d="M 59.878906 146.054688 C 59.464844 147.289062 59.464844 148.113281 59.878906 149.488281 C 60.289062 148.113281 60.289062 147.289062 59.878906 146.054688 Z M 59.878906 146.054688 " fill-opacity="1" fill-rule="nonzero"/><path fill="#ffffff" d="M 108.570312 150.863281 C 108.15625 151.964844 108.292969 152.789062 108.570312 153.75 C 108.980469 152.789062 109.117188 151.964844 108.570312 150.863281 Z M 108.570312 150.863281 " fill-opacity="1" fill-rule="nonzero"/><path fill="#ffffff" d="M 59.878906 154.4375 C 60.289062 153.199219 60.289062 152.375 59.878906 151 C 59.464844 152.238281 59.464844 153.0625 59.878906 154.4375 Z M 59.878906 154.4375 " fill-opacity="1" fill-rule="nonzero"/><path fill="#ffffff" d="M 59.878906 158.972656 C 60.289062 158.148438 60.429688 157.324219 59.878906 156.085938 C 59.328125 157.1875 59.464844 158.011719 59.878906 158.972656 Z M 59.878906 158.972656 " fill-opacity="1" fill-rule="nonzero"/><path fill="#ffffff" d="M 84.5 156.085938 C 84.085938 157.324219 84.222656 158.148438 84.5 158.972656 C 84.910156 158.011719 85.046875 157.1875 84.5 156.085938 Z M 84.5 156.085938 " fill-opacity="1" fill-rule="nonzero"/><path fill="#ffffff" d="M 84.636719 161.3125 C 84.222656 162.136719 84.085938 162.960938 84.773438 163.921875 C 84.910156 162.960938 85.046875 162.136719 84.636719 161.3125 Z M 84.636719 161.3125 " fill-opacity="1" fill-rule="nonzero"/><path fill="#ffffff" d="M 84.636719 169.285156 C 85.046875 168.046875 85.046875 167.222656 84.636719 165.984375 C 84.085938 167.085938 84.222656 167.910156 84.636719 169.285156 Z M 84.636719 169.285156 " fill-opacity="1" fill-rule="nonzero"/><path fill="#ffffff" d="M 108.707031 169.144531 C 109.117188 167.910156 109.117188 167.085938 108.707031 165.847656 C 108.292969 167.085938 108.292969 167.910156 108.707031 169.144531 Z M 108.707031 169.144531 " fill-opacity="1" fill-rule="nonzero"/><path fill="#ffffff" d="M 108.707031 174.234375 C 109.117188 172.996094 109.117188 172.171875 108.707031 170.796875 C 108.292969 172.03125 108.292969 172.859375 108.707031 174.234375 Z M 108.707031 174.234375 " fill-opacity="1" fill-rule="nonzero"/></g></g></g></svg>