<svg xmlns="http://www.w3.org/2000/svg" xmlns:xlink="http://www.w3.org/1999/xlink" width="1366" zoomAndPan="magnify" viewBox="0 0 1024.5 187.499995" height="250" preserveAspectRatio="xMidYMid meet" version="1.0"><defs><g/><clipPath id="903f4127f0"><path d="M 379.285156 156.503906 L 386.945312 156.503906 L 386.945312 164.164062 L 379.285156 164.164062 Z M 379.285156 156.503906 " clip-rule="nonzero"/></clipPath><clipPath id="07de707ea6"><path d="M 383.113281 156.503906 C 381 156.503906 379.285156 158.21875 379.285156 160.335938 C 379.285156 162.449219 381 164.164062 383.113281 164.164062 C 385.230469 164.164062 386.945312 162.449219 386.945312 160.335938 C 386.945312 158.21875 385.230469 156.503906 383.113281 156.503906 " clip-rule="nonzero"/></clipPath><clipPath id="40a29f1f99"><path d="M 379.285156 156.503906 L 386.769531 156.503906 L 386.769531 163.988281 L 379.285156 163.988281 Z M 379.285156 156.503906 " clip-rule="nonzero"/></clipPath><clipPath id="202664b17f"><path d="M 383.027344 156.503906 C 380.960938 156.503906 379.285156 158.179688 379.285156 160.246094 C 379.285156 162.3125 380.960938 163.988281 383.027344 163.988281 C 385.09375 163.988281 386.769531 162.3125 386.769531 160.246094 C 386.769531 158.179688 385.09375 156.503906 383.027344 156.503906 " clip-rule="nonzero"/></clipPath><clipPath id="e521f40191"><path d="M 596.546875 156.503906 L 604.207031 156.503906 L 604.207031 164.164062 L 596.546875 164.164062 Z M 596.546875 156.503906 " clip-rule="nonzero"/></clipPath><clipPath id="e0286a3ff5"><path d="M 600.378906 156.503906 C 598.261719 156.503906 596.546875 158.21875 596.546875 160.335938 C 596.546875 162.449219 598.261719 164.164062 600.378906 164.164062 C 602.492188 164.164062 604.207031 162.449219 604.207031 160.335938 C 604.207031 158.21875 602.492188 156.503906 600.378906 156.503906 " clip-rule="nonzero"/></clipPath><clipPath id="fbeb2de6b9"><path d="M 596.546875 156.503906 L 604.03125 156.503906 L 604.03125 163.988281 L 596.546875 163.988281 Z M 596.546875 156.503906 " clip-rule="nonzero"/></clipPath><clipPath id="86297e96bc"><path d="M 600.289062 156.503906 C 598.222656 156.503906 596.546875 158.179688 596.546875 160.246094 C 596.546875 162.3125 598.222656 163.988281 600.289062 163.988281 C 602.355469 163.988281 604.03125 162.3125 604.03125 160.246094 C 604.03125 158.179688 602.355469 156.503906 600.289062 156.503906 " clip-rule="nonzero"/></clipPath><clipPath id="bfaaafa30c"><path d="M 818.722656 156.503906 L 826.382812 156.503906 L 826.382812 164.164062 L 818.722656 164.164062 Z M 818.722656 156.503906 " clip-rule="nonzero"/></clipPath><clipPath id="2554ec44d4"><path d="M 822.554688 156.503906 C 820.4375 156.503906 818.722656 158.21875 818.722656 160.335938 C 818.722656 162.449219 820.4375 164.164062 822.554688 164.164062 C 824.667969 164.164062 826.382812 162.449219 826.382812 160.335938 C 826.382812 158.21875 824.667969 156.503906 822.554688 156.503906 " clip-rule="nonzero"/></clipPath><clipPath id="93e5258834"><path d="M 818.722656 156.503906 L 826.207031 156.503906 L 826.207031 163.988281 L 818.722656 163.988281 Z M 818.722656 156.503906 " clip-rule="nonzero"/></clipPath><clipPath id="07eee2f2f6"><path d="M 822.464844 156.503906 C 820.398438 156.503906 818.722656 158.179688 818.722656 160.246094 C 818.722656 162.3125 820.398438 163.988281 822.464844 163.988281 C 824.53125 163.988281 826.207031 162.3125 826.207031 160.246094 C 826.207031 158.179688 824.53125 156.503906 822.464844 156.503906 " clip-rule="nonzero"/></clipPath></defs><g clip-path="url(#903f4127f0)"><g clip-path="url(#07de707ea6)"><path fill="#ffbd59" d="M 379.285156 156.503906 L 386.945312 156.503906 L 386.945312 164.164062 L 379.285156 164.164062 Z M 379.285156 156.503906 " fill-opacity="1" fill-rule="nonzero"/></g></g><g clip-path="url(#40a29f1f99)"><g clip-path="url(#202664b17f)"><path stroke-linecap="butt" transform="matrix(0.73235, 0, 0, 0.73235, 379.285312, 156.505025)" fill="none" stroke-linejoin="miter" d="M 5.109621 -0.0015272 C 2.288011 -0.0015272 -0.000213312 2.286697 -0.000213312 5.108307 C -0.000213312 7.929916 2.288011 10.218141 5.109621 10.218141 C 7.93123 10.218141 10.219454 7.929916 10.219454 5.108307 C 10.219454 2.286697 7.93123 -0.0015272 5.109621 -0.0015272 " stroke="#ffffff" stroke-width="4" stroke-opacity="1" stroke-miterlimit="4"/></g></g><g fill="#ffffff" fill-opacity="1"><g transform="translate(69.788719, 116.373524)"><g><path d="M 48.140625 -37.5625 L 47.96875 -37.59375 L 32.796875 0 L 28.578125 0 L 13.40625 -37.5625 L 13.234375 -37.53125 L 13.890625 -18.5625 L 13.890625 -4.96875 L 19.140625 -4.0625 L 19.140625 0 L 2.28125 0 L 2.28125 -4.0625 L 7.546875 -4.96875 L 7.546875 -41.921875 L 2.28125 -42.8125 L 2.28125 -46.90625 L 15.65625 -46.90625 L 30.609375 -8.796875 L 30.796875 -8.796875 L 45.71875 -46.90625 L 59.125 -46.90625 L 59.125 -42.8125 L 53.875 -41.921875 L 53.875 -4.96875 L 59.125 -4.0625 L 59.125 0 L 42.265625 0 L 42.265625 -4.0625 L 47.515625 -4.96875 L 47.515625 -18.5625 Z M 48.140625 -37.5625 "/></g></g></g><g fill="#ffffff" fill-opacity="1"><g transform="translate(131.155686, 116.373524)"><g><path d="M 44.078125 -23.09375 C 44.078125 -16.269531 42.113281 -10.601562 38.1875 -6.09375 C 34.269531 -1.582031 29.195312 0.671875 22.96875 0.671875 C 16.914062 0.671875 12 -1.582031 8.21875 -6.09375 C 4.4375 -10.601562 2.546875 -16.269531 2.546875 -23.09375 L 2.546875 -23.78125 C 2.546875 -30.582031 4.4375 -36.25 8.21875 -40.78125 C 12 -45.320312 16.914062 -47.59375 22.96875 -47.59375 C 29.195312 -47.59375 34.269531 -45.320312 38.1875 -40.78125 C 42.113281 -36.25 44.078125 -30.582031 44.078125 -23.78125 Z M 37.734375 -23.84375 C 37.734375 -29.300781 36.425781 -33.753906 33.8125 -37.203125 C 31.207031 -40.648438 27.59375 -42.375 22.96875 -42.375 C 18.539062 -42.375 15.085938 -40.644531 12.609375 -37.1875 C 10.128906 -33.726562 8.890625 -29.28125 8.890625 -23.84375 L 8.890625 -23.09375 C 8.890625 -17.601562 10.128906 -13.132812 12.609375 -9.6875 C 15.085938 -6.238281 18.539062 -4.515625 22.96875 -4.515625 C 27.65625 -4.515625 31.285156 -6.234375 33.859375 -9.671875 C 36.441406 -13.109375 37.734375 -17.582031 37.734375 -23.09375 Z M 37.734375 -23.84375 "/></g></g></g><g fill="#ffffff" fill-opacity="1"><g transform="translate(177.704384, 116.373524)"><g><path d="M 48.234375 -46.90625 L 48.234375 -42.8125 L 42.984375 -41.921875 L 42.984375 0 L 36.640625 0 L 14.078125 -36.21875 L 13.890625 -36.15625 L 13.890625 -4.96875 L 19.140625 -4.0625 L 19.140625 0 L 2.28125 0 L 2.28125 -4.0625 L 7.546875 -4.96875 L 7.546875 -41.921875 L 2.28125 -42.8125 L 2.28125 -46.90625 L 13.890625 -46.90625 L 36.4375 -10.734375 L 36.640625 -10.796875 L 36.640625 -41.921875 L 31.375 -42.8125 L 31.375 -46.90625 Z M 48.234375 -46.90625 "/></g></g></g><g fill="#ffffff" fill-opacity="1"><g transform="translate(227.957648, 116.373524)"><g><path d="M 2.28125 0 L 2.28125 -4.0625 L 7.546875 -4.96875 L 7.546875 -41.921875 L 2.28125 -42.8125 L 2.28125 -46.90625 L 38.3125 -46.90625 L 38.3125 -35.640625 L 32.859375 -35.640625 L 32.34375 -41.921875 L 13.890625 -41.921875 L 13.890625 -26.734375 L 31.828125 -26.734375 L 31.828125 -21.75 L 13.890625 -21.75 L 13.890625 -4.96875 L 32.734375 -4.96875 L 33.25 -11.25 L 38.65625 -11.25 L 38.65625 0 Z M 2.28125 0 "/></g></g></g><g fill="#ffffff" fill-opacity="1"><g transform="translate(270.02865, 116.373524)"><g><path d="M 40.171875 -46.90625 L 40.171875 -36.53125 L 34.765625 -36.53125 L 34.28125 -41.921875 L 23.875 -41.921875 L 23.875 -4.96875 L 29.125 -4.0625 L 29.125 0 L 12.28125 0 L 12.28125 -4.0625 L 17.53125 -4.96875 L 17.53125 -41.921875 L 7.09375 -41.921875 L 6.640625 -36.53125 L 1.1875 -36.53125 L 1.1875 -46.90625 Z M 40.171875 -46.90625 "/></g></g></g><g fill="#ffffff" fill-opacity="1"><g transform="translate(311.390953, 116.373524)"><g><path d="M 2.28125 -42.8125 L 2.28125 -46.90625 L 19.140625 -46.90625 L 19.140625 -42.8125 L 13.890625 -41.921875 L 13.890625 -25.703125 L 36.640625 -25.703125 L 36.640625 -41.921875 L 31.375 -42.8125 L 31.375 -46.90625 L 48.234375 -46.90625 L 48.234375 -42.8125 L 42.984375 -41.921875 L 42.984375 -4.96875 L 48.234375 -4.0625 L 48.234375 0 L 31.375 0 L 31.375 -4.0625 L 36.640625 -4.96875 L 36.640625 -20.71875 L 13.890625 -20.71875 L 13.890625 -4.96875 L 19.140625 -4.0625 L 19.140625 0 L 2.28125 0 L 2.28125 -4.0625 L 7.546875 -4.96875 L 7.546875 -41.921875 Z M 2.28125 -42.8125 "/></g></g></g><g fill="#ffffff" fill-opacity="1"><g transform="translate(362.062983, 116.373524)"><g><path d="M 2.25 -42.8125 L 2.25 -46.90625 L 19.109375 -46.90625 L 19.109375 -42.8125 L 13.859375 -41.921875 L 13.859375 -4.96875 L 19.109375 -4.0625 L 19.109375 0 L 2.25 0 L 2.25 -4.0625 L 7.5 -4.96875 L 7.5 -41.921875 Z M 2.25 -42.8125 "/></g></g></g><g fill="#ffffff" fill-opacity="1"><g transform="translate(383.388407, 116.373524)"><g><path d="M 38.65625 -32.515625 L 34.1875 -32.515625 L 33 -39.140625 C 31.96875 -40.148438 30.695312 -40.976562 29.1875 -41.625 C 27.6875 -42.269531 25.894531 -42.59375 23.8125 -42.59375 C 18.9375 -42.59375 15.1875 -40.828125 12.5625 -37.296875 C 9.945312 -33.765625 8.640625 -29.28125 8.640625 -23.84375 L 8.640625 -23.09375 C 8.640625 -17.664062 9.921875 -13.171875 12.484375 -9.609375 C 15.046875 -6.054688 18.609375 -4.28125 23.171875 -4.28125 C 25.296875 -4.28125 27.226562 -4.613281 28.96875 -5.28125 C 30.707031 -5.945312 32.050781 -6.765625 33 -7.734375 L 34.1875 -14.375 L 38.65625 -14.375 L 38.65625 -6.03125 C 37.3125 -4.289062 35.285156 -2.738281 32.578125 -1.375 C 29.867188 -0.0078125 26.734375 0.671875 23.171875 0.671875 C 17.066406 0.671875 12.054688 -1.582031 8.140625 -6.09375 C 4.234375 -10.601562 2.28125 -16.269531 2.28125 -23.09375 L 2.28125 -23.78125 C 2.28125 -30.65625 4.203125 -36.34375 8.046875 -40.84375 C 11.898438 -45.34375 16.941406 -47.59375 23.171875 -47.59375 C 26.734375 -47.59375 29.867188 -46.898438 32.578125 -45.515625 C 35.285156 -44.128906 37.3125 -42.578125 38.65625 -40.859375 Z M 38.65625 -32.515625 "/></g></g></g><g fill="#ffffff" fill-opacity="1"><g transform="translate(425.942625, 116.373524)"><g><path d="M 1.765625 -4.0625 L 5.25 -4.546875 L 21.65625 -46.90625 L 27.09375 -46.90625 L 43.203125 -4.546875 L 46.65625 -4.0625 L 46.65625 0 L 33.1875 0 L 33.1875 -4.0625 L 36.734375 -4.671875 L 33.640625 -13.3125 L 14.859375 -13.3125 L 11.65625 -4.671875 L 15.203125 -4.0625 L 15.203125 0 L 1.765625 0 Z M 16.8125 -18.625 L 31.703125 -18.625 L 24.421875 -38.765625 L 24.234375 -38.765625 Z M 16.8125 -18.625 "/></g></g></g><g fill="#ffffff" fill-opacity="1"><g transform="translate(474.263071, 116.373524)"><g><path d="M 2.28125 0 L 2.28125 -4.0625 L 7.546875 -4.96875 L 7.546875 -41.921875 L 2.28125 -42.8125 L 2.28125 -46.90625 L 19.140625 -46.90625 L 19.140625 -42.8125 L 13.890625 -41.921875 L 13.890625 -4.96875 L 30.1875 -4.96875 L 30.671875 -10.34375 L 36.078125 -10.34375 L 36.078125 0 Z M 2.28125 0 "/></g></g></g><g fill="#ffffff" fill-opacity="1"><g transform="translate(512.887227, 116.373524)"><g/></g></g><g fill="#ffffff" fill-opacity="1"><g transform="translate(529.283953, 116.373524)"><g><path d="M 38.65625 -32.515625 L 34.1875 -32.515625 L 33 -39.140625 C 31.96875 -40.148438 30.695312 -40.976562 29.1875 -41.625 C 27.6875 -42.269531 25.894531 -42.59375 23.8125 -42.59375 C 18.9375 -42.59375 15.1875 -40.828125 12.5625 -37.296875 C 9.945312 -33.765625 8.640625 -29.28125 8.640625 -23.84375 L 8.640625 -23.09375 C 8.640625 -17.664062 9.921875 -13.171875 12.484375 -9.609375 C 15.046875 -6.054688 18.609375 -4.28125 23.171875 -4.28125 C 25.296875 -4.28125 27.226562 -4.613281 28.96875 -5.28125 C 30.707031 -5.945312 32.050781 -6.765625 33 -7.734375 L 34.1875 -14.375 L 38.65625 -14.375 L 38.65625 -6.03125 C 37.3125 -4.289062 35.285156 -2.738281 32.578125 -1.375 C 29.867188 -0.0078125 26.734375 0.671875 23.171875 0.671875 C 17.066406 0.671875 12.054688 -1.582031 8.140625 -6.09375 C 4.234375 -10.601562 2.28125 -16.269531 2.28125 -23.09375 L 2.28125 -23.78125 C 2.28125 -30.65625 4.203125 -36.34375 8.046875 -40.84375 C 11.898438 -45.34375 16.941406 -47.59375 23.171875 -47.59375 C 26.734375 -47.59375 29.867188 -46.898438 32.578125 -45.515625 C 35.285156 -44.128906 37.3125 -42.578125 38.65625 -40.859375 Z M 38.65625 -32.515625 "/></g></g></g><g fill="#ffffff" fill-opacity="1"><g transform="translate(571.838149, 116.373524)"><g><path d="M 44.078125 -23.09375 C 44.078125 -16.269531 42.113281 -10.601562 38.1875 -6.09375 C 34.269531 -1.582031 29.195312 0.671875 22.96875 0.671875 C 16.914062 0.671875 12 -1.582031 8.21875 -6.09375 C 4.4375 -10.601562 2.546875 -16.269531 2.546875 -23.09375 L 2.546875 -23.78125 C 2.546875 -30.582031 4.4375 -36.25 8.21875 -40.78125 C 12 -45.320312 16.914062 -47.59375 22.96875 -47.59375 C 29.195312 -47.59375 34.269531 -45.320312 38.1875 -40.78125 C 42.113281 -36.25 44.078125 -30.582031 44.078125 -23.78125 Z M 37.734375 -23.84375 C 37.734375 -29.300781 36.425781 -33.753906 33.8125 -37.203125 C 31.207031 -40.648438 27.59375 -42.375 22.96875 -42.375 C 18.539062 -42.375 15.085938 -40.644531 12.609375 -37.1875 C 10.128906 -33.726562 8.890625 -29.28125 8.890625 -23.84375 L 8.890625 -23.09375 C 8.890625 -17.601562 10.128906 -13.132812 12.609375 -9.6875 C 15.085938 -6.238281 18.539062 -4.515625 22.96875 -4.515625 C 27.65625 -4.515625 31.285156 -6.234375 33.859375 -9.671875 C 36.441406 -13.109375 37.734375 -17.582031 37.734375 -23.09375 Z M 37.734375 -23.84375 "/></g></g></g><g fill="#ffffff" fill-opacity="1"><g transform="translate(618.386834, 116.373524)"><g><path d="M 48.234375 -46.90625 L 48.234375 -42.8125 L 42.984375 -41.921875 L 42.984375 0 L 36.640625 0 L 14.078125 -36.21875 L 13.890625 -36.15625 L 13.890625 -4.96875 L 19.140625 -4.0625 L 19.140625 0 L 2.28125 0 L 2.28125 -4.0625 L 7.546875 -4.96875 L 7.546875 -41.921875 L 2.28125 -42.8125 L 2.28125 -46.90625 L 13.890625 -46.90625 L 36.4375 -10.734375 L 36.640625 -10.796875 L 36.640625 -41.921875 L 31.375 -42.8125 L 31.375 -46.90625 Z M 48.234375 -46.90625 "/></g></g></g><g fill="#ffffff" fill-opacity="1"><g transform="translate(668.640099, 116.373524)"><g><path d="M 36.25 -33.0625 L 31.453125 -33.0625 L 30.25 -39.765625 C 29.28125 -40.578125 27.988281 -41.25 26.375 -41.78125 C 24.769531 -42.320312 22.90625 -42.59375 20.78125 -42.59375 C 17.40625 -42.59375 14.816406 -41.878906 13.015625 -40.453125 C 11.210938 -39.023438 10.3125 -37.160156 10.3125 -34.859375 C 10.3125 -32.816406 11.226562 -31.113281 13.0625 -29.75 C 14.894531 -28.382812 17.863281 -27.1875 21.96875 -26.15625 C 26.914062 -24.9375 30.671875 -23.132812 33.234375 -20.75 C 35.796875 -18.363281 37.078125 -15.410156 37.078125 -11.890625 C 37.078125 -8.109375 35.535156 -5.066406 32.453125 -2.765625 C 29.378906 -0.472656 25.347656 0.671875 20.359375 0.671875 C 16.753906 0.671875 13.550781 0.0820312 10.75 -1.09375 C 7.945312 -2.28125 5.664062 -3.828125 3.90625 -5.734375 L 3.90625 -14.46875 L 8.671875 -14.46875 L 9.890625 -7.734375 C 11.117188 -6.722656 12.578125 -5.894531 14.265625 -5.25 C 15.960938 -4.601562 17.992188 -4.28125 20.359375 -4.28125 C 23.554688 -4.28125 26.082031 -4.957031 27.9375 -6.3125 C 29.800781 -7.664062 30.734375 -9.503906 30.734375 -11.828125 C 30.734375 -13.972656 29.925781 -15.769531 28.3125 -17.21875 C 26.707031 -18.664062 23.863281 -19.882812 19.78125 -20.875 C 14.820312 -22.0625 10.945312 -23.800781 8.15625 -26.09375 C 5.363281 -28.394531 3.96875 -31.285156 3.96875 -34.765625 C 3.96875 -38.441406 5.523438 -41.5 8.640625 -43.9375 C 11.753906 -46.375 15.800781 -47.59375 20.78125 -47.59375 C 24.0625 -47.59375 27.050781 -47.023438 29.75 -45.890625 C 32.445312 -44.765625 34.613281 -43.394531 36.25 -41.78125 Z M 36.25 -33.0625 "/></g></g></g><g fill="#ffffff" fill-opacity="1"><g transform="translate(708.810509, 116.373524)"><g><path d="M 18.78125 -46.90625 L 18.78125 -42.8125 L 13.53125 -41.921875 L 13.53125 -15.109375 C 13.53125 -11.566406 14.539062 -8.875 16.5625 -7.03125 C 18.582031 -5.195312 21.242188 -4.28125 24.546875 -4.28125 C 28.023438 -4.28125 30.828125 -5.191406 32.953125 -7.015625 C 35.085938 -8.847656 36.15625 -11.546875 36.15625 -15.109375 L 36.15625 -41.921875 L 30.890625 -42.8125 L 30.890625 -46.90625 L 47.75 -46.90625 L 47.75 -42.8125 L 42.5 -41.921875 L 42.5 -15.109375 C 42.5 -10.015625 40.835938 -6.109375 37.515625 -3.390625 C 34.203125 -0.679688 29.878906 0.671875 24.546875 0.671875 C 19.367188 0.671875 15.179688 -0.679688 11.984375 -3.390625 C 8.785156 -6.109375 7.1875 -10.015625 7.1875 -15.109375 L 7.1875 -41.921875 L 1.9375 -42.8125 L 1.9375 -46.90625 Z M 18.78125 -46.90625 "/></g></g></g><g fill="#ffffff" fill-opacity="1"><g transform="translate(758.451702, 116.373524)"><g><path d="M 2.28125 0 L 2.28125 -4.0625 L 7.546875 -4.96875 L 7.546875 -41.921875 L 2.28125 -42.8125 L 2.28125 -46.90625 L 19.140625 -46.90625 L 19.140625 -42.8125 L 13.890625 -41.921875 L 13.890625 -4.96875 L 30.1875 -4.96875 L 30.671875 -10.34375 L 36.078125 -10.34375 L 36.078125 0 Z M 2.28125 0 "/></g></g></g><g fill="#ffffff" fill-opacity="1"><g transform="translate(797.075858, 116.373524)"><g><path d="M 40.171875 -46.90625 L 40.171875 -36.53125 L 34.765625 -36.53125 L 34.28125 -41.921875 L 23.875 -41.921875 L 23.875 -4.96875 L 29.125 -4.0625 L 29.125 0 L 12.28125 0 L 12.28125 -4.0625 L 17.53125 -4.96875 L 17.53125 -41.921875 L 7.09375 -41.921875 L 6.640625 -36.53125 L 1.1875 -36.53125 L 1.1875 -46.90625 Z M 40.171875 -46.90625 "/></g></g></g><g fill="#ffffff" fill-opacity="1"><g transform="translate(838.43816, 116.373524)"><g><path d="M 2.25 -42.8125 L 2.25 -46.90625 L 19.109375 -46.90625 L 19.109375 -42.8125 L 13.859375 -41.921875 L 13.859375 -4.96875 L 19.109375 -4.0625 L 19.109375 0 L 2.25 0 L 2.25 -4.0625 L 7.5 -4.96875 L 7.5 -41.921875 Z M 2.25 -42.8125 "/></g></g></g><g fill="#ffffff" fill-opacity="1"><g transform="translate(859.763607, 116.373524)"><g><path d="M 48.234375 -46.90625 L 48.234375 -42.8125 L 42.984375 -41.921875 L 42.984375 0 L 36.640625 0 L 14.078125 -36.21875 L 13.890625 -36.15625 L 13.890625 -4.96875 L 19.140625 -4.0625 L 19.140625 0 L 2.28125 0 L 2.28125 -4.0625 L 7.546875 -4.96875 L 7.546875 -41.921875 L 2.28125 -42.8125 L 2.28125 -46.90625 L 13.890625 -46.90625 L 36.4375 -10.734375 L 36.640625 -10.796875 L 36.640625 -41.921875 L 31.375 -42.8125 L 31.375 -46.90625 Z M 48.234375 -46.90625 "/></g></g></g><g fill="#ffffff" fill-opacity="1"><g transform="translate(910.016871, 116.373524)"><g><path d="M 39.625 -5.3125 C 38.25 -3.875 36.21875 -2.515625 33.53125 -1.234375 C 30.851562 0.0351562 27.363281 0.671875 23.0625 0.671875 C 16.789062 0.671875 11.671875 -1.523438 7.703125 -5.921875 C 3.742188 -10.328125 1.765625 -16.039062 1.765625 -23.0625 L 1.765625 -23.84375 C 1.765625 -30.90625 3.722656 -36.628906 7.640625 -41.015625 C 11.566406 -45.398438 16.785156 -47.59375 23.296875 -47.59375 C 26.773438 -47.59375 29.828125 -47.046875 32.453125 -45.953125 C 35.085938 -44.867188 37.304688 -43.4375 39.109375 -41.65625 L 39.109375 -33.15625 L 34.671875 -33.15625 L 33.125 -39.625 C 32.070312 -40.488281 30.796875 -41.195312 29.296875 -41.75 C 27.804688 -42.3125 26.019531 -42.59375 23.9375 -42.59375 C 18.863281 -42.59375 14.957031 -40.859375 12.21875 -37.390625 C 9.488281 -33.921875 8.125 -29.425781 8.125 -23.90625 L 8.125 -23.0625 C 8.125 -17.457031 9.445312 -12.925781 12.09375 -9.46875 C 14.75 -6.007812 18.40625 -4.28125 23.0625 -4.28125 C 25.625 -4.28125 27.71875 -4.546875 29.34375 -5.078125 C 30.976562 -5.617188 32.289062 -6.210938 33.28125 -6.859375 L 33.28125 -17.140625 L 25.578125 -17.46875 L 25.578125 -22.140625 L 39.625 -22.140625 Z M 39.625 -5.3125 "/></g></g></g><g fill="#ffffff" fill-opacity="1"><g transform="translate(188.411517, 162.227608)"><g><path d="M 2.65625 -20.046875 L 14.265625 -20.046875 L 14.265625 -18.546875 L 9.234375 -18.546875 L 9.234375 -1.453125 L 14.265625 -1.453125 L 14.265625 0 L 2.65625 0 L 2.65625 -1.453125 L 7.53125 -1.453125 L 7.53125 -18.546875 L 2.65625 -18.546875 Z M 2.65625 -20.046875 "/></g></g></g><g fill="#ffffff" fill-opacity="1"><g transform="translate(205.32276, 162.227608)"><g><path d="M 4.171875 -14.890625 L 4.296875 -12.09375 C 4.816406 -13.019531 5.507812 -13.757812 6.375 -14.3125 C 7.25 -14.875 8.242188 -15.160156 9.359375 -15.171875 C 10.992188 -15.171875 12.238281 -14.679688 13.09375 -13.703125 C 13.957031 -12.722656 14.394531 -11.332031 14.40625 -9.53125 L 14.40625 0 L 12.765625 0 L 12.765625 -9.515625 C 12.753906 -10.878906 12.441406 -11.925781 11.828125 -12.65625 C 11.210938 -13.382812 10.253906 -13.742188 8.953125 -13.734375 C 8.421875 -13.734375 7.914062 -13.644531 7.4375 -13.46875 C 6.957031 -13.300781 6.515625 -13.0625 6.109375 -12.75 C 5.710938 -12.445312 5.359375 -12.085938 5.046875 -11.671875 C 4.742188 -11.265625 4.5 -10.820312 4.3125 -10.34375 L 4.3125 0 L 2.65625 0 L 2.65625 -14.890625 Z M 4.171875 -14.890625 "/></g></g></g><g fill="#ffffff" fill-opacity="1"><g transform="translate(222.234002, 162.227608)"><g><path d="M 4.171875 -14.890625 L 4.296875 -12.09375 C 4.816406 -13.019531 5.507812 -13.757812 6.375 -14.3125 C 7.25 -14.875 8.242188 -15.160156 9.359375 -15.171875 C 10.992188 -15.171875 12.238281 -14.679688 13.09375 -13.703125 C 13.957031 -12.722656 14.394531 -11.332031 14.40625 -9.53125 L 14.40625 0 L 12.765625 0 L 12.765625 -9.515625 C 12.753906 -10.878906 12.441406 -11.925781 11.828125 -12.65625 C 11.210938 -13.382812 10.253906 -13.742188 8.953125 -13.734375 C 8.421875 -13.734375 7.914062 -13.644531 7.4375 -13.46875 C 6.957031 -13.300781 6.515625 -13.0625 6.109375 -12.75 C 5.710938 -12.445312 5.359375 -12.085938 5.046875 -11.671875 C 4.742188 -11.265625 4.5 -10.820312 4.3125 -10.34375 L 4.3125 0 L 2.65625 0 L 2.65625 -14.890625 Z M 4.171875 -14.890625 "/></g></g></g><g fill="#ffffff" fill-opacity="1"><g transform="translate(239.145245, 162.227608)"><g><path d="M 1.796875 -7.671875 C 1.804688 -8.679688 1.960938 -9.640625 2.265625 -10.546875 C 2.566406 -11.453125 3 -12.242188 3.5625 -12.921875 C 4.132812 -13.609375 4.828125 -14.15625 5.640625 -14.5625 C 6.460938 -14.96875 7.394531 -15.171875 8.4375 -15.171875 C 9.476562 -15.171875 10.410156 -14.96875 11.234375 -14.5625 C 12.054688 -14.15625 12.75 -13.609375 13.3125 -12.921875 C 13.882812 -12.242188 14.320312 -11.453125 14.625 -10.546875 C 14.925781 -9.640625 15.082031 -8.679688 15.09375 -7.671875 L 15.09375 -7.21875 C 15.082031 -6.207031 14.925781 -5.242188 14.625 -4.328125 C 14.332031 -3.421875 13.898438 -2.625 13.328125 -1.9375 C 12.765625 -1.257812 12.070312 -0.71875 11.25 -0.3125 C 10.4375 0.0820312 9.507812 0.28125 8.46875 0.28125 C 7.414062 0.28125 6.476562 0.0820312 5.65625 -0.3125 C 4.84375 -0.71875 4.148438 -1.257812 3.578125 -1.9375 C 3.003906 -2.625 2.566406 -3.421875 2.265625 -4.328125 C 1.960938 -5.242188 1.804688 -6.207031 1.796875 -7.21875 Z M 3.453125 -7.21875 C 3.453125 -6.425781 3.5625 -5.660156 3.78125 -4.921875 C 4 -4.191406 4.316406 -3.546875 4.734375 -2.984375 C 5.160156 -2.421875 5.679688 -1.96875 6.296875 -1.625 C 6.921875 -1.28125 7.644531 -1.109375 8.46875 -1.109375 C 9.269531 -1.109375 9.976562 -1.28125 10.59375 -1.625 C 11.21875 -1.96875 11.738281 -2.421875 12.15625 -2.984375 C 12.570312 -3.546875 12.890625 -4.191406 13.109375 -4.921875 C 13.335938 -5.660156 13.453125 -6.425781 13.453125 -7.21875 L 13.453125 -7.671875 C 13.453125 -8.453125 13.335938 -9.207031 13.109375 -9.9375 C 12.890625 -10.664062 12.566406 -11.3125 12.140625 -11.875 C 11.722656 -12.445312 11.203125 -12.90625 10.578125 -13.25 C 9.953125 -13.59375 9.238281 -13.765625 8.4375 -13.765625 C 7.625 -13.765625 6.910156 -13.59375 6.296875 -13.25 C 5.679688 -12.90625 5.160156 -12.445312 4.734375 -11.875 C 4.316406 -11.3125 4 -10.664062 3.78125 -9.9375 C 3.5625 -9.207031 3.453125 -8.453125 3.453125 -7.671875 Z M 3.453125 -7.21875 "/></g></g></g><g fill="#ffffff" fill-opacity="1"><g transform="translate(256.056487, 162.227608)"><g><path d="M 8.375 -2.234375 L 8.4375 -1.9375 L 8.515625 -2.234375 L 13.640625 -14.890625 L 15.359375 -14.890625 L 9.09375 0 L 7.75 0 L 1.46875 -14.890625 L 3.1875 -14.890625 Z M 8.375 -2.234375 "/></g></g></g><g fill="#ffffff" fill-opacity="1"><g transform="translate(272.96773, 162.227608)"><g><path d="M 12.890625 0 C 12.796875 -0.300781 12.71875 -0.632812 12.65625 -1 C 12.601562 -1.375 12.566406 -1.753906 12.546875 -2.140625 C 12.265625 -1.796875 11.9375 -1.476562 11.5625 -1.1875 C 11.1875 -0.894531 10.773438 -0.640625 10.328125 -0.421875 C 9.878906 -0.203125 9.398438 -0.03125 8.890625 0.09375 C 8.378906 0.21875 7.84375 0.28125 7.28125 0.28125 C 6.582031 0.28125 5.929688 0.179688 5.328125 -0.015625 C 4.734375 -0.222656 4.210938 -0.507812 3.765625 -0.875 C 3.316406 -1.25 2.96875 -1.691406 2.71875 -2.203125 C 2.46875 -2.722656 2.34375 -3.304688 2.34375 -3.953125 C 2.34375 -4.804688 2.53125 -5.53125 2.90625 -6.125 C 3.28125 -6.71875 3.785156 -7.203125 4.421875 -7.578125 C 5.066406 -7.953125 5.8125 -8.222656 6.65625 -8.390625 C 7.5 -8.566406 8.382812 -8.65625 9.3125 -8.65625 L 12.53125 -8.65625 L 12.53125 -10.34375 C 12.53125 -10.90625 12.421875 -11.398438 12.203125 -11.828125 C 11.992188 -12.253906 11.707031 -12.613281 11.34375 -12.90625 C 10.976562 -13.195312 10.546875 -13.414062 10.046875 -13.5625 C 9.546875 -13.707031 9.003906 -13.78125 8.421875 -13.78125 C 7.890625 -13.78125 7.382812 -13.707031 6.90625 -13.5625 C 6.425781 -13.425781 6 -13.226562 5.625 -12.96875 C 5.25 -12.71875 4.945312 -12.40625 4.71875 -12.03125 C 4.488281 -11.664062 4.363281 -11.25 4.34375 -10.78125 L 2.703125 -10.796875 C 2.722656 -11.421875 2.882812 -12 3.1875 -12.53125 C 3.5 -13.070312 3.914062 -13.535156 4.4375 -13.921875 C 4.96875 -14.304688 5.578125 -14.609375 6.265625 -14.828125 C 6.960938 -15.054688 7.703125 -15.171875 8.484375 -15.171875 C 9.273438 -15.171875 10.015625 -15.066406 10.703125 -14.859375 C 11.398438 -14.660156 12.003906 -14.359375 12.515625 -13.953125 C 13.023438 -13.546875 13.425781 -13.039062 13.71875 -12.4375 C 14.019531 -11.832031 14.175781 -11.128906 14.1875 -10.328125 L 14.1875 -3.109375 C 14.1875 -2.617188 14.226562 -2.117188 14.3125 -1.609375 C 14.40625 -1.109375 14.515625 -0.628906 14.640625 -0.171875 L 14.65625 0 Z M 7.453125 -1.1875 C 8.035156 -1.175781 8.585938 -1.242188 9.109375 -1.390625 C 9.640625 -1.535156 10.125 -1.738281 10.5625 -2 C 11.007812 -2.257812 11.398438 -2.570312 11.734375 -2.9375 C 12.078125 -3.300781 12.34375 -3.695312 12.53125 -4.125 L 12.53125 -7.390625 L 9.53125 -7.390625 C 8.8125 -7.390625 8.113281 -7.332031 7.4375 -7.21875 C 6.769531 -7.113281 6.179688 -6.929688 5.671875 -6.671875 C 5.160156 -6.421875 4.75 -6.082031 4.4375 -5.65625 C 4.132812 -5.238281 3.984375 -4.71875 3.984375 -4.09375 C 3.984375 -3.632812 4.070312 -3.226562 4.25 -2.875 C 4.4375 -2.519531 4.6875 -2.210938 5 -1.953125 C 5.3125 -1.703125 5.675781 -1.507812 6.09375 -1.375 C 6.519531 -1.25 6.972656 -1.1875 7.453125 -1.1875 Z M 7.453125 -1.1875 "/></g></g></g><g fill="#ffffff" fill-opacity="1"><g transform="translate(289.878972, 162.227608)"><g><path d="M 4.203125 -1.390625 L 15.109375 -1.390625 L 15.109375 0 L 2.03125 0 L 2.046875 -1.21875 L 12.1875 -13.46875 L 2.359375 -13.46875 L 2.359375 -14.890625 L 14.390625 -14.890625 L 14.375 -13.671875 Z M 4.203125 -1.390625 "/></g></g></g><g fill="#ffffff" fill-opacity="1"><g transform="translate(306.790215, 162.227608)"><g><path d="M 3.046875 -14.890625 L 9.953125 -14.890625 L 9.953125 -1.453125 L 15.015625 -1.453125 L 15.015625 0 L 3.046875 0 L 3.046875 -1.453125 L 8.296875 -1.453125 L 8.296875 -13.421875 L 3.046875 -13.421875 Z M 7.8125 -18.96875 C 7.8125 -19.300781 7.90625 -19.59375 8.09375 -19.84375 C 8.289062 -20.09375 8.613281 -20.21875 9.0625 -20.21875 C 9.507812 -20.21875 9.832031 -20.09375 10.03125 -19.84375 C 10.226562 -19.59375 10.328125 -19.300781 10.328125 -18.96875 C 10.328125 -18.644531 10.226562 -18.359375 10.03125 -18.109375 C 9.832031 -17.867188 9.507812 -17.75 9.0625 -17.75 C 8.613281 -17.75 8.289062 -17.867188 8.09375 -18.109375 C 7.90625 -18.359375 7.8125 -18.644531 7.8125 -18.96875 Z M 7.8125 -18.96875 "/></g></g></g><g fill="#ffffff" fill-opacity="1"><g transform="translate(323.701457, 162.227608)"><g><path d="M 1.796875 -7.671875 C 1.804688 -8.679688 1.960938 -9.640625 2.265625 -10.546875 C 2.566406 -11.453125 3 -12.242188 3.5625 -12.921875 C 4.132812 -13.609375 4.828125 -14.15625 5.640625 -14.5625 C 6.460938 -14.96875 7.394531 -15.171875 8.4375 -15.171875 C 9.476562 -15.171875 10.410156 -14.96875 11.234375 -14.5625 C 12.054688 -14.15625 12.75 -13.609375 13.3125 -12.921875 C 13.882812 -12.242188 14.320312 -11.453125 14.625 -10.546875 C 14.925781 -9.640625 15.082031 -8.679688 15.09375 -7.671875 L 15.09375 -7.21875 C 15.082031 -6.207031 14.925781 -5.242188 14.625 -4.328125 C 14.332031 -3.421875 13.898438 -2.625 13.328125 -1.9375 C 12.765625 -1.257812 12.070312 -0.71875 11.25 -0.3125 C 10.4375 0.0820312 9.507812 0.28125 8.46875 0.28125 C 7.414062 0.28125 6.476562 0.0820312 5.65625 -0.3125 C 4.84375 -0.71875 4.148438 -1.257812 3.578125 -1.9375 C 3.003906 -2.625 2.566406 -3.421875 2.265625 -4.328125 C 1.960938 -5.242188 1.804688 -6.207031 1.796875 -7.21875 Z M 3.453125 -7.21875 C 3.453125 -6.425781 3.5625 -5.660156 3.78125 -4.921875 C 4 -4.191406 4.316406 -3.546875 4.734375 -2.984375 C 5.160156 -2.421875 5.679688 -1.96875 6.296875 -1.625 C 6.921875 -1.28125 7.644531 -1.109375 8.46875 -1.109375 C 9.269531 -1.109375 9.976562 -1.28125 10.59375 -1.625 C 11.21875 -1.96875 11.738281 -2.421875 12.15625 -2.984375 C 12.570312 -3.546875 12.890625 -4.191406 13.109375 -4.921875 C 13.335938 -5.660156 13.453125 -6.425781 13.453125 -7.21875 L 13.453125 -7.671875 C 13.453125 -8.453125 13.335938 -9.207031 13.109375 -9.9375 C 12.890625 -10.664062 12.566406 -11.3125 12.140625 -11.875 C 11.722656 -12.445312 11.203125 -12.90625 10.578125 -13.25 C 9.953125 -13.59375 9.238281 -13.765625 8.4375 -13.765625 C 7.625 -13.765625 6.910156 -13.59375 6.296875 -13.25 C 5.679688 -12.90625 5.160156 -12.445312 4.734375 -11.875 C 4.316406 -11.3125 4 -10.664062 3.78125 -9.9375 C 3.5625 -9.207031 3.453125 -8.453125 3.453125 -7.671875 Z M 3.453125 -7.21875 "/></g></g></g><g fill="#ffffff" fill-opacity="1"><g transform="translate(340.6127, 162.227608)"><g><path d="M 4.171875 -14.890625 L 4.296875 -12.09375 C 4.816406 -13.019531 5.507812 -13.757812 6.375 -14.3125 C 7.25 -14.875 8.242188 -15.160156 9.359375 -15.171875 C 10.992188 -15.171875 12.238281 -14.679688 13.09375 -13.703125 C 13.957031 -12.722656 14.394531 -11.332031 14.40625 -9.53125 L 14.40625 0 L 12.765625 0 L 12.765625 -9.515625 C 12.753906 -10.878906 12.441406 -11.925781 11.828125 -12.65625 C 11.210938 -13.382812 10.253906 -13.742188 8.953125 -13.734375 C 8.421875 -13.734375 7.914062 -13.644531 7.4375 -13.46875 C 6.957031 -13.300781 6.515625 -13.0625 6.109375 -12.75 C 5.710938 -12.445312 5.359375 -12.085938 5.046875 -11.671875 C 4.742188 -11.265625 4.5 -10.820312 4.3125 -10.34375 L 4.3125 0 L 2.65625 0 L 2.65625 -14.890625 Z M 4.171875 -14.890625 "/></g></g></g><g fill="#ffffff" fill-opacity="1"><g transform="translate(357.523943, 162.227608)"><g><path d="M 9.015625 0.28125 C 7.972656 0.28125 7.023438 0.0859375 6.171875 -0.296875 C 5.328125 -0.679688 4.597656 -1.203125 3.984375 -1.859375 C 3.367188 -2.523438 2.894531 -3.300781 2.5625 -4.1875 C 2.226562 -5.070312 2.054688 -6.015625 2.046875 -7.015625 L 2.046875 -7.609375 C 2.054688 -8.671875 2.234375 -9.660156 2.578125 -10.578125 C 2.921875 -11.492188 3.390625 -12.289062 3.984375 -12.96875 C 4.585938 -13.65625 5.289062 -14.191406 6.09375 -14.578125 C 6.90625 -14.972656 7.773438 -15.171875 8.703125 -15.171875 C 9.691406 -15.171875 10.566406 -14.988281 11.328125 -14.625 C 12.085938 -14.269531 12.726562 -13.78125 13.25 -13.15625 C 13.769531 -12.539062 14.164062 -11.820312 14.4375 -11 C 14.707031 -10.175781 14.84375 -9.289062 14.84375 -8.34375 L 14.84375 -7.328125 L 3.703125 -7.328125 L 3.703125 -7.015625 C 3.710938 -6.234375 3.84375 -5.488281 4.09375 -4.78125 C 4.351562 -4.070312 4.71875 -3.445312 5.1875 -2.90625 C 5.65625 -2.363281 6.21875 -1.925781 6.875 -1.59375 C 7.539062 -1.269531 8.273438 -1.109375 9.078125 -1.109375 C 9.992188 -1.097656 10.820312 -1.265625 11.5625 -1.609375 C 12.3125 -1.960938 12.945312 -2.472656 13.46875 -3.140625 L 14.515625 -2.359375 C 14.242188 -1.972656 13.921875 -1.613281 13.546875 -1.28125 C 13.171875 -0.957031 12.75 -0.679688 12.28125 -0.453125 C 11.820312 -0.222656 11.316406 -0.046875 10.765625 0.078125 C 10.210938 0.210938 9.628906 0.28125 9.015625 0.28125 Z M 8.703125 -13.765625 C 8.023438 -13.765625 7.40625 -13.632812 6.84375 -13.375 C 6.289062 -13.125 5.800781 -12.773438 5.375 -12.328125 C 4.957031 -11.878906 4.609375 -11.347656 4.328125 -10.734375 C 4.054688 -10.128906 3.867188 -9.460938 3.765625 -8.734375 L 13.203125 -8.734375 L 13.203125 -8.921875 C 13.179688 -9.535156 13.066406 -10.132812 12.859375 -10.71875 C 12.648438 -11.300781 12.351562 -11.816406 11.96875 -12.265625 C 11.59375 -12.710938 11.128906 -13.070312 10.578125 -13.34375 C 10.035156 -13.625 9.410156 -13.765625 8.703125 -13.765625 Z M 8.703125 -13.765625 "/></g></g></g><g fill="#ffffff" fill-opacity="1"><g transform="translate(422.889257, 162.227608)"><g><path d="M 13.234375 -9.609375 L 4.40625 -9.609375 L 4.40625 -1.4375 L 14.59375 -1.4375 L 14.59375 0 L 2.765625 0 L 2.765625 -20.046875 L 14.53125 -20.046875 L 14.53125 -18.59375 L 4.40625 -18.59375 L 4.40625 -11.03125 L 13.234375 -11.03125 Z M 13.234375 -9.609375 "/></g></g></g><g fill="#ffffff" fill-opacity="1"><g transform="translate(439.8005, 162.227608)"><g><path d="M 14.15625 -13.546875 L 8.21875 -13.546875 L 8.25 0 L 6.53125 0 L 6.546875 -13.546875 L 2.484375 -13.546875 L 2.484375 -14.890625 L 6.5625 -14.890625 L 6.5625 -16.078125 C 6.570312 -17.097656 6.726562 -17.957031 7.03125 -18.65625 C 7.34375 -19.351562 7.757812 -19.914062 8.28125 -20.34375 C 8.8125 -20.78125 9.425781 -21.09375 10.125 -21.28125 C 10.832031 -21.46875 11.585938 -21.5625 12.390625 -21.5625 C 12.910156 -21.5625 13.414062 -21.53125 13.90625 -21.46875 C 14.40625 -21.40625 14.910156 -21.316406 15.421875 -21.203125 L 15.21875 -19.796875 C 14.832031 -19.890625 14.414062 -19.96875 13.96875 -20.03125 C 13.519531 -20.101562 13.046875 -20.140625 12.546875 -20.140625 C 11.953125 -20.140625 11.394531 -20.070312 10.875 -19.9375 C 10.363281 -19.8125 9.910156 -19.59375 9.515625 -19.28125 C 9.117188 -18.976562 8.804688 -18.566406 8.578125 -18.046875 C 8.347656 -17.523438 8.226562 -16.867188 8.21875 -16.078125 L 8.21875 -14.890625 L 14.15625 -14.890625 Z M 14.15625 -13.546875 "/></g></g></g><g fill="#ffffff" fill-opacity="1"><g transform="translate(456.725503, 162.227608)"><g><path d="M 14.15625 -13.546875 L 8.21875 -13.546875 L 8.25 0 L 6.53125 0 L 6.546875 -13.546875 L 2.484375 -13.546875 L 2.484375 -14.890625 L 6.5625 -14.890625 L 6.5625 -16.078125 C 6.570312 -17.097656 6.726562 -17.957031 7.03125 -18.65625 C 7.34375 -19.351562 7.757812 -19.914062 8.28125 -20.34375 C 8.8125 -20.78125 9.425781 -21.09375 10.125 -21.28125 C 10.832031 -21.46875 11.585938 -21.5625 12.390625 -21.5625 C 12.910156 -21.5625 13.414062 -21.53125 13.90625 -21.46875 C 14.40625 -21.40625 14.910156 -21.316406 15.421875 -21.203125 L 15.21875 -19.796875 C 14.832031 -19.890625 14.414062 -19.96875 13.96875 -20.03125 C 13.519531 -20.101562 13.046875 -20.140625 12.546875 -20.140625 C 11.953125 -20.140625 11.394531 -20.070312 10.875 -19.9375 C 10.363281 -19.8125 9.910156 -19.59375 9.515625 -19.28125 C 9.117188 -18.976562 8.804688 -18.566406 8.578125 -18.046875 C 8.347656 -17.523438 8.226562 -16.867188 8.21875 -16.078125 L 8.21875 -14.890625 L 14.15625 -14.890625 Z M 14.15625 -13.546875 "/></g></g></g><g fill="#ffffff" fill-opacity="1"><g transform="translate(473.650505, 162.227608)"><g><path d="M 3.046875 -14.890625 L 9.953125 -14.890625 L 9.953125 -1.453125 L 15.015625 -1.453125 L 15.015625 0 L 3.046875 0 L 3.046875 -1.453125 L 8.296875 -1.453125 L 8.296875 -13.421875 L 3.046875 -13.421875 Z M 7.8125 -18.96875 C 7.8125 -19.300781 7.90625 -19.59375 8.09375 -19.84375 C 8.289062 -20.09375 8.613281 -20.21875 9.0625 -20.21875 C 9.507812 -20.21875 9.832031 -20.09375 10.03125 -19.84375 C 10.226562 -19.59375 10.328125 -19.300781 10.328125 -18.96875 C 10.328125 -18.644531 10.226562 -18.359375 10.03125 -18.109375 C 9.832031 -17.867188 9.507812 -17.75 9.0625 -17.75 C 8.613281 -17.75 8.289062 -17.867188 8.09375 -18.109375 C 7.90625 -18.359375 7.8125 -18.644531 7.8125 -18.96875 Z M 7.8125 -18.96875 "/></g></g></g><g fill="#ffffff" fill-opacity="1"><g transform="translate(490.561748, 162.227608)"><g><path d="M 8.703125 -1.109375 C 9.253906 -1.109375 9.78125 -1.1875 10.28125 -1.34375 C 10.78125 -1.507812 11.222656 -1.742188 11.609375 -2.046875 C 11.992188 -2.347656 12.304688 -2.710938 12.546875 -3.140625 C 12.785156 -3.566406 12.925781 -4.050781 12.96875 -4.59375 L 14.546875 -4.59375 C 14.515625 -3.882812 14.332031 -3.234375 14 -2.640625 C 13.664062 -2.046875 13.234375 -1.53125 12.703125 -1.09375 C 12.171875 -0.664062 11.5625 -0.328125 10.875 -0.078125 C 10.1875 0.160156 9.460938 0.28125 8.703125 0.28125 C 7.609375 0.28125 6.65625 0.0703125 5.84375 -0.34375 C 5.039062 -0.757812 4.367188 -1.3125 3.828125 -2 C 3.296875 -2.6875 2.894531 -3.476562 2.625 -4.375 C 2.351562 -5.269531 2.21875 -6.195312 2.21875 -7.15625 L 2.21875 -7.734375 C 2.21875 -8.703125 2.351562 -9.628906 2.625 -10.515625 C 2.894531 -11.410156 3.296875 -12.203125 3.828125 -12.890625 C 4.367188 -13.578125 5.039062 -14.128906 5.84375 -14.546875 C 6.65625 -14.960938 7.601562 -15.171875 8.6875 -15.171875 C 9.507812 -15.171875 10.269531 -15.035156 10.96875 -14.765625 C 11.675781 -14.503906 12.285156 -14.140625 12.796875 -13.671875 C 13.316406 -13.203125 13.726562 -12.644531 14.03125 -12 C 14.34375 -11.351562 14.515625 -10.644531 14.546875 -9.875 L 12.96875 -9.875 C 12.9375 -10.425781 12.804688 -10.941406 12.578125 -11.421875 C 12.347656 -11.898438 12.046875 -12.3125 11.671875 -12.65625 C 11.296875 -13.007812 10.851562 -13.28125 10.34375 -13.46875 C 9.832031 -13.664062 9.28125 -13.765625 8.6875 -13.765625 C 7.820312 -13.765625 7.082031 -13.585938 6.46875 -13.234375 C 5.863281 -12.890625 5.367188 -12.429688 4.984375 -11.859375 C 4.597656 -11.296875 4.316406 -10.648438 4.140625 -9.921875 C 3.960938 -9.203125 3.875 -8.472656 3.875 -7.734375 L 3.875 -7.15625 C 3.875 -6.40625 3.960938 -5.664062 4.140625 -4.9375 C 4.316406 -4.21875 4.597656 -3.570312 4.984375 -3 C 5.367188 -2.4375 5.863281 -1.976562 6.46875 -1.625 C 7.082031 -1.28125 7.828125 -1.109375 8.703125 -1.109375 Z M 8.703125 -1.109375 "/></g></g></g><g fill="#ffffff" fill-opacity="1"><g transform="translate(507.47299, 162.227608)"><g><path d="M 3.046875 -14.890625 L 9.953125 -14.890625 L 9.953125 -1.453125 L 15.015625 -1.453125 L 15.015625 0 L 3.046875 0 L 3.046875 -1.453125 L 8.296875 -1.453125 L 8.296875 -13.421875 L 3.046875 -13.421875 Z M 7.8125 -18.96875 C 7.8125 -19.300781 7.90625 -19.59375 8.09375 -19.84375 C 8.289062 -20.09375 8.613281 -20.21875 9.0625 -20.21875 C 9.507812 -20.21875 9.832031 -20.09375 10.03125 -19.84375 C 10.226562 -19.59375 10.328125 -19.300781 10.328125 -18.96875 C 10.328125 -18.644531 10.226562 -18.359375 10.03125 -18.109375 C 9.832031 -17.867188 9.507812 -17.75 9.0625 -17.75 C 8.613281 -17.75 8.289062 -17.867188 8.09375 -18.109375 C 7.90625 -18.359375 7.8125 -18.644531 7.8125 -18.96875 Z M 7.8125 -18.96875 "/></g></g></g><g fill="#ffffff" fill-opacity="1"><g transform="translate(524.384233, 162.227608)"><g><path d="M 9.015625 0.28125 C 7.972656 0.28125 7.023438 0.0859375 6.171875 -0.296875 C 5.328125 -0.679688 4.597656 -1.203125 3.984375 -1.859375 C 3.367188 -2.523438 2.894531 -3.300781 2.5625 -4.1875 C 2.226562 -5.070312 2.054688 -6.015625 2.046875 -7.015625 L 2.046875 -7.609375 C 2.054688 -8.671875 2.234375 -9.660156 2.578125 -10.578125 C 2.921875 -11.492188 3.390625 -12.289062 3.984375 -12.96875 C 4.585938 -13.65625 5.289062 -14.191406 6.09375 -14.578125 C 6.90625 -14.972656 7.773438 -15.171875 8.703125 -15.171875 C 9.691406 -15.171875 10.566406 -14.988281 11.328125 -14.625 C 12.085938 -14.269531 12.726562 -13.78125 13.25 -13.15625 C 13.769531 -12.539062 14.164062 -11.820312 14.4375 -11 C 14.707031 -10.175781 14.84375 -9.289062 14.84375 -8.34375 L 14.84375 -7.328125 L 3.703125 -7.328125 L 3.703125 -7.015625 C 3.710938 -6.234375 3.84375 -5.488281 4.09375 -4.78125 C 4.351562 -4.070312 4.71875 -3.445312 5.1875 -2.90625 C 5.65625 -2.363281 6.21875 -1.925781 6.875 -1.59375 C 7.539062 -1.269531 8.273438 -1.109375 9.078125 -1.109375 C 9.992188 -1.097656 10.820312 -1.265625 11.5625 -1.609375 C 12.3125 -1.960938 12.945312 -2.472656 13.46875 -3.140625 L 14.515625 -2.359375 C 14.242188 -1.972656 13.921875 -1.613281 13.546875 -1.28125 C 13.171875 -0.957031 12.75 -0.679688 12.28125 -0.453125 C 11.820312 -0.222656 11.316406 -0.046875 10.765625 0.078125 C 10.210938 0.210938 9.628906 0.28125 9.015625 0.28125 Z M 8.703125 -13.765625 C 8.023438 -13.765625 7.40625 -13.632812 6.84375 -13.375 C 6.289062 -13.125 5.800781 -12.773438 5.375 -12.328125 C 4.957031 -11.878906 4.609375 -11.347656 4.328125 -10.734375 C 4.054688 -10.128906 3.867188 -9.460938 3.765625 -8.734375 L 13.203125 -8.734375 L 13.203125 -8.921875 C 13.179688 -9.535156 13.066406 -10.132812 12.859375 -10.71875 C 12.648438 -11.300781 12.351562 -11.816406 11.96875 -12.265625 C 11.59375 -12.710938 11.128906 -13.070312 10.578125 -13.34375 C 10.035156 -13.625 9.410156 -13.765625 8.703125 -13.765625 Z M 8.703125 -13.765625 "/></g></g></g><g fill="#ffffff" fill-opacity="1"><g transform="translate(541.295475, 162.227608)"><g><path d="M 4.171875 -14.890625 L 4.296875 -12.09375 C 4.816406 -13.019531 5.507812 -13.757812 6.375 -14.3125 C 7.25 -14.875 8.242188 -15.160156 9.359375 -15.171875 C 10.992188 -15.171875 12.238281 -14.679688 13.09375 -13.703125 C 13.957031 -12.722656 14.394531 -11.332031 14.40625 -9.53125 L 14.40625 0 L 12.765625 0 L 12.765625 -9.515625 C 12.753906 -10.878906 12.441406 -11.925781 11.828125 -12.65625 C 11.210938 -13.382812 10.253906 -13.742188 8.953125 -13.734375 C 8.421875 -13.734375 7.914062 -13.644531 7.4375 -13.46875 C 6.957031 -13.300781 6.515625 -13.0625 6.109375 -12.75 C 5.710938 -12.445312 5.359375 -12.085938 5.046875 -11.671875 C 4.742188 -11.265625 4.5 -10.820312 4.3125 -10.34375 L 4.3125 0 L 2.65625 0 L 2.65625 -14.890625 Z M 4.171875 -14.890625 "/></g></g></g><g fill="#ffffff" fill-opacity="1"><g transform="translate(558.206718, 162.227608)"><g><path d="M 4.203125 -1.390625 L 15.109375 -1.390625 L 15.109375 0 L 2.03125 0 L 2.046875 -1.21875 L 12.1875 -13.46875 L 2.359375 -13.46875 L 2.359375 -14.890625 L 14.390625 -14.890625 L 14.375 -13.671875 Z M 4.203125 -1.390625 "/></g></g></g><g fill="#ffffff" fill-opacity="1"><g transform="translate(575.117961, 162.227608)"><g><path d="M 12.890625 0 C 12.796875 -0.300781 12.71875 -0.632812 12.65625 -1 C 12.601562 -1.375 12.566406 -1.753906 12.546875 -2.140625 C 12.265625 -1.796875 11.9375 -1.476562 11.5625 -1.1875 C 11.1875 -0.894531 10.773438 -0.640625 10.328125 -0.421875 C 9.878906 -0.203125 9.398438 -0.03125 8.890625 0.09375 C 8.378906 0.21875 7.84375 0.28125 7.28125 0.28125 C 6.582031 0.28125 5.929688 0.179688 5.328125 -0.015625 C 4.734375 -0.222656 4.210938 -0.507812 3.765625 -0.875 C 3.316406 -1.25 2.96875 -1.691406 2.71875 -2.203125 C 2.46875 -2.722656 2.34375 -3.304688 2.34375 -3.953125 C 2.34375 -4.804688 2.53125 -5.53125 2.90625 -6.125 C 3.28125 -6.71875 3.785156 -7.203125 4.421875 -7.578125 C 5.066406 -7.953125 5.8125 -8.222656 6.65625 -8.390625 C 7.5 -8.566406 8.382812 -8.65625 9.3125 -8.65625 L 12.53125 -8.65625 L 12.53125 -10.34375 C 12.53125 -10.90625 12.421875 -11.398438 12.203125 -11.828125 C 11.992188 -12.253906 11.707031 -12.613281 11.34375 -12.90625 C 10.976562 -13.195312 10.546875 -13.414062 10.046875 -13.5625 C 9.546875 -13.707031 9.003906 -13.78125 8.421875 -13.78125 C 7.890625 -13.78125 7.382812 -13.707031 6.90625 -13.5625 C 6.425781 -13.425781 6 -13.226562 5.625 -12.96875 C 5.25 -12.71875 4.945312 -12.40625 4.71875 -12.03125 C 4.488281 -11.664062 4.363281 -11.25 4.34375 -10.78125 L 2.703125 -10.796875 C 2.722656 -11.421875 2.882812 -12 3.1875 -12.53125 C 3.5 -13.070312 3.914062 -13.535156 4.4375 -13.921875 C 4.96875 -14.304688 5.578125 -14.609375 6.265625 -14.828125 C 6.960938 -15.054688 7.703125 -15.171875 8.484375 -15.171875 C 9.273438 -15.171875 10.015625 -15.066406 10.703125 -14.859375 C 11.398438 -14.660156 12.003906 -14.359375 12.515625 -13.953125 C 13.023438 -13.546875 13.425781 -13.039062 13.71875 -12.4375 C 14.019531 -11.832031 14.175781 -11.128906 14.1875 -10.328125 L 14.1875 -3.109375 C 14.1875 -2.617188 14.226562 -2.117188 14.3125 -1.609375 C 14.40625 -1.109375 14.515625 -0.628906 14.640625 -0.171875 L 14.65625 0 Z M 7.453125 -1.1875 C 8.035156 -1.175781 8.585938 -1.242188 9.109375 -1.390625 C 9.640625 -1.535156 10.125 -1.738281 10.5625 -2 C 11.007812 -2.257812 11.398438 -2.570312 11.734375 -2.9375 C 12.078125 -3.300781 12.34375 -3.695312 12.53125 -4.125 L 12.53125 -7.390625 L 9.53125 -7.390625 C 8.8125 -7.390625 8.113281 -7.332031 7.4375 -7.21875 C 6.769531 -7.113281 6.179688 -6.929688 5.671875 -6.671875 C 5.160156 -6.421875 4.75 -6.082031 4.4375 -5.65625 C 4.132812 -5.238281 3.984375 -4.71875 3.984375 -4.09375 C 3.984375 -3.632812 4.070312 -3.226562 4.25 -2.875 C 4.4375 -2.519531 4.6875 -2.210938 5 -1.953125 C 5.3125 -1.703125 5.675781 -1.507812 6.09375 -1.375 C 6.519531 -1.25 6.972656 -1.1875 7.453125 -1.1875 Z M 7.453125 -1.1875 "/></g></g></g><g fill="#ffffff" fill-opacity="1"><g transform="translate(628.178214, 162.227608)"><g><path d="M 15.671875 -18.59375 L 9.296875 -18.59375 L 9.296875 0 L 7.6875 0 L 7.6875 -18.59375 L 1.296875 -18.59375 L 1.296875 -20.046875 L 15.671875 -20.046875 Z M 15.671875 -18.59375 "/></g></g></g><g fill="#ffffff" fill-opacity="1"><g transform="translate(645.089456, 162.227608)"><g><path d="M 12.515625 -15.171875 C 12.921875 -15.171875 13.332031 -15.144531 13.75 -15.09375 C 14.164062 -15.039062 14.507812 -14.96875 14.78125 -14.875 L 14.578125 -13.296875 C 14.191406 -13.378906 13.804688 -13.441406 13.421875 -13.484375 C 13.035156 -13.535156 12.640625 -13.5625 12.234375 -13.5625 C 10.835938 -13.5625 9.648438 -13.226562 8.671875 -12.5625 C 7.703125 -11.90625 7.023438 -10.894531 6.640625 -9.53125 L 6.640625 0 L 4.9375 0 L 4.9375 -14.890625 L 6.53125 -14.890625 L 6.640625 -12.296875 L 6.640625 -12 C 7.242188 -12.976562 8.046875 -13.75 9.046875 -14.3125 C 10.046875 -14.882812 11.203125 -15.171875 12.515625 -15.171875 Z M 12.515625 -15.171875 "/></g></g></g><g fill="#ffffff" fill-opacity="1"><g transform="translate(662.000699, 162.227608)"><g><path d="M 12.890625 0 C 12.796875 -0.300781 12.71875 -0.632812 12.65625 -1 C 12.601562 -1.375 12.566406 -1.753906 12.546875 -2.140625 C 12.265625 -1.796875 11.9375 -1.476562 11.5625 -1.1875 C 11.1875 -0.894531 10.773438 -0.640625 10.328125 -0.421875 C 9.878906 -0.203125 9.398438 -0.03125 8.890625 0.09375 C 8.378906 0.21875 7.84375 0.28125 7.28125 0.28125 C 6.582031 0.28125 5.929688 0.179688 5.328125 -0.015625 C 4.734375 -0.222656 4.210938 -0.507812 3.765625 -0.875 C 3.316406 -1.25 2.96875 -1.691406 2.71875 -2.203125 C 2.46875 -2.722656 2.34375 -3.304688 2.34375 -3.953125 C 2.34375 -4.804688 2.53125 -5.53125 2.90625 -6.125 C 3.28125 -6.71875 3.785156 -7.203125 4.421875 -7.578125 C 5.066406 -7.953125 5.8125 -8.222656 6.65625 -8.390625 C 7.5 -8.566406 8.382812 -8.65625 9.3125 -8.65625 L 12.53125 -8.65625 L 12.53125 -10.34375 C 12.53125 -10.90625 12.421875 -11.398438 12.203125 -11.828125 C 11.992188 -12.253906 11.707031 -12.613281 11.34375 -12.90625 C 10.976562 -13.195312 10.546875 -13.414062 10.046875 -13.5625 C 9.546875 -13.707031 9.003906 -13.78125 8.421875 -13.78125 C 7.890625 -13.78125 7.382812 -13.707031 6.90625 -13.5625 C 6.425781 -13.425781 6 -13.226562 5.625 -12.96875 C 5.25 -12.71875 4.945312 -12.40625 4.71875 -12.03125 C 4.488281 -11.664062 4.363281 -11.25 4.34375 -10.78125 L 2.703125 -10.796875 C 2.722656 -11.421875 2.882812 -12 3.1875 -12.53125 C 3.5 -13.070312 3.914062 -13.535156 4.4375 -13.921875 C 4.96875 -14.304688 5.578125 -14.609375 6.265625 -14.828125 C 6.960938 -15.054688 7.703125 -15.171875 8.484375 -15.171875 C 9.273438 -15.171875 10.015625 -15.066406 10.703125 -14.859375 C 11.398438 -14.660156 12.003906 -14.359375 12.515625 -13.953125 C 13.023438 -13.546875 13.425781 -13.039062 13.71875 -12.4375 C 14.019531 -11.832031 14.175781 -11.128906 14.1875 -10.328125 L 14.1875 -3.109375 C 14.1875 -2.617188 14.226562 -2.117188 14.3125 -1.609375 C 14.40625 -1.109375 14.515625 -0.628906 14.640625 -0.171875 L 14.65625 0 Z M 7.453125 -1.1875 C 8.035156 -1.175781 8.585938 -1.242188 9.109375 -1.390625 C 9.640625 -1.535156 10.125 -1.738281 10.5625 -2 C 11.007812 -2.257812 11.398438 -2.570312 11.734375 -2.9375 C 12.078125 -3.300781 12.34375 -3.695312 12.53125 -4.125 L 12.53125 -7.390625 L 9.53125 -7.390625 C 8.8125 -7.390625 8.113281 -7.332031 7.4375 -7.21875 C 6.769531 -7.113281 6.179688 -6.929688 5.671875 -6.671875 C 5.160156 -6.421875 4.75 -6.082031 4.4375 -5.65625 C 4.132812 -5.238281 3.984375 -4.71875 3.984375 -4.09375 C 3.984375 -3.632812 4.070312 -3.226562 4.25 -2.875 C 4.4375 -2.519531 4.6875 -2.210938 5 -1.953125 C 5.3125 -1.703125 5.675781 -1.507812 6.09375 -1.375 C 6.519531 -1.25 6.972656 -1.1875 7.453125 -1.1875 Z M 7.453125 -1.1875 "/></g></g></g><g fill="#ffffff" fill-opacity="1"><g transform="translate(678.911941, 162.227608)"><g><path d="M 13.046875 -3.78125 C 13.046875 -4.238281 12.929688 -4.632812 12.703125 -4.96875 C 12.472656 -5.3125 12.15625 -5.601562 11.75 -5.84375 C 11.351562 -6.09375 10.894531 -6.300781 10.375 -6.46875 C 9.851562 -6.632812 9.300781 -6.773438 8.71875 -6.890625 C 8 -7.035156 7.300781 -7.210938 6.625 -7.421875 C 5.957031 -7.628906 5.363281 -7.894531 4.84375 -8.21875 C 4.320312 -8.539062 3.90625 -8.929688 3.59375 -9.390625 C 3.28125 -9.859375 3.125 -10.429688 3.125 -11.109375 C 3.125 -11.753906 3.285156 -12.328125 3.609375 -12.828125 C 3.929688 -13.328125 4.351562 -13.75 4.875 -14.09375 C 5.394531 -14.445312 5.988281 -14.710938 6.65625 -14.890625 C 7.332031 -15.078125 8.019531 -15.171875 8.71875 -15.171875 C 9.53125 -15.171875 10.285156 -15.070312 10.984375 -14.875 C 11.691406 -14.675781 12.304688 -14.382812 12.828125 -14 C 13.359375 -13.625 13.78125 -13.160156 14.09375 -12.609375 C 14.40625 -12.054688 14.578125 -11.425781 14.609375 -10.71875 L 12.953125 -10.71875 C 12.929688 -11.195312 12.800781 -11.625 12.5625 -12 C 12.320312 -12.382812 12.003906 -12.703125 11.609375 -12.953125 C 11.222656 -13.210938 10.78125 -13.410156 10.28125 -13.546875 C 9.78125 -13.691406 9.257812 -13.765625 8.71875 -13.765625 C 8.226562 -13.765625 7.742188 -13.710938 7.265625 -13.609375 C 6.796875 -13.503906 6.375 -13.34375 6 -13.125 C 5.632812 -12.90625 5.335938 -12.632812 5.109375 -12.3125 C 4.890625 -11.988281 4.78125 -11.601562 4.78125 -11.15625 C 4.769531 -10.6875 4.875 -10.296875 5.09375 -9.984375 C 5.320312 -9.671875 5.628906 -9.40625 6.015625 -9.1875 C 6.398438 -8.96875 6.847656 -8.785156 7.359375 -8.640625 C 7.878906 -8.503906 8.4375 -8.378906 9.03125 -8.265625 C 9.78125 -8.109375 10.492188 -7.914062 11.171875 -7.6875 C 11.859375 -7.457031 12.460938 -7.175781 12.984375 -6.84375 C 13.515625 -6.507812 13.929688 -6.097656 14.234375 -5.609375 C 14.535156 -5.128906 14.6875 -4.550781 14.6875 -3.875 C 14.6875 -3.175781 14.519531 -2.566406 14.1875 -2.046875 C 13.851562 -1.523438 13.410156 -1.09375 12.859375 -0.75 C 12.316406 -0.40625 11.691406 -0.148438 10.984375 0.015625 C 10.285156 0.191406 9.566406 0.28125 8.828125 0.28125 C 7.984375 0.28125 7.191406 0.179688 6.453125 -0.015625 C 5.722656 -0.222656 5.070312 -0.515625 4.5 -0.890625 C 3.9375 -1.273438 3.484375 -1.742188 3.140625 -2.296875 C 2.804688 -2.847656 2.625 -3.472656 2.59375 -4.171875 L 4.25 -4.171875 C 4.300781 -3.585938 4.476562 -3.097656 4.78125 -2.703125 C 5.082031 -2.304688 5.445312 -1.988281 5.875 -1.75 C 6.3125 -1.519531 6.785156 -1.351562 7.296875 -1.25 C 7.816406 -1.15625 8.328125 -1.109375 8.828125 -1.109375 C 9.328125 -1.109375 9.828125 -1.160156 10.328125 -1.265625 C 10.828125 -1.378906 11.273438 -1.539062 11.671875 -1.75 C 12.078125 -1.96875 12.40625 -2.242188 12.65625 -2.578125 C 12.90625 -2.910156 13.035156 -3.3125 13.046875 -3.78125 Z M 13.046875 -3.78125 "/></g></g></g><g fill="#ffffff" fill-opacity="1"><g transform="translate(695.823184, 162.227608)"><g><path d="M 14.703125 -7.296875 C 14.703125 -6.328125 14.582031 -5.382812 14.34375 -4.46875 C 14.113281 -3.5625 13.753906 -2.753906 13.265625 -2.046875 C 12.785156 -1.347656 12.175781 -0.785156 11.4375 -0.359375 C 10.707031 0.0664062 9.84375 0.28125 8.84375 0.28125 C 7.914062 0.28125 7.066406 0.101562 6.296875 -0.25 C 5.523438 -0.613281 4.875 -1.132812 4.34375 -1.8125 L 4.34375 5.71875 L 2.703125 5.71875 L 2.703125 -14.890625 L 4.234375 -14.890625 L 4.3125 -12.859375 C 4.832031 -13.585938 5.472656 -14.15625 6.234375 -14.5625 C 6.992188 -14.96875 7.851562 -15.171875 8.8125 -15.171875 C 9.832031 -15.171875 10.710938 -14.960938 11.453125 -14.546875 C 12.191406 -14.128906 12.800781 -13.566406 13.28125 -12.859375 C 13.757812 -12.160156 14.113281 -11.351562 14.34375 -10.4375 C 14.582031 -9.519531 14.703125 -8.566406 14.703125 -7.578125 Z M 13.046875 -7.578125 C 13.046875 -8.328125 12.960938 -9.066406 12.796875 -9.796875 C 12.628906 -10.535156 12.363281 -11.195312 12 -11.78125 C 11.632812 -12.363281 11.160156 -12.832031 10.578125 -13.1875 C 9.992188 -13.550781 9.28125 -13.734375 8.4375 -13.734375 C 7.957031 -13.734375 7.507812 -13.664062 7.09375 -13.53125 C 6.675781 -13.40625 6.296875 -13.21875 5.953125 -12.96875 C 5.609375 -12.726562 5.300781 -12.441406 5.03125 -12.109375 C 4.757812 -11.773438 4.53125 -11.40625 4.34375 -11 L 4.34375 -3.625 C 4.726562 -2.851562 5.28125 -2.238281 6 -1.78125 C 6.71875 -1.332031 7.539062 -1.109375 8.46875 -1.109375 C 9.300781 -1.109375 10.007812 -1.289062 10.59375 -1.65625 C 11.175781 -2.03125 11.644531 -2.507812 12 -3.09375 C 12.363281 -3.675781 12.628906 -4.335938 12.796875 -5.078125 C 12.960938 -5.816406 13.046875 -6.554688 13.046875 -7.296875 Z M 13.046875 -7.578125 "/></g></g></g><g fill="#ffffff" fill-opacity="1"><g transform="translate(712.734426, 162.227608)"><g><path d="M 12.890625 0 C 12.796875 -0.300781 12.71875 -0.632812 12.65625 -1 C 12.601562 -1.375 12.566406 -1.753906 12.546875 -2.140625 C 12.265625 -1.796875 11.9375 -1.476562 11.5625 -1.1875 C 11.1875 -0.894531 10.773438 -0.640625 10.328125 -0.421875 C 9.878906 -0.203125 9.398438 -0.03125 8.890625 0.09375 C 8.378906 0.21875 7.84375 0.28125 7.28125 0.28125 C 6.582031 0.28125 5.929688 0.179688 5.328125 -0.015625 C 4.734375 -0.222656 4.210938 -0.507812 3.765625 -0.875 C 3.316406 -1.25 2.96875 -1.691406 2.71875 -2.203125 C 2.46875 -2.722656 2.34375 -3.304688 2.34375 -3.953125 C 2.34375 -4.804688 2.53125 -5.53125 2.90625 -6.125 C 3.28125 -6.71875 3.785156 -7.203125 4.421875 -7.578125 C 5.066406 -7.953125 5.8125 -8.222656 6.65625 -8.390625 C 7.5 -8.566406 8.382812 -8.65625 9.3125 -8.65625 L 12.53125 -8.65625 L 12.53125 -10.34375 C 12.53125 -10.90625 12.421875 -11.398438 12.203125 -11.828125 C 11.992188 -12.253906 11.707031 -12.613281 11.34375 -12.90625 C 10.976562 -13.195312 10.546875 -13.414062 10.046875 -13.5625 C 9.546875 -13.707031 9.003906 -13.78125 8.421875 -13.78125 C 7.890625 -13.78125 7.382812 -13.707031 6.90625 -13.5625 C 6.425781 -13.425781 6 -13.226562 5.625 -12.96875 C 5.25 -12.71875 4.945312 -12.40625 4.71875 -12.03125 C 4.488281 -11.664062 4.363281 -11.25 4.34375 -10.78125 L 2.703125 -10.796875 C 2.722656 -11.421875 2.882812 -12 3.1875 -12.53125 C 3.5 -13.070312 3.914062 -13.535156 4.4375 -13.921875 C 4.96875 -14.304688 5.578125 -14.609375 6.265625 -14.828125 C 6.960938 -15.054688 7.703125 -15.171875 8.484375 -15.171875 C 9.273438 -15.171875 10.015625 -15.066406 10.703125 -14.859375 C 11.398438 -14.660156 12.003906 -14.359375 12.515625 -13.953125 C 13.023438 -13.546875 13.425781 -13.039062 13.71875 -12.4375 C 14.019531 -11.832031 14.175781 -11.128906 14.1875 -10.328125 L 14.1875 -3.109375 C 14.1875 -2.617188 14.226562 -2.117188 14.3125 -1.609375 C 14.40625 -1.109375 14.515625 -0.628906 14.640625 -0.171875 L 14.65625 0 Z M 7.453125 -1.1875 C 8.035156 -1.175781 8.585938 -1.242188 9.109375 -1.390625 C 9.640625 -1.535156 10.125 -1.738281 10.5625 -2 C 11.007812 -2.257812 11.398438 -2.570312 11.734375 -2.9375 C 12.078125 -3.300781 12.34375 -3.695312 12.53125 -4.125 L 12.53125 -7.390625 L 9.53125 -7.390625 C 8.8125 -7.390625 8.113281 -7.332031 7.4375 -7.21875 C 6.769531 -7.113281 6.179688 -6.929688 5.671875 -6.671875 C 5.160156 -6.421875 4.75 -6.082031 4.4375 -5.65625 C 4.132812 -5.238281 3.984375 -4.71875 3.984375 -4.09375 C 3.984375 -3.632812 4.070312 -3.226562 4.25 -2.875 C 4.4375 -2.519531 4.6875 -2.210938 5 -1.953125 C 5.3125 -1.703125 5.675781 -1.507812 6.09375 -1.375 C 6.519531 -1.25 6.972656 -1.1875 7.453125 -1.1875 Z M 7.453125 -1.1875 "/></g></g></g><g fill="#ffffff" fill-opacity="1"><g transform="translate(729.645669, 162.227608)"><g><path d="M 12.515625 -15.171875 C 12.921875 -15.171875 13.332031 -15.144531 13.75 -15.09375 C 14.164062 -15.039062 14.507812 -14.96875 14.78125 -14.875 L 14.578125 -13.296875 C 14.191406 -13.378906 13.804688 -13.441406 13.421875 -13.484375 C 13.035156 -13.535156 12.640625 -13.5625 12.234375 -13.5625 C 10.835938 -13.5625 9.648438 -13.226562 8.671875 -12.5625 C 7.703125 -11.90625 7.023438 -10.894531 6.640625 -9.53125 L 6.640625 0 L 4.9375 0 L 4.9375 -14.890625 L 6.53125 -14.890625 L 6.640625 -12.296875 L 6.640625 -12 C 7.242188 -12.976562 8.046875 -13.75 9.046875 -14.3125 C 10.046875 -14.882812 11.203125 -15.171875 12.515625 -15.171875 Z M 12.515625 -15.171875 "/></g></g></g><g fill="#ffffff" fill-opacity="1"><g transform="translate(746.556911, 162.227608)"><g><path d="M 9.015625 0.28125 C 7.972656 0.28125 7.023438 0.0859375 6.171875 -0.296875 C 5.328125 -0.679688 4.597656 -1.203125 3.984375 -1.859375 C 3.367188 -2.523438 2.894531 -3.300781 2.5625 -4.1875 C 2.226562 -5.070312 2.054688 -6.015625 2.046875 -7.015625 L 2.046875 -7.609375 C 2.054688 -8.671875 2.234375 -9.660156 2.578125 -10.578125 C 2.921875 -11.492188 3.390625 -12.289062 3.984375 -12.96875 C 4.585938 -13.65625 5.289062 -14.191406 6.09375 -14.578125 C 6.90625 -14.972656 7.773438 -15.171875 8.703125 -15.171875 C 9.691406 -15.171875 10.566406 -14.988281 11.328125 -14.625 C 12.085938 -14.269531 12.726562 -13.78125 13.25 -13.15625 C 13.769531 -12.539062 14.164062 -11.820312 14.4375 -11 C 14.707031 -10.175781 14.84375 -9.289062 14.84375 -8.34375 L 14.84375 -7.328125 L 3.703125 -7.328125 L 3.703125 -7.015625 C 3.710938 -6.234375 3.84375 -5.488281 4.09375 -4.78125 C 4.351562 -4.070312 4.71875 -3.445312 5.1875 -2.90625 C 5.65625 -2.363281 6.21875 -1.925781 6.875 -1.59375 C 7.539062 -1.269531 8.273438 -1.109375 9.078125 -1.109375 C 9.992188 -1.097656 10.820312 -1.265625 11.5625 -1.609375 C 12.3125 -1.960938 12.945312 -2.472656 13.46875 -3.140625 L 14.515625 -2.359375 C 14.242188 -1.972656 13.921875 -1.613281 13.546875 -1.28125 C 13.171875 -0.957031 12.75 -0.679688 12.28125 -0.453125 C 11.820312 -0.222656 11.316406 -0.046875 10.765625 0.078125 C 10.210938 0.210938 9.628906 0.28125 9.015625 0.28125 Z M 8.703125 -13.765625 C 8.023438 -13.765625 7.40625 -13.632812 6.84375 -13.375 C 6.289062 -13.125 5.800781 -12.773438 5.375 -12.328125 C 4.957031 -11.878906 4.609375 -11.347656 4.328125 -10.734375 C 4.054688 -10.128906 3.867188 -9.460938 3.765625 -8.734375 L 13.203125 -8.734375 L 13.203125 -8.921875 C 13.179688 -9.535156 13.066406 -10.132812 12.859375 -10.71875 C 12.648438 -11.300781 12.351562 -11.816406 11.96875 -12.265625 C 11.59375 -12.710938 11.128906 -13.070312 10.578125 -13.34375 C 10.035156 -13.625 9.410156 -13.765625 8.703125 -13.765625 Z M 8.703125 -13.765625 "/></g></g></g><g fill="#ffffff" fill-opacity="1"><g transform="translate(763.468154, 162.227608)"><g><path d="M 4.171875 -14.890625 L 4.296875 -12.09375 C 4.816406 -13.019531 5.507812 -13.757812 6.375 -14.3125 C 7.25 -14.875 8.242188 -15.160156 9.359375 -15.171875 C 10.992188 -15.171875 12.238281 -14.679688 13.09375 -13.703125 C 13.957031 -12.722656 14.394531 -11.332031 14.40625 -9.53125 L 14.40625 0 L 12.765625 0 L 12.765625 -9.515625 C 12.753906 -10.878906 12.441406 -11.925781 11.828125 -12.65625 C 11.210938 -13.382812 10.253906 -13.742188 8.953125 -13.734375 C 8.421875 -13.734375 7.914062 -13.644531 7.4375 -13.46875 C 6.957031 -13.300781 6.515625 -13.0625 6.109375 -12.75 C 5.710938 -12.445312 5.359375 -12.085938 5.046875 -11.671875 C 4.742188 -11.265625 4.5 -10.820312 4.3125 -10.34375 L 4.3125 0 L 2.65625 0 L 2.65625 -14.890625 Z M 4.171875 -14.890625 "/></g></g></g><g fill="#ffffff" fill-opacity="1"><g transform="translate(780.379396, 162.227608)"><g><path d="M 4.203125 -1.390625 L 15.109375 -1.390625 L 15.109375 0 L 2.03125 0 L 2.046875 -1.21875 L 12.1875 -13.46875 L 2.359375 -13.46875 L 2.359375 -14.890625 L 14.390625 -14.890625 L 14.375 -13.671875 Z M 4.203125 -1.390625 "/></g></g></g><g fill="#ffffff" fill-opacity="1"><g transform="translate(797.290639, 162.227608)"><g><path d="M 12.890625 0 C 12.796875 -0.300781 12.71875 -0.632812 12.65625 -1 C 12.601562 -1.375 12.566406 -1.753906 12.546875 -2.140625 C 12.265625 -1.796875 11.9375 -1.476562 11.5625 -1.1875 C 11.1875 -0.894531 10.773438 -0.640625 10.328125 -0.421875 C 9.878906 -0.203125 9.398438 -0.03125 8.890625 0.09375 C 8.378906 0.21875 7.84375 0.28125 7.28125 0.28125 C 6.582031 0.28125 5.929688 0.179688 5.328125 -0.015625 C 4.734375 -0.222656 4.210938 -0.507812 3.765625 -0.875 C 3.316406 -1.25 2.96875 -1.691406 2.71875 -2.203125 C 2.46875 -2.722656 2.34375 -3.304688 2.34375 -3.953125 C 2.34375 -4.804688 2.53125 -5.53125 2.90625 -6.125 C 3.28125 -6.71875 3.785156 -7.203125 4.421875 -7.578125 C 5.066406 -7.953125 5.8125 -8.222656 6.65625 -8.390625 C 7.5 -8.566406 8.382812 -8.65625 9.3125 -8.65625 L 12.53125 -8.65625 L 12.53125 -10.34375 C 12.53125 -10.90625 12.421875 -11.398438 12.203125 -11.828125 C 11.992188 -12.253906 11.707031 -12.613281 11.34375 -12.90625 C 10.976562 -13.195312 10.546875 -13.414062 10.046875 -13.5625 C 9.546875 -13.707031 9.003906 -13.78125 8.421875 -13.78125 C 7.890625 -13.78125 7.382812 -13.707031 6.90625 -13.5625 C 6.425781 -13.425781 6 -13.226562 5.625 -12.96875 C 5.25 -12.71875 4.945312 -12.40625 4.71875 -12.03125 C 4.488281 -11.664062 4.363281 -11.25 4.34375 -10.78125 L 2.703125 -10.796875 C 2.722656 -11.421875 2.882812 -12 3.1875 -12.53125 C 3.5 -13.070312 3.914062 -13.535156 4.4375 -13.921875 C 4.96875 -14.304688 5.578125 -14.609375 6.265625 -14.828125 C 6.960938 -15.054688 7.703125 -15.171875 8.484375 -15.171875 C 9.273438 -15.171875 10.015625 -15.066406 10.703125 -14.859375 C 11.398438 -14.660156 12.003906 -14.359375 12.515625 -13.953125 C 13.023438 -13.546875 13.425781 -13.039062 13.71875 -12.4375 C 14.019531 -11.832031 14.175781 -11.128906 14.1875 -10.328125 L 14.1875 -3.109375 C 14.1875 -2.617188 14.226562 -2.117188 14.3125 -1.609375 C 14.40625 -1.109375 14.515625 -0.628906 14.640625 -0.171875 L 14.65625 0 Z M 7.453125 -1.1875 C 8.035156 -1.175781 8.585938 -1.242188 9.109375 -1.390625 C 9.640625 -1.535156 10.125 -1.738281 10.5625 -2 C 11.007812 -2.257812 11.398438 -2.570312 11.734375 -2.9375 C 12.078125 -3.300781 12.34375 -3.695312 12.53125 -4.125 L 12.53125 -7.390625 L 9.53125 -7.390625 C 8.8125 -7.390625 8.113281 -7.332031 7.4375 -7.21875 C 6.769531 -7.113281 6.179688 -6.929688 5.671875 -6.671875 C 5.160156 -6.421875 4.75 -6.082031 4.4375 -5.65625 C 4.132812 -5.238281 3.984375 -4.71875 3.984375 -4.09375 C 3.984375 -3.632812 4.070312 -3.226562 4.25 -2.875 C 4.4375 -2.519531 4.6875 -2.210938 5 -1.953125 C 5.3125 -1.703125 5.675781 -1.507812 6.09375 -1.375 C 6.519531 -1.25 6.972656 -1.1875 7.453125 -1.1875 Z M 7.453125 -1.1875 "/></g></g></g><g clip-path="url(#e521f40191)"><g clip-path="url(#e0286a3ff5)"><path fill="#ffbd59" d="M 596.546875 156.503906 L 604.207031 156.503906 L 604.207031 164.164062 L 596.546875 164.164062 Z M 596.546875 156.503906 " fill-opacity="1" fill-rule="nonzero"/></g></g><g clip-path="url(#fbeb2de6b9)"><g clip-path="url(#86297e96bc)"><path stroke-linecap="butt" transform="matrix(0.73235, 0, 0, 0.73235, 596.548146, 156.505025)" fill="none" stroke-linejoin="miter" d="M 5.108099 -0.0015272 C 2.286489 -0.0015272 -0.00173507 2.286697 -0.00173507 5.108307 C -0.00173507 7.929916 2.286489 10.218141 5.108099 10.218141 C 7.929709 10.218141 10.217933 7.929916 10.217933 5.108307 C 10.217933 2.286697 7.929709 -0.0015272 5.108099 -0.0015272 " stroke="#ffffff" stroke-width="4" stroke-opacity="1" stroke-miterlimit="4"/></g></g><g clip-path="url(#bfaaafa30c)"><g clip-path="url(#2554ec44d4)"><path fill="#ffbd59" d="M 818.722656 156.503906 L 826.382812 156.503906 L 826.382812 164.164062 L 818.722656 164.164062 Z M 818.722656 156.503906 " fill-opacity="1" fill-rule="nonzero"/></g></g><g clip-path="url(#93e5258834)"><g clip-path="url(#07eee2f2f6)"><path stroke-linecap="butt" transform="matrix(0.73235, 0, 0, 0.73235, 818.724189, 156.505025)" fill="none" stroke-linejoin="miter" d="M 5.107741 -0.0015272 C 2.286132 -0.0015272 -0.00209245 2.286697 -0.00209245 5.108307 C -0.00209245 7.929916 2.286132 10.218141 5.107741 10.218141 C 7.929351 10.218141 10.217575 7.929916 10.217575 5.108307 C 10.217575 2.286697 7.929351 -0.0015272 5.107741 -0.0015272 " stroke="#ffffff" stroke-width="4" stroke-opacity="1" stroke-miterlimit="4"/></g></g></svg>